<?xml version="1.0" encoding="utf-8" standalone="no"?>
<!DOCTYPE svg PUBLIC "-//W3C//DTD SVG 1.1//EN"
  "http://www.w3.org/Graphics/SVG/1.1/DTD/svg11.dtd">
<!-- Created with matplotlib (http://matplotlib.org/) -->
<svg height="413.965156pt" version="1.1" viewBox="0 0 830.559844 413.965156" width="830.559844pt" xmlns="http://www.w3.org/2000/svg" xmlns:xlink="http://www.w3.org/1999/xlink">
 <defs>
  <style type="text/css">
*{stroke-linecap:butt;stroke-linejoin:round;}
  </style>
 </defs>
 <g id="figure_1">
  <g id="patch_1">
   <path d="M 0 413.965156 
L 830.559844 413.965156 
L 830.559844 0 
L 0 0 
z
" style="fill:#ffffff;"/>
  </g>
  <g id="axes_1">
   <g id="patch_2">
    <path d="M 42.159844 376.56 
L 397.250753 376.56 
L 397.250753 50.4 
L 42.159844 50.4 
z
" style="fill:#eaeaf2;"/>
   </g>
   <g id="matplotlib.axis_1">
    <g id="xtick_1">
     <g id="line2d_1">
      <path clip-path="url(#p11a010de32)" d="M 58.30034 376.56 
L 58.30034 50.4 
" style="fill:none;stroke:#ffffff;stroke-linecap:round;"/>
     </g>
     <g id="line2d_2"/>
     <g id="text_1">
      <!-- 0 -->
      <defs>
       <path d="M 4.15625 35.296875 
Q 4.15625 48 6.765625 55.734375 
Q 9.375 63.484375 14.515625 67.671875 
Q 19.671875 71.875 27.484375 71.875 
Q 33.25 71.875 37.59375 69.546875 
Q 41.9375 67.234375 44.765625 62.859375 
Q 47.609375 58.5 49.21875 52.21875 
Q 50.828125 45.953125 50.828125 35.296875 
Q 50.828125 22.703125 48.234375 14.96875 
Q 45.65625 7.234375 40.5 3 
Q 35.359375 -1.21875 27.484375 -1.21875 
Q 17.140625 -1.21875 11.234375 6.203125 
Q 4.15625 15.140625 4.15625 35.296875 
z
M 13.1875 35.296875 
Q 13.1875 17.671875 17.3125 11.828125 
Q 21.4375 6 27.484375 6 
Q 33.546875 6 37.671875 11.859375 
Q 41.796875 17.71875 41.796875 35.296875 
Q 41.796875 52.984375 37.671875 58.78125 
Q 33.546875 64.59375 27.390625 64.59375 
Q 21.34375 64.59375 17.71875 59.46875 
Q 13.1875 52.9375 13.1875 35.296875 
z
" id="ArialMT-30"/>
      </defs>
      <g style="fill:#262626;" transform="translate(55.519871 390.717812)scale(0.1 -0.1)">
       <use xlink:href="#ArialMT-30"/>
      </g>
     </g>
    </g>
    <g id="xtick_2">
     <g id="line2d_3">
      <path clip-path="url(#p11a010de32)" d="M 122.92695 376.56 
L 122.92695 50.4 
" style="fill:none;stroke:#ffffff;stroke-linecap:round;"/>
     </g>
     <g id="line2d_4"/>
     <g id="text_2">
      <!-- 200 -->
      <defs>
       <path d="M 50.34375 8.453125 
L 50.34375 0 
L 3.03125 0 
Q 2.9375 3.171875 4.046875 6.109375 
Q 5.859375 10.9375 9.828125 15.625 
Q 13.8125 20.3125 21.34375 26.46875 
Q 33.015625 36.03125 37.109375 41.625 
Q 41.21875 47.21875 41.21875 52.203125 
Q 41.21875 57.421875 37.46875 61 
Q 33.734375 64.59375 27.734375 64.59375 
Q 21.390625 64.59375 17.578125 60.78125 
Q 13.765625 56.984375 13.71875 50.25 
L 4.6875 51.171875 
Q 5.609375 61.28125 11.65625 66.578125 
Q 17.71875 71.875 27.9375 71.875 
Q 38.234375 71.875 44.234375 66.15625 
Q 50.25 60.453125 50.25 52 
Q 50.25 47.703125 48.484375 43.546875 
Q 46.734375 39.40625 42.65625 34.8125 
Q 38.578125 30.21875 29.109375 22.21875 
Q 21.1875 15.578125 18.9375 13.203125 
Q 16.703125 10.84375 15.234375 8.453125 
z
" id="ArialMT-32"/>
      </defs>
      <g style="fill:#262626;" transform="translate(114.585543 390.717812)scale(0.1 -0.1)">
       <use xlink:href="#ArialMT-32"/>
       <use x="55.615234" xlink:href="#ArialMT-30"/>
       <use x="111.230469" xlink:href="#ArialMT-30"/>
      </g>
     </g>
    </g>
    <g id="xtick_3">
     <g id="line2d_5">
      <path clip-path="url(#p11a010de32)" d="M 187.55356 376.56 
L 187.55356 50.4 
" style="fill:none;stroke:#ffffff;stroke-linecap:round;"/>
     </g>
     <g id="line2d_6"/>
     <g id="text_3">
      <!-- 400 -->
      <defs>
       <path d="M 32.328125 0 
L 32.328125 17.140625 
L 1.265625 17.140625 
L 1.265625 25.203125 
L 33.9375 71.578125 
L 41.109375 71.578125 
L 41.109375 25.203125 
L 50.78125 25.203125 
L 50.78125 17.140625 
L 41.109375 17.140625 
L 41.109375 0 
z
M 32.328125 25.203125 
L 32.328125 57.46875 
L 9.90625 25.203125 
z
" id="ArialMT-34"/>
      </defs>
      <g style="fill:#262626;" transform="translate(179.212154 390.717812)scale(0.1 -0.1)">
       <use xlink:href="#ArialMT-34"/>
       <use x="55.615234" xlink:href="#ArialMT-30"/>
       <use x="111.230469" xlink:href="#ArialMT-30"/>
      </g>
     </g>
    </g>
    <g id="xtick_4">
     <g id="line2d_7">
      <path clip-path="url(#p11a010de32)" d="M 252.18017 376.56 
L 252.18017 50.4 
" style="fill:none;stroke:#ffffff;stroke-linecap:round;"/>
     </g>
     <g id="line2d_8"/>
     <g id="text_4">
      <!-- 600 -->
      <defs>
       <path d="M 49.75 54.046875 
L 41.015625 53.375 
Q 39.84375 58.546875 37.703125 60.890625 
Q 34.125 64.65625 28.90625 64.65625 
Q 24.703125 64.65625 21.53125 62.3125 
Q 17.390625 59.28125 14.984375 53.46875 
Q 12.59375 47.65625 12.5 36.921875 
Q 15.671875 41.75 20.265625 44.09375 
Q 24.859375 46.4375 29.890625 46.4375 
Q 38.671875 46.4375 44.84375 39.96875 
Q 51.03125 33.5 51.03125 23.25 
Q 51.03125 16.5 48.125 10.71875 
Q 45.21875 4.9375 40.140625 1.859375 
Q 35.0625 -1.21875 28.609375 -1.21875 
Q 17.625 -1.21875 10.6875 6.859375 
Q 3.765625 14.9375 3.765625 33.5 
Q 3.765625 54.25 11.421875 63.671875 
Q 18.109375 71.875 29.4375 71.875 
Q 37.890625 71.875 43.28125 67.140625 
Q 48.6875 62.40625 49.75 54.046875 
z
M 13.875 23.1875 
Q 13.875 18.65625 15.796875 14.5 
Q 17.71875 10.359375 21.1875 8.171875 
Q 24.65625 6 28.46875 6 
Q 34.03125 6 38.03125 10.484375 
Q 42.046875 14.984375 42.046875 22.703125 
Q 42.046875 30.125 38.078125 34.390625 
Q 34.125 38.671875 28.125 38.671875 
Q 22.171875 38.671875 18.015625 34.390625 
Q 13.875 30.125 13.875 23.1875 
z
" id="ArialMT-36"/>
      </defs>
      <g style="fill:#262626;" transform="translate(243.838764 390.717812)scale(0.1 -0.1)">
       <use xlink:href="#ArialMT-36"/>
       <use x="55.615234" xlink:href="#ArialMT-30"/>
       <use x="111.230469" xlink:href="#ArialMT-30"/>
      </g>
     </g>
    </g>
    <g id="xtick_5">
     <g id="line2d_9">
      <path clip-path="url(#p11a010de32)" d="M 316.80678 376.56 
L 316.80678 50.4 
" style="fill:none;stroke:#ffffff;stroke-linecap:round;"/>
     </g>
     <g id="line2d_10"/>
     <g id="text_5">
      <!-- 800 -->
      <defs>
       <path d="M 17.671875 38.8125 
Q 12.203125 40.828125 9.5625 44.53125 
Q 6.9375 48.25 6.9375 53.421875 
Q 6.9375 61.234375 12.546875 66.546875 
Q 18.171875 71.875 27.484375 71.875 
Q 36.859375 71.875 42.578125 66.421875 
Q 48.296875 60.984375 48.296875 53.171875 
Q 48.296875 48.1875 45.671875 44.5 
Q 43.0625 40.828125 37.75 38.8125 
Q 44.34375 36.671875 47.78125 31.875 
Q 51.21875 27.09375 51.21875 20.453125 
Q 51.21875 11.28125 44.71875 5.03125 
Q 38.234375 -1.21875 27.640625 -1.21875 
Q 17.046875 -1.21875 10.546875 5.046875 
Q 4.046875 11.328125 4.046875 20.703125 
Q 4.046875 27.6875 7.59375 32.390625 
Q 11.140625 37.109375 17.671875 38.8125 
z
M 15.921875 53.71875 
Q 15.921875 48.640625 19.1875 45.40625 
Q 22.46875 42.1875 27.6875 42.1875 
Q 32.765625 42.1875 36.015625 45.375 
Q 39.265625 48.578125 39.265625 53.21875 
Q 39.265625 58.0625 35.90625 61.359375 
Q 32.5625 64.65625 27.59375 64.65625 
Q 22.5625 64.65625 19.234375 61.421875 
Q 15.921875 58.203125 15.921875 53.71875 
z
M 13.09375 20.65625 
Q 13.09375 16.890625 14.875 13.375 
Q 16.65625 9.859375 20.171875 7.921875 
Q 23.6875 6 27.734375 6 
Q 34.03125 6 38.125 10.046875 
Q 42.234375 14.109375 42.234375 20.359375 
Q 42.234375 26.703125 38.015625 30.859375 
Q 33.796875 35.015625 27.4375 35.015625 
Q 21.234375 35.015625 17.15625 30.90625 
Q 13.09375 26.8125 13.09375 20.65625 
z
" id="ArialMT-38"/>
      </defs>
      <g style="fill:#262626;" transform="translate(308.465374 390.717812)scale(0.1 -0.1)">
       <use xlink:href="#ArialMT-38"/>
       <use x="55.615234" xlink:href="#ArialMT-30"/>
       <use x="111.230469" xlink:href="#ArialMT-30"/>
      </g>
     </g>
    </g>
    <g id="xtick_6">
     <g id="line2d_11">
      <path clip-path="url(#p11a010de32)" d="M 381.43339 376.56 
L 381.43339 50.4 
" style="fill:none;stroke:#ffffff;stroke-linecap:round;"/>
     </g>
     <g id="line2d_12"/>
     <g id="text_6">
      <!-- 1000 -->
      <defs>
       <path d="M 37.25 0 
L 28.46875 0 
L 28.46875 56 
Q 25.296875 52.984375 20.140625 49.953125 
Q 14.984375 46.921875 10.890625 45.40625 
L 10.890625 53.90625 
Q 18.265625 57.375 23.78125 62.296875 
Q 29.296875 67.234375 31.59375 71.875 
L 37.25 71.875 
z
" id="ArialMT-31"/>
      </defs>
      <g style="fill:#262626;" transform="translate(370.311515 390.717812)scale(0.1 -0.1)">
       <use xlink:href="#ArialMT-31"/>
       <use x="55.615234" xlink:href="#ArialMT-30"/>
       <use x="111.230469" xlink:href="#ArialMT-30"/>
       <use x="166.845703" xlink:href="#ArialMT-30"/>
      </g>
     </g>
    </g>
    <g id="text_7">
     <!-- epoch -->
     <defs>
      <path d="M 42.09375 16.703125 
L 51.171875 15.578125 
Q 49.03125 7.625 43.21875 3.21875 
Q 37.40625 -1.171875 28.375 -1.171875 
Q 17 -1.171875 10.328125 5.828125 
Q 3.65625 12.84375 3.65625 25.484375 
Q 3.65625 38.578125 10.390625 45.796875 
Q 17.140625 53.03125 27.875 53.03125 
Q 38.28125 53.03125 44.875 45.953125 
Q 51.46875 38.875 51.46875 26.03125 
Q 51.46875 25.25 51.421875 23.6875 
L 12.75 23.6875 
Q 13.234375 15.140625 17.578125 10.59375 
Q 21.921875 6.0625 28.421875 6.0625 
Q 33.25 6.0625 36.671875 8.59375 
Q 40.09375 11.140625 42.09375 16.703125 
z
M 13.234375 30.90625 
L 42.1875 30.90625 
Q 41.609375 37.453125 38.875 40.71875 
Q 34.671875 45.796875 27.984375 45.796875 
Q 21.921875 45.796875 17.796875 41.75 
Q 13.671875 37.703125 13.234375 30.90625 
z
" id="ArialMT-65"/>
      <path d="M 6.59375 -19.875 
L 6.59375 51.859375 
L 14.59375 51.859375 
L 14.59375 45.125 
Q 17.4375 49.078125 21 51.046875 
Q 24.5625 53.03125 29.640625 53.03125 
Q 36.28125 53.03125 41.359375 49.609375 
Q 46.4375 46.1875 49.015625 39.953125 
Q 51.609375 33.734375 51.609375 26.3125 
Q 51.609375 18.359375 48.75 11.984375 
Q 45.90625 5.609375 40.453125 2.21875 
Q 35.015625 -1.171875 29 -1.171875 
Q 24.609375 -1.171875 21.109375 0.6875 
Q 17.625 2.546875 15.375 5.375 
L 15.375 -19.875 
z
M 14.546875 25.640625 
Q 14.546875 15.625 18.59375 10.84375 
Q 22.65625 6.0625 28.421875 6.0625 
Q 34.28125 6.0625 38.453125 11.015625 
Q 42.625 15.96875 42.625 26.375 
Q 42.625 36.28125 38.546875 41.203125 
Q 34.46875 46.140625 28.8125 46.140625 
Q 23.1875 46.140625 18.859375 40.890625 
Q 14.546875 35.640625 14.546875 25.640625 
z
" id="ArialMT-70"/>
      <path d="M 3.328125 25.921875 
Q 3.328125 40.328125 11.328125 47.265625 
Q 18.015625 53.03125 27.640625 53.03125 
Q 38.328125 53.03125 45.109375 46.015625 
Q 51.90625 39.015625 51.90625 26.65625 
Q 51.90625 16.65625 48.90625 10.90625 
Q 45.90625 5.171875 40.15625 2 
Q 34.421875 -1.171875 27.640625 -1.171875 
Q 16.75 -1.171875 10.03125 5.8125 
Q 3.328125 12.796875 3.328125 25.921875 
z
M 12.359375 25.921875 
Q 12.359375 15.96875 16.703125 11.015625 
Q 21.046875 6.0625 27.640625 6.0625 
Q 34.1875 6.0625 38.53125 11.03125 
Q 42.875 16.015625 42.875 26.21875 
Q 42.875 35.84375 38.5 40.796875 
Q 34.125 45.75 27.640625 45.75 
Q 21.046875 45.75 16.703125 40.8125 
Q 12.359375 35.890625 12.359375 25.921875 
z
" id="ArialMT-6f"/>
      <path d="M 40.4375 19 
L 49.078125 17.875 
Q 47.65625 8.9375 41.8125 3.875 
Q 35.984375 -1.171875 27.484375 -1.171875 
Q 16.84375 -1.171875 10.375 5.78125 
Q 3.90625 12.75 3.90625 25.734375 
Q 3.90625 34.125 6.6875 40.421875 
Q 9.46875 46.734375 15.15625 49.875 
Q 20.84375 53.03125 27.546875 53.03125 
Q 35.984375 53.03125 41.359375 48.75 
Q 46.734375 44.484375 48.25 36.625 
L 39.703125 35.296875 
Q 38.484375 40.53125 35.375 43.15625 
Q 32.28125 45.796875 27.875 45.796875 
Q 21.234375 45.796875 17.078125 41.03125 
Q 12.9375 36.28125 12.9375 25.984375 
Q 12.9375 15.53125 16.9375 10.796875 
Q 20.953125 6.0625 27.390625 6.0625 
Q 32.5625 6.0625 36.03125 9.234375 
Q 39.5 12.40625 40.4375 19 
z
" id="ArialMT-63"/>
      <path d="M 6.59375 0 
L 6.59375 71.578125 
L 15.375 71.578125 
L 15.375 45.90625 
Q 21.53125 53.03125 30.90625 53.03125 
Q 36.671875 53.03125 40.921875 50.75 
Q 45.171875 48.484375 47 44.484375 
Q 48.828125 40.484375 48.828125 32.859375 
L 48.828125 0 
L 40.046875 0 
L 40.046875 32.859375 
Q 40.046875 39.453125 37.1875 42.453125 
Q 34.328125 45.453125 29.109375 45.453125 
Q 25.203125 45.453125 21.75 43.421875 
Q 18.3125 41.40625 16.84375 37.9375 
Q 15.375 34.46875 15.375 28.375 
L 15.375 0 
z
" id="ArialMT-68"/>
     </defs>
     <g style="fill:#262626;" transform="translate(204.721236 404.578906)scale(0.11 -0.11)">
      <use xlink:href="#ArialMT-65"/>
      <use x="55.615234" xlink:href="#ArialMT-70"/>
      <use x="111.230469" xlink:href="#ArialMT-6f"/>
      <use x="166.845703" xlink:href="#ArialMT-63"/>
      <use x="216.845703" xlink:href="#ArialMT-68"/>
     </g>
    </g>
   </g>
   <g id="matplotlib.axis_2">
    <g id="ytick_1">
     <g id="line2d_13">
      <path clip-path="url(#p11a010de32)" d="M 42.159844 358.785167 
L 397.250753 358.785167 
" style="fill:none;stroke:#ffffff;stroke-linecap:round;"/>
     </g>
     <g id="line2d_14"/>
     <g id="text_8">
      <!-- 0.1 -->
      <defs>
       <path d="M 9.078125 0 
L 9.078125 10.015625 
L 19.09375 10.015625 
L 19.09375 0 
z
" id="ArialMT-2e"/>
      </defs>
      <g style="fill:#262626;" transform="translate(21.259844 362.364073)scale(0.1 -0.1)">
       <use xlink:href="#ArialMT-30"/>
       <use x="55.615234" xlink:href="#ArialMT-2e"/>
       <use x="83.398438" xlink:href="#ArialMT-31"/>
      </g>
     </g>
    </g>
    <g id="ytick_2">
     <g id="line2d_15">
      <path clip-path="url(#p11a010de32)" d="M 42.159844 320.884265 
L 397.250753 320.884265 
" style="fill:none;stroke:#ffffff;stroke-linecap:round;"/>
     </g>
     <g id="line2d_16"/>
     <g id="text_9">
      <!-- 0.2 -->
      <g style="fill:#262626;" transform="translate(21.259844 324.463171)scale(0.1 -0.1)">
       <use xlink:href="#ArialMT-30"/>
       <use x="55.615234" xlink:href="#ArialMT-2e"/>
       <use x="83.398438" xlink:href="#ArialMT-32"/>
      </g>
     </g>
    </g>
    <g id="ytick_3">
     <g id="line2d_17">
      <path clip-path="url(#p11a010de32)" d="M 42.159844 282.983363 
L 397.250753 282.983363 
" style="fill:none;stroke:#ffffff;stroke-linecap:round;"/>
     </g>
     <g id="line2d_18"/>
     <g id="text_10">
      <!-- 0.3 -->
      <defs>
       <path d="M 4.203125 18.890625 
L 12.984375 20.0625 
Q 14.5 12.59375 18.140625 9.296875 
Q 21.78125 6 27 6 
Q 33.203125 6 37.46875 10.296875 
Q 41.75 14.59375 41.75 20.953125 
Q 41.75 27 37.796875 30.921875 
Q 33.84375 34.859375 27.734375 34.859375 
Q 25.25 34.859375 21.53125 33.890625 
L 22.515625 41.609375 
Q 23.390625 41.5 23.921875 41.5 
Q 29.546875 41.5 34.03125 44.421875 
Q 38.53125 47.359375 38.53125 53.46875 
Q 38.53125 58.296875 35.25 61.46875 
Q 31.984375 64.65625 26.8125 64.65625 
Q 21.6875 64.65625 18.265625 61.421875 
Q 14.84375 58.203125 13.875 51.765625 
L 5.078125 53.328125 
Q 6.6875 62.15625 12.390625 67.015625 
Q 18.109375 71.875 26.609375 71.875 
Q 32.46875 71.875 37.390625 69.359375 
Q 42.328125 66.84375 44.9375 62.5 
Q 47.5625 58.15625 47.5625 53.265625 
Q 47.5625 48.640625 45.0625 44.828125 
Q 42.578125 41.015625 37.703125 38.765625 
Q 44.046875 37.3125 47.5625 32.6875 
Q 51.078125 28.078125 51.078125 21.140625 
Q 51.078125 11.765625 44.234375 5.25 
Q 37.40625 -1.265625 26.953125 -1.265625 
Q 17.53125 -1.265625 11.296875 4.34375 
Q 5.078125 9.96875 4.203125 18.890625 
z
" id="ArialMT-33"/>
      </defs>
      <g style="fill:#262626;" transform="translate(21.259844 286.562269)scale(0.1 -0.1)">
       <use xlink:href="#ArialMT-30"/>
       <use x="55.615234" xlink:href="#ArialMT-2e"/>
       <use x="83.398438" xlink:href="#ArialMT-33"/>
      </g>
     </g>
    </g>
    <g id="ytick_4">
     <g id="line2d_19">
      <path clip-path="url(#p11a010de32)" d="M 42.159844 245.082461 
L 397.250753 245.082461 
" style="fill:none;stroke:#ffffff;stroke-linecap:round;"/>
     </g>
     <g id="line2d_20"/>
     <g id="text_11">
      <!-- 0.4 -->
      <g style="fill:#262626;" transform="translate(21.259844 248.661368)scale(0.1 -0.1)">
       <use xlink:href="#ArialMT-30"/>
       <use x="55.615234" xlink:href="#ArialMT-2e"/>
       <use x="83.398438" xlink:href="#ArialMT-34"/>
      </g>
     </g>
    </g>
    <g id="ytick_5">
     <g id="line2d_21">
      <path clip-path="url(#p11a010de32)" d="M 42.159844 207.18156 
L 397.250753 207.18156 
" style="fill:none;stroke:#ffffff;stroke-linecap:round;"/>
     </g>
     <g id="line2d_22"/>
     <g id="text_12">
      <!-- 0.5 -->
      <defs>
       <path d="M 4.15625 18.75 
L 13.375 19.53125 
Q 14.40625 12.796875 18.140625 9.390625 
Q 21.875 6 27.15625 6 
Q 33.5 6 37.890625 10.78125 
Q 42.28125 15.578125 42.28125 23.484375 
Q 42.28125 31 38.0625 35.34375 
Q 33.84375 39.703125 27 39.703125 
Q 22.75 39.703125 19.328125 37.765625 
Q 15.921875 35.84375 13.96875 32.765625 
L 5.71875 33.84375 
L 12.640625 70.609375 
L 48.25 70.609375 
L 48.25 62.203125 
L 19.671875 62.203125 
L 15.828125 42.96875 
Q 22.265625 47.46875 29.34375 47.46875 
Q 38.71875 47.46875 45.15625 40.96875 
Q 51.609375 34.46875 51.609375 24.265625 
Q 51.609375 14.546875 45.953125 7.46875 
Q 39.0625 -1.21875 27.15625 -1.21875 
Q 17.390625 -1.21875 11.203125 4.25 
Q 5.03125 9.71875 4.15625 18.75 
z
" id="ArialMT-35"/>
      </defs>
      <g style="fill:#262626;" transform="translate(21.259844 210.760466)scale(0.1 -0.1)">
       <use xlink:href="#ArialMT-30"/>
       <use x="55.615234" xlink:href="#ArialMT-2e"/>
       <use x="83.398438" xlink:href="#ArialMT-35"/>
      </g>
     </g>
    </g>
    <g id="ytick_6">
     <g id="line2d_23">
      <path clip-path="url(#p11a010de32)" d="M 42.159844 169.280658 
L 397.250753 169.280658 
" style="fill:none;stroke:#ffffff;stroke-linecap:round;"/>
     </g>
     <g id="line2d_24"/>
     <g id="text_13">
      <!-- 0.6 -->
      <g style="fill:#262626;" transform="translate(21.259844 172.859564)scale(0.1 -0.1)">
       <use xlink:href="#ArialMT-30"/>
       <use x="55.615234" xlink:href="#ArialMT-2e"/>
       <use x="83.398438" xlink:href="#ArialMT-36"/>
      </g>
     </g>
    </g>
    <g id="ytick_7">
     <g id="line2d_25">
      <path clip-path="url(#p11a010de32)" d="M 42.159844 131.379756 
L 397.250753 131.379756 
" style="fill:none;stroke:#ffffff;stroke-linecap:round;"/>
     </g>
     <g id="line2d_26"/>
     <g id="text_14">
      <!-- 0.7 -->
      <defs>
       <path d="M 4.734375 62.203125 
L 4.734375 70.65625 
L 51.078125 70.65625 
L 51.078125 63.8125 
Q 44.234375 56.546875 37.515625 44.484375 
Q 30.8125 32.421875 27.15625 19.671875 
Q 24.515625 10.6875 23.78125 0 
L 14.75 0 
Q 14.890625 8.453125 18.0625 20.40625 
Q 21.234375 32.375 27.171875 43.484375 
Q 33.109375 54.59375 39.796875 62.203125 
z
" id="ArialMT-37"/>
      </defs>
      <g style="fill:#262626;" transform="translate(21.259844 134.958662)scale(0.1 -0.1)">
       <use xlink:href="#ArialMT-30"/>
       <use x="55.615234" xlink:href="#ArialMT-2e"/>
       <use x="83.398438" xlink:href="#ArialMT-37"/>
      </g>
     </g>
    </g>
    <g id="ytick_8">
     <g id="line2d_27">
      <path clip-path="url(#p11a010de32)" d="M 42.159844 93.478854 
L 397.250753 93.478854 
" style="fill:none;stroke:#ffffff;stroke-linecap:round;"/>
     </g>
     <g id="line2d_28"/>
     <g id="text_15">
      <!-- 0.8 -->
      <g style="fill:#262626;" transform="translate(21.259844 97.05776)scale(0.1 -0.1)">
       <use xlink:href="#ArialMT-30"/>
       <use x="55.615234" xlink:href="#ArialMT-2e"/>
       <use x="83.398438" xlink:href="#ArialMT-38"/>
      </g>
     </g>
    </g>
    <g id="ytick_9">
     <g id="line2d_29">
      <path clip-path="url(#p11a010de32)" d="M 42.159844 55.577952 
L 397.250753 55.577952 
" style="fill:none;stroke:#ffffff;stroke-linecap:round;"/>
     </g>
     <g id="line2d_30"/>
     <g id="text_16">
      <!-- 0.9 -->
      <defs>
       <path d="M 5.46875 16.546875 
L 13.921875 17.328125 
Q 14.984375 11.375 18.015625 8.6875 
Q 21.046875 6 25.78125 6 
Q 29.828125 6 32.875 7.859375 
Q 35.9375 9.71875 37.890625 12.8125 
Q 39.84375 15.921875 41.15625 21.1875 
Q 42.484375 26.46875 42.484375 31.9375 
Q 42.484375 32.515625 42.4375 33.6875 
Q 39.796875 29.5 35.234375 26.875 
Q 30.671875 24.265625 25.34375 24.265625 
Q 16.453125 24.265625 10.296875 30.703125 
Q 4.15625 37.15625 4.15625 47.703125 
Q 4.15625 58.59375 10.578125 65.234375 
Q 17 71.875 26.65625 71.875 
Q 33.640625 71.875 39.421875 68.109375 
Q 45.21875 64.359375 48.21875 57.390625 
Q 51.21875 50.4375 51.21875 37.25 
Q 51.21875 23.53125 48.234375 15.40625 
Q 45.265625 7.28125 39.375 3.03125 
Q 33.5 -1.21875 25.59375 -1.21875 
Q 17.1875 -1.21875 11.859375 3.4375 
Q 6.546875 8.109375 5.46875 16.546875 
z
M 41.453125 48.140625 
Q 41.453125 55.71875 37.421875 60.15625 
Q 33.40625 64.59375 27.734375 64.59375 
Q 21.875 64.59375 17.53125 59.8125 
Q 13.1875 55.03125 13.1875 47.40625 
Q 13.1875 40.578125 17.3125 36.296875 
Q 21.4375 32.03125 27.484375 32.03125 
Q 33.59375 32.03125 37.515625 36.296875 
Q 41.453125 40.578125 41.453125 48.140625 
z
" id="ArialMT-39"/>
      </defs>
      <g style="fill:#262626;" transform="translate(21.259844 59.156859)scale(0.1 -0.1)">
       <use xlink:href="#ArialMT-30"/>
       <use x="55.615234" xlink:href="#ArialMT-2e"/>
       <use x="83.398438" xlink:href="#ArialMT-39"/>
      </g>
     </g>
    </g>
    <g id="text_17">
     <!-- accuracy -->
     <defs>
      <path d="M 40.4375 6.390625 
Q 35.546875 2.25 31.03125 0.53125 
Q 26.515625 -1.171875 21.34375 -1.171875 
Q 12.796875 -1.171875 8.203125 3 
Q 3.609375 7.171875 3.609375 13.671875 
Q 3.609375 17.484375 5.34375 20.625 
Q 7.078125 23.78125 9.890625 25.6875 
Q 12.703125 27.59375 16.21875 28.5625 
Q 18.796875 29.25 24.03125 29.890625 
Q 34.671875 31.15625 39.703125 32.90625 
Q 39.75 34.71875 39.75 35.203125 
Q 39.75 40.578125 37.25 42.78125 
Q 33.890625 45.75 27.25 45.75 
Q 21.046875 45.75 18.09375 43.578125 
Q 15.140625 41.40625 13.71875 35.890625 
L 5.125 37.0625 
Q 6.296875 42.578125 8.984375 45.96875 
Q 11.671875 49.359375 16.75 51.1875 
Q 21.828125 53.03125 28.515625 53.03125 
Q 35.15625 53.03125 39.296875 51.46875 
Q 43.453125 49.90625 45.40625 47.53125 
Q 47.359375 45.171875 48.140625 41.546875 
Q 48.578125 39.3125 48.578125 33.453125 
L 48.578125 21.734375 
Q 48.578125 9.46875 49.140625 6.21875 
Q 49.703125 2.984375 51.375 0 
L 42.1875 0 
Q 40.828125 2.734375 40.4375 6.390625 
z
M 39.703125 26.03125 
Q 34.90625 24.078125 25.34375 22.703125 
Q 19.921875 21.921875 17.671875 20.9375 
Q 15.4375 19.96875 14.203125 18.09375 
Q 12.984375 16.21875 12.984375 13.921875 
Q 12.984375 10.40625 15.640625 8.0625 
Q 18.3125 5.71875 23.4375 5.71875 
Q 28.515625 5.71875 32.46875 7.9375 
Q 36.421875 10.15625 38.28125 14.015625 
Q 39.703125 17 39.703125 22.796875 
z
" id="ArialMT-61"/>
      <path d="M 40.578125 0 
L 40.578125 7.625 
Q 34.515625 -1.171875 24.125 -1.171875 
Q 19.53125 -1.171875 15.546875 0.578125 
Q 11.578125 2.34375 9.640625 5 
Q 7.71875 7.671875 6.9375 11.53125 
Q 6.390625 14.109375 6.390625 19.734375 
L 6.390625 51.859375 
L 15.1875 51.859375 
L 15.1875 23.09375 
Q 15.1875 16.21875 15.71875 13.8125 
Q 16.546875 10.359375 19.234375 8.375 
Q 21.921875 6.390625 25.875 6.390625 
Q 29.828125 6.390625 33.296875 8.421875 
Q 36.765625 10.453125 38.203125 13.9375 
Q 39.65625 17.4375 39.65625 24.078125 
L 39.65625 51.859375 
L 48.4375 51.859375 
L 48.4375 0 
z
" id="ArialMT-75"/>
      <path d="M 6.5 0 
L 6.5 51.859375 
L 14.40625 51.859375 
L 14.40625 44 
Q 17.4375 49.515625 20 51.265625 
Q 22.5625 53.03125 25.640625 53.03125 
Q 30.078125 53.03125 34.671875 50.203125 
L 31.640625 42.046875 
Q 28.421875 43.953125 25.203125 43.953125 
Q 22.3125 43.953125 20.015625 42.21875 
Q 17.71875 40.484375 16.75 37.40625 
Q 15.28125 32.71875 15.28125 27.15625 
L 15.28125 0 
z
" id="ArialMT-72"/>
      <path d="M 6.203125 -19.96875 
L 5.21875 -11.71875 
Q 8.109375 -12.5 10.25 -12.5 
Q 13.1875 -12.5 14.9375 -11.515625 
Q 16.703125 -10.546875 17.828125 -8.796875 
Q 18.65625 -7.46875 20.515625 -2.25 
Q 20.75 -1.515625 21.296875 -0.09375 
L 1.609375 51.859375 
L 11.078125 51.859375 
L 21.875 21.828125 
Q 23.96875 16.109375 25.640625 9.8125 
Q 27.15625 15.875 29.25 21.625 
L 40.328125 51.859375 
L 49.125 51.859375 
L 29.390625 -0.875 
Q 26.21875 -9.421875 24.46875 -12.640625 
Q 22.125 -17 19.09375 -19.015625 
Q 16.0625 -21.046875 11.859375 -21.046875 
Q 9.328125 -21.046875 6.203125 -19.96875 
z
" id="ArialMT-79"/>
     </defs>
     <g style="fill:#262626;" transform="translate(14.944688 235.486875)rotate(-90)scale(0.11 -0.11)">
      <use xlink:href="#ArialMT-61"/>
      <use x="55.615234" xlink:href="#ArialMT-63"/>
      <use x="105.615234" xlink:href="#ArialMT-63"/>
      <use x="155.615234" xlink:href="#ArialMT-75"/>
      <use x="211.230469" xlink:href="#ArialMT-72"/>
      <use x="244.53125" xlink:href="#ArialMT-61"/>
      <use x="300.146484" xlink:href="#ArialMT-63"/>
      <use x="350.146484" xlink:href="#ArialMT-79"/>
     </g>
    </g>
   </g>
   <g id="line2d_31">
    <path clip-path="url(#p11a010de32)" d="M 58.30034 353.244744 
L 62.501069 353.244744 
L 62.824202 353.051794 
L 63.470468 352.390251 
L 63.793601 351.811401 
L 64.763001 349.082538 
L 68.96373 330.145868 
L 69.933129 324.412496 
L 73.16446 307.019426 
L 74.780125 298.336675 
L 75.426391 294.643062 
L 77.36519 284.857731 
L 78.980855 277.305119 
L 83.827851 255.887669 
L 84.79725 252.635083 
L 85.766649 249.051724 
L 86.736048 245.909392 
L 87.059181 244.724125 
L 87.382314 244.007458 
L 88.674846 238.852927 
L 89.321112 237.226634 
L 90.290512 233.918927 
L 91.259911 230.859288 
L 91.906177 229.232995 
L 92.875576 226.393875 
L 93.844975 224.106036 
L 94.168108 223.69257 
L 96.753173 217.986758 
L 97.076306 217.600864 
L 97.722572 216.553423 
L 99.015104 214.651479 
L 99.66137 213.438652 
L 99.984503 212.942492 
L 100.307636 212.170693 
L 101.600168 210.875173 
L 102.246434 209.993119 
L 103.538967 208.201439 
L 103.8621 207.898227 
L 104.185233 207.429639 
L 104.831499 206.933491 
L 105.800898 205.720642 
L 106.447164 205.279626 
L 107.416563 204.397572 
L 108.062829 203.763587 
L 108.385962 203.322549 
L 108.709095 203.07448 
L 109.032229 202.633442 
L 109.678495 202.082161 
L 110.001628 201.558441 
L 110.324761 201.448176 
L 111.29416 200.648827 
L 111.617293 200.207789 
L 112.586692 199.546243 
L 113.232958 199.243053 
L 113.556091 198.967401 
L 113.879224 198.93984 
L 115.818023 197.864839 
L 117.110555 196.624429 
L 117.433688 196.459043 
L 118.403087 195.659694 
L 118.72622 195.494307 
L 119.049353 195.466747 
L 120.018752 194.667375 
L 120.665018 194.28148 
L 121.311284 194.171215 
L 121.957551 193.840442 
L 122.603817 193.509669 
L 123.573216 193.206457 
L 123.896349 193.04107 
L 124.542615 193.01351 
L 124.865748 192.848123 
L 125.188881 192.875684 
L 125.835147 192.655176 
L 126.481413 192.434668 
L 127.127679 191.938509 
L 127.450812 191.910948 
L 128.420212 191.359645 
L 129.066478 191.111576 
L 129.389611 190.835925 
L 129.712744 190.835925 
L 130.035877 190.587856 
L 131.005276 190.394909 
L 131.328409 190.229522 
L 131.974675 190.146818 
L 132.297808 190.064136 
L 134.236606 188.851309 
L 135.206006 188.437832 
L 136.498538 187.693604 
L 137.144804 187.473096 
L 138.114203 187.032058 
L 138.437336 186.976936 
L 139.406735 186.425656 
L 141.022401 185.488458 
L 141.345534 185.405776 
L 141.9918 184.964738 
L 143.930598 184.027563 
L 146.192529 182.621766 
L 147.808195 181.188431 
L 148.131328 181.050606 
L 149.100727 180.113431 
L 149.42386 179.8929 
L 150.070126 179.258937 
L 151.039525 178.597391 
L 151.685791 178.101232 
L 152.008924 177.880724 
L 152.65519 177.053792 
L 152.978323 176.860844 
L 153.624589 176.089033 
L 154.917122 174.71082 
L 155.886521 174.076835 
L 156.209654 173.525554 
L 157.179053 172.753765 
L 157.825319 172.285166 
L 158.148452 172.11978 
L 158.794718 171.485795 
L 159.117851 171.347969 
L 160.410384 170.135142 
L 162.349182 167.819753 
L 162.672315 167.240889 
L 163.318581 166.662048 
L 163.964847 166.000502 
L 164.934246 164.787675 
L 165.903645 163.519727 
L 166.226778 163.271636 
L 168.811843 159.908807 
L 170.427508 158.089556 
L 170.750641 157.896609 
L 171.396907 156.93185 
L 174.628238 153.183105 
L 174.951371 152.76965 
L 175.274504 152.135664 
L 175.597637 151.860035 
L 176.890169 150.17861 
L 177.213302 149.985663 
L 177.859568 149.296556 
L 178.182701 149.186291 
L 178.828967 148.469623 
L 179.475234 147.3946 
L 180.1215 146.815758 
L 180.767766 145.823439 
L 184.645362 141.275345 
L 185.291628 140.751624 
L 185.937895 139.759305 
L 187.230427 138.463774 
L 187.55356 138.270827 
L 191.431156 133.805414 
L 193.046822 132.234254 
L 193.369955 131.820776 
L 194.662487 131.048988 
L 194.98562 130.497707 
L 195.308753 130.194494 
L 195.631886 129.58807 
L 195.955019 129.312441 
L 196.278152 128.871402 
L 196.924418 128.347682 
L 200.155749 125.729081 
L 200.802015 125.370748 
L 201.125148 124.902149 
L 201.448281 124.654058 
L 202.094547 123.854709 
L 202.41768 123.579057 
L 202.740813 123.082897 
L 203.063946 122.88995 
L 203.710212 122.090578 
L 204.679611 121.180964 
L 205.325878 120.574562 
L 205.972144 120.050842 
L 206.61841 119.527099 
L 207.910942 118.75531 
L 208.880341 117.790552 
L 211.142272 116.329657 
L 212.434805 115.42002 
L 212.757938 115.254656 
L 213.404204 114.730913 
L 213.727337 114.565527 
L 214.373603 114.014246 
L 215.343002 113.435404 
L 215.989268 113.104631 
L 216.312401 112.939245 
L 216.635534 112.553351 
L 217.2818 112.33282 
L 217.928067 112.02963 
L 218.2512 111.671297 
L 218.574333 111.643714 
L 218.897466 111.423206 
L 219.220599 111.340524 
L 219.543732 111.092433 
L 220.189998 110.927046 
L 221.159397 110.375765 
L 223.744461 108.942431 
L 225.360127 108.087938 
L 225.68326 107.729604 
L 226.652659 107.288566 
L 226.975792 107.040475 
L 227.945191 106.709724 
L 229.237723 105.855231 
L 229.560856 105.744966 
L 229.883989 105.772527 
L 230.530255 105.359072 
L 231.822788 104.173806 
L 232.145921 104.091101 
L 232.469054 103.677646 
L 233.438453 103.098782 
L 234.730985 102.437259 
L 239.577981 99.956461 
L 240.224247 99.90134 
L 242.486178 99.074407 
L 243.132444 98.743634 
L 243.778711 98.467983 
L 244.424977 98.026967 
L 245.394376 97.61349 
L 245.717509 97.33786 
L 246.040642 97.227595 
L 246.686908 96.78658 
L 247.656307 96.455807 
L 248.625706 95.932087 
L 248.948839 95.628874 
L 249.271972 95.491048 
L 249.595105 95.215397 
L 250.241372 95.022449 
L 250.887638 94.912207 
L 251.210771 94.74682 
L 251.857037 94.636555 
L 252.503303 94.278222 
L 255.088367 93.50641 
L 256.057766 93.037834 
L 256.704033 92.624357 
L 258.319698 92.155758 
L 259.61223 91.549356 
L 260.258496 91.273704 
L 260.581629 91.108317 
L 260.904762 91.080757 
L 261.227895 90.805128 
L 267.04429 88.84805 
L 268.013689 88.158944 
L 268.659955 87.855731 
L 269.306222 87.442276 
L 269.952488 87.387155 
L 270.598754 87.028799 
L 271.891286 86.670465 
L 272.214419 86.698048 
L 273.183818 86.339692 
L 274.153217 86.119184 
L 274.799483 85.843555 
L 276.092016 85.430078 
L 276.738282 85.099305 
L 277.384548 84.768532 
L 278.030814 84.603145 
L 278.67708 84.437759 
L 280.292745 84.051864 
L 280.939011 83.858917 
L 281.585277 83.721091 
L 286.10914 82.205052 
L 286.432273 81.929423 
L 287.724805 81.59865 
L 288.371072 81.433264 
L 290.30987 80.689013 
L 290.956136 80.468505 
L 292.571801 79.999906 
L 293.218067 79.779399 
L 294.510599 79.393504 
L 294.833733 79.200557 
L 295.803132 78.924906 
L 296.449398 78.621693 
L 297.095664 78.539011 
L 297.74193 78.401185 
L 298.711329 78.29092 
L 299.680728 78.042852 
L 300.326994 77.905026 
L 300.97326 77.656957 
L 303.558325 77.105654 
L 305.17399 76.609517 
L 306.143389 76.416547 
L 306.789655 76.251161 
L 308.405321 76.030653 
L 309.697853 75.727441 
L 310.344119 75.727441 
L 312.929183 75.203721 
L 313.575449 75.093478 
L 315.191115 74.872948 
L 315.837381 74.790266 
L 317.776179 74.514614 
L 320.03811 73.990894 
L 321.00751 73.880651 
L 321.330643 73.687681 
L 321.653776 73.715265 
L 322.623175 73.494734 
L 324.23884 73.329348 
L 327.470171 73.026158 
L 328.116437 72.805628 
L 330.055235 72.557559 
L 330.701501 72.392173 
L 332.317166 72.226786 
L 333.286566 72.08896 
L 333.932832 71.923574 
L 335.225364 71.703066 
L 337.164162 71.317172 
L 340.718626 70.821012 
L 343.949956 70.462679 
L 344.596222 70.324853 
L 345.888754 70.324853 
L 347.181287 69.99408 
L 347.827553 69.801133 
L 352.351415 69.304973 
L 354.613347 69.029321 
L 355.582746 68.946639 
L 356.875278 68.836374 
L 357.521544 68.753692 
L 361.399141 68.202389 
L 366.892403 67.623547 
L 370.123733 67.182509 
L 372.708798 67.072267 
L 376.586394 66.851759 
L 378.20206 66.741494 
L 380.140858 66.548547 
L 380.787124 66.38316 
L 381.110257 66.355599 
L 381.110257 66.355599 
" style="fill:none;stroke:#4c72b0;stroke-linecap:round;stroke-width:1.75;"/>
   </g>
   <g id="line2d_32">
    <path clip-path="url(#p11a010de32)" d="M 58.30034 357.186436 
L 58.946606 360.631975 
L 59.269739 361.679419 
L 59.592872 361.734545 
L 59.916005 360.521716 
L 61.854803 350.708828 
L 62.501069 348.090219 
L 63.470468 343.928012 
L 64.439868 340.069013 
L 65.7324 334.225381 
L 66.055533 332.654215 
L 67.348065 328.657395 
L 69.286863 320.80157 
L 72.195061 309.031619 
L 72.518194 308.204692 
L 73.16446 305.97198 
L 74.456992 301.920034 
L 76.072657 296.682821 
L 76.718923 294.532796 
L 78.980855 286.925051 
L 79.303988 286.180823 
L 80.919653 281.246812 
L 84.79725 269.917893 
L 87.382314 264.322335 
L 88.02858 262.751175 
L 90.613645 257.348575 
L 91.259911 255.474203 
L 92.22931 253.59983 
L 93.198709 251.146604 
L 93.844975 250.181857 
L 94.491241 248.748511 
L 94.814374 248.031844 
L 95.783773 246.819017 
L 96.106907 246.157471 
L 96.43004 245.771566 
L 96.753173 245.192713 
L 97.722572 242.574112 
L 98.691971 240.754872 
L 99.984503 238.356779 
L 100.953902 237.171513 
L 102.246434 234.911235 
L 103.8621 231.796474 
L 104.508366 230.611208 
L 105.477765 228.571449 
L 106.447164 226.945156 
L 107.09343 225.842583 
L 108.385962 223.775263 
L 109.355362 222.341917 
L 109.678495 221.735504 
L 110.647894 220.60537 
L 111.29416 219.613051 
L 111.617293 219.364971 
L 113.556091 216.608545 
L 113.879224 216.498291 
L 116.464289 213.135451 
L 117.110555 212.198265 
L 117.756821 211.509158 
L 118.403087 210.571971 
L 118.72622 210.213627 
L 119.049353 209.607213 
L 120.341885 208.394386 
L 121.311284 207.098878 
L 121.634417 206.933491 
L 121.957551 206.575135 
L 122.280684 206.464892 
L 122.603817 205.913611 
L 122.92695 205.693081 
L 123.250083 205.11424 
L 123.573216 204.866149 
L 124.865748 203.322549 
L 125.512014 202.688586 
L 127.127679 200.703948 
L 128.097079 199.987281 
L 129.389611 198.223173 
L 129.712744 198.030203 
L 131.005276 196.32124 
L 132.944074 194.419284 
L 133.267207 193.812882 
L 135.529139 191.607736 
L 135.852272 191.414789 
L 136.498538 190.615417 
L 137.467937 189.375029 
L 138.114203 188.685923 
L 140.699267 186.81155 
L 141.345534 186.150004 
L 143.930598 183.421138 
L 144.576864 182.704471 
L 144.899997 182.483963 
L 145.546263 181.822417 
L 146.192529 181.491644 
L 147.485062 179.975605 
L 148.454461 179.121112 
L 149.42386 178.514687 
L 150.393259 177.82558 
L 151.039525 177.246739 
L 152.65519 176.089033 
L 153.624589 174.958911 
L 155.240255 173.883887 
L 155.886521 173.66338 
L 156.209654 173.360167 
L 156.532787 173.305046 
L 157.825319 172.340288 
L 158.471585 171.816568 
L 160.08725 170.410794 
L 160.733517 170.107581 
L 161.379783 169.5563 
L 161.702916 169.253088 
L 163.318581 168.50886 
L 164.28798 167.930019 
L 165.580512 167.378715 
L 165.903645 167.185768 
L 166.549912 166.524222 
L 167.196178 166.193449 
L 167.519311 166.028063 
L 168.48871 165.090888 
L 169.134976 164.760115 
L 169.781242 164.291516 
L 170.104375 164.098569 
L 170.427508 164.043447 
L 171.72004 162.968424 
L 172.043173 162.720355 
L 172.366306 162.3069 
L 174.628238 160.873543 
L 175.597637 160.156876 
L 176.243903 159.908807 
L 178.828967 158.034435 
L 179.475234 157.758783 
L 180.1215 157.152358 
L 181.414032 156.435691 
L 182.706564 155.581198 
L 183.35283 155.36069 
L 183.675963 155.085038 
L 183.999096 154.974796 
L 184.968495 154.34081 
L 185.614761 154.120302 
L 185.937895 153.734408 
L 186.584161 153.29337 
L 188.846092 151.804891 
L 189.492358 151.639505 
L 190.138624 151.143345 
L 191.108023 150.867716 
L 194.662487 149.241412 
L 195.631886 148.690131 
L 196.601285 148.359358 
L 198.863217 147.229213 
L 199.509483 147.09141 
L 200.155749 146.484985 
L 204.356478 144.80356 
L 204.679611 144.748439 
L 205.002745 144.390105 
L 207.910942 143.067013 
L 208.234075 142.73624 
L 208.880341 142.488171 
L 209.526607 142.184959 
L 210.172873 141.743921 
L 210.819139 141.220201 
L 211.465406 140.861867 
L 211.788539 140.834306 
L 212.434805 140.558655 
L 213.727337 140.310586 
L 214.696736 139.869548 
L 215.666135 139.566358 
L 216.312401 139.097759 
L 216.635534 138.794547 
L 218.2512 138.215706 
L 218.574333 138.215706 
L 219.220599 137.857372 
L 219.866865 137.664425 
L 220.513131 137.416334 
L 222.128796 136.892614 
L 223.744461 136.286189 
L 225.036994 135.597082 
L 226.329526 134.96312 
L 226.652659 134.742589 
L 230.530255 134.025922 
L 231.176522 133.750293 
L 232.145921 133.529762 
L 232.469054 133.474641 
L 232.792187 133.198989 
L 235.054118 132.37208 
L 235.700384 132.041307 
L 236.34665 131.848359 
L 237.639183 131.104109 
L 237.962316 131.076548 
L 238.285449 130.911162 
L 239.254848 130.773336 
L 239.577981 130.607949 
L 239.901114 130.580389 
L 240.870513 130.11179 
L 241.839912 129.918843 
L 242.809311 129.58807 
L 243.778711 129.257297 
L 244.74811 128.954107 
L 245.394376 128.623334 
L 245.717509 128.595773 
L 246.363775 128.320122 
L 247.333174 128.154735 
L 247.97944 127.989349 
L 249.271972 127.658576 
L 249.595105 127.603454 
L 250.241372 127.217537 
L 251.210771 127.052151 
L 252.503303 126.886787 
L 253.149569 126.556014 
L 254.118968 126.280362 
L 255.734633 125.784203 
L 256.704033 125.425869 
L 257.996565 125.122657 
L 258.965964 124.681641 
L 259.935363 124.488694 
L 265.428625 123.579057 
L 265.751758 123.330989 
L 266.398024 123.275845 
L 267.367423 122.807268 
L 268.659955 122.669443 
L 268.983088 122.476495 
L 272.537552 121.814949 
L 272.860685 121.594442 
L 274.153217 121.31879 
L 274.47635 121.153403 
L 276.092016 120.905335 
L 279.969612 119.995698 
L 280.615878 119.885455 
L 281.90841 119.554682 
L 284.493475 118.72775 
L 285.462874 118.534803 
L 286.755406 118.20403 
L 287.401672 118.066204 
L 289.340471 117.845696 
L 290.30987 117.432218 
L 291.279269 117.321976 
L 291.925535 117.321976 
L 292.248668 117.156589 
L 295.803132 116.743112 
L 297.418797 116.522604 
L 298.065063 116.467483 
L 298.711329 116.439899 
L 300.003861 116.109149 
L 300.97326 115.998884 
L 301.619527 115.833497 
L 302.588926 115.668111 
L 302.912059 115.668111 
L 303.558325 115.447603 
L 303.881458 115.502724 
L 304.850857 115.227073 
L 305.820256 115.144391 
L 308.082188 114.648231 
L 313.898582 113.270018 
L 314.867982 113.077071 
L 315.191115 112.85654 
L 317.129913 112.470646 
L 317.776179 112.277699 
L 319.068711 111.891805 
L 319.714977 111.643714 
L 321.976909 111.340524 
L 322.946308 111.009751 
L 324.23884 110.899486 
L 327.793304 110.182818 
L 328.762703 110.044992 
L 330.055235 109.934727 
L 331.347767 109.659098 
L 331.994033 109.686659 
L 333.286566 109.245621 
L 334.579098 108.914848 
L 337.487295 108.418711 
L 337.810428 108.19818 
L 339.426093 108.005233 
L 339.749227 107.812286 
L 340.395493 107.67446 
L 341.041759 107.564218 
L 341.688025 107.453952 
L 343.30369 107.233445 
L 344.596222 107.261005 
L 352.028282 106.075739 
L 353.643948 105.965474 
L 355.582746 105.744966 
L 356.875278 105.524458 
L 358.814076 105.138541 
L 361.399141 104.807768 
L 362.36854 104.752647 
L 363.014806 104.780208 
L 363.984205 104.642382 
L 364.953604 104.5597 
L 365.599871 104.477018 
L 366.892403 104.256488 
L 368.184935 104.06354 
L 368.831201 103.953275 
L 374.970729 103.0161 
L 376.586394 102.933396 
L 379.494592 102.547501 
L 381.110257 102.382115 
L 381.110257 102.382115 
" style="fill:none;stroke:#55a868;stroke-linecap:round;stroke-width:1.75;"/>
   </g>
   <g id="line2d_33">
    <path clip-path="url(#p11a010de32)" d="M 58.30034 359.060809 
L 58.623473 353.244744 
L 381.110257 353.244744 
L 381.110257 353.244744 
" style="fill:none;stroke:#c44e52;stroke-linecap:round;stroke-width:1.75;"/>
   </g>
   <g id="line2d_34">
    <path clip-path="url(#p11a010de32)" d="M 58.30034 359.060809 
L 58.946606 359.005682 
L 59.269739 358.178753 
L 59.592872 356.30438 
L 59.916005 358.178753 
L 60.239138 354.733217 
L 60.562271 346.684445 
L 60.885404 345.168405 
L 61.208537 344.892765 
L 61.854803 346.326105 
L 62.501069 347.042778 
L 62.824202 347.042778 
L 63.147335 346.574185 
L 63.470468 345.747258 
L 66.701799 333.040115 
L 68.317464 325.515069 
L 69.286863 320.415671 
L 69.933129 316.832311 
L 70.579396 312.559851 
L 71.225662 308.811106 
L 71.871928 304.53864 
L 72.518194 301.203355 
L 76.39579 282.266691 
L 77.688323 277.057039 
L 79.950254 268.04352 
L 80.59652 266.031321 
L 82.858451 259.195376 
L 83.504718 257.624216 
L 84.474117 255.115869 
L 84.79725 254.178683 
L 85.120383 253.654951 
L 86.089782 250.926097 
L 86.412915 250.292111 
L 87.705447 246.433112 
L 88.02858 245.881831 
L 90.290512 239.983072 
L 90.936778 238.963192 
L 91.906177 236.647793 
L 92.22931 236.041368 
L 92.875576 234.442647 
L 95.137507 230.059927 
L 97.076306 227.331061 
L 97.722572 226.256049 
L 98.691971 224.932968 
L 99.338237 224.271422 
L 102.892701 220.219465 
L 103.215834 219.750877 
L 104.185233 218.979077 
L 104.831499 218.234838 
L 105.477765 217.711118 
L 107.09343 216.112385 
L 108.062829 215.478411 
L 108.385962 215.037384 
L 109.355362 214.679051 
L 109.678495 214.458532 
L 110.324761 213.714292 
L 110.971027 213.273265 
L 111.29416 212.859799 
L 112.909825 211.977745 
L 113.556091 211.812359 
L 113.879224 211.481586 
L 114.848623 210.875173 
L 115.171756 210.599532 
L 115.49489 210.489278 
L 115.818023 210.158505 
L 117.110555 209.414266 
L 117.756821 208.945678 
L 118.079954 208.862985 
L 119.372486 207.787973 
L 121.957551 206.712961 
L 122.603817 205.913611 
L 123.573216 205.11424 
L 123.896349 205.1418 
L 125.188881 204.314868 
L 126.804546 202.909094 
L 127.127679 202.468056 
L 128.097079 201.889214 
L 128.743345 201.530881 
L 129.066478 201.200108 
L 130.035877 200.814213 
L 130.35901 200.345614 
L 130.682143 200.125107 
L 131.651542 199.105227 
L 132.620941 198.498802 
L 133.59034 197.506483 
L 133.913473 197.285975 
L 134.882873 196.12827 
L 139.083602 191.139137 
L 139.406735 190.918629 
L 140.053001 189.981431 
L 141.9918 186.976936 
L 142.638066 186.122443 
L 143.284332 185.130124 
L 143.607465 184.854473 
L 144.899997 182.897418 
L 145.22313 182.621766 
L 146.515662 180.554446 
L 146.838795 180.168552 
L 149.100727 176.28198 
L 149.42386 175.978791 
L 150.716392 173.635819 
L 152.978323 170.631301 
L 154.593989 168.012701 
L 155.563388 166.469101 
L 156.85592 164.37422 
L 157.502186 163.795356 
L 158.471585 162.417143 
L 159.440984 160.818422 
L 160.410384 159.578034 
L 161.05665 158.530594 
L 162.349182 156.766464 
L 162.995448 155.333129 
L 163.641714 154.34081 
L 163.964847 153.789529 
L 164.28798 153.541438 
L 165.903645 151.391437 
L 167.842444 148.607449 
L 168.165577 147.973464 
L 169.134976 146.733076 
L 169.781242 145.795879 
L 170.750641 144.665734 
L 171.72004 143.590733 
L 172.366306 142.984331 
L 173.658839 141.302905 
L 174.628238 140.558655 
L 175.274504 139.841987 
L 175.597637 139.566358 
L 176.243903 138.6016 
L 177.536435 137.443894 
L 178.182701 136.616962 
L 178.505834 136.506719 
L 178.828967 135.955439 
L 180.767766 134.329134 
L 181.414032 133.391959 
L 183.675963 130.993866 
L 184.322229 130.663093 
L 184.968495 130.029108 
L 186.584161 128.099614 
L 187.55356 127.189977 
L 188.846092 126.004711 
L 189.492358 125.425869 
L 189.815491 124.92971 
L 190.138624 124.709202 
L 190.461757 124.268164 
L 191.108023 123.744443 
L 192.723689 122.476495 
L 193.369955 122.118162 
L 194.339354 121.429055 
L 194.662487 121.31879 
L 194.98562 120.905335 
L 196.278152 119.940577 
L 197.247551 119.168765 
L 197.570684 118.893136 
L 197.893817 118.810432 
L 199.18635 117.845696 
L 200.478882 116.963642 
L 200.802015 116.880938 
L 201.448281 116.246952 
L 205.325878 113.518086 
L 206.941543 112.139873 
L 207.587809 111.891805 
L 212.111672 108.391127 
L 212.757938 107.729604 
L 214.373603 106.930232 
L 215.019869 106.461633 
L 216.312401 105.60714 
L 217.2818 104.945594 
L 217.604933 104.614821 
L 217.928067 104.504579 
L 219.220599 103.484699 
L 220.189998 102.98854 
L 220.836264 102.519941 
L 221.48253 102.326994 
L 223.744461 100.673129 
L 225.036994 100.176969 
L 225.68326 99.625688 
L 226.329526 99.350059 
L 226.652659 99.046847 
L 227.298925 98.716074 
L 228.268324 98.275036 
L 228.591457 98.247475 
L 229.237723 97.944263 
L 229.560856 97.83402 
L 229.883989 97.558368 
L 230.207122 97.448103 
L 231.176522 96.703875 
L 231.822788 96.317981 
L 232.469054 96.125034 
L 235.377251 94.74682 
L 235.700384 94.608995 
L 236.023517 94.333343 
L 236.669783 94.305782 
L 239.254848 93.065395 
L 241.193646 92.321144 
L 241.839912 91.990371 
L 242.163045 91.907689 
L 242.486178 91.632038 
L 244.101844 90.970514 
L 244.74811 90.639741 
L 248.302573 88.930755 
L 249.271972 88.710224 
L 249.595105 88.489717 
L 249.918239 88.462156 
L 251.210771 87.773049 
L 251.533904 87.773049 
L 252.18017 87.524958 
L 254.765234 87.028799 
L 255.088367 86.863435 
L 255.734633 86.78073 
L 256.3809 86.587783 
L 257.027166 86.449957 
L 257.673432 86.174306 
L 258.319698 86.008942 
L 258.965964 85.650586 
L 260.581629 85.126865 
L 262.197294 84.603145 
L 262.520427 84.327516 
L 264.136093 83.941599 
L 264.782359 83.66597 
L 268.013689 82.783916 
L 268.983088 82.397999 
L 270.275621 82.012105 
L 272.214419 81.736476 
L 273.183818 81.37812 
L 274.153217 80.964665 
L 274.47635 80.964665 
L 274.799483 80.744157 
L 276.092016 80.330679 
L 277.061415 79.944785 
L 278.030814 79.614012 
L 278.353947 79.338383 
L 290.633003 77.298624 
L 291.279269 77.326184 
L 291.602402 77.215919 
L 292.248668 77.160798 
L 299.034462 75.920411 
L 299.680728 75.755024 
L 300.97326 75.562054 
L 301.619527 75.396668 
L 303.235192 75.286425 
L 306.466522 74.624879 
L 306.789655 74.514614 
L 307.435921 74.514614 
L 308.405321 74.431932 
L 309.697853 74.349227 
L 310.990385 73.963333 
L 311.959784 73.770386 
L 318.099312 72.640241 
L 318.745578 72.447294 
L 328.43957 70.903694 
L 329.085836 70.876134 
L 329.732102 70.765868 
L 331.994033 70.683186 
L 334.579098 70.352413 
L 335.548497 70.159466 
L 336.517896 69.99408 
L 339.749227 69.663307 
L 340.07236 69.49792 
L 348.796952 68.643427 
L 349.766351 68.588306 
L 351.382016 68.505601 
L 352.997682 68.147268 
L 353.967081 68.064586 
L 354.613347 68.064586 
L 355.259613 68.064586 
L 359.460343 67.458161 
L 360.752875 67.347896 
L 370.123733 66.465842 
L 370.769999 66.38316 
L 372.062532 66.272895 
L 377.555793 65.694053 
L 380.140858 65.36328 
L 381.110257 65.253015 
L 381.110257 65.253015 
" style="fill:none;stroke:#8172b2;stroke-linecap:round;stroke-width:1.75;"/>
   </g>
   <g id="line2d_35">
    <path clip-path="url(#p11a010de32)" d="M 58.30034 358.840296 
L 58.623473 359.171066 
L 58.946606 359.198632 
L 59.269739 359.474273 
L 59.592872 358.481959 
L 59.916005 356.855666 
L 60.239138 354.016544 
L 60.562271 352.610764 
L 60.885404 351.921657 
L 61.208537 352.335124 
L 61.53167 352.941537 
L 61.854803 352.63833 
L 62.177936 352.996664 
L 62.501069 353.162051 
L 63.147335 351.701144 
L 63.793601 348.696638 
L 64.116735 346.712005 
L 64.439868 340.64786 
L 64.763001 331.110615 
L 65.086134 325.046476 
L 65.409267 323.530436 
L 65.7324 324.495189 
L 66.055533 325.983656 
L 66.378666 326.727896 
L 66.701799 328.023416 
L 67.348065 329.015729 
L 67.671198 328.988168 
L 67.994331 329.401629 
L 68.317464 329.539455 
L 69.286863 328.988168 
L 69.933129 327.995855 
L 71.548795 324.440057 
L 73.487593 319.009891 
L 74.456992 316.777184 
L 76.39579 309.555339 
L 77.36519 305.55852 
L 79.627121 297.978341 
L 80.59652 293.84369 
L 81.242786 291.610983 
L 83.504718 282.073744 
L 84.79725 276.974346 
L 87.382314 266.141575 
L 89.321112 257.817163 
L 90.936778 250.843403 
L 94.814374 236.537528 
L 95.46064 234.552901 
L 96.753173 229.866969 
L 101.600168 213.631599 
L 101.923301 212.970064 
L 104.185233 206.492453 
L 105.154632 204.480254 
L 106.447164 201.034721 
L 106.770297 200.45588 
L 107.416563 198.443681 
L 108.385962 195.742376 
L 110.971027 191.001311 
L 111.617293 189.319908 
L 112.263559 188.35515 
L 112.909825 186.756429 
L 115.171756 182.483963 
L 115.49489 181.849977 
L 116.464289 180.885219 
L 117.433688 179.038407 
L 117.756821 178.652513 
L 118.403087 177.605072 
L 119.372486 176.392246 
L 121.957551 172.919152 
L 122.92695 171.899272 
L 124.219482 170.135142 
L 124.542615 169.997339 
L 125.188881 169.308232 
L 125.512014 168.839633 
L 125.835147 168.646686 
L 126.15828 168.095383 
L 126.804546 167.764632 
L 127.773945 167.075526 
L 129.066478 165.972941 
L 129.389611 165.890259 
L 130.682143 164.89794 
L 131.005276 164.760115 
L 131.651542 164.181273 
L 131.974675 163.960743 
L 132.944074 162.968424 
L 133.913473 162.334461 
L 134.236606 162.196635 
L 135.529139 161.121634 
L 135.852272 160.845982 
L 137.144804 160.349823 
L 137.467937 160.156876 
L 137.79107 160.101755 
L 138.437336 159.467769 
L 140.053001 158.944049 
L 140.699267 158.44789 
L 141.668667 158.006851 
L 142.314933 157.869048 
L 142.961199 157.317745 
L 143.284332 157.262623 
L 145.22313 155.88441 
L 147.485062 155.195303 
L 148.454461 154.699144 
L 149.746993 154.31325 
L 150.393259 153.761969 
L 151.039525 153.596582 
L 151.362658 153.431196 
L 151.685791 153.100423 
L 152.332057 152.935036 
L 153.301456 152.328612 
L 154.593989 151.915157 
L 155.563388 151.391437 
L 156.209654 150.840156 
L 156.85592 150.647186 
L 157.502186 150.481799 
L 157.825319 150.509383 
L 162.026049 148.607449 
L 162.349182 148.304237 
L 162.995448 148.083707 
L 163.318581 148.11129 
L 164.28798 147.532426 
L 164.611113 147.311918 
L 165.257379 147.256797 
L 165.580512 146.898463 
L 167.196178 146.236917 
L 167.519311 145.988826 
L 168.165577 145.740758 
L 168.811843 145.354863 
L 169.458109 145.134333 
L 170.104375 145.051651 
L 171.073774 144.417666 
L 171.396907 144.3074 
L 171.72004 144.059332 
L 172.689439 143.811241 
L 174.951371 142.681119 
L 175.597637 141.964451 
L 175.92077 142.047133 
L 177.213302 141.578534 
L 177.859568 140.999693 
L 179.475234 140.200321 
L 179.798367 139.869548 
L 180.1215 139.759305 
L 180.767766 139.290707 
L 181.414032 139.015055 
L 181.737165 139.015055 
L 182.706564 138.408653 
L 183.35283 137.802228 
L 183.675963 137.636842 
L 183.999096 137.636842 
L 184.645362 137.333652 
L 185.291628 136.672106 
L 185.937895 136.341333 
L 186.584161 135.790052 
L 187.230427 135.734908 
L 187.876693 135.431696 
L 188.199826 135.100945 
L 189.492358 134.46696 
L 189.815491 134.274013 
L 190.138624 134.218869 
L 191.431156 133.44708 
L 191.754289 133.529762 
L 192.400556 133.088747 
L 192.723689 132.868239 
L 193.046822 132.785534 
L 193.693088 132.37208 
L 194.016221 132.206693 
L 194.339354 131.848359 
L 194.662487 131.793215 
L 196.278152 130.938722 
L 197.570684 130.166934 
L 197.893817 129.973987 
L 198.540083 129.781017 
L 199.18635 129.340001 
L 199.832616 128.843842 
L 200.478882 128.265 
L 201.125148 127.74128 
L 201.771414 127.438068 
L 202.094547 127.079734 
L 202.41768 126.969469 
L 202.740813 126.7214 
L 203.063946 126.666257 
L 204.356478 125.591256 
L 204.679611 125.370748 
L 205.002745 125.315604 
L 206.61841 124.213042 
L 211.465406 121.373911 
L 211.788539 121.291229 
L 212.434805 120.850191 
L 213.727337 120.216228 
L 214.05047 119.747629 
L 214.373603 119.527099 
L 215.019869 119.279031 
L 215.989268 118.810432 
L 216.635534 118.259151 
L 217.928067 117.625166 
L 218.2512 117.294393 
L 218.897466 116.963642 
L 219.220599 116.577725 
L 220.836264 115.64055 
L 222.128796 114.537966 
L 223.744461 113.655912 
L 224.067594 113.54567 
L 224.713861 113.04951 
L 225.036994 112.966806 
L 225.68326 112.415525 
L 226.006393 112.33282 
L 227.945191 110.899486 
L 228.591457 110.403326 
L 230.530255 108.997552 
L 233.761586 107.288566 
L 234.407852 106.62702 
L 235.054118 106.213565 
L 235.377251 105.910353 
L 235.700384 105.827648 
L 236.34665 105.193685 
L 237.31605 104.339192 
L 237.962316 104.201366 
L 238.931715 103.53982 
L 239.254848 103.53982 
L 239.901114 103.098782 
L 240.224247 103.071221 
L 240.870513 102.575062 
L 241.193646 102.49238 
L 242.809311 101.4725 
L 245.071243 100.397499 
L 245.717509 99.984022 
L 246.363775 99.653249 
L 246.686908 99.322476 
L 247.010041 99.239794 
L 247.656307 98.909021 
L 248.302573 98.578248 
L 248.625706 98.275036 
L 249.271972 97.944263 
L 249.595105 97.751315 
L 249.918239 97.751315 
L 250.241372 97.585929 
L 250.564505 97.61349 
L 251.210771 97.282717 
L 253.795835 95.739117 
L 254.442101 95.132715 
L 255.088367 94.691676 
L 255.4115 94.664116 
L 255.734633 94.443608 
L 256.3809 94.195517 
L 259.61223 92.431409 
L 262.843561 90.474355 
L 263.166694 90.171142 
L 264.782359 89.674983 
L 265.105492 89.454475 
L 265.751758 89.289089 
L 268.659955 88.158944 
L 269.629355 87.717928 
L 269.952488 87.580102 
L 270.598754 87.166625 
L 274.47635 85.457638 
L 275.122616 85.071744 
L 276.738282 84.327516 
L 277.061415 84.272372 
L 277.707681 83.941599 
L 278.030814 83.776213 
L 278.67708 83.66597 
L 279.646479 83.335197 
L 280.292745 83.031985 
L 281.585277 82.701212 
L 282.231544 82.535825 
L 283.200943 82.342878 
L 285.786007 81.57109 
L 286.432273 81.37812 
L 286.755406 81.102491 
L 288.371072 80.661452 
L 289.017338 80.247998 
L 289.663604 80.082611 
L 290.30987 79.917225 
L 291.279269 79.476186 
L 292.894934 78.897345 
L 294.833733 78.346064 
L 295.156866 78.29092 
L 295.803132 78.015291 
L 298.711329 77.160798 
L 300.003861 76.802464 
L 301.619527 76.471691 
L 302.265793 76.278744 
L 303.881458 75.892827 
L 305.820256 75.313986 
L 306.466522 75.093478 
L 307.112788 74.928092 
L 307.759055 74.845387 
L 308.728454 74.542175 
L 310.667252 74.321667 
L 311.313518 74.183841 
L 312.282917 74.15628 
L 312.929183 73.908212 
L 314.867982 73.687681 
L 315.514248 73.467174 
L 317.776179 73.163961 
L 320.684377 72.722946 
L 321.330643 72.750506 
L 322.300042 72.557559 
L 323.915707 72.447294 
L 326.177638 72.171665 
L 326.500771 72.006278 
L 327.470171 71.896013 
L 329.408969 71.510119 
L 330.055235 71.427414 
L 331.347767 71.289589 
L 331.994033 71.206907 
L 339.749227 69.966519 
L 340.718626 69.911375 
L 341.688025 69.745989 
L 343.949956 69.442799 
L 345.565621 69.277412 
L 346.858154 69.084465 
L 347.827553 68.946639 
L 348.473819 68.891496 
L 350.089484 68.560745 
L 350.73575 68.478041 
L 352.028282 68.257533 
L 360.106609 67.678669 
L 361.399141 67.568426 
L 369.154334 66.989562 
L 370.123733 66.989562 
L 371.416265 66.851759 
L 372.385665 66.769054 
L 373.031931 66.631228 
L 374.00133 66.631228 
L 375.616995 66.328016 
L 376.909527 66.217774 
L 377.555793 66.190213 
L 378.525193 66.135069 
L 379.817725 65.914561 
L 380.463991 65.831879 
L 381.110257 65.666493 
L 381.110257 65.666493 
" style="fill:none;stroke:#ccb974;stroke-linecap:round;stroke-width:1.75;"/>
   </g>
   <g id="text_18">
    <!-- evolution de la prcision en fonction du nombre d'epoch -->
    <defs>
     <path d="M 21 0 
L 1.265625 51.859375 
L 10.546875 51.859375 
L 21.6875 20.796875 
Q 23.484375 15.765625 25 10.359375 
Q 26.171875 14.453125 28.265625 20.21875 
L 39.796875 51.859375 
L 48.828125 51.859375 
L 29.203125 0 
z
" id="ArialMT-76"/>
     <path d="M 6.390625 0 
L 6.390625 71.578125 
L 15.1875 71.578125 
L 15.1875 0 
z
" id="ArialMT-6c"/>
     <path d="M 25.78125 7.859375 
L 27.046875 0.09375 
Q 23.34375 -0.6875 20.40625 -0.6875 
Q 15.625 -0.6875 12.984375 0.828125 
Q 10.359375 2.34375 9.28125 4.8125 
Q 8.203125 7.28125 8.203125 15.1875 
L 8.203125 45.015625 
L 1.765625 45.015625 
L 1.765625 51.859375 
L 8.203125 51.859375 
L 8.203125 64.703125 
L 16.9375 69.96875 
L 16.9375 51.859375 
L 25.78125 51.859375 
L 25.78125 45.015625 
L 16.9375 45.015625 
L 16.9375 14.703125 
Q 16.9375 10.9375 17.40625 9.859375 
Q 17.875 8.796875 18.921875 8.15625 
Q 19.96875 7.515625 21.921875 7.515625 
Q 23.390625 7.515625 25.78125 7.859375 
z
" id="ArialMT-74"/>
     <path d="M 6.640625 61.46875 
L 6.640625 71.578125 
L 15.4375 71.578125 
L 15.4375 61.46875 
z
M 6.640625 0 
L 6.640625 51.859375 
L 15.4375 51.859375 
L 15.4375 0 
z
" id="ArialMT-69"/>
     <path d="M 6.59375 0 
L 6.59375 51.859375 
L 14.5 51.859375 
L 14.5 44.484375 
Q 20.21875 53.03125 31 53.03125 
Q 35.6875 53.03125 39.625 51.34375 
Q 43.5625 49.65625 45.515625 46.921875 
Q 47.46875 44.1875 48.25 40.4375 
Q 48.734375 37.984375 48.734375 31.890625 
L 48.734375 0 
L 39.9375 0 
L 39.9375 31.546875 
Q 39.9375 36.921875 38.90625 39.578125 
Q 37.890625 42.234375 35.28125 43.8125 
Q 32.671875 45.40625 29.15625 45.40625 
Q 23.53125 45.40625 19.453125 41.84375 
Q 15.375 38.28125 15.375 28.328125 
L 15.375 0 
z
" id="ArialMT-6e"/>
     <path id="ArialMT-20"/>
     <path d="M 40.234375 0 
L 40.234375 6.546875 
Q 35.296875 -1.171875 25.734375 -1.171875 
Q 19.53125 -1.171875 14.328125 2.25 
Q 9.125 5.671875 6.265625 11.796875 
Q 3.421875 17.921875 3.421875 25.875 
Q 3.421875 33.640625 6 39.96875 
Q 8.59375 46.296875 13.765625 49.65625 
Q 18.953125 53.03125 25.34375 53.03125 
Q 30.03125 53.03125 33.6875 51.046875 
Q 37.359375 49.078125 39.65625 45.90625 
L 39.65625 71.578125 
L 48.390625 71.578125 
L 48.390625 0 
z
M 12.453125 25.875 
Q 12.453125 15.921875 16.640625 10.984375 
Q 20.84375 6.0625 26.5625 6.0625 
Q 32.328125 6.0625 36.34375 10.765625 
Q 40.375 15.484375 40.375 25.140625 
Q 40.375 35.796875 36.265625 40.765625 
Q 32.171875 45.75 26.171875 45.75 
Q 20.3125 45.75 16.375 40.96875 
Q 12.453125 36.1875 12.453125 25.875 
z
" id="ArialMT-64"/>
     <path d="M 42.09375 16.703125 
L 51.171875 15.578125 
Q 49.03125 7.625 43.21875 3.21875 
Q 37.40625 -1.171875 28.375 -1.171875 
Q 17 -1.171875 10.328125 5.828125 
Q 3.65625 12.84375 3.65625 25.484375 
Q 3.65625 38.578125 10.390625 45.796875 
Q 17.140625 53.03125 27.875 53.03125 
Q 38.28125 53.03125 44.875 45.953125 
Q 51.46875 38.875 51.46875 26.03125 
Q 51.46875 25.25 51.421875 23.6875 
L 12.75 23.6875 
Q 13.234375 15.140625 17.578125 10.59375 
Q 21.921875 6.0625 28.421875 6.0625 
Q 33.25 6.0625 36.671875 8.59375 
Q 40.09375 11.140625 42.09375 16.703125 
z
M 13.234375 30.90625 
L 42.1875 30.90625 
Q 41.609375 37.453125 38.875 40.71875 
Q 34.671875 45.796875 27.984375 45.796875 
Q 21.921875 45.796875 17.796875 41.75 
Q 13.671875 37.703125 13.234375 30.90625 
z
M 22.71875 58.296875 
L 29.203125 71.96875 
L 40.734375 71.96875 
L 29.984375 58.296875 
z
" id="ArialMT-e9"/>
     <path d="M 3.078125 15.484375 
L 11.765625 16.84375 
Q 12.5 11.625 15.84375 8.84375 
Q 19.1875 6.0625 25.203125 6.0625 
Q 31.25 6.0625 34.171875 8.515625 
Q 37.109375 10.984375 37.109375 14.3125 
Q 37.109375 17.28125 34.515625 19 
Q 32.71875 20.171875 25.53125 21.96875 
Q 15.875 24.421875 12.140625 26.203125 
Q 8.40625 27.984375 6.46875 31.125 
Q 4.546875 34.28125 4.546875 38.09375 
Q 4.546875 41.546875 6.125 44.5 
Q 7.71875 47.46875 10.453125 49.421875 
Q 12.5 50.921875 16.03125 51.96875 
Q 19.578125 53.03125 23.640625 53.03125 
Q 29.734375 53.03125 34.34375 51.265625 
Q 38.96875 49.515625 41.15625 46.5 
Q 43.359375 43.5 44.1875 38.484375 
L 35.59375 37.3125 
Q 35.015625 41.3125 32.203125 43.546875 
Q 29.390625 45.796875 24.265625 45.796875 
Q 18.21875 45.796875 15.625 43.796875 
Q 13.03125 41.796875 13.03125 39.109375 
Q 13.03125 37.40625 14.109375 36.03125 
Q 15.1875 34.625 17.484375 33.6875 
Q 18.796875 33.203125 25.25 31.453125 
Q 34.578125 28.953125 38.25 27.359375 
Q 41.9375 25.78125 44.03125 22.75 
Q 46.140625 19.734375 46.140625 15.234375 
Q 46.140625 10.84375 43.578125 6.953125 
Q 41.015625 3.078125 36.171875 0.953125 
Q 31.34375 -1.171875 25.25 -1.171875 
Q 15.140625 -1.171875 9.84375 3.03125 
Q 4.546875 7.234375 3.078125 15.484375 
z
" id="ArialMT-73"/>
     <path d="M 8.6875 0 
L 8.6875 45.015625 
L 0.921875 45.015625 
L 0.921875 51.859375 
L 8.6875 51.859375 
L 8.6875 57.375 
Q 8.6875 62.59375 9.625 65.140625 
Q 10.890625 68.5625 14.078125 70.671875 
Q 17.28125 72.796875 23.046875 72.796875 
Q 26.765625 72.796875 31.25 71.921875 
L 29.9375 64.265625 
Q 27.203125 64.75 24.75 64.75 
Q 20.75 64.75 19.09375 63.03125 
Q 17.4375 61.328125 17.4375 56.640625 
L 17.4375 51.859375 
L 27.546875 51.859375 
L 27.546875 45.015625 
L 17.4375 45.015625 
L 17.4375 0 
z
" id="ArialMT-66"/>
     <path d="M 6.59375 0 
L 6.59375 51.859375 
L 14.453125 51.859375 
L 14.453125 44.578125 
Q 16.890625 48.390625 20.9375 50.703125 
Q 25 53.03125 30.171875 53.03125 
Q 35.9375 53.03125 39.625 50.640625 
Q 43.3125 48.25 44.828125 43.953125 
Q 50.984375 53.03125 60.84375 53.03125 
Q 68.5625 53.03125 72.703125 48.75 
Q 76.859375 44.484375 76.859375 35.59375 
L 76.859375 0 
L 68.109375 0 
L 68.109375 32.671875 
Q 68.109375 37.9375 67.25 40.25 
Q 66.40625 42.578125 64.15625 43.984375 
Q 61.921875 45.40625 58.890625 45.40625 
Q 53.421875 45.40625 49.796875 41.765625 
Q 46.1875 38.140625 46.1875 30.125 
L 46.1875 0 
L 37.40625 0 
L 37.40625 33.6875 
Q 37.40625 39.546875 35.25 42.46875 
Q 33.109375 45.40625 28.21875 45.40625 
Q 24.515625 45.40625 21.359375 43.453125 
Q 18.21875 41.5 16.796875 37.734375 
Q 15.375 33.984375 15.375 26.90625 
L 15.375 0 
z
" id="ArialMT-6d"/>
     <path d="M 14.703125 0 
L 6.546875 0 
L 6.546875 71.578125 
L 15.328125 71.578125 
L 15.328125 46.046875 
Q 20.90625 53.03125 29.546875 53.03125 
Q 34.328125 53.03125 38.59375 51.09375 
Q 42.875 49.171875 45.625 45.671875 
Q 48.390625 42.1875 49.953125 37.25 
Q 51.515625 32.328125 51.515625 26.703125 
Q 51.515625 13.375 44.921875 6.09375 
Q 38.328125 -1.171875 29.109375 -1.171875 
Q 19.921875 -1.171875 14.703125 6.5 
z
M 14.59375 26.3125 
Q 14.59375 17 17.140625 12.84375 
Q 21.296875 6.0625 28.375 6.0625 
Q 34.125 6.0625 38.328125 11.0625 
Q 42.53125 16.0625 42.53125 25.984375 
Q 42.53125 36.140625 38.5 40.96875 
Q 34.46875 45.796875 28.765625 45.796875 
Q 23 45.796875 18.796875 40.796875 
Q 14.59375 35.796875 14.59375 26.3125 
z
" id="ArialMT-62"/>
     <path d="M 6.640625 46.234375 
L 4.390625 59.625 
L 4.390625 71.578125 
L 14.40625 71.578125 
L 14.40625 59.625 
L 12.0625 46.234375 
z
" id="ArialMT-27"/>
    </defs>
    <g style="fill:#262626;" transform="translate(71.471548 44.4)scale(0.12 -0.12)">
     <use xlink:href="#ArialMT-65"/>
     <use x="55.615234" xlink:href="#ArialMT-76"/>
     <use x="105.615234" xlink:href="#ArialMT-6f"/>
     <use x="161.230469" xlink:href="#ArialMT-6c"/>
     <use x="183.447266" xlink:href="#ArialMT-75"/>
     <use x="239.0625" xlink:href="#ArialMT-74"/>
     <use x="266.845703" xlink:href="#ArialMT-69"/>
     <use x="289.0625" xlink:href="#ArialMT-6f"/>
     <use x="344.677734" xlink:href="#ArialMT-6e"/>
     <use x="400.292969" xlink:href="#ArialMT-20"/>
     <use x="428.076172" xlink:href="#ArialMT-64"/>
     <use x="483.691406" xlink:href="#ArialMT-65"/>
     <use x="539.306641" xlink:href="#ArialMT-20"/>
     <use x="567.089844" xlink:href="#ArialMT-6c"/>
     <use x="589.306641" xlink:href="#ArialMT-61"/>
     <use x="644.921875" xlink:href="#ArialMT-20"/>
     <use x="672.705078" xlink:href="#ArialMT-70"/>
     <use x="728.320312" xlink:href="#ArialMT-72"/>
     <use x="761.621094" xlink:href="#ArialMT-e9"/>
     <use x="817.236328" xlink:href="#ArialMT-63"/>
     <use x="867.236328" xlink:href="#ArialMT-69"/>
     <use x="889.453125" xlink:href="#ArialMT-73"/>
     <use x="939.453125" xlink:href="#ArialMT-69"/>
     <use x="961.669922" xlink:href="#ArialMT-6f"/>
     <use x="1017.285156" xlink:href="#ArialMT-6e"/>
     <use x="1072.900391" xlink:href="#ArialMT-20"/>
     <use x="1100.683594" xlink:href="#ArialMT-65"/>
     <use x="1156.298828" xlink:href="#ArialMT-6e"/>
     <use x="1211.914062" xlink:href="#ArialMT-20"/>
     <use x="1239.697266" xlink:href="#ArialMT-66"/>
     <use x="1267.480469" xlink:href="#ArialMT-6f"/>
     <use x="1323.095703" xlink:href="#ArialMT-6e"/>
     <use x="1378.710938" xlink:href="#ArialMT-63"/>
     <use x="1428.710938" xlink:href="#ArialMT-74"/>
     <use x="1456.494141" xlink:href="#ArialMT-69"/>
     <use x="1478.710938" xlink:href="#ArialMT-6f"/>
     <use x="1534.326172" xlink:href="#ArialMT-6e"/>
     <use x="1589.941406" xlink:href="#ArialMT-20"/>
     <use x="1617.724609" xlink:href="#ArialMT-64"/>
     <use x="1673.339844" xlink:href="#ArialMT-75"/>
     <use x="1728.955078" xlink:href="#ArialMT-20"/>
     <use x="1756.738281" xlink:href="#ArialMT-6e"/>
     <use x="1812.353516" xlink:href="#ArialMT-6f"/>
     <use x="1867.96875" xlink:href="#ArialMT-6d"/>
     <use x="1951.269531" xlink:href="#ArialMT-62"/>
     <use x="2006.884766" xlink:href="#ArialMT-72"/>
     <use x="2040.185547" xlink:href="#ArialMT-65"/>
     <use x="2095.800781" xlink:href="#ArialMT-20"/>
     <use x="2123.583984" xlink:href="#ArialMT-64"/>
     <use x="2179.199219" xlink:href="#ArialMT-27"/>
     <use x="2198.291016" xlink:href="#ArialMT-65"/>
     <use x="2253.90625" xlink:href="#ArialMT-70"/>
     <use x="2309.521484" xlink:href="#ArialMT-6f"/>
     <use x="2365.136719" xlink:href="#ArialMT-63"/>
     <use x="2415.136719" xlink:href="#ArialMT-68"/>
    </g>
   </g>
   <g id="legend_1">
    <g id="line2d_36">
     <path d="M 51.159844 63.057812 
L 71.159844 63.057812 
" style="fill:none;stroke:#4c72b0;stroke-linecap:round;stroke-width:1.75;"/>
    </g>
    <g id="line2d_37"/>
    <g id="text_19">
     <!-- aleatoire xavier -->
     <defs>
      <path d="M 0.734375 0 
L 19.671875 26.953125 
L 2.15625 51.859375 
L 13.140625 51.859375 
L 21.09375 39.703125 
Q 23.34375 36.234375 24.703125 33.890625 
Q 26.859375 37.109375 28.65625 39.59375 
L 37.40625 51.859375 
L 47.90625 51.859375 
L 29.984375 27.4375 
L 49.265625 0 
L 38.484375 0 
L 27.828125 16.109375 
L 25 20.453125 
L 11.375 0 
z
" id="ArialMT-78"/>
     </defs>
     <g style="fill:#262626;" transform="translate(79.159844 66.557812)scale(0.1 -0.1)">
      <use xlink:href="#ArialMT-61"/>
      <use x="55.615234" xlink:href="#ArialMT-6c"/>
      <use x="77.832031" xlink:href="#ArialMT-65"/>
      <use x="133.447266" xlink:href="#ArialMT-61"/>
      <use x="189.0625" xlink:href="#ArialMT-74"/>
      <use x="216.845703" xlink:href="#ArialMT-6f"/>
      <use x="272.460938" xlink:href="#ArialMT-69"/>
      <use x="294.677734" xlink:href="#ArialMT-72"/>
      <use x="327.978516" xlink:href="#ArialMT-65"/>
      <use x="383.59375" xlink:href="#ArialMT-20"/>
      <use x="411.376953" xlink:href="#ArialMT-78"/>
      <use x="461.376953" xlink:href="#ArialMT-61"/>
      <use x="516.992188" xlink:href="#ArialMT-76"/>
      <use x="566.992188" xlink:href="#ArialMT-69"/>
      <use x="589.208984" xlink:href="#ArialMT-65"/>
      <use x="644.824219" xlink:href="#ArialMT-72"/>
     </g>
    </g>
    <g id="line2d_38">
     <path d="M 51.159844 77.203125 
L 71.159844 77.203125 
" style="fill:none;stroke:#55a868;stroke-linecap:round;stroke-width:1.75;"/>
    </g>
    <g id="line2d_39"/>
    <g id="text_20">
     <!-- aleatoire distrib normal -->
     <g style="fill:#262626;" transform="translate(79.159844 80.703125)scale(0.1 -0.1)">
      <use xlink:href="#ArialMT-61"/>
      <use x="55.615234" xlink:href="#ArialMT-6c"/>
      <use x="77.832031" xlink:href="#ArialMT-65"/>
      <use x="133.447266" xlink:href="#ArialMT-61"/>
      <use x="189.0625" xlink:href="#ArialMT-74"/>
      <use x="216.845703" xlink:href="#ArialMT-6f"/>
      <use x="272.460938" xlink:href="#ArialMT-69"/>
      <use x="294.677734" xlink:href="#ArialMT-72"/>
      <use x="327.978516" xlink:href="#ArialMT-65"/>
      <use x="383.59375" xlink:href="#ArialMT-20"/>
      <use x="411.376953" xlink:href="#ArialMT-64"/>
      <use x="466.992188" xlink:href="#ArialMT-69"/>
      <use x="489.208984" xlink:href="#ArialMT-73"/>
      <use x="539.208984" xlink:href="#ArialMT-74"/>
      <use x="566.992188" xlink:href="#ArialMT-72"/>
      <use x="600.292969" xlink:href="#ArialMT-69"/>
      <use x="622.509766" xlink:href="#ArialMT-62"/>
      <use x="678.125" xlink:href="#ArialMT-20"/>
      <use x="705.908203" xlink:href="#ArialMT-6e"/>
      <use x="761.523438" xlink:href="#ArialMT-6f"/>
      <use x="817.138672" xlink:href="#ArialMT-72"/>
      <use x="850.439453" xlink:href="#ArialMT-6d"/>
      <use x="933.740234" xlink:href="#ArialMT-61"/>
      <use x="989.355469" xlink:href="#ArialMT-6c"/>
     </g>
    </g>
    <g id="line2d_40">
     <path d="M 51.159844 91.348437 
L 71.159844 91.348437 
" style="fill:none;stroke:#c44e52;stroke-linecap:round;stroke-width:1.75;"/>
    </g>
    <g id="line2d_41"/>
    <g id="text_21">
     <!-- zro -->
     <defs>
      <path d="M 1.953125 0 
L 1.953125 7.125 
L 34.96875 45.015625 
Q 29.34375 44.734375 25.046875 44.734375 
L 3.90625 44.734375 
L 3.90625 51.859375 
L 46.296875 51.859375 
L 46.296875 46.046875 
L 18.21875 13.140625 
L 12.796875 7.125 
Q 18.703125 7.5625 23.875 7.5625 
L 47.859375 7.5625 
L 47.859375 0 
z
" id="ArialMT-7a"/>
     </defs>
     <g style="fill:#262626;" transform="translate(79.159844 94.848437)scale(0.1 -0.1)">
      <use xlink:href="#ArialMT-7a"/>
      <use x="50" xlink:href="#ArialMT-e9"/>
      <use x="105.615234" xlink:href="#ArialMT-72"/>
      <use x="138.916016" xlink:href="#ArialMT-6f"/>
     </g>
    </g>
    <g id="line2d_42">
     <path d="M 51.159844 105.49375 
L 71.159844 105.49375 
" style="fill:none;stroke:#8172b2;stroke-linecap:round;stroke-width:1.75;"/>
    </g>
    <g id="line2d_43"/>
    <g id="text_22">
     <!-- auto encoder -->
     <g style="fill:#262626;" transform="translate(79.159844 108.99375)scale(0.1 -0.1)">
      <use xlink:href="#ArialMT-61"/>
      <use x="55.615234" xlink:href="#ArialMT-75"/>
      <use x="111.230469" xlink:href="#ArialMT-74"/>
      <use x="139.013672" xlink:href="#ArialMT-6f"/>
      <use x="194.628906" xlink:href="#ArialMT-20"/>
      <use x="222.412109" xlink:href="#ArialMT-65"/>
      <use x="278.027344" xlink:href="#ArialMT-6e"/>
      <use x="333.642578" xlink:href="#ArialMT-63"/>
      <use x="383.642578" xlink:href="#ArialMT-6f"/>
      <use x="439.257812" xlink:href="#ArialMT-64"/>
      <use x="494.873047" xlink:href="#ArialMT-65"/>
      <use x="550.488281" xlink:href="#ArialMT-72"/>
     </g>
    </g>
    <g id="line2d_44">
     <path d="M 51.159844 119.639062 
L 71.159844 119.639062 
" style="fill:none;stroke:#ccb974;stroke-linecap:round;stroke-width:1.75;"/>
    </g>
    <g id="line2d_45"/>
    <g id="text_23">
     <!-- pca -->
     <g style="fill:#262626;" transform="translate(79.159844 123.139062)scale(0.1 -0.1)">
      <use xlink:href="#ArialMT-70"/>
      <use x="55.615234" xlink:href="#ArialMT-63"/>
      <use x="105.615234" xlink:href="#ArialMT-61"/>
     </g>
    </g>
   </g>
  </g>
  <g id="axes_2">
   <g id="patch_3">
    <path d="M 468.268935 376.56 
L 823.359844 376.56 
L 823.359844 50.4 
L 468.268935 50.4 
z
" style="fill:#eaeaf2;"/>
   </g>
   <g id="matplotlib.axis_3">
    <g id="xtick_7">
     <g id="line2d_46">
      <path clip-path="url(#p7693674c71)" d="M 484.409431 376.56 
L 484.409431 50.4 
" style="fill:none;stroke:#ffffff;stroke-linecap:round;"/>
     </g>
     <g id="line2d_47"/>
     <g id="text_24">
      <!-- 0 -->
      <g style="fill:#262626;" transform="translate(481.628962 390.717812)scale(0.1 -0.1)">
       <use xlink:href="#ArialMT-30"/>
      </g>
     </g>
    </g>
    <g id="xtick_8">
     <g id="line2d_48">
      <path clip-path="url(#p7693674c71)" d="M 549.036041 376.56 
L 549.036041 50.4 
" style="fill:none;stroke:#ffffff;stroke-linecap:round;"/>
     </g>
     <g id="line2d_49"/>
     <g id="text_25">
      <!-- 200 -->
      <g style="fill:#262626;" transform="translate(540.694634 390.717812)scale(0.1 -0.1)">
       <use xlink:href="#ArialMT-32"/>
       <use x="55.615234" xlink:href="#ArialMT-30"/>
       <use x="111.230469" xlink:href="#ArialMT-30"/>
      </g>
     </g>
    </g>
    <g id="xtick_9">
     <g id="line2d_50">
      <path clip-path="url(#p7693674c71)" d="M 613.662651 376.56 
L 613.662651 50.4 
" style="fill:none;stroke:#ffffff;stroke-linecap:round;"/>
     </g>
     <g id="line2d_51"/>
     <g id="text_26">
      <!-- 400 -->
      <g style="fill:#262626;" transform="translate(605.321244 390.717812)scale(0.1 -0.1)">
       <use xlink:href="#ArialMT-34"/>
       <use x="55.615234" xlink:href="#ArialMT-30"/>
       <use x="111.230469" xlink:href="#ArialMT-30"/>
      </g>
     </g>
    </g>
    <g id="xtick_10">
     <g id="line2d_52">
      <path clip-path="url(#p7693674c71)" d="M 678.289261 376.56 
L 678.289261 50.4 
" style="fill:none;stroke:#ffffff;stroke-linecap:round;"/>
     </g>
     <g id="line2d_53"/>
     <g id="text_27">
      <!-- 600 -->
      <g style="fill:#262626;" transform="translate(669.947855 390.717812)scale(0.1 -0.1)">
       <use xlink:href="#ArialMT-36"/>
       <use x="55.615234" xlink:href="#ArialMT-30"/>
       <use x="111.230469" xlink:href="#ArialMT-30"/>
      </g>
     </g>
    </g>
    <g id="xtick_11">
     <g id="line2d_54">
      <path clip-path="url(#p7693674c71)" d="M 742.915871 376.56 
L 742.915871 50.4 
" style="fill:none;stroke:#ffffff;stroke-linecap:round;"/>
     </g>
     <g id="line2d_55"/>
     <g id="text_28">
      <!-- 800 -->
      <g style="fill:#262626;" transform="translate(734.574465 390.717812)scale(0.1 -0.1)">
       <use xlink:href="#ArialMT-38"/>
       <use x="55.615234" xlink:href="#ArialMT-30"/>
       <use x="111.230469" xlink:href="#ArialMT-30"/>
      </g>
     </g>
    </g>
    <g id="xtick_12">
     <g id="line2d_56">
      <path clip-path="url(#p7693674c71)" d="M 807.542481 376.56 
L 807.542481 50.4 
" style="fill:none;stroke:#ffffff;stroke-linecap:round;"/>
     </g>
     <g id="line2d_57"/>
     <g id="text_29">
      <!-- 1000 -->
      <g style="fill:#262626;" transform="translate(796.420606 390.717812)scale(0.1 -0.1)">
       <use xlink:href="#ArialMT-31"/>
       <use x="55.615234" xlink:href="#ArialMT-30"/>
       <use x="111.230469" xlink:href="#ArialMT-30"/>
       <use x="166.845703" xlink:href="#ArialMT-30"/>
      </g>
     </g>
    </g>
    <g id="text_30">
     <!-- epoch -->
     <g style="fill:#262626;" transform="translate(630.830327 404.578906)scale(0.11 -0.11)">
      <use xlink:href="#ArialMT-65"/>
      <use x="55.615234" xlink:href="#ArialMT-70"/>
      <use x="111.230469" xlink:href="#ArialMT-6f"/>
      <use x="166.845703" xlink:href="#ArialMT-63"/>
      <use x="216.845703" xlink:href="#ArialMT-68"/>
     </g>
    </g>
   </g>
   <g id="matplotlib.axis_4">
    <g id="ytick_10">
     <g id="line2d_58">
      <path clip-path="url(#p7693674c71)" d="M 468.268935 350.857755 
L 823.359844 350.857755 
" style="fill:none;stroke:#ffffff;stroke-linecap:round;"/>
     </g>
     <g id="line2d_59"/>
     <g id="text_31">
      <!-- 1 -->
      <g style="fill:#262626;" transform="translate(455.707997 354.436662)scale(0.1 -0.1)">
       <use xlink:href="#ArialMT-31"/>
      </g>
     </g>
    </g>
    <g id="ytick_11">
     <g id="line2d_60">
      <path clip-path="url(#p7693674c71)" d="M 468.268935 305.920883 
L 823.359844 305.920883 
" style="fill:none;stroke:#ffffff;stroke-linecap:round;"/>
     </g>
     <g id="line2d_61"/>
     <g id="text_32">
      <!-- 2 -->
      <g style="fill:#262626;" transform="translate(455.707997 309.499789)scale(0.1 -0.1)">
       <use xlink:href="#ArialMT-32"/>
      </g>
     </g>
    </g>
    <g id="ytick_12">
     <g id="line2d_62">
      <path clip-path="url(#p7693674c71)" d="M 468.268935 260.984011 
L 823.359844 260.984011 
" style="fill:none;stroke:#ffffff;stroke-linecap:round;"/>
     </g>
     <g id="line2d_63"/>
     <g id="text_33">
      <!-- 3 -->
      <g style="fill:#262626;" transform="translate(455.707997 264.562917)scale(0.1 -0.1)">
       <use xlink:href="#ArialMT-33"/>
      </g>
     </g>
    </g>
    <g id="ytick_13">
     <g id="line2d_64">
      <path clip-path="url(#p7693674c71)" d="M 468.268935 216.047138 
L 823.359844 216.047138 
" style="fill:none;stroke:#ffffff;stroke-linecap:round;"/>
     </g>
     <g id="line2d_65"/>
     <g id="text_34">
      <!-- 4 -->
      <g style="fill:#262626;" transform="translate(455.707997 219.626044)scale(0.1 -0.1)">
       <use xlink:href="#ArialMT-34"/>
      </g>
     </g>
    </g>
    <g id="ytick_14">
     <g id="line2d_66">
      <path clip-path="url(#p7693674c71)" d="M 468.268935 171.110266 
L 823.359844 171.110266 
" style="fill:none;stroke:#ffffff;stroke-linecap:round;"/>
     </g>
     <g id="line2d_67"/>
     <g id="text_35">
      <!-- 5 -->
      <g style="fill:#262626;" transform="translate(455.707997 174.689172)scale(0.1 -0.1)">
       <use xlink:href="#ArialMT-35"/>
      </g>
     </g>
    </g>
    <g id="ytick_15">
     <g id="line2d_68">
      <path clip-path="url(#p7693674c71)" d="M 468.268935 126.173393 
L 823.359844 126.173393 
" style="fill:none;stroke:#ffffff;stroke-linecap:round;"/>
     </g>
     <g id="line2d_69"/>
     <g id="text_36">
      <!-- 6 -->
      <g style="fill:#262626;" transform="translate(455.707997 129.7523)scale(0.1 -0.1)">
       <use xlink:href="#ArialMT-36"/>
      </g>
     </g>
    </g>
    <g id="ytick_16">
     <g id="line2d_70">
      <path clip-path="url(#p7693674c71)" d="M 468.268935 81.236521 
L 823.359844 81.236521 
" style="fill:none;stroke:#ffffff;stroke-linecap:round;"/>
     </g>
     <g id="line2d_71"/>
     <g id="text_37">
      <!-- 7 -->
      <g style="fill:#262626;" transform="translate(455.707997 84.815427)scale(0.1 -0.1)">
       <use xlink:href="#ArialMT-37"/>
      </g>
     </g>
    </g>
    <g id="text_38">
     <!-- loss -->
     <g style="fill:#262626;" transform="translate(449.521747 223.260547)rotate(-90)scale(0.11 -0.11)">
      <use xlink:href="#ArialMT-6c"/>
      <use x="22.216797" xlink:href="#ArialMT-6f"/>
      <use x="77.832031" xlink:href="#ArialMT-73"/>
      <use x="127.832031" xlink:href="#ArialMT-73"/>
     </g>
    </g>
   </g>
   <g id="line2d_72">
    <path clip-path="url(#p7693674c71)" d="M 484.409431 241.82998 
L 485.055697 245.194302 
L 485.701963 247.080206 
L 486.348229 248.270283 
L 486.994495 249.047343 
L 487.963894 249.749589 
L 488.933293 250.143395 
L 490.548958 250.512528 
L 495.072821 251.183533 
L 506.382478 252.900856 
L 514.460804 254.348813 
L 521.246598 255.792335 
L 527.062993 257.252924 
L 532.233122 258.768882 
L 537.080118 260.41378 
L 541.60398 262.176016 
L 546.127843 264.185815 
L 550.328573 266.294437 
L 554.529302 268.649167 
L 558.730032 271.252038 
L 563.253895 274.319245 
L 568.100891 277.871454 
L 574.240419 282.666055 
L 587.488874 293.419213 
L 595.244067 299.519418 
L 601.706728 304.317779 
L 607.523123 308.36436 
L 613.339518 312.136528 
L 619.155913 315.635249 
L 624.972307 318.872237 
L 631.111835 322.024607 
L 637.251363 324.928515 
L 643.714024 327.742935 
L 650.499818 330.459046 
L 657.931879 333.185795 
L 665.687072 335.789518 
L 674.088531 338.369098 
L 683.136257 340.905024 
L 692.830248 343.381274 
L 703.170506 345.783364 
L 713.833896 348.03246 
L 725.143553 350.192483 
L 737.099476 352.250028 
L 749.701665 354.193948 
L 763.273253 356.057913 
L 777.491107 357.785535 
L 793.001494 359.441171 
L 807.219348 360.776674 
L 807.219348 360.776674 
" style="fill:none;stroke:#4c72b0;stroke-linecap:round;stroke-width:1.75;"/>
   </g>
   <g id="line2d_73">
    <path clip-path="url(#p7693674c71)" d="M 484.409431 65.225455 
L 484.732564 102.879096 
L 485.055697 126.815599 
L 485.701963 153.01254 
L 486.348229 168.802174 
L 487.317628 185.301789 
L 488.287027 196.946966 
L 489.256426 205.050423 
L 490.225825 211.073413 
L 491.518358 217.549918 
L 493.134023 224.329237 
L 495.072821 231.327953 
L 497.011619 237.433043 
L 498.950418 242.79661 
L 500.889216 247.526168 
L 502.828014 251.715729 
L 505.089946 256.032753 
L 507.351877 259.844214 
L 509.613808 263.244255 
L 512.198873 266.720257 
L 514.783937 269.838547 
L 517.692135 272.996403 
L 520.923465 276.148077 
L 524.154796 278.991366 
L 527.709259 281.827251 
L 531.586856 284.636899 
L 535.787586 287.412369 
L 540.634581 290.341968 
L 546.127843 293.387308 
L 552.267371 296.521518 
L 559.053165 299.721855 
L 566.162092 302.828831 
L 573.917285 305.972031 
L 581.995612 309.004214 
L 590.397071 311.920587 
L 599.121663 314.714699 
L 608.169389 317.380637 
L 617.540247 319.914099 
L 627.557372 322.388807 
L 637.897629 324.714196 
L 648.884153 326.956484 
L 660.516943 329.104684 
L 673.119132 331.205518 
L 687.013853 333.290249 
L 701.877973 335.293898 
L 718.357759 337.285141 
L 736.130077 339.204682 
L 755.51806 341.073562 
L 776.844841 342.904066 
L 800.433554 344.701555 
L 807.219348 345.180429 
L 807.219348 345.180429 
" style="fill:none;stroke:#55a868;stroke-linecap:round;stroke-width:1.75;"/>
   </g>
   <g id="line2d_74">
    <path clip-path="url(#p7693674c71)" d="M 484.409431 249.712476 
L 487.317628 249.773813 
L 527.386126 249.77708 
L 807.219348 249.77708 
L 807.219348 249.77708 
" style="fill:none;stroke:#c44e52;stroke-linecap:round;stroke-width:1.75;"/>
   </g>
   <g id="line2d_75">
    <path clip-path="url(#p7693674c71)" d="M 484.409431 235.49343 
L 484.732564 241.533273 
L 485.055697 244.269327 
L 485.701963 247.144403 
L 486.348229 248.586372 
L 486.994495 249.384035 
L 487.640761 249.853695 
L 488.61016 250.257829 
L 490.225825 250.628719 
L 497.981019 251.910624 
L 506.705611 253.502349 
L 513.491405 254.954035 
L 519.3078 256.409556 
L 524.801062 258.015263 
L 529.648058 259.660194 
L 534.17192 261.422429 
L 538.695783 263.433278 
L 542.896513 265.543905 
L 547.097242 267.900562 
L 551.297972 270.502748 
L 555.821835 273.561041 
L 560.991963 277.327119 
L 568.100891 282.806373 
L 582.318745 293.822062 
L 589.427672 299.019255 
L 596.536599 303.942379 
L 603.645526 308.59971 
L 610.754453 313.000558 
L 617.86338 317.143916 
L 624.649174 320.851737 
L 631.434968 324.311802 
L 638.220763 327.522386 
L 645.006557 330.487914 
L 652.115484 333.343239 
L 659.224411 335.958614 
L 666.656471 338.458938 
L 674.734797 340.933892 
L 683.136257 343.270729 
L 692.183982 345.550039 
L 701.55484 347.682934 
L 711.571965 349.737436 
L 722.235356 351.699045 
L 733.868145 353.606551 
L 746.147201 355.390937 
L 759.395656 357.088687 
L 773.613511 358.686415 
L 789.44703 360.235475 
L 806.573082 361.683936 
L 807.219348 361.734545 
L 807.219348 361.734545 
" style="fill:none;stroke:#8172b2;stroke-linecap:round;stroke-width:1.75;"/>
   </g>
   <g id="line2d_76">
    <path clip-path="url(#p7693674c71)" d="M 484.409431 235.942959 
L 485.055697 241.668352 
L 485.701963 244.833086 
L 486.348229 246.87193 
L 486.994495 248.232088 
L 487.640761 249.127022 
L 488.287027 249.700091 
L 489.256426 250.189304 
L 490.548958 250.514264 
L 493.780289 250.974699 
L 508.967542 253.059624 
L 518.984667 254.661377 
L 527.386126 256.231515 
L 534.495053 257.781028 
L 540.957714 259.414527 
L 546.774109 261.108633 
L 552.267371 262.939512 
L 557.4375 264.898699 
L 562.284496 266.968517 
L 567.131491 269.284398 
L 571.978487 271.860806 
L 576.825483 274.703184 
L 581.672479 277.804718 
L 586.842608 281.37394 
L 592.982135 285.898897 
L 601.383595 292.403225 
L 614.63205 302.664556 
L 621.417844 307.611191 
L 627.234239 311.584393 
L 633.050634 315.284153 
L 638.867029 318.708145 
L 644.683424 321.869033 
L 650.822951 324.942935 
L 657.285612 327.916884 
L 664.071407 330.783834 
L 671.180334 333.540132 
L 678.612394 336.183582 
L 686.69072 338.81282 
L 695.092179 341.30731 
L 703.816772 343.666207 
L 713.18763 345.964137 
L 722.881622 348.111089 
L 733.221879 350.171184 
L 744.208403 352.129996 
L 755.841193 353.977872 
L 768.443382 355.752418 
L 782.01497 357.437008 
L 796.87909 359.053916 
L 807.219348 360.058334 
L 807.219348 360.058334 
" style="fill:none;stroke:#ccb974;stroke-linecap:round;stroke-width:1.75;"/>
   </g>
   <g id="text_39">
    <!-- evolution du loss en fonction du nombre d'epoch -->
    <g style="fill:#262626;" transform="translate(517.257827 44.4)scale(0.12 -0.12)">
     <use xlink:href="#ArialMT-65"/>
     <use x="55.615234" xlink:href="#ArialMT-76"/>
     <use x="105.615234" xlink:href="#ArialMT-6f"/>
     <use x="161.230469" xlink:href="#ArialMT-6c"/>
     <use x="183.447266" xlink:href="#ArialMT-75"/>
     <use x="239.0625" xlink:href="#ArialMT-74"/>
     <use x="266.845703" xlink:href="#ArialMT-69"/>
     <use x="289.0625" xlink:href="#ArialMT-6f"/>
     <use x="344.677734" xlink:href="#ArialMT-6e"/>
     <use x="400.292969" xlink:href="#ArialMT-20"/>
     <use x="428.076172" xlink:href="#ArialMT-64"/>
     <use x="483.691406" xlink:href="#ArialMT-75"/>
     <use x="539.306641" xlink:href="#ArialMT-20"/>
     <use x="567.089844" xlink:href="#ArialMT-6c"/>
     <use x="589.306641" xlink:href="#ArialMT-6f"/>
     <use x="644.921875" xlink:href="#ArialMT-73"/>
     <use x="694.921875" xlink:href="#ArialMT-73"/>
     <use x="744.921875" xlink:href="#ArialMT-20"/>
     <use x="772.705078" xlink:href="#ArialMT-65"/>
     <use x="828.320312" xlink:href="#ArialMT-6e"/>
     <use x="883.935547" xlink:href="#ArialMT-20"/>
     <use x="911.71875" xlink:href="#ArialMT-66"/>
     <use x="939.501953" xlink:href="#ArialMT-6f"/>
     <use x="995.117188" xlink:href="#ArialMT-6e"/>
     <use x="1050.732422" xlink:href="#ArialMT-63"/>
     <use x="1100.732422" xlink:href="#ArialMT-74"/>
     <use x="1128.515625" xlink:href="#ArialMT-69"/>
     <use x="1150.732422" xlink:href="#ArialMT-6f"/>
     <use x="1206.347656" xlink:href="#ArialMT-6e"/>
     <use x="1261.962891" xlink:href="#ArialMT-20"/>
     <use x="1289.746094" xlink:href="#ArialMT-64"/>
     <use x="1345.361328" xlink:href="#ArialMT-75"/>
     <use x="1400.976562" xlink:href="#ArialMT-20"/>
     <use x="1428.759766" xlink:href="#ArialMT-6e"/>
     <use x="1484.375" xlink:href="#ArialMT-6f"/>
     <use x="1539.990234" xlink:href="#ArialMT-6d"/>
     <use x="1623.291016" xlink:href="#ArialMT-62"/>
     <use x="1678.90625" xlink:href="#ArialMT-72"/>
     <use x="1712.207031" xlink:href="#ArialMT-65"/>
     <use x="1767.822266" xlink:href="#ArialMT-20"/>
     <use x="1795.605469" xlink:href="#ArialMT-64"/>
     <use x="1851.220703" xlink:href="#ArialMT-27"/>
     <use x="1870.3125" xlink:href="#ArialMT-65"/>
     <use x="1925.927734" xlink:href="#ArialMT-70"/>
     <use x="1981.542969" xlink:href="#ArialMT-6f"/>
     <use x="2037.158203" xlink:href="#ArialMT-63"/>
     <use x="2087.158203" xlink:href="#ArialMT-68"/>
    </g>
   </g>
   <g id="legend_2">
    <g id="line2d_77">
     <path d="M 685.209844 63.057812 
L 705.209844 63.057812 
" style="fill:none;stroke:#4c72b0;stroke-linecap:round;stroke-width:1.75;"/>
    </g>
    <g id="line2d_78"/>
    <g id="text_40">
     <!-- aleatoire xavier -->
     <g style="fill:#262626;" transform="translate(713.209844 66.557812)scale(0.1 -0.1)">
      <use xlink:href="#ArialMT-61"/>
      <use x="55.615234" xlink:href="#ArialMT-6c"/>
      <use x="77.832031" xlink:href="#ArialMT-65"/>
      <use x="133.447266" xlink:href="#ArialMT-61"/>
      <use x="189.0625" xlink:href="#ArialMT-74"/>
      <use x="216.845703" xlink:href="#ArialMT-6f"/>
      <use x="272.460938" xlink:href="#ArialMT-69"/>
      <use x="294.677734" xlink:href="#ArialMT-72"/>
      <use x="327.978516" xlink:href="#ArialMT-65"/>
      <use x="383.59375" xlink:href="#ArialMT-20"/>
      <use x="411.376953" xlink:href="#ArialMT-78"/>
      <use x="461.376953" xlink:href="#ArialMT-61"/>
      <use x="516.992188" xlink:href="#ArialMT-76"/>
      <use x="566.992188" xlink:href="#ArialMT-69"/>
      <use x="589.208984" xlink:href="#ArialMT-65"/>
      <use x="644.824219" xlink:href="#ArialMT-72"/>
     </g>
    </g>
    <g id="line2d_79">
     <path d="M 685.209844 77.203125 
L 705.209844 77.203125 
" style="fill:none;stroke:#55a868;stroke-linecap:round;stroke-width:1.75;"/>
    </g>
    <g id="line2d_80"/>
    <g id="text_41">
     <!-- aleatoire distrib normal -->
     <g style="fill:#262626;" transform="translate(713.209844 80.703125)scale(0.1 -0.1)">
      <use xlink:href="#ArialMT-61"/>
      <use x="55.615234" xlink:href="#ArialMT-6c"/>
      <use x="77.832031" xlink:href="#ArialMT-65"/>
      <use x="133.447266" xlink:href="#ArialMT-61"/>
      <use x="189.0625" xlink:href="#ArialMT-74"/>
      <use x="216.845703" xlink:href="#ArialMT-6f"/>
      <use x="272.460938" xlink:href="#ArialMT-69"/>
      <use x="294.677734" xlink:href="#ArialMT-72"/>
      <use x="327.978516" xlink:href="#ArialMT-65"/>
      <use x="383.59375" xlink:href="#ArialMT-20"/>
      <use x="411.376953" xlink:href="#ArialMT-64"/>
      <use x="466.992188" xlink:href="#ArialMT-69"/>
      <use x="489.208984" xlink:href="#ArialMT-73"/>
      <use x="539.208984" xlink:href="#ArialMT-74"/>
      <use x="566.992188" xlink:href="#ArialMT-72"/>
      <use x="600.292969" xlink:href="#ArialMT-69"/>
      <use x="622.509766" xlink:href="#ArialMT-62"/>
      <use x="678.125" xlink:href="#ArialMT-20"/>
      <use x="705.908203" xlink:href="#ArialMT-6e"/>
      <use x="761.523438" xlink:href="#ArialMT-6f"/>
      <use x="817.138672" xlink:href="#ArialMT-72"/>
      <use x="850.439453" xlink:href="#ArialMT-6d"/>
      <use x="933.740234" xlink:href="#ArialMT-61"/>
      <use x="989.355469" xlink:href="#ArialMT-6c"/>
     </g>
    </g>
    <g id="line2d_81">
     <path d="M 685.209844 91.348437 
L 705.209844 91.348437 
" style="fill:none;stroke:#c44e52;stroke-linecap:round;stroke-width:1.75;"/>
    </g>
    <g id="line2d_82"/>
    <g id="text_42">
     <!-- zro -->
     <g style="fill:#262626;" transform="translate(713.209844 94.848437)scale(0.1 -0.1)">
      <use xlink:href="#ArialMT-7a"/>
      <use x="50" xlink:href="#ArialMT-e9"/>
      <use x="105.615234" xlink:href="#ArialMT-72"/>
      <use x="138.916016" xlink:href="#ArialMT-6f"/>
     </g>
    </g>
    <g id="line2d_83">
     <path d="M 685.209844 105.49375 
L 705.209844 105.49375 
" style="fill:none;stroke:#8172b2;stroke-linecap:round;stroke-width:1.75;"/>
    </g>
    <g id="line2d_84"/>
    <g id="text_43">
     <!-- auto encoder -->
     <g style="fill:#262626;" transform="translate(713.209844 108.99375)scale(0.1 -0.1)">
      <use xlink:href="#ArialMT-61"/>
      <use x="55.615234" xlink:href="#ArialMT-75"/>
      <use x="111.230469" xlink:href="#ArialMT-74"/>
      <use x="139.013672" xlink:href="#ArialMT-6f"/>
      <use x="194.628906" xlink:href="#ArialMT-20"/>
      <use x="222.412109" xlink:href="#ArialMT-65"/>
      <use x="278.027344" xlink:href="#ArialMT-6e"/>
      <use x="333.642578" xlink:href="#ArialMT-63"/>
      <use x="383.642578" xlink:href="#ArialMT-6f"/>
      <use x="439.257812" xlink:href="#ArialMT-64"/>
      <use x="494.873047" xlink:href="#ArialMT-65"/>
      <use x="550.488281" xlink:href="#ArialMT-72"/>
     </g>
    </g>
    <g id="line2d_85">
     <path d="M 685.209844 119.639062 
L 705.209844 119.639062 
" style="fill:none;stroke:#ccb974;stroke-linecap:round;stroke-width:1.75;"/>
    </g>
    <g id="line2d_86"/>
    <g id="text_44">
     <!-- pca -->
     <g style="fill:#262626;" transform="translate(713.209844 123.139062)scale(0.1 -0.1)">
      <use xlink:href="#ArialMT-70"/>
      <use x="55.615234" xlink:href="#ArialMT-63"/>
      <use x="105.615234" xlink:href="#ArialMT-61"/>
     </g>
    </g>
   </g>
  </g>
  <g id="text_45">
   <!-- Comparaison des initialisations - MNIST -->
   <defs>
    <path d="M 58.796875 25.09375 
L 68.265625 22.703125 
Q 65.28125 11.03125 57.546875 4.90625 
Q 49.8125 -1.21875 38.625 -1.21875 
Q 27.046875 -1.21875 19.796875 3.484375 
Q 12.546875 8.203125 8.765625 17.140625 
Q 4.984375 26.078125 4.984375 36.328125 
Q 4.984375 47.515625 9.25 55.828125 
Q 13.53125 64.15625 21.40625 68.46875 
Q 29.296875 72.796875 38.765625 72.796875 
Q 49.515625 72.796875 56.828125 67.328125 
Q 64.15625 61.859375 67.046875 51.953125 
L 57.71875 49.75 
Q 55.21875 57.5625 50.484375 61.125 
Q 45.75 64.703125 38.578125 64.703125 
Q 30.328125 64.703125 24.78125 60.734375 
Q 19.234375 56.78125 16.984375 50.109375 
Q 14.75 43.453125 14.75 36.375 
Q 14.75 27.25 17.40625 20.4375 
Q 20.0625 13.625 25.671875 10.25 
Q 31.296875 6.890625 37.84375 6.890625 
Q 45.796875 6.890625 51.3125 11.46875 
Q 56.84375 16.0625 58.796875 25.09375 
z
" id="ArialMT-43"/>
    <path d="M 3.171875 21.484375 
L 3.171875 30.328125 
L 30.171875 30.328125 
L 30.171875 21.484375 
z
" id="ArialMT-2d"/>
    <path d="M 7.421875 0 
L 7.421875 71.578125 
L 21.6875 71.578125 
L 38.625 20.90625 
Q 40.96875 13.8125 42.046875 10.296875 
Q 43.265625 14.203125 45.84375 21.78125 
L 62.984375 71.578125 
L 75.734375 71.578125 
L 75.734375 0 
L 66.609375 0 
L 66.609375 59.90625 
L 45.796875 0 
L 37.25 0 
L 16.546875 60.9375 
L 16.546875 0 
z
" id="ArialMT-4d"/>
    <path d="M 7.625 0 
L 7.625 71.578125 
L 17.328125 71.578125 
L 54.9375 15.375 
L 54.9375 71.578125 
L 64.015625 71.578125 
L 64.015625 0 
L 54.296875 0 
L 16.703125 56.25 
L 16.703125 0 
z
" id="ArialMT-4e"/>
    <path d="M 9.328125 0 
L 9.328125 71.578125 
L 18.796875 71.578125 
L 18.796875 0 
z
" id="ArialMT-49"/>
    <path d="M 4.5 23 
L 13.421875 23.78125 
Q 14.0625 18.40625 16.375 14.96875 
Q 18.703125 11.53125 23.578125 9.40625 
Q 28.46875 7.28125 34.578125 7.28125 
Q 39.984375 7.28125 44.140625 8.890625 
Q 48.296875 10.5 50.3125 13.296875 
Q 52.34375 16.109375 52.34375 19.4375 
Q 52.34375 22.796875 50.390625 25.3125 
Q 48.4375 27.828125 43.953125 29.546875 
Q 41.0625 30.671875 31.203125 33.03125 
Q 21.34375 35.40625 17.390625 37.5 
Q 12.25 40.1875 9.734375 44.15625 
Q 7.234375 48.140625 7.234375 53.078125 
Q 7.234375 58.5 10.296875 63.203125 
Q 13.375 67.921875 19.28125 70.359375 
Q 25.203125 72.796875 32.421875 72.796875 
Q 40.375 72.796875 46.453125 70.234375 
Q 52.546875 67.671875 55.8125 62.6875 
Q 59.078125 57.71875 59.328125 51.421875 
L 50.25 50.734375 
Q 49.515625 57.515625 45.28125 60.984375 
Q 41.0625 64.453125 32.8125 64.453125 
Q 24.21875 64.453125 20.28125 61.296875 
Q 16.359375 58.15625 16.359375 53.71875 
Q 16.359375 49.859375 19.140625 47.359375 
Q 21.875 44.875 33.421875 42.265625 
Q 44.96875 39.65625 49.265625 37.703125 
Q 55.515625 34.8125 58.484375 30.390625 
Q 61.46875 25.984375 61.46875 20.21875 
Q 61.46875 14.5 58.203125 9.4375 
Q 54.9375 4.390625 48.796875 1.578125 
Q 42.671875 -1.21875 35.015625 -1.21875 
Q 25.296875 -1.21875 18.71875 1.609375 
Q 12.15625 4.4375 8.421875 10.125 
Q 4.6875 15.828125 4.5 23 
z
" id="ArialMT-53"/>
    <path d="M 25.921875 0 
L 25.921875 63.140625 
L 2.34375 63.140625 
L 2.34375 71.578125 
L 59.078125 71.578125 
L 59.078125 63.140625 
L 35.40625 63.140625 
L 35.40625 0 
z
" id="ArialMT-54"/>
   </defs>
   <g style="fill:#262626;" transform="translate(277.893594 18.8475)scale(0.16 -0.16)">
    <use xlink:href="#ArialMT-43"/>
    <use x="72.216797" xlink:href="#ArialMT-6f"/>
    <use x="127.832031" xlink:href="#ArialMT-6d"/>
    <use x="211.132812" xlink:href="#ArialMT-70"/>
    <use x="266.748047" xlink:href="#ArialMT-61"/>
    <use x="322.363281" xlink:href="#ArialMT-72"/>
    <use x="355.664062" xlink:href="#ArialMT-61"/>
    <use x="411.279297" xlink:href="#ArialMT-69"/>
    <use x="433.496094" xlink:href="#ArialMT-73"/>
    <use x="483.496094" xlink:href="#ArialMT-6f"/>
    <use x="539.111328" xlink:href="#ArialMT-6e"/>
    <use x="594.726562" xlink:href="#ArialMT-20"/>
    <use x="622.509766" xlink:href="#ArialMT-64"/>
    <use x="678.125" xlink:href="#ArialMT-65"/>
    <use x="733.740234" xlink:href="#ArialMT-73"/>
    <use x="783.740234" xlink:href="#ArialMT-20"/>
    <use x="811.523438" xlink:href="#ArialMT-69"/>
    <use x="833.740234" xlink:href="#ArialMT-6e"/>
    <use x="889.355469" xlink:href="#ArialMT-69"/>
    <use x="911.572266" xlink:href="#ArialMT-74"/>
    <use x="939.355469" xlink:href="#ArialMT-69"/>
    <use x="961.572266" xlink:href="#ArialMT-61"/>
    <use x="1017.1875" xlink:href="#ArialMT-6c"/>
    <use x="1039.404297" xlink:href="#ArialMT-69"/>
    <use x="1061.621094" xlink:href="#ArialMT-73"/>
    <use x="1111.621094" xlink:href="#ArialMT-61"/>
    <use x="1167.236328" xlink:href="#ArialMT-74"/>
    <use x="1195.019531" xlink:href="#ArialMT-69"/>
    <use x="1217.236328" xlink:href="#ArialMT-6f"/>
    <use x="1272.851562" xlink:href="#ArialMT-6e"/>
    <use x="1328.466797" xlink:href="#ArialMT-73"/>
    <use x="1378.466797" xlink:href="#ArialMT-20"/>
    <use x="1406.25" xlink:href="#ArialMT-2d"/>
    <use x="1439.550781" xlink:href="#ArialMT-20"/>
    <use x="1467.333984" xlink:href="#ArialMT-4d"/>
    <use x="1550.634766" xlink:href="#ArialMT-4e"/>
    <use x="1622.851562" xlink:href="#ArialMT-49"/>
    <use x="1650.634766" xlink:href="#ArialMT-53"/>
    <use x="1717.333984" xlink:href="#ArialMT-54"/>
   </g>
  </g>
 </g>
 <defs>
  <clipPath id="p11a010de32">
   <rect height="326.16" width="355.090909" x="42.159844" y="50.4"/>
  </clipPath>
  <clipPath id="p7693674c71">
   <rect height="326.16" width="355.090909" x="468.268935" y="50.4"/>
  </clipPath>
 </defs>
</svg>
