<?xml version="1.0" encoding="utf-8" standalone="no"?>
<!DOCTYPE svg PUBLIC "-//W3C//DTD SVG 1.1//EN"
  "http://www.w3.org/Graphics/SVG/1.1/DTD/svg11.dtd">
<!-- Created with matplotlib (http://matplotlib.org/) -->
<svg height="413.965156pt" version="1.1" viewBox="0 0 830.559844 413.965156" width="830.559844pt" xmlns="http://www.w3.org/2000/svg" xmlns:xlink="http://www.w3.org/1999/xlink">
 <defs>
  <style type="text/css">
*{stroke-linecap:butt;stroke-linejoin:round;}
  </style>
 </defs>
 <g id="figure_1">
  <g id="patch_1">
   <path d="M 0 413.965156 
L 830.559844 413.965156 
L 830.559844 0 
L 0 0 
z
" style="fill:#ffffff;"/>
  </g>
  <g id="axes_1">
   <g id="patch_2">
    <path d="M 42.159844 376.56 
L 397.250753 376.56 
L 397.250753 50.4 
L 42.159844 50.4 
z
" style="fill:#eaeaf2;"/>
   </g>
   <g id="matplotlib.axis_1">
    <g id="xtick_1">
     <g id="line2d_1">
      <path clip-path="url(#pfd04eb82b1)" d="M 58.30034 376.56 
L 58.30034 50.4 
" style="fill:none;stroke:#ffffff;stroke-linecap:round;"/>
     </g>
     <g id="line2d_2"/>
     <g id="text_1">
      <!-- 0 -->
      <defs>
       <path d="M 4.15625 35.296875 
Q 4.15625 48 6.765625 55.734375 
Q 9.375 63.484375 14.515625 67.671875 
Q 19.671875 71.875 27.484375 71.875 
Q 33.25 71.875 37.59375 69.546875 
Q 41.9375 67.234375 44.765625 62.859375 
Q 47.609375 58.5 49.21875 52.21875 
Q 50.828125 45.953125 50.828125 35.296875 
Q 50.828125 22.703125 48.234375 14.96875 
Q 45.65625 7.234375 40.5 3 
Q 35.359375 -1.21875 27.484375 -1.21875 
Q 17.140625 -1.21875 11.234375 6.203125 
Q 4.15625 15.140625 4.15625 35.296875 
z
M 13.1875 35.296875 
Q 13.1875 17.671875 17.3125 11.828125 
Q 21.4375 6 27.484375 6 
Q 33.546875 6 37.671875 11.859375 
Q 41.796875 17.71875 41.796875 35.296875 
Q 41.796875 52.984375 37.671875 58.78125 
Q 33.546875 64.59375 27.390625 64.59375 
Q 21.34375 64.59375 17.71875 59.46875 
Q 13.1875 52.9375 13.1875 35.296875 
z
" id="ArialMT-30"/>
      </defs>
      <g style="fill:#262626;" transform="translate(55.519871 390.717812)scale(0.1 -0.1)">
       <use xlink:href="#ArialMT-30"/>
      </g>
     </g>
    </g>
    <g id="xtick_2">
     <g id="line2d_3">
      <path clip-path="url(#pfd04eb82b1)" d="M 122.92695 376.56 
L 122.92695 50.4 
" style="fill:none;stroke:#ffffff;stroke-linecap:round;"/>
     </g>
     <g id="line2d_4"/>
     <g id="text_2">
      <!-- 200 -->
      <defs>
       <path d="M 50.34375 8.453125 
L 50.34375 0 
L 3.03125 0 
Q 2.9375 3.171875 4.046875 6.109375 
Q 5.859375 10.9375 9.828125 15.625 
Q 13.8125 20.3125 21.34375 26.46875 
Q 33.015625 36.03125 37.109375 41.625 
Q 41.21875 47.21875 41.21875 52.203125 
Q 41.21875 57.421875 37.46875 61 
Q 33.734375 64.59375 27.734375 64.59375 
Q 21.390625 64.59375 17.578125 60.78125 
Q 13.765625 56.984375 13.71875 50.25 
L 4.6875 51.171875 
Q 5.609375 61.28125 11.65625 66.578125 
Q 17.71875 71.875 27.9375 71.875 
Q 38.234375 71.875 44.234375 66.15625 
Q 50.25 60.453125 50.25 52 
Q 50.25 47.703125 48.484375 43.546875 
Q 46.734375 39.40625 42.65625 34.8125 
Q 38.578125 30.21875 29.109375 22.21875 
Q 21.1875 15.578125 18.9375 13.203125 
Q 16.703125 10.84375 15.234375 8.453125 
z
" id="ArialMT-32"/>
      </defs>
      <g style="fill:#262626;" transform="translate(114.585543 390.717812)scale(0.1 -0.1)">
       <use xlink:href="#ArialMT-32"/>
       <use x="55.615234" xlink:href="#ArialMT-30"/>
       <use x="111.230469" xlink:href="#ArialMT-30"/>
      </g>
     </g>
    </g>
    <g id="xtick_3">
     <g id="line2d_5">
      <path clip-path="url(#pfd04eb82b1)" d="M 187.55356 376.56 
L 187.55356 50.4 
" style="fill:none;stroke:#ffffff;stroke-linecap:round;"/>
     </g>
     <g id="line2d_6"/>
     <g id="text_3">
      <!-- 400 -->
      <defs>
       <path d="M 32.328125 0 
L 32.328125 17.140625 
L 1.265625 17.140625 
L 1.265625 25.203125 
L 33.9375 71.578125 
L 41.109375 71.578125 
L 41.109375 25.203125 
L 50.78125 25.203125 
L 50.78125 17.140625 
L 41.109375 17.140625 
L 41.109375 0 
z
M 32.328125 25.203125 
L 32.328125 57.46875 
L 9.90625 25.203125 
z
" id="ArialMT-34"/>
      </defs>
      <g style="fill:#262626;" transform="translate(179.212154 390.717812)scale(0.1 -0.1)">
       <use xlink:href="#ArialMT-34"/>
       <use x="55.615234" xlink:href="#ArialMT-30"/>
       <use x="111.230469" xlink:href="#ArialMT-30"/>
      </g>
     </g>
    </g>
    <g id="xtick_4">
     <g id="line2d_7">
      <path clip-path="url(#pfd04eb82b1)" d="M 252.18017 376.56 
L 252.18017 50.4 
" style="fill:none;stroke:#ffffff;stroke-linecap:round;"/>
     </g>
     <g id="line2d_8"/>
     <g id="text_4">
      <!-- 600 -->
      <defs>
       <path d="M 49.75 54.046875 
L 41.015625 53.375 
Q 39.84375 58.546875 37.703125 60.890625 
Q 34.125 64.65625 28.90625 64.65625 
Q 24.703125 64.65625 21.53125 62.3125 
Q 17.390625 59.28125 14.984375 53.46875 
Q 12.59375 47.65625 12.5 36.921875 
Q 15.671875 41.75 20.265625 44.09375 
Q 24.859375 46.4375 29.890625 46.4375 
Q 38.671875 46.4375 44.84375 39.96875 
Q 51.03125 33.5 51.03125 23.25 
Q 51.03125 16.5 48.125 10.71875 
Q 45.21875 4.9375 40.140625 1.859375 
Q 35.0625 -1.21875 28.609375 -1.21875 
Q 17.625 -1.21875 10.6875 6.859375 
Q 3.765625 14.9375 3.765625 33.5 
Q 3.765625 54.25 11.421875 63.671875 
Q 18.109375 71.875 29.4375 71.875 
Q 37.890625 71.875 43.28125 67.140625 
Q 48.6875 62.40625 49.75 54.046875 
z
M 13.875 23.1875 
Q 13.875 18.65625 15.796875 14.5 
Q 17.71875 10.359375 21.1875 8.171875 
Q 24.65625 6 28.46875 6 
Q 34.03125 6 38.03125 10.484375 
Q 42.046875 14.984375 42.046875 22.703125 
Q 42.046875 30.125 38.078125 34.390625 
Q 34.125 38.671875 28.125 38.671875 
Q 22.171875 38.671875 18.015625 34.390625 
Q 13.875 30.125 13.875 23.1875 
z
" id="ArialMT-36"/>
      </defs>
      <g style="fill:#262626;" transform="translate(243.838764 390.717812)scale(0.1 -0.1)">
       <use xlink:href="#ArialMT-36"/>
       <use x="55.615234" xlink:href="#ArialMT-30"/>
       <use x="111.230469" xlink:href="#ArialMT-30"/>
      </g>
     </g>
    </g>
    <g id="xtick_5">
     <g id="line2d_9">
      <path clip-path="url(#pfd04eb82b1)" d="M 316.80678 376.56 
L 316.80678 50.4 
" style="fill:none;stroke:#ffffff;stroke-linecap:round;"/>
     </g>
     <g id="line2d_10"/>
     <g id="text_5">
      <!-- 800 -->
      <defs>
       <path d="M 17.671875 38.8125 
Q 12.203125 40.828125 9.5625 44.53125 
Q 6.9375 48.25 6.9375 53.421875 
Q 6.9375 61.234375 12.546875 66.546875 
Q 18.171875 71.875 27.484375 71.875 
Q 36.859375 71.875 42.578125 66.421875 
Q 48.296875 60.984375 48.296875 53.171875 
Q 48.296875 48.1875 45.671875 44.5 
Q 43.0625 40.828125 37.75 38.8125 
Q 44.34375 36.671875 47.78125 31.875 
Q 51.21875 27.09375 51.21875 20.453125 
Q 51.21875 11.28125 44.71875 5.03125 
Q 38.234375 -1.21875 27.640625 -1.21875 
Q 17.046875 -1.21875 10.546875 5.046875 
Q 4.046875 11.328125 4.046875 20.703125 
Q 4.046875 27.6875 7.59375 32.390625 
Q 11.140625 37.109375 17.671875 38.8125 
z
M 15.921875 53.71875 
Q 15.921875 48.640625 19.1875 45.40625 
Q 22.46875 42.1875 27.6875 42.1875 
Q 32.765625 42.1875 36.015625 45.375 
Q 39.265625 48.578125 39.265625 53.21875 
Q 39.265625 58.0625 35.90625 61.359375 
Q 32.5625 64.65625 27.59375 64.65625 
Q 22.5625 64.65625 19.234375 61.421875 
Q 15.921875 58.203125 15.921875 53.71875 
z
M 13.09375 20.65625 
Q 13.09375 16.890625 14.875 13.375 
Q 16.65625 9.859375 20.171875 7.921875 
Q 23.6875 6 27.734375 6 
Q 34.03125 6 38.125 10.046875 
Q 42.234375 14.109375 42.234375 20.359375 
Q 42.234375 26.703125 38.015625 30.859375 
Q 33.796875 35.015625 27.4375 35.015625 
Q 21.234375 35.015625 17.15625 30.90625 
Q 13.09375 26.8125 13.09375 20.65625 
z
" id="ArialMT-38"/>
      </defs>
      <g style="fill:#262626;" transform="translate(308.465374 390.717812)scale(0.1 -0.1)">
       <use xlink:href="#ArialMT-38"/>
       <use x="55.615234" xlink:href="#ArialMT-30"/>
       <use x="111.230469" xlink:href="#ArialMT-30"/>
      </g>
     </g>
    </g>
    <g id="xtick_6">
     <g id="line2d_11">
      <path clip-path="url(#pfd04eb82b1)" d="M 381.43339 376.56 
L 381.43339 50.4 
" style="fill:none;stroke:#ffffff;stroke-linecap:round;"/>
     </g>
     <g id="line2d_12"/>
     <g id="text_6">
      <!-- 1000 -->
      <defs>
       <path d="M 37.25 0 
L 28.46875 0 
L 28.46875 56 
Q 25.296875 52.984375 20.140625 49.953125 
Q 14.984375 46.921875 10.890625 45.40625 
L 10.890625 53.90625 
Q 18.265625 57.375 23.78125 62.296875 
Q 29.296875 67.234375 31.59375 71.875 
L 37.25 71.875 
z
" id="ArialMT-31"/>
      </defs>
      <g style="fill:#262626;" transform="translate(370.311515 390.717812)scale(0.1 -0.1)">
       <use xlink:href="#ArialMT-31"/>
       <use x="55.615234" xlink:href="#ArialMT-30"/>
       <use x="111.230469" xlink:href="#ArialMT-30"/>
       <use x="166.845703" xlink:href="#ArialMT-30"/>
      </g>
     </g>
    </g>
    <g id="text_7">
     <!-- epoch -->
     <defs>
      <path d="M 42.09375 16.703125 
L 51.171875 15.578125 
Q 49.03125 7.625 43.21875 3.21875 
Q 37.40625 -1.171875 28.375 -1.171875 
Q 17 -1.171875 10.328125 5.828125 
Q 3.65625 12.84375 3.65625 25.484375 
Q 3.65625 38.578125 10.390625 45.796875 
Q 17.140625 53.03125 27.875 53.03125 
Q 38.28125 53.03125 44.875 45.953125 
Q 51.46875 38.875 51.46875 26.03125 
Q 51.46875 25.25 51.421875 23.6875 
L 12.75 23.6875 
Q 13.234375 15.140625 17.578125 10.59375 
Q 21.921875 6.0625 28.421875 6.0625 
Q 33.25 6.0625 36.671875 8.59375 
Q 40.09375 11.140625 42.09375 16.703125 
z
M 13.234375 30.90625 
L 42.1875 30.90625 
Q 41.609375 37.453125 38.875 40.71875 
Q 34.671875 45.796875 27.984375 45.796875 
Q 21.921875 45.796875 17.796875 41.75 
Q 13.671875 37.703125 13.234375 30.90625 
z
" id="ArialMT-65"/>
      <path d="M 6.59375 -19.875 
L 6.59375 51.859375 
L 14.59375 51.859375 
L 14.59375 45.125 
Q 17.4375 49.078125 21 51.046875 
Q 24.5625 53.03125 29.640625 53.03125 
Q 36.28125 53.03125 41.359375 49.609375 
Q 46.4375 46.1875 49.015625 39.953125 
Q 51.609375 33.734375 51.609375 26.3125 
Q 51.609375 18.359375 48.75 11.984375 
Q 45.90625 5.609375 40.453125 2.21875 
Q 35.015625 -1.171875 29 -1.171875 
Q 24.609375 -1.171875 21.109375 0.6875 
Q 17.625 2.546875 15.375 5.375 
L 15.375 -19.875 
z
M 14.546875 25.640625 
Q 14.546875 15.625 18.59375 10.84375 
Q 22.65625 6.0625 28.421875 6.0625 
Q 34.28125 6.0625 38.453125 11.015625 
Q 42.625 15.96875 42.625 26.375 
Q 42.625 36.28125 38.546875 41.203125 
Q 34.46875 46.140625 28.8125 46.140625 
Q 23.1875 46.140625 18.859375 40.890625 
Q 14.546875 35.640625 14.546875 25.640625 
z
" id="ArialMT-70"/>
      <path d="M 3.328125 25.921875 
Q 3.328125 40.328125 11.328125 47.265625 
Q 18.015625 53.03125 27.640625 53.03125 
Q 38.328125 53.03125 45.109375 46.015625 
Q 51.90625 39.015625 51.90625 26.65625 
Q 51.90625 16.65625 48.90625 10.90625 
Q 45.90625 5.171875 40.15625 2 
Q 34.421875 -1.171875 27.640625 -1.171875 
Q 16.75 -1.171875 10.03125 5.8125 
Q 3.328125 12.796875 3.328125 25.921875 
z
M 12.359375 25.921875 
Q 12.359375 15.96875 16.703125 11.015625 
Q 21.046875 6.0625 27.640625 6.0625 
Q 34.1875 6.0625 38.53125 11.03125 
Q 42.875 16.015625 42.875 26.21875 
Q 42.875 35.84375 38.5 40.796875 
Q 34.125 45.75 27.640625 45.75 
Q 21.046875 45.75 16.703125 40.8125 
Q 12.359375 35.890625 12.359375 25.921875 
z
" id="ArialMT-6f"/>
      <path d="M 40.4375 19 
L 49.078125 17.875 
Q 47.65625 8.9375 41.8125 3.875 
Q 35.984375 -1.171875 27.484375 -1.171875 
Q 16.84375 -1.171875 10.375 5.78125 
Q 3.90625 12.75 3.90625 25.734375 
Q 3.90625 34.125 6.6875 40.421875 
Q 9.46875 46.734375 15.15625 49.875 
Q 20.84375 53.03125 27.546875 53.03125 
Q 35.984375 53.03125 41.359375 48.75 
Q 46.734375 44.484375 48.25 36.625 
L 39.703125 35.296875 
Q 38.484375 40.53125 35.375 43.15625 
Q 32.28125 45.796875 27.875 45.796875 
Q 21.234375 45.796875 17.078125 41.03125 
Q 12.9375 36.28125 12.9375 25.984375 
Q 12.9375 15.53125 16.9375 10.796875 
Q 20.953125 6.0625 27.390625 6.0625 
Q 32.5625 6.0625 36.03125 9.234375 
Q 39.5 12.40625 40.4375 19 
z
" id="ArialMT-63"/>
      <path d="M 6.59375 0 
L 6.59375 71.578125 
L 15.375 71.578125 
L 15.375 45.90625 
Q 21.53125 53.03125 30.90625 53.03125 
Q 36.671875 53.03125 40.921875 50.75 
Q 45.171875 48.484375 47 44.484375 
Q 48.828125 40.484375 48.828125 32.859375 
L 48.828125 0 
L 40.046875 0 
L 40.046875 32.859375 
Q 40.046875 39.453125 37.1875 42.453125 
Q 34.328125 45.453125 29.109375 45.453125 
Q 25.203125 45.453125 21.75 43.421875 
Q 18.3125 41.40625 16.84375 37.9375 
Q 15.375 34.46875 15.375 28.375 
L 15.375 0 
z
" id="ArialMT-68"/>
     </defs>
     <g style="fill:#262626;" transform="translate(204.721236 404.578906)scale(0.11 -0.11)">
      <use xlink:href="#ArialMT-65"/>
      <use x="55.615234" xlink:href="#ArialMT-70"/>
      <use x="111.230469" xlink:href="#ArialMT-6f"/>
      <use x="166.845703" xlink:href="#ArialMT-63"/>
      <use x="216.845703" xlink:href="#ArialMT-68"/>
     </g>
    </g>
   </g>
   <g id="matplotlib.axis_2">
    <g id="ytick_1">
     <g id="line2d_13">
      <path clip-path="url(#pfd04eb82b1)" d="M 42.159844 361.039104 
L 397.250753 361.039104 
" style="fill:none;stroke:#ffffff;stroke-linecap:round;"/>
     </g>
     <g id="line2d_14"/>
     <g id="text_8">
      <!-- 0.1 -->
      <defs>
       <path d="M 9.078125 0 
L 9.078125 10.015625 
L 19.09375 10.015625 
L 19.09375 0 
z
" id="ArialMT-2e"/>
      </defs>
      <g style="fill:#262626;" transform="translate(21.259844 364.61801)scale(0.1 -0.1)">
       <use xlink:href="#ArialMT-30"/>
       <use x="55.615234" xlink:href="#ArialMT-2e"/>
       <use x="83.398438" xlink:href="#ArialMT-31"/>
      </g>
     </g>
    </g>
    <g id="ytick_2">
     <g id="line2d_15">
      <path clip-path="url(#pfd04eb82b1)" d="M 42.159844 322.789736 
L 397.250753 322.789736 
" style="fill:none;stroke:#ffffff;stroke-linecap:round;"/>
     </g>
     <g id="line2d_16"/>
     <g id="text_9">
      <!-- 0.2 -->
      <g style="fill:#262626;" transform="translate(21.259844 326.368642)scale(0.1 -0.1)">
       <use xlink:href="#ArialMT-30"/>
       <use x="55.615234" xlink:href="#ArialMT-2e"/>
       <use x="83.398438" xlink:href="#ArialMT-32"/>
      </g>
     </g>
    </g>
    <g id="ytick_3">
     <g id="line2d_17">
      <path clip-path="url(#pfd04eb82b1)" d="M 42.159844 284.540367 
L 397.250753 284.540367 
" style="fill:none;stroke:#ffffff;stroke-linecap:round;"/>
     </g>
     <g id="line2d_18"/>
     <g id="text_10">
      <!-- 0.3 -->
      <defs>
       <path d="M 4.203125 18.890625 
L 12.984375 20.0625 
Q 14.5 12.59375 18.140625 9.296875 
Q 21.78125 6 27 6 
Q 33.203125 6 37.46875 10.296875 
Q 41.75 14.59375 41.75 20.953125 
Q 41.75 27 37.796875 30.921875 
Q 33.84375 34.859375 27.734375 34.859375 
Q 25.25 34.859375 21.53125 33.890625 
L 22.515625 41.609375 
Q 23.390625 41.5 23.921875 41.5 
Q 29.546875 41.5 34.03125 44.421875 
Q 38.53125 47.359375 38.53125 53.46875 
Q 38.53125 58.296875 35.25 61.46875 
Q 31.984375 64.65625 26.8125 64.65625 
Q 21.6875 64.65625 18.265625 61.421875 
Q 14.84375 58.203125 13.875 51.765625 
L 5.078125 53.328125 
Q 6.6875 62.15625 12.390625 67.015625 
Q 18.109375 71.875 26.609375 71.875 
Q 32.46875 71.875 37.390625 69.359375 
Q 42.328125 66.84375 44.9375 62.5 
Q 47.5625 58.15625 47.5625 53.265625 
Q 47.5625 48.640625 45.0625 44.828125 
Q 42.578125 41.015625 37.703125 38.765625 
Q 44.046875 37.3125 47.5625 32.6875 
Q 51.078125 28.078125 51.078125 21.140625 
Q 51.078125 11.765625 44.234375 5.25 
Q 37.40625 -1.265625 26.953125 -1.265625 
Q 17.53125 -1.265625 11.296875 4.34375 
Q 5.078125 9.96875 4.203125 18.890625 
z
" id="ArialMT-33"/>
      </defs>
      <g style="fill:#262626;" transform="translate(21.259844 288.119274)scale(0.1 -0.1)">
       <use xlink:href="#ArialMT-30"/>
       <use x="55.615234" xlink:href="#ArialMT-2e"/>
       <use x="83.398438" xlink:href="#ArialMT-33"/>
      </g>
     </g>
    </g>
    <g id="ytick_4">
     <g id="line2d_19">
      <path clip-path="url(#pfd04eb82b1)" d="M 42.159844 246.290999 
L 397.250753 246.290999 
" style="fill:none;stroke:#ffffff;stroke-linecap:round;"/>
     </g>
     <g id="line2d_20"/>
     <g id="text_11">
      <!-- 0.4 -->
      <g style="fill:#262626;" transform="translate(21.259844 249.869906)scale(0.1 -0.1)">
       <use xlink:href="#ArialMT-30"/>
       <use x="55.615234" xlink:href="#ArialMT-2e"/>
       <use x="83.398438" xlink:href="#ArialMT-34"/>
      </g>
     </g>
    </g>
    <g id="ytick_5">
     <g id="line2d_21">
      <path clip-path="url(#pfd04eb82b1)" d="M 42.159844 208.041631 
L 397.250753 208.041631 
" style="fill:none;stroke:#ffffff;stroke-linecap:round;"/>
     </g>
     <g id="line2d_22"/>
     <g id="text_12">
      <!-- 0.5 -->
      <defs>
       <path d="M 4.15625 18.75 
L 13.375 19.53125 
Q 14.40625 12.796875 18.140625 9.390625 
Q 21.875 6 27.15625 6 
Q 33.5 6 37.890625 10.78125 
Q 42.28125 15.578125 42.28125 23.484375 
Q 42.28125 31 38.0625 35.34375 
Q 33.84375 39.703125 27 39.703125 
Q 22.75 39.703125 19.328125 37.765625 
Q 15.921875 35.84375 13.96875 32.765625 
L 5.71875 33.84375 
L 12.640625 70.609375 
L 48.25 70.609375 
L 48.25 62.203125 
L 19.671875 62.203125 
L 15.828125 42.96875 
Q 22.265625 47.46875 29.34375 47.46875 
Q 38.71875 47.46875 45.15625 40.96875 
Q 51.609375 34.46875 51.609375 24.265625 
Q 51.609375 14.546875 45.953125 7.46875 
Q 39.0625 -1.21875 27.15625 -1.21875 
Q 17.390625 -1.21875 11.203125 4.25 
Q 5.03125 9.71875 4.15625 18.75 
z
" id="ArialMT-35"/>
      </defs>
      <g style="fill:#262626;" transform="translate(21.259844 211.620537)scale(0.1 -0.1)">
       <use xlink:href="#ArialMT-30"/>
       <use x="55.615234" xlink:href="#ArialMT-2e"/>
       <use x="83.398438" xlink:href="#ArialMT-35"/>
      </g>
     </g>
    </g>
    <g id="ytick_6">
     <g id="line2d_23">
      <path clip-path="url(#pfd04eb82b1)" d="M 42.159844 169.792263 
L 397.250753 169.792263 
" style="fill:none;stroke:#ffffff;stroke-linecap:round;"/>
     </g>
     <g id="line2d_24"/>
     <g id="text_13">
      <!-- 0.6 -->
      <g style="fill:#262626;" transform="translate(21.259844 173.371169)scale(0.1 -0.1)">
       <use xlink:href="#ArialMT-30"/>
       <use x="55.615234" xlink:href="#ArialMT-2e"/>
       <use x="83.398438" xlink:href="#ArialMT-36"/>
      </g>
     </g>
    </g>
    <g id="ytick_7">
     <g id="line2d_25">
      <path clip-path="url(#pfd04eb82b1)" d="M 42.159844 131.542895 
L 397.250753 131.542895 
" style="fill:none;stroke:#ffffff;stroke-linecap:round;"/>
     </g>
     <g id="line2d_26"/>
     <g id="text_14">
      <!-- 0.7 -->
      <defs>
       <path d="M 4.734375 62.203125 
L 4.734375 70.65625 
L 51.078125 70.65625 
L 51.078125 63.8125 
Q 44.234375 56.546875 37.515625 44.484375 
Q 30.8125 32.421875 27.15625 19.671875 
Q 24.515625 10.6875 23.78125 0 
L 14.75 0 
Q 14.890625 8.453125 18.0625 20.40625 
Q 21.234375 32.375 27.171875 43.484375 
Q 33.109375 54.59375 39.796875 62.203125 
z
" id="ArialMT-37"/>
      </defs>
      <g style="fill:#262626;" transform="translate(21.259844 135.121801)scale(0.1 -0.1)">
       <use xlink:href="#ArialMT-30"/>
       <use x="55.615234" xlink:href="#ArialMT-2e"/>
       <use x="83.398438" xlink:href="#ArialMT-37"/>
      </g>
     </g>
    </g>
    <g id="ytick_8">
     <g id="line2d_27">
      <path clip-path="url(#pfd04eb82b1)" d="M 42.159844 93.293527 
L 397.250753 93.293527 
" style="fill:none;stroke:#ffffff;stroke-linecap:round;"/>
     </g>
     <g id="line2d_28"/>
     <g id="text_15">
      <!-- 0.8 -->
      <g style="fill:#262626;" transform="translate(21.259844 96.872433)scale(0.1 -0.1)">
       <use xlink:href="#ArialMT-30"/>
       <use x="55.615234" xlink:href="#ArialMT-2e"/>
       <use x="83.398438" xlink:href="#ArialMT-38"/>
      </g>
     </g>
    </g>
    <g id="ytick_9">
     <g id="line2d_29">
      <path clip-path="url(#pfd04eb82b1)" d="M 42.159844 55.044159 
L 397.250753 55.044159 
" style="fill:none;stroke:#ffffff;stroke-linecap:round;"/>
     </g>
     <g id="line2d_30"/>
     <g id="text_16">
      <!-- 0.9 -->
      <defs>
       <path d="M 5.46875 16.546875 
L 13.921875 17.328125 
Q 14.984375 11.375 18.015625 8.6875 
Q 21.046875 6 25.78125 6 
Q 29.828125 6 32.875 7.859375 
Q 35.9375 9.71875 37.890625 12.8125 
Q 39.84375 15.921875 41.15625 21.1875 
Q 42.484375 26.46875 42.484375 31.9375 
Q 42.484375 32.515625 42.4375 33.6875 
Q 39.796875 29.5 35.234375 26.875 
Q 30.671875 24.265625 25.34375 24.265625 
Q 16.453125 24.265625 10.296875 30.703125 
Q 4.15625 37.15625 4.15625 47.703125 
Q 4.15625 58.59375 10.578125 65.234375 
Q 17 71.875 26.65625 71.875 
Q 33.640625 71.875 39.421875 68.109375 
Q 45.21875 64.359375 48.21875 57.390625 
Q 51.21875 50.4375 51.21875 37.25 
Q 51.21875 23.53125 48.234375 15.40625 
Q 45.265625 7.28125 39.375 3.03125 
Q 33.5 -1.21875 25.59375 -1.21875 
Q 17.1875 -1.21875 11.859375 3.4375 
Q 6.546875 8.109375 5.46875 16.546875 
z
M 41.453125 48.140625 
Q 41.453125 55.71875 37.421875 60.15625 
Q 33.40625 64.59375 27.734375 64.59375 
Q 21.875 64.59375 17.53125 59.8125 
Q 13.1875 55.03125 13.1875 47.40625 
Q 13.1875 40.578125 17.3125 36.296875 
Q 21.4375 32.03125 27.484375 32.03125 
Q 33.59375 32.03125 37.515625 36.296875 
Q 41.453125 40.578125 41.453125 48.140625 
z
" id="ArialMT-39"/>
      </defs>
      <g style="fill:#262626;" transform="translate(21.259844 58.623065)scale(0.1 -0.1)">
       <use xlink:href="#ArialMT-30"/>
       <use x="55.615234" xlink:href="#ArialMT-2e"/>
       <use x="83.398438" xlink:href="#ArialMT-39"/>
      </g>
     </g>
    </g>
    <g id="text_17">
     <!-- accuracy -->
     <defs>
      <path d="M 40.4375 6.390625 
Q 35.546875 2.25 31.03125 0.53125 
Q 26.515625 -1.171875 21.34375 -1.171875 
Q 12.796875 -1.171875 8.203125 3 
Q 3.609375 7.171875 3.609375 13.671875 
Q 3.609375 17.484375 5.34375 20.625 
Q 7.078125 23.78125 9.890625 25.6875 
Q 12.703125 27.59375 16.21875 28.5625 
Q 18.796875 29.25 24.03125 29.890625 
Q 34.671875 31.15625 39.703125 32.90625 
Q 39.75 34.71875 39.75 35.203125 
Q 39.75 40.578125 37.25 42.78125 
Q 33.890625 45.75 27.25 45.75 
Q 21.046875 45.75 18.09375 43.578125 
Q 15.140625 41.40625 13.71875 35.890625 
L 5.125 37.0625 
Q 6.296875 42.578125 8.984375 45.96875 
Q 11.671875 49.359375 16.75 51.1875 
Q 21.828125 53.03125 28.515625 53.03125 
Q 35.15625 53.03125 39.296875 51.46875 
Q 43.453125 49.90625 45.40625 47.53125 
Q 47.359375 45.171875 48.140625 41.546875 
Q 48.578125 39.3125 48.578125 33.453125 
L 48.578125 21.734375 
Q 48.578125 9.46875 49.140625 6.21875 
Q 49.703125 2.984375 51.375 0 
L 42.1875 0 
Q 40.828125 2.734375 40.4375 6.390625 
z
M 39.703125 26.03125 
Q 34.90625 24.078125 25.34375 22.703125 
Q 19.921875 21.921875 17.671875 20.9375 
Q 15.4375 19.96875 14.203125 18.09375 
Q 12.984375 16.21875 12.984375 13.921875 
Q 12.984375 10.40625 15.640625 8.0625 
Q 18.3125 5.71875 23.4375 5.71875 
Q 28.515625 5.71875 32.46875 7.9375 
Q 36.421875 10.15625 38.28125 14.015625 
Q 39.703125 17 39.703125 22.796875 
z
" id="ArialMT-61"/>
      <path d="M 40.578125 0 
L 40.578125 7.625 
Q 34.515625 -1.171875 24.125 -1.171875 
Q 19.53125 -1.171875 15.546875 0.578125 
Q 11.578125 2.34375 9.640625 5 
Q 7.71875 7.671875 6.9375 11.53125 
Q 6.390625 14.109375 6.390625 19.734375 
L 6.390625 51.859375 
L 15.1875 51.859375 
L 15.1875 23.09375 
Q 15.1875 16.21875 15.71875 13.8125 
Q 16.546875 10.359375 19.234375 8.375 
Q 21.921875 6.390625 25.875 6.390625 
Q 29.828125 6.390625 33.296875 8.421875 
Q 36.765625 10.453125 38.203125 13.9375 
Q 39.65625 17.4375 39.65625 24.078125 
L 39.65625 51.859375 
L 48.4375 51.859375 
L 48.4375 0 
z
" id="ArialMT-75"/>
      <path d="M 6.5 0 
L 6.5 51.859375 
L 14.40625 51.859375 
L 14.40625 44 
Q 17.4375 49.515625 20 51.265625 
Q 22.5625 53.03125 25.640625 53.03125 
Q 30.078125 53.03125 34.671875 50.203125 
L 31.640625 42.046875 
Q 28.421875 43.953125 25.203125 43.953125 
Q 22.3125 43.953125 20.015625 42.21875 
Q 17.71875 40.484375 16.75 37.40625 
Q 15.28125 32.71875 15.28125 27.15625 
L 15.28125 0 
z
" id="ArialMT-72"/>
      <path d="M 6.203125 -19.96875 
L 5.21875 -11.71875 
Q 8.109375 -12.5 10.25 -12.5 
Q 13.1875 -12.5 14.9375 -11.515625 
Q 16.703125 -10.546875 17.828125 -8.796875 
Q 18.65625 -7.46875 20.515625 -2.25 
Q 20.75 -1.515625 21.296875 -0.09375 
L 1.609375 51.859375 
L 11.078125 51.859375 
L 21.875 21.828125 
Q 23.96875 16.109375 25.640625 9.8125 
Q 27.15625 15.875 29.25 21.625 
L 40.328125 51.859375 
L 49.125 51.859375 
L 29.390625 -0.875 
Q 26.21875 -9.421875 24.46875 -12.640625 
Q 22.125 -17 19.09375 -19.015625 
Q 16.0625 -21.046875 11.859375 -21.046875 
Q 9.328125 -21.046875 6.203125 -19.96875 
z
" id="ArialMT-79"/>
     </defs>
     <g style="fill:#262626;" transform="translate(14.944688 235.486875)rotate(-90)scale(0.11 -0.11)">
      <use xlink:href="#ArialMT-61"/>
      <use x="55.615234" xlink:href="#ArialMT-63"/>
      <use x="105.615234" xlink:href="#ArialMT-63"/>
      <use x="155.615234" xlink:href="#ArialMT-75"/>
      <use x="211.230469" xlink:href="#ArialMT-72"/>
      <use x="244.53125" xlink:href="#ArialMT-61"/>
      <use x="300.146484" xlink:href="#ArialMT-63"/>
      <use x="350.146484" xlink:href="#ArialMT-79"/>
     </g>
    </g>
   </g>
   <g id="line2d_31">
    <path clip-path="url(#pfd04eb82b1)" d="M 58.30034 361.09474 
L 58.623473 361.428551 
L 58.946606 361.456371 
L 59.269739 361.734545 
L 59.592872 360.733109 
L 59.916005 359.091863 
L 60.239138 356.226637 
L 60.562271 354.807933 
L 60.885404 354.11249 
L 61.208537 354.529758 
L 61.53167 355.141747 
L 61.854803 354.835752 
L 62.177936 355.197381 
L 62.501069 355.364288 
L 63.147335 353.889949 
L 63.793601 350.857819 
L 64.116735 348.85494 
L 64.439868 342.73504 
L 64.763001 333.110108 
L 65.086134 326.990214 
L 65.409267 325.460236 
L 65.7324 326.433859 
L 66.055533 327.936012 
L 66.378666 328.687093 
L 66.701799 329.994525 
L 67.348065 330.995961 
L 67.671198 330.968147 
L 67.994331 331.385409 
L 68.317464 331.524502 
L 69.286863 330.968147 
L 69.933129 329.966711 
L 71.548795 326.37822 
L 73.487593 320.898128 
L 74.456992 318.644894 
L 76.39579 311.35665 
L 77.36519 307.323083 
L 79.627121 299.673211 
L 80.59652 295.500545 
L 81.242786 293.247311 
L 83.504718 283.622385 
L 84.79725 278.476102 
L 87.382314 267.543734 
L 89.321112 259.142786 
L 90.936778 252.104908 
L 94.814374 237.667502 
L 95.46064 235.664629 
L 96.753173 230.935613 
L 101.600168 214.550973 
L 101.923301 213.883356 
L 104.185233 207.346189 
L 105.154632 205.31549 
L 106.447164 201.838278 
L 106.770297 201.254114 
L 107.416563 199.223415 
L 108.385962 196.497274 
L 110.971027 191.712619 
L 111.617293 190.015757 
L 112.263559 189.042129 
L 112.909825 187.428709 
L 115.171756 183.116961 
L 115.49489 182.477147 
L 116.464289 181.503518 
L 117.433688 179.639726 
L 117.756821 179.250284 
L 118.403087 178.193214 
L 119.372486 176.969236 
L 121.957551 173.46421 
L 122.92695 172.434953 
L 124.219482 170.654603 
L 124.542615 170.515533 
L 125.188881 169.820091 
L 125.512014 169.347184 
L 125.835147 169.152462 
L 126.15828 168.59609 
L 126.804546 168.262299 
L 127.773945 167.566857 
L 129.066478 166.454135 
L 129.389611 166.370693 
L 130.682143 165.36925 
L 131.005276 165.230157 
L 131.651542 164.645994 
L 131.974675 164.423436 
L 132.944074 163.421993 
L 133.913473 162.782202 
L 134.236606 162.643109 
L 135.529139 161.558224 
L 135.852272 161.280038 
L 137.144804 160.779317 
L 137.467937 160.584596 
L 137.79107 160.528968 
L 138.437336 159.889153 
L 140.053001 159.360618 
L 140.699267 158.859897 
L 141.668667 158.414804 
L 142.314933 158.275733 
L 142.961199 157.719361 
L 143.284332 157.663733 
L 145.22313 156.272848 
L 147.485062 155.577406 
L 148.454461 155.076685 
L 149.746993 154.687242 
L 150.393259 154.130893 
L 151.039525 153.963986 
L 151.362658 153.797079 
L 151.685791 153.463265 
L 152.332057 153.296358 
L 153.301456 152.684357 
L 154.593989 152.267101 
L 155.563388 151.738566 
L 156.209654 151.182216 
L 156.85592 150.987472 
L 157.502186 150.820565 
L 157.825319 150.848402 
L 162.026049 148.928982 
L 162.349182 148.622982 
L 162.995448 148.400424 
L 163.318581 148.428261 
L 164.28798 147.844075 
L 164.611113 147.62154 
L 165.257379 147.565911 
L 165.580512 147.204283 
L 167.196178 146.536655 
L 167.519311 146.286283 
L 168.165577 146.035934 
L 168.811843 145.646491 
L 169.458109 145.423933 
L 170.104375 145.340491 
L 171.073774 144.700677 
L 171.396907 144.589398 
L 171.72004 144.339049 
L 172.689439 144.088677 
L 174.951371 142.948164 
L 175.597637 142.224907 
L 175.92077 142.30835 
L 177.213302 141.835442 
L 177.859568 141.251279 
L 179.475234 140.444558 
L 179.798367 140.110743 
L 180.1215 139.999487 
L 180.767766 139.52658 
L 181.414032 139.248394 
L 181.737165 139.248394 
L 182.706564 138.636417 
L 183.35283 138.024416 
L 183.675963 137.857509 
L 183.999096 137.857509 
L 184.645362 137.551532 
L 185.291628 136.883903 
L 185.937895 136.550089 
L 186.584161 135.99374 
L 187.230427 135.938089 
L 187.876693 135.632089 
L 188.199826 135.298298 
L 189.492358 134.658483 
L 189.815491 134.463762 
L 190.138624 134.408111 
L 191.431156 133.629227 
L 191.754289 133.712669 
L 192.400556 133.267598 
L 192.723689 133.045063 
L 193.046822 132.961598 
L 193.693088 132.544342 
L 194.016221 132.377435 
L 194.339354 132.015807 
L 194.662487 131.960156 
L 196.278152 131.097806 
L 197.570684 130.318922 
L 197.893817 130.124201 
L 198.540083 129.929457 
L 199.18635 129.484386 
L 199.832616 128.983665 
L 200.478882 128.399502 
L 201.125148 127.870966 
L 201.771414 127.564966 
L 202.094547 127.203338 
L 202.41768 127.092059 
L 202.740813 126.84171 
L 203.063946 126.786059 
L 204.356478 125.701174 
L 204.679611 125.478639 
L 205.002745 125.422988 
L 206.61841 124.31029 
L 211.465406 121.445055 
L 211.788539 121.361613 
L 212.434805 120.91652 
L 213.727337 120.276728 
L 214.05047 119.803821 
L 214.373603 119.581263 
L 215.019869 119.330914 
L 215.989268 118.858007 
L 216.635534 118.301657 
L 217.928067 117.661843 
L 218.2512 117.328029 
L 218.897466 116.994237 
L 219.220599 116.604772 
L 220.836264 115.658981 
L 222.128796 114.546259 
L 223.744461 113.656096 
L 224.067594 113.544839 
L 224.713861 113.044118 
L 225.036994 112.960653 
L 225.68326 112.404304 
L 226.006393 112.320839 
L 227.945191 110.874326 
L 228.591457 110.373605 
L 230.530255 108.954906 
L 233.761586 107.230207 
L 234.407852 106.562579 
L 235.054118 106.145322 
L 235.377251 105.839322 
L 235.700384 105.755857 
L 236.34665 105.116066 
L 237.31605 104.253716 
L 237.962316 104.114623 
L 238.931715 103.446995 
L 239.254848 103.446995 
L 239.901114 103.001902 
L 240.224247 102.974088 
L 240.870513 102.473366 
L 241.193646 102.389924 
L 242.809311 101.360668 
L 245.071243 100.275783 
L 245.717509 99.858504 
L 246.363775 99.52469 
L 246.686908 99.190876 
L 247.010041 99.107433 
L 247.656307 98.773619 
L 248.302573 98.439805 
L 248.625706 98.133805 
L 249.271972 97.799991 
L 249.595105 97.60527 
L 249.918239 97.60527 
L 250.241372 97.438363 
L 250.564505 97.466177 
L 251.210771 97.132362 
L 253.795835 95.574571 
L 254.442101 94.962593 
L 255.088367 94.5175 
L 255.4115 94.489686 
L 255.734633 94.267151 
L 256.3809 94.016779 
L 259.61223 92.236452 
L 262.843561 90.261404 
L 263.166694 89.955403 
L 264.782359 89.454682 
L 265.105492 89.232147 
L 265.751758 89.06524 
L 268.659955 87.924704 
L 269.629355 87.479634 
L 269.952488 87.340541 
L 270.598754 86.923262 
L 274.47635 85.198563 
L 275.122616 84.809121 
L 276.738282 84.05805 
L 277.061415 84.002399 
L 277.707681 83.668585 
L 278.030814 83.501678 
L 278.353947 83.501678 
L 282.231544 82.249886 
L 283.200943 82.055165 
L 285.786007 81.27628 
L 286.432273 81.081537 
L 286.755406 80.803373 
L 288.371072 80.35828 
L 289.017338 79.941024 
L 289.663604 79.774117 
L 290.30987 79.60721 
L 291.279269 79.162116 
L 292.894934 78.577953 
L 294.833733 78.021604 
L 295.156866 77.965953 
L 295.803132 77.68779 
L 298.711329 76.82544 
L 300.003861 76.463812 
L 301.619527 76.129998 
L 302.265793 75.935277 
L 303.881458 75.545811 
L 305.820256 74.961648 
L 306.466522 74.739113 
L 307.112788 74.572206 
L 307.759055 74.488741 
L 308.728454 74.182741 
L 310.667252 73.960206 
L 311.313518 73.821112 
L 312.282917 73.793298 
L 312.929183 73.542949 
L 314.867982 73.320391 
L 315.514248 73.097856 
L 317.776179 72.791856 
L 320.684377 72.346786 
L 321.330643 72.3746 
L 322.300042 72.179878 
L 323.592574 72.12425 
L 331.347767 70.90025 
L 331.994033 70.816808 
L 339.749227 69.565016 
L 340.718626 69.509365 
L 341.688025 69.342458 
L 343.949956 69.036481 
L 345.565621 68.869574 
L 346.858154 68.674852 
L 347.827553 68.535759 
L 348.473819 68.480109 
L 350.089484 68.146317 
L 350.73575 68.062852 
L 352.028282 67.840317 
L 360.106609 67.256131 
L 361.076008 67.228317 
L 361.722274 67.117061 
L 363.661072 67.033596 
L 375.616995 65.89306 
L 376.909527 65.781804 
L 377.555793 65.75399 
L 378.525193 65.698339 
L 379.817725 65.475804 
L 380.463991 65.392362 
L 381.110257 65.225455 
L 381.110257 65.225455 
" style="fill:none;stroke:#4c72b0;stroke-linecap:round;stroke-width:1.75;"/>
   </g>
   <g id="text_18">
    <!-- evolution de la précision en fonction du nombre d'epoch -->
    <defs>
     <path d="M 21 0 
L 1.265625 51.859375 
L 10.546875 51.859375 
L 21.6875 20.796875 
Q 23.484375 15.765625 25 10.359375 
Q 26.171875 14.453125 28.265625 20.21875 
L 39.796875 51.859375 
L 48.828125 51.859375 
L 29.203125 0 
z
" id="ArialMT-76"/>
     <path d="M 6.390625 0 
L 6.390625 71.578125 
L 15.1875 71.578125 
L 15.1875 0 
z
" id="ArialMT-6c"/>
     <path d="M 25.78125 7.859375 
L 27.046875 0.09375 
Q 23.34375 -0.6875 20.40625 -0.6875 
Q 15.625 -0.6875 12.984375 0.828125 
Q 10.359375 2.34375 9.28125 4.8125 
Q 8.203125 7.28125 8.203125 15.1875 
L 8.203125 45.015625 
L 1.765625 45.015625 
L 1.765625 51.859375 
L 8.203125 51.859375 
L 8.203125 64.703125 
L 16.9375 69.96875 
L 16.9375 51.859375 
L 25.78125 51.859375 
L 25.78125 45.015625 
L 16.9375 45.015625 
L 16.9375 14.703125 
Q 16.9375 10.9375 17.40625 9.859375 
Q 17.875 8.796875 18.921875 8.15625 
Q 19.96875 7.515625 21.921875 7.515625 
Q 23.390625 7.515625 25.78125 7.859375 
z
" id="ArialMT-74"/>
     <path d="M 6.640625 61.46875 
L 6.640625 71.578125 
L 15.4375 71.578125 
L 15.4375 61.46875 
z
M 6.640625 0 
L 6.640625 51.859375 
L 15.4375 51.859375 
L 15.4375 0 
z
" id="ArialMT-69"/>
     <path d="M 6.59375 0 
L 6.59375 51.859375 
L 14.5 51.859375 
L 14.5 44.484375 
Q 20.21875 53.03125 31 53.03125 
Q 35.6875 53.03125 39.625 51.34375 
Q 43.5625 49.65625 45.515625 46.921875 
Q 47.46875 44.1875 48.25 40.4375 
Q 48.734375 37.984375 48.734375 31.890625 
L 48.734375 0 
L 39.9375 0 
L 39.9375 31.546875 
Q 39.9375 36.921875 38.90625 39.578125 
Q 37.890625 42.234375 35.28125 43.8125 
Q 32.671875 45.40625 29.15625 45.40625 
Q 23.53125 45.40625 19.453125 41.84375 
Q 15.375 38.28125 15.375 28.328125 
L 15.375 0 
z
" id="ArialMT-6e"/>
     <path id="ArialMT-20"/>
     <path d="M 40.234375 0 
L 40.234375 6.546875 
Q 35.296875 -1.171875 25.734375 -1.171875 
Q 19.53125 -1.171875 14.328125 2.25 
Q 9.125 5.671875 6.265625 11.796875 
Q 3.421875 17.921875 3.421875 25.875 
Q 3.421875 33.640625 6 39.96875 
Q 8.59375 46.296875 13.765625 49.65625 
Q 18.953125 53.03125 25.34375 53.03125 
Q 30.03125 53.03125 33.6875 51.046875 
Q 37.359375 49.078125 39.65625 45.90625 
L 39.65625 71.578125 
L 48.390625 71.578125 
L 48.390625 0 
z
M 12.453125 25.875 
Q 12.453125 15.921875 16.640625 10.984375 
Q 20.84375 6.0625 26.5625 6.0625 
Q 32.328125 6.0625 36.34375 10.765625 
Q 40.375 15.484375 40.375 25.140625 
Q 40.375 35.796875 36.265625 40.765625 
Q 32.171875 45.75 26.171875 45.75 
Q 20.3125 45.75 16.375 40.96875 
Q 12.453125 36.1875 12.453125 25.875 
z
" id="ArialMT-64"/>
     <path d="M 42.09375 16.703125 
L 51.171875 15.578125 
Q 49.03125 7.625 43.21875 3.21875 
Q 37.40625 -1.171875 28.375 -1.171875 
Q 17 -1.171875 10.328125 5.828125 
Q 3.65625 12.84375 3.65625 25.484375 
Q 3.65625 38.578125 10.390625 45.796875 
Q 17.140625 53.03125 27.875 53.03125 
Q 38.28125 53.03125 44.875 45.953125 
Q 51.46875 38.875 51.46875 26.03125 
Q 51.46875 25.25 51.421875 23.6875 
L 12.75 23.6875 
Q 13.234375 15.140625 17.578125 10.59375 
Q 21.921875 6.0625 28.421875 6.0625 
Q 33.25 6.0625 36.671875 8.59375 
Q 40.09375 11.140625 42.09375 16.703125 
z
M 13.234375 30.90625 
L 42.1875 30.90625 
Q 41.609375 37.453125 38.875 40.71875 
Q 34.671875 45.796875 27.984375 45.796875 
Q 21.921875 45.796875 17.796875 41.75 
Q 13.671875 37.703125 13.234375 30.90625 
z
M 22.71875 58.296875 
L 29.203125 71.96875 
L 40.734375 71.96875 
L 29.984375 58.296875 
z
" id="ArialMT-e9"/>
     <path d="M 3.078125 15.484375 
L 11.765625 16.84375 
Q 12.5 11.625 15.84375 8.84375 
Q 19.1875 6.0625 25.203125 6.0625 
Q 31.25 6.0625 34.171875 8.515625 
Q 37.109375 10.984375 37.109375 14.3125 
Q 37.109375 17.28125 34.515625 19 
Q 32.71875 20.171875 25.53125 21.96875 
Q 15.875 24.421875 12.140625 26.203125 
Q 8.40625 27.984375 6.46875 31.125 
Q 4.546875 34.28125 4.546875 38.09375 
Q 4.546875 41.546875 6.125 44.5 
Q 7.71875 47.46875 10.453125 49.421875 
Q 12.5 50.921875 16.03125 51.96875 
Q 19.578125 53.03125 23.640625 53.03125 
Q 29.734375 53.03125 34.34375 51.265625 
Q 38.96875 49.515625 41.15625 46.5 
Q 43.359375 43.5 44.1875 38.484375 
L 35.59375 37.3125 
Q 35.015625 41.3125 32.203125 43.546875 
Q 29.390625 45.796875 24.265625 45.796875 
Q 18.21875 45.796875 15.625 43.796875 
Q 13.03125 41.796875 13.03125 39.109375 
Q 13.03125 37.40625 14.109375 36.03125 
Q 15.1875 34.625 17.484375 33.6875 
Q 18.796875 33.203125 25.25 31.453125 
Q 34.578125 28.953125 38.25 27.359375 
Q 41.9375 25.78125 44.03125 22.75 
Q 46.140625 19.734375 46.140625 15.234375 
Q 46.140625 10.84375 43.578125 6.953125 
Q 41.015625 3.078125 36.171875 0.953125 
Q 31.34375 -1.171875 25.25 -1.171875 
Q 15.140625 -1.171875 9.84375 3.03125 
Q 4.546875 7.234375 3.078125 15.484375 
z
" id="ArialMT-73"/>
     <path d="M 8.6875 0 
L 8.6875 45.015625 
L 0.921875 45.015625 
L 0.921875 51.859375 
L 8.6875 51.859375 
L 8.6875 57.375 
Q 8.6875 62.59375 9.625 65.140625 
Q 10.890625 68.5625 14.078125 70.671875 
Q 17.28125 72.796875 23.046875 72.796875 
Q 26.765625 72.796875 31.25 71.921875 
L 29.9375 64.265625 
Q 27.203125 64.75 24.75 64.75 
Q 20.75 64.75 19.09375 63.03125 
Q 17.4375 61.328125 17.4375 56.640625 
L 17.4375 51.859375 
L 27.546875 51.859375 
L 27.546875 45.015625 
L 17.4375 45.015625 
L 17.4375 0 
z
" id="ArialMT-66"/>
     <path d="M 6.59375 0 
L 6.59375 51.859375 
L 14.453125 51.859375 
L 14.453125 44.578125 
Q 16.890625 48.390625 20.9375 50.703125 
Q 25 53.03125 30.171875 53.03125 
Q 35.9375 53.03125 39.625 50.640625 
Q 43.3125 48.25 44.828125 43.953125 
Q 50.984375 53.03125 60.84375 53.03125 
Q 68.5625 53.03125 72.703125 48.75 
Q 76.859375 44.484375 76.859375 35.59375 
L 76.859375 0 
L 68.109375 0 
L 68.109375 32.671875 
Q 68.109375 37.9375 67.25 40.25 
Q 66.40625 42.578125 64.15625 43.984375 
Q 61.921875 45.40625 58.890625 45.40625 
Q 53.421875 45.40625 49.796875 41.765625 
Q 46.1875 38.140625 46.1875 30.125 
L 46.1875 0 
L 37.40625 0 
L 37.40625 33.6875 
Q 37.40625 39.546875 35.25 42.46875 
Q 33.109375 45.40625 28.21875 45.40625 
Q 24.515625 45.40625 21.359375 43.453125 
Q 18.21875 41.5 16.796875 37.734375 
Q 15.375 33.984375 15.375 26.90625 
L 15.375 0 
z
" id="ArialMT-6d"/>
     <path d="M 14.703125 0 
L 6.546875 0 
L 6.546875 71.578125 
L 15.328125 71.578125 
L 15.328125 46.046875 
Q 20.90625 53.03125 29.546875 53.03125 
Q 34.328125 53.03125 38.59375 51.09375 
Q 42.875 49.171875 45.625 45.671875 
Q 48.390625 42.1875 49.953125 37.25 
Q 51.515625 32.328125 51.515625 26.703125 
Q 51.515625 13.375 44.921875 6.09375 
Q 38.328125 -1.171875 29.109375 -1.171875 
Q 19.921875 -1.171875 14.703125 6.5 
z
M 14.59375 26.3125 
Q 14.59375 17 17.140625 12.84375 
Q 21.296875 6.0625 28.375 6.0625 
Q 34.125 6.0625 38.328125 11.0625 
Q 42.53125 16.0625 42.53125 25.984375 
Q 42.53125 36.140625 38.5 40.96875 
Q 34.46875 45.796875 28.765625 45.796875 
Q 23 45.796875 18.796875 40.796875 
Q 14.59375 35.796875 14.59375 26.3125 
z
" id="ArialMT-62"/>
     <path d="M 6.640625 46.234375 
L 4.390625 59.625 
L 4.390625 71.578125 
L 14.40625 71.578125 
L 14.40625 59.625 
L 12.0625 46.234375 
z
" id="ArialMT-27"/>
    </defs>
    <g style="fill:#262626;" transform="translate(71.471548 44.4)scale(0.12 -0.12)">
     <use xlink:href="#ArialMT-65"/>
     <use x="55.615234" xlink:href="#ArialMT-76"/>
     <use x="105.615234" xlink:href="#ArialMT-6f"/>
     <use x="161.230469" xlink:href="#ArialMT-6c"/>
     <use x="183.447266" xlink:href="#ArialMT-75"/>
     <use x="239.0625" xlink:href="#ArialMT-74"/>
     <use x="266.845703" xlink:href="#ArialMT-69"/>
     <use x="289.0625" xlink:href="#ArialMT-6f"/>
     <use x="344.677734" xlink:href="#ArialMT-6e"/>
     <use x="400.292969" xlink:href="#ArialMT-20"/>
     <use x="428.076172" xlink:href="#ArialMT-64"/>
     <use x="483.691406" xlink:href="#ArialMT-65"/>
     <use x="539.306641" xlink:href="#ArialMT-20"/>
     <use x="567.089844" xlink:href="#ArialMT-6c"/>
     <use x="589.306641" xlink:href="#ArialMT-61"/>
     <use x="644.921875" xlink:href="#ArialMT-20"/>
     <use x="672.705078" xlink:href="#ArialMT-70"/>
     <use x="728.320312" xlink:href="#ArialMT-72"/>
     <use x="761.621094" xlink:href="#ArialMT-e9"/>
     <use x="817.236328" xlink:href="#ArialMT-63"/>
     <use x="867.236328" xlink:href="#ArialMT-69"/>
     <use x="889.453125" xlink:href="#ArialMT-73"/>
     <use x="939.453125" xlink:href="#ArialMT-69"/>
     <use x="961.669922" xlink:href="#ArialMT-6f"/>
     <use x="1017.285156" xlink:href="#ArialMT-6e"/>
     <use x="1072.900391" xlink:href="#ArialMT-20"/>
     <use x="1100.683594" xlink:href="#ArialMT-65"/>
     <use x="1156.298828" xlink:href="#ArialMT-6e"/>
     <use x="1211.914062" xlink:href="#ArialMT-20"/>
     <use x="1239.697266" xlink:href="#ArialMT-66"/>
     <use x="1267.480469" xlink:href="#ArialMT-6f"/>
     <use x="1323.095703" xlink:href="#ArialMT-6e"/>
     <use x="1378.710938" xlink:href="#ArialMT-63"/>
     <use x="1428.710938" xlink:href="#ArialMT-74"/>
     <use x="1456.494141" xlink:href="#ArialMT-69"/>
     <use x="1478.710938" xlink:href="#ArialMT-6f"/>
     <use x="1534.326172" xlink:href="#ArialMT-6e"/>
     <use x="1589.941406" xlink:href="#ArialMT-20"/>
     <use x="1617.724609" xlink:href="#ArialMT-64"/>
     <use x="1673.339844" xlink:href="#ArialMT-75"/>
     <use x="1728.955078" xlink:href="#ArialMT-20"/>
     <use x="1756.738281" xlink:href="#ArialMT-6e"/>
     <use x="1812.353516" xlink:href="#ArialMT-6f"/>
     <use x="1867.96875" xlink:href="#ArialMT-6d"/>
     <use x="1951.269531" xlink:href="#ArialMT-62"/>
     <use x="2006.884766" xlink:href="#ArialMT-72"/>
     <use x="2040.185547" xlink:href="#ArialMT-65"/>
     <use x="2095.800781" xlink:href="#ArialMT-20"/>
     <use x="2123.583984" xlink:href="#ArialMT-64"/>
     <use x="2179.199219" xlink:href="#ArialMT-27"/>
     <use x="2198.291016" xlink:href="#ArialMT-65"/>
     <use x="2253.90625" xlink:href="#ArialMT-70"/>
     <use x="2309.521484" xlink:href="#ArialMT-6f"/>
     <use x="2365.136719" xlink:href="#ArialMT-63"/>
     <use x="2415.136719" xlink:href="#ArialMT-68"/>
    </g>
   </g>
  </g>
  <g id="axes_2">
   <g id="patch_3">
    <path d="M 468.268935 376.56 
L 823.359844 376.56 
L 823.359844 50.4 
L 468.268935 50.4 
z
" style="fill:#eaeaf2;"/>
   </g>
   <g id="matplotlib.axis_3">
    <g id="xtick_7">
     <g id="line2d_32">
      <path clip-path="url(#pda198187f8)" d="M 484.409431 376.56 
L 484.409431 50.4 
" style="fill:none;stroke:#ffffff;stroke-linecap:round;"/>
     </g>
     <g id="line2d_33"/>
     <g id="text_19">
      <!-- 0 -->
      <g style="fill:#262626;" transform="translate(481.628962 390.717812)scale(0.1 -0.1)">
       <use xlink:href="#ArialMT-30"/>
      </g>
     </g>
    </g>
    <g id="xtick_8">
     <g id="line2d_34">
      <path clip-path="url(#pda198187f8)" d="M 549.036041 376.56 
L 549.036041 50.4 
" style="fill:none;stroke:#ffffff;stroke-linecap:round;"/>
     </g>
     <g id="line2d_35"/>
     <g id="text_20">
      <!-- 200 -->
      <g style="fill:#262626;" transform="translate(540.694634 390.717812)scale(0.1 -0.1)">
       <use xlink:href="#ArialMT-32"/>
       <use x="55.615234" xlink:href="#ArialMT-30"/>
       <use x="111.230469" xlink:href="#ArialMT-30"/>
      </g>
     </g>
    </g>
    <g id="xtick_9">
     <g id="line2d_36">
      <path clip-path="url(#pda198187f8)" d="M 613.662651 376.56 
L 613.662651 50.4 
" style="fill:none;stroke:#ffffff;stroke-linecap:round;"/>
     </g>
     <g id="line2d_37"/>
     <g id="text_21">
      <!-- 400 -->
      <g style="fill:#262626;" transform="translate(605.321244 390.717812)scale(0.1 -0.1)">
       <use xlink:href="#ArialMT-34"/>
       <use x="55.615234" xlink:href="#ArialMT-30"/>
       <use x="111.230469" xlink:href="#ArialMT-30"/>
      </g>
     </g>
    </g>
    <g id="xtick_10">
     <g id="line2d_38">
      <path clip-path="url(#pda198187f8)" d="M 678.289261 376.56 
L 678.289261 50.4 
" style="fill:none;stroke:#ffffff;stroke-linecap:round;"/>
     </g>
     <g id="line2d_39"/>
     <g id="text_22">
      <!-- 600 -->
      <g style="fill:#262626;" transform="translate(669.947855 390.717812)scale(0.1 -0.1)">
       <use xlink:href="#ArialMT-36"/>
       <use x="55.615234" xlink:href="#ArialMT-30"/>
       <use x="111.230469" xlink:href="#ArialMT-30"/>
      </g>
     </g>
    </g>
    <g id="xtick_11">
     <g id="line2d_40">
      <path clip-path="url(#pda198187f8)" d="M 742.915871 376.56 
L 742.915871 50.4 
" style="fill:none;stroke:#ffffff;stroke-linecap:round;"/>
     </g>
     <g id="line2d_41"/>
     <g id="text_23">
      <!-- 800 -->
      <g style="fill:#262626;" transform="translate(734.574465 390.717812)scale(0.1 -0.1)">
       <use xlink:href="#ArialMT-38"/>
       <use x="55.615234" xlink:href="#ArialMT-30"/>
       <use x="111.230469" xlink:href="#ArialMT-30"/>
      </g>
     </g>
    </g>
    <g id="xtick_12">
     <g id="line2d_42">
      <path clip-path="url(#pda198187f8)" d="M 807.542481 376.56 
L 807.542481 50.4 
" style="fill:none;stroke:#ffffff;stroke-linecap:round;"/>
     </g>
     <g id="line2d_43"/>
     <g id="text_24">
      <!-- 1000 -->
      <g style="fill:#262626;" transform="translate(796.420606 390.717812)scale(0.1 -0.1)">
       <use xlink:href="#ArialMT-31"/>
       <use x="55.615234" xlink:href="#ArialMT-30"/>
       <use x="111.230469" xlink:href="#ArialMT-30"/>
       <use x="166.845703" xlink:href="#ArialMT-30"/>
      </g>
     </g>
    </g>
    <g id="text_25">
     <!-- epoch -->
     <g style="fill:#262626;" transform="translate(630.830327 404.578906)scale(0.11 -0.11)">
      <use xlink:href="#ArialMT-65"/>
      <use x="55.615234" xlink:href="#ArialMT-70"/>
      <use x="111.230469" xlink:href="#ArialMT-6f"/>
      <use x="166.845703" xlink:href="#ArialMT-63"/>
      <use x="216.845703" xlink:href="#ArialMT-68"/>
     </g>
    </g>
   </g>
   <g id="matplotlib.axis_4">
    <g id="ytick_10">
     <g id="line2d_44">
      <path clip-path="url(#pda198187f8)" d="M 468.268935 339.754552 
L 823.359844 339.754552 
" style="fill:none;stroke:#ffffff;stroke-linecap:round;"/>
     </g>
     <g id="line2d_45"/>
     <g id="text_26">
      <!-- 1.0 -->
      <g style="fill:#262626;" transform="translate(447.368935 343.333458)scale(0.1 -0.1)">
       <use xlink:href="#ArialMT-31"/>
       <use x="55.615234" xlink:href="#ArialMT-2e"/>
       <use x="83.398438" xlink:href="#ArialMT-30"/>
      </g>
     </g>
    </g>
    <g id="ytick_11">
     <g id="line2d_46">
      <path clip-path="url(#pda198187f8)" d="M 468.268935 286.077918 
L 823.359844 286.077918 
" style="fill:none;stroke:#ffffff;stroke-linecap:round;"/>
     </g>
     <g id="line2d_47"/>
     <g id="text_27">
      <!-- 1.5 -->
      <g style="fill:#262626;" transform="translate(447.368935 289.656824)scale(0.1 -0.1)">
       <use xlink:href="#ArialMT-31"/>
       <use x="55.615234" xlink:href="#ArialMT-2e"/>
       <use x="83.398438" xlink:href="#ArialMT-35"/>
      </g>
     </g>
    </g>
    <g id="ytick_12">
     <g id="line2d_48">
      <path clip-path="url(#pda198187f8)" d="M 468.268935 232.401284 
L 823.359844 232.401284 
" style="fill:none;stroke:#ffffff;stroke-linecap:round;"/>
     </g>
     <g id="line2d_49"/>
     <g id="text_28">
      <!-- 2.0 -->
      <g style="fill:#262626;" transform="translate(447.368935 235.98019)scale(0.1 -0.1)">
       <use xlink:href="#ArialMT-32"/>
       <use x="55.615234" xlink:href="#ArialMT-2e"/>
       <use x="83.398438" xlink:href="#ArialMT-30"/>
      </g>
     </g>
    </g>
    <g id="ytick_13">
     <g id="line2d_50">
      <path clip-path="url(#pda198187f8)" d="M 468.268935 178.724649 
L 823.359844 178.724649 
" style="fill:none;stroke:#ffffff;stroke-linecap:round;"/>
     </g>
     <g id="line2d_51"/>
     <g id="text_29">
      <!-- 2.5 -->
      <g style="fill:#262626;" transform="translate(447.368935 182.303555)scale(0.1 -0.1)">
       <use xlink:href="#ArialMT-32"/>
       <use x="55.615234" xlink:href="#ArialMT-2e"/>
       <use x="83.398438" xlink:href="#ArialMT-35"/>
      </g>
     </g>
    </g>
    <g id="ytick_14">
     <g id="line2d_52">
      <path clip-path="url(#pda198187f8)" d="M 468.268935 125.048015 
L 823.359844 125.048015 
" style="fill:none;stroke:#ffffff;stroke-linecap:round;"/>
     </g>
     <g id="line2d_53"/>
     <g id="text_30">
      <!-- 3.0 -->
      <g style="fill:#262626;" transform="translate(447.368935 128.626921)scale(0.1 -0.1)">
       <use xlink:href="#ArialMT-33"/>
       <use x="55.615234" xlink:href="#ArialMT-2e"/>
       <use x="83.398438" xlink:href="#ArialMT-30"/>
      </g>
     </g>
    </g>
    <g id="ytick_15">
     <g id="line2d_54">
      <path clip-path="url(#pda198187f8)" d="M 468.268935 71.37138 
L 823.359844 71.37138 
" style="fill:none;stroke:#ffffff;stroke-linecap:round;"/>
     </g>
     <g id="line2d_55"/>
     <g id="text_31">
      <!-- 3.5 -->
      <g style="fill:#262626;" transform="translate(447.368935 74.950287)scale(0.1 -0.1)">
       <use xlink:href="#ArialMT-33"/>
       <use x="55.615234" xlink:href="#ArialMT-2e"/>
       <use x="83.398438" xlink:href="#ArialMT-35"/>
      </g>
     </g>
    </g>
    <g id="text_32">
     <!-- loss -->
     <g style="fill:#262626;" transform="translate(441.182685 223.260547)rotate(-90)scale(0.11 -0.11)">
      <use xlink:href="#ArialMT-6c"/>
      <use x="22.216797" xlink:href="#ArialMT-6f"/>
      <use x="77.832031" xlink:href="#ArialMT-73"/>
      <use x="127.832031" xlink:href="#ArialMT-73"/>
     </g>
    </g>
   </g>
   <g id="line2d_56">
    <path clip-path="url(#pda198187f8)" d="M 484.409431 65.225455 
L 485.055697 78.903302 
L 485.701963 86.463787 
L 486.348229 91.334544 
L 486.994495 94.583934 
L 487.640761 96.721911 
L 488.287027 98.090962 
L 488.933293 98.954026 
L 489.579559 99.507442 
L 490.548958 100.036004 
L 492.487757 100.730218 
L 507.67501 105.661839 
L 514.460804 108.142611 
L 520.600332 110.620464 
L 526.093594 113.077636 
L 530.94059 115.476145 
L 535.464452 117.946038 
L 539.988315 120.676003 
L 544.189045 123.478247 
L 548.066641 126.323542 
L 551.944238 129.446032 
L 555.821835 132.874509 
L 559.376298 136.310358 
L 562.930762 140.047665 
L 566.485225 144.104398 
L 570.039689 148.494378 
L 573.594152 153.225438 
L 577.471749 158.775767 
L 581.349346 164.719953 
L 585.550075 171.572148 
L 590.397071 179.940617 
L 596.213466 190.477112 
L 607.19999 210.999808 
L 614.63205 224.621986 
L 620.125312 234.246095 
L 624.972307 242.315742 
L 629.49617 249.447473 
L 634.020033 256.178527 
L 638.543896 262.51223 
L 643.067758 268.463916 
L 647.591621 274.056055 
L 652.115484 279.314474 
L 656.962479 284.60815 
L 661.809475 289.580109 
L 666.979604 294.56086 
L 672.149733 299.238285 
L 677.642995 303.905063 
L 683.136257 308.286059 
L 688.952651 312.638619 
L 694.769046 316.719565 
L 700.908574 320.754606 
L 707.048102 324.529857 
L 713.510763 328.243438 
L 720.296557 331.87633 
L 727.082351 335.256894 
L 734.191278 338.549001 
L 741.623339 341.740041 
L 749.378532 344.820081 
L 757.456858 347.781814 
L 765.858317 350.620256 
L 774.58291 353.332649 
L 783.953768 356.006394 
L 793.64776 358.539008 
L 803.988017 361.007897 
L 807.219348 361.734545 
L 807.219348 361.734545 
" style="fill:none;stroke:#4c72b0;stroke-linecap:round;stroke-width:1.75;"/>
   </g>
   <g id="text_33">
    <!-- evolution du loss en fonction du nombre d'epoch -->
    <g style="fill:#262626;" transform="translate(517.257827 44.4)scale(0.12 -0.12)">
     <use xlink:href="#ArialMT-65"/>
     <use x="55.615234" xlink:href="#ArialMT-76"/>
     <use x="105.615234" xlink:href="#ArialMT-6f"/>
     <use x="161.230469" xlink:href="#ArialMT-6c"/>
     <use x="183.447266" xlink:href="#ArialMT-75"/>
     <use x="239.0625" xlink:href="#ArialMT-74"/>
     <use x="266.845703" xlink:href="#ArialMT-69"/>
     <use x="289.0625" xlink:href="#ArialMT-6f"/>
     <use x="344.677734" xlink:href="#ArialMT-6e"/>
     <use x="400.292969" xlink:href="#ArialMT-20"/>
     <use x="428.076172" xlink:href="#ArialMT-64"/>
     <use x="483.691406" xlink:href="#ArialMT-75"/>
     <use x="539.306641" xlink:href="#ArialMT-20"/>
     <use x="567.089844" xlink:href="#ArialMT-6c"/>
     <use x="589.306641" xlink:href="#ArialMT-6f"/>
     <use x="644.921875" xlink:href="#ArialMT-73"/>
     <use x="694.921875" xlink:href="#ArialMT-73"/>
     <use x="744.921875" xlink:href="#ArialMT-20"/>
     <use x="772.705078" xlink:href="#ArialMT-65"/>
     <use x="828.320312" xlink:href="#ArialMT-6e"/>
     <use x="883.935547" xlink:href="#ArialMT-20"/>
     <use x="911.71875" xlink:href="#ArialMT-66"/>
     <use x="939.501953" xlink:href="#ArialMT-6f"/>
     <use x="995.117188" xlink:href="#ArialMT-6e"/>
     <use x="1050.732422" xlink:href="#ArialMT-63"/>
     <use x="1100.732422" xlink:href="#ArialMT-74"/>
     <use x="1128.515625" xlink:href="#ArialMT-69"/>
     <use x="1150.732422" xlink:href="#ArialMT-6f"/>
     <use x="1206.347656" xlink:href="#ArialMT-6e"/>
     <use x="1261.962891" xlink:href="#ArialMT-20"/>
     <use x="1289.746094" xlink:href="#ArialMT-64"/>
     <use x="1345.361328" xlink:href="#ArialMT-75"/>
     <use x="1400.976562" xlink:href="#ArialMT-20"/>
     <use x="1428.759766" xlink:href="#ArialMT-6e"/>
     <use x="1484.375" xlink:href="#ArialMT-6f"/>
     <use x="1539.990234" xlink:href="#ArialMT-6d"/>
     <use x="1623.291016" xlink:href="#ArialMT-62"/>
     <use x="1678.90625" xlink:href="#ArialMT-72"/>
     <use x="1712.207031" xlink:href="#ArialMT-65"/>
     <use x="1767.822266" xlink:href="#ArialMT-20"/>
     <use x="1795.605469" xlink:href="#ArialMT-64"/>
     <use x="1851.220703" xlink:href="#ArialMT-27"/>
     <use x="1870.3125" xlink:href="#ArialMT-65"/>
     <use x="1925.927734" xlink:href="#ArialMT-70"/>
     <use x="1981.542969" xlink:href="#ArialMT-6f"/>
     <use x="2037.158203" xlink:href="#ArialMT-63"/>
     <use x="2087.158203" xlink:href="#ArialMT-68"/>
    </g>
   </g>
  </g>
  <g id="text_34">
   <!-- Initialisation aléatoire -->
   <defs>
    <path d="M 9.328125 0 
L 9.328125 71.578125 
L 18.796875 71.578125 
L 18.796875 0 
z
" id="ArialMT-49"/>
   </defs>
   <g style="fill:#262626;" transform="translate(345.453594 18.6525)scale(0.16 -0.16)">
    <use xlink:href="#ArialMT-49"/>
    <use x="27.783203" xlink:href="#ArialMT-6e"/>
    <use x="83.398438" xlink:href="#ArialMT-69"/>
    <use x="105.615234" xlink:href="#ArialMT-74"/>
    <use x="133.398438" xlink:href="#ArialMT-69"/>
    <use x="155.615234" xlink:href="#ArialMT-61"/>
    <use x="211.230469" xlink:href="#ArialMT-6c"/>
    <use x="233.447266" xlink:href="#ArialMT-69"/>
    <use x="255.664062" xlink:href="#ArialMT-73"/>
    <use x="305.664062" xlink:href="#ArialMT-61"/>
    <use x="361.279297" xlink:href="#ArialMT-74"/>
    <use x="389.0625" xlink:href="#ArialMT-69"/>
    <use x="411.279297" xlink:href="#ArialMT-6f"/>
    <use x="466.894531" xlink:href="#ArialMT-6e"/>
    <use x="522.509766" xlink:href="#ArialMT-20"/>
    <use x="550.292969" xlink:href="#ArialMT-61"/>
    <use x="605.908203" xlink:href="#ArialMT-6c"/>
    <use x="628.125" xlink:href="#ArialMT-e9"/>
    <use x="683.740234" xlink:href="#ArialMT-61"/>
    <use x="739.355469" xlink:href="#ArialMT-74"/>
    <use x="767.138672" xlink:href="#ArialMT-6f"/>
    <use x="822.753906" xlink:href="#ArialMT-69"/>
    <use x="844.970703" xlink:href="#ArialMT-72"/>
    <use x="878.271484" xlink:href="#ArialMT-65"/>
   </g>
  </g>
 </g>
 <defs>
  <clipPath id="pfd04eb82b1">
   <rect height="326.16" width="355.090909" x="42.159844" y="50.4"/>
  </clipPath>
  <clipPath id="pda198187f8">
   <rect height="326.16" width="355.090909" x="468.268935" y="50.4"/>
  </clipPath>
 </defs>
</svg>
