<?xml version="1.0" encoding="utf-8" standalone="no"?>
<!DOCTYPE svg PUBLIC "-//W3C//DTD SVG 1.1//EN"
  "http://www.w3.org/Graphics/SVG/1.1/DTD/svg11.dtd">
<!-- Created with matplotlib (http://matplotlib.org/) -->
<svg height="413.965156pt" version="1.1" viewBox="0 0 830.559844 413.965156" width="830.559844pt" xmlns="http://www.w3.org/2000/svg" xmlns:xlink="http://www.w3.org/1999/xlink">
 <defs>
  <style type="text/css">
*{stroke-linecap:butt;stroke-linejoin:round;}
  </style>
 </defs>
 <g id="figure_1">
  <g id="patch_1">
   <path d="M 0 413.965156 
L 830.559844 413.965156 
L 830.559844 0 
L 0 0 
z
" style="fill:#ffffff;"/>
  </g>
  <g id="axes_1">
   <g id="patch_2">
    <path d="M 42.159844 376.56 
L 397.250753 376.56 
L 397.250753 50.4 
L 42.159844 50.4 
z
" style="fill:#eaeaf2;"/>
   </g>
   <g id="matplotlib.axis_1">
    <g id="xtick_1">
     <g id="line2d_1">
      <path clip-path="url(#pf33845a946)" d="M 58.30034 376.56 
L 58.30034 50.4 
" style="fill:none;stroke:#ffffff;stroke-linecap:round;"/>
     </g>
     <g id="line2d_2"/>
     <g id="text_1">
      <!-- 0 -->
      <defs>
       <path d="M 4.15625 35.296875 
Q 4.15625 48 6.765625 55.734375 
Q 9.375 63.484375 14.515625 67.671875 
Q 19.671875 71.875 27.484375 71.875 
Q 33.25 71.875 37.59375 69.546875 
Q 41.9375 67.234375 44.765625 62.859375 
Q 47.609375 58.5 49.21875 52.21875 
Q 50.828125 45.953125 50.828125 35.296875 
Q 50.828125 22.703125 48.234375 14.96875 
Q 45.65625 7.234375 40.5 3 
Q 35.359375 -1.21875 27.484375 -1.21875 
Q 17.140625 -1.21875 11.234375 6.203125 
Q 4.15625 15.140625 4.15625 35.296875 
z
M 13.1875 35.296875 
Q 13.1875 17.671875 17.3125 11.828125 
Q 21.4375 6 27.484375 6 
Q 33.546875 6 37.671875 11.859375 
Q 41.796875 17.71875 41.796875 35.296875 
Q 41.796875 52.984375 37.671875 58.78125 
Q 33.546875 64.59375 27.390625 64.59375 
Q 21.34375 64.59375 17.71875 59.46875 
Q 13.1875 52.9375 13.1875 35.296875 
z
" id="ArialMT-30"/>
      </defs>
      <g style="fill:#262626;" transform="translate(55.519871 390.717812)scale(0.1 -0.1)">
       <use xlink:href="#ArialMT-30"/>
      </g>
     </g>
    </g>
    <g id="xtick_2">
     <g id="line2d_3">
      <path clip-path="url(#pf33845a946)" d="M 122.92695 376.56 
L 122.92695 50.4 
" style="fill:none;stroke:#ffffff;stroke-linecap:round;"/>
     </g>
     <g id="line2d_4"/>
     <g id="text_2">
      <!-- 200 -->
      <defs>
       <path d="M 50.34375 8.453125 
L 50.34375 0 
L 3.03125 0 
Q 2.9375 3.171875 4.046875 6.109375 
Q 5.859375 10.9375 9.828125 15.625 
Q 13.8125 20.3125 21.34375 26.46875 
Q 33.015625 36.03125 37.109375 41.625 
Q 41.21875 47.21875 41.21875 52.203125 
Q 41.21875 57.421875 37.46875 61 
Q 33.734375 64.59375 27.734375 64.59375 
Q 21.390625 64.59375 17.578125 60.78125 
Q 13.765625 56.984375 13.71875 50.25 
L 4.6875 51.171875 
Q 5.609375 61.28125 11.65625 66.578125 
Q 17.71875 71.875 27.9375 71.875 
Q 38.234375 71.875 44.234375 66.15625 
Q 50.25 60.453125 50.25 52 
Q 50.25 47.703125 48.484375 43.546875 
Q 46.734375 39.40625 42.65625 34.8125 
Q 38.578125 30.21875 29.109375 22.21875 
Q 21.1875 15.578125 18.9375 13.203125 
Q 16.703125 10.84375 15.234375 8.453125 
z
" id="ArialMT-32"/>
      </defs>
      <g style="fill:#262626;" transform="translate(114.585543 390.717812)scale(0.1 -0.1)">
       <use xlink:href="#ArialMT-32"/>
       <use x="55.615234" xlink:href="#ArialMT-30"/>
       <use x="111.230469" xlink:href="#ArialMT-30"/>
      </g>
     </g>
    </g>
    <g id="xtick_3">
     <g id="line2d_5">
      <path clip-path="url(#pf33845a946)" d="M 187.55356 376.56 
L 187.55356 50.4 
" style="fill:none;stroke:#ffffff;stroke-linecap:round;"/>
     </g>
     <g id="line2d_6"/>
     <g id="text_3">
      <!-- 400 -->
      <defs>
       <path d="M 32.328125 0 
L 32.328125 17.140625 
L 1.265625 17.140625 
L 1.265625 25.203125 
L 33.9375 71.578125 
L 41.109375 71.578125 
L 41.109375 25.203125 
L 50.78125 25.203125 
L 50.78125 17.140625 
L 41.109375 17.140625 
L 41.109375 0 
z
M 32.328125 25.203125 
L 32.328125 57.46875 
L 9.90625 25.203125 
z
" id="ArialMT-34"/>
      </defs>
      <g style="fill:#262626;" transform="translate(179.212154 390.717812)scale(0.1 -0.1)">
       <use xlink:href="#ArialMT-34"/>
       <use x="55.615234" xlink:href="#ArialMT-30"/>
       <use x="111.230469" xlink:href="#ArialMT-30"/>
      </g>
     </g>
    </g>
    <g id="xtick_4">
     <g id="line2d_7">
      <path clip-path="url(#pf33845a946)" d="M 252.18017 376.56 
L 252.18017 50.4 
" style="fill:none;stroke:#ffffff;stroke-linecap:round;"/>
     </g>
     <g id="line2d_8"/>
     <g id="text_4">
      <!-- 600 -->
      <defs>
       <path d="M 49.75 54.046875 
L 41.015625 53.375 
Q 39.84375 58.546875 37.703125 60.890625 
Q 34.125 64.65625 28.90625 64.65625 
Q 24.703125 64.65625 21.53125 62.3125 
Q 17.390625 59.28125 14.984375 53.46875 
Q 12.59375 47.65625 12.5 36.921875 
Q 15.671875 41.75 20.265625 44.09375 
Q 24.859375 46.4375 29.890625 46.4375 
Q 38.671875 46.4375 44.84375 39.96875 
Q 51.03125 33.5 51.03125 23.25 
Q 51.03125 16.5 48.125 10.71875 
Q 45.21875 4.9375 40.140625 1.859375 
Q 35.0625 -1.21875 28.609375 -1.21875 
Q 17.625 -1.21875 10.6875 6.859375 
Q 3.765625 14.9375 3.765625 33.5 
Q 3.765625 54.25 11.421875 63.671875 
Q 18.109375 71.875 29.4375 71.875 
Q 37.890625 71.875 43.28125 67.140625 
Q 48.6875 62.40625 49.75 54.046875 
z
M 13.875 23.1875 
Q 13.875 18.65625 15.796875 14.5 
Q 17.71875 10.359375 21.1875 8.171875 
Q 24.65625 6 28.46875 6 
Q 34.03125 6 38.03125 10.484375 
Q 42.046875 14.984375 42.046875 22.703125 
Q 42.046875 30.125 38.078125 34.390625 
Q 34.125 38.671875 28.125 38.671875 
Q 22.171875 38.671875 18.015625 34.390625 
Q 13.875 30.125 13.875 23.1875 
z
" id="ArialMT-36"/>
      </defs>
      <g style="fill:#262626;" transform="translate(243.838764 390.717812)scale(0.1 -0.1)">
       <use xlink:href="#ArialMT-36"/>
       <use x="55.615234" xlink:href="#ArialMT-30"/>
       <use x="111.230469" xlink:href="#ArialMT-30"/>
      </g>
     </g>
    </g>
    <g id="xtick_5">
     <g id="line2d_9">
      <path clip-path="url(#pf33845a946)" d="M 316.80678 376.56 
L 316.80678 50.4 
" style="fill:none;stroke:#ffffff;stroke-linecap:round;"/>
     </g>
     <g id="line2d_10"/>
     <g id="text_5">
      <!-- 800 -->
      <defs>
       <path d="M 17.671875 38.8125 
Q 12.203125 40.828125 9.5625 44.53125 
Q 6.9375 48.25 6.9375 53.421875 
Q 6.9375 61.234375 12.546875 66.546875 
Q 18.171875 71.875 27.484375 71.875 
Q 36.859375 71.875 42.578125 66.421875 
Q 48.296875 60.984375 48.296875 53.171875 
Q 48.296875 48.1875 45.671875 44.5 
Q 43.0625 40.828125 37.75 38.8125 
Q 44.34375 36.671875 47.78125 31.875 
Q 51.21875 27.09375 51.21875 20.453125 
Q 51.21875 11.28125 44.71875 5.03125 
Q 38.234375 -1.21875 27.640625 -1.21875 
Q 17.046875 -1.21875 10.546875 5.046875 
Q 4.046875 11.328125 4.046875 20.703125 
Q 4.046875 27.6875 7.59375 32.390625 
Q 11.140625 37.109375 17.671875 38.8125 
z
M 15.921875 53.71875 
Q 15.921875 48.640625 19.1875 45.40625 
Q 22.46875 42.1875 27.6875 42.1875 
Q 32.765625 42.1875 36.015625 45.375 
Q 39.265625 48.578125 39.265625 53.21875 
Q 39.265625 58.0625 35.90625 61.359375 
Q 32.5625 64.65625 27.59375 64.65625 
Q 22.5625 64.65625 19.234375 61.421875 
Q 15.921875 58.203125 15.921875 53.71875 
z
M 13.09375 20.65625 
Q 13.09375 16.890625 14.875 13.375 
Q 16.65625 9.859375 20.171875 7.921875 
Q 23.6875 6 27.734375 6 
Q 34.03125 6 38.125 10.046875 
Q 42.234375 14.109375 42.234375 20.359375 
Q 42.234375 26.703125 38.015625 30.859375 
Q 33.796875 35.015625 27.4375 35.015625 
Q 21.234375 35.015625 17.15625 30.90625 
Q 13.09375 26.8125 13.09375 20.65625 
z
" id="ArialMT-38"/>
      </defs>
      <g style="fill:#262626;" transform="translate(308.465374 390.717812)scale(0.1 -0.1)">
       <use xlink:href="#ArialMT-38"/>
       <use x="55.615234" xlink:href="#ArialMT-30"/>
       <use x="111.230469" xlink:href="#ArialMT-30"/>
      </g>
     </g>
    </g>
    <g id="xtick_6">
     <g id="line2d_11">
      <path clip-path="url(#pf33845a946)" d="M 381.43339 376.56 
L 381.43339 50.4 
" style="fill:none;stroke:#ffffff;stroke-linecap:round;"/>
     </g>
     <g id="line2d_12"/>
     <g id="text_6">
      <!-- 1000 -->
      <defs>
       <path d="M 37.25 0 
L 28.46875 0 
L 28.46875 56 
Q 25.296875 52.984375 20.140625 49.953125 
Q 14.984375 46.921875 10.890625 45.40625 
L 10.890625 53.90625 
Q 18.265625 57.375 23.78125 62.296875 
Q 29.296875 67.234375 31.59375 71.875 
L 37.25 71.875 
z
" id="ArialMT-31"/>
      </defs>
      <g style="fill:#262626;" transform="translate(370.311515 390.717812)scale(0.1 -0.1)">
       <use xlink:href="#ArialMT-31"/>
       <use x="55.615234" xlink:href="#ArialMT-30"/>
       <use x="111.230469" xlink:href="#ArialMT-30"/>
       <use x="166.845703" xlink:href="#ArialMT-30"/>
      </g>
     </g>
    </g>
    <g id="text_7">
     <!-- epoch -->
     <defs>
      <path d="M 42.09375 16.703125 
L 51.171875 15.578125 
Q 49.03125 7.625 43.21875 3.21875 
Q 37.40625 -1.171875 28.375 -1.171875 
Q 17 -1.171875 10.328125 5.828125 
Q 3.65625 12.84375 3.65625 25.484375 
Q 3.65625 38.578125 10.390625 45.796875 
Q 17.140625 53.03125 27.875 53.03125 
Q 38.28125 53.03125 44.875 45.953125 
Q 51.46875 38.875 51.46875 26.03125 
Q 51.46875 25.25 51.421875 23.6875 
L 12.75 23.6875 
Q 13.234375 15.140625 17.578125 10.59375 
Q 21.921875 6.0625 28.421875 6.0625 
Q 33.25 6.0625 36.671875 8.59375 
Q 40.09375 11.140625 42.09375 16.703125 
z
M 13.234375 30.90625 
L 42.1875 30.90625 
Q 41.609375 37.453125 38.875 40.71875 
Q 34.671875 45.796875 27.984375 45.796875 
Q 21.921875 45.796875 17.796875 41.75 
Q 13.671875 37.703125 13.234375 30.90625 
z
" id="ArialMT-65"/>
      <path d="M 6.59375 -19.875 
L 6.59375 51.859375 
L 14.59375 51.859375 
L 14.59375 45.125 
Q 17.4375 49.078125 21 51.046875 
Q 24.5625 53.03125 29.640625 53.03125 
Q 36.28125 53.03125 41.359375 49.609375 
Q 46.4375 46.1875 49.015625 39.953125 
Q 51.609375 33.734375 51.609375 26.3125 
Q 51.609375 18.359375 48.75 11.984375 
Q 45.90625 5.609375 40.453125 2.21875 
Q 35.015625 -1.171875 29 -1.171875 
Q 24.609375 -1.171875 21.109375 0.6875 
Q 17.625 2.546875 15.375 5.375 
L 15.375 -19.875 
z
M 14.546875 25.640625 
Q 14.546875 15.625 18.59375 10.84375 
Q 22.65625 6.0625 28.421875 6.0625 
Q 34.28125 6.0625 38.453125 11.015625 
Q 42.625 15.96875 42.625 26.375 
Q 42.625 36.28125 38.546875 41.203125 
Q 34.46875 46.140625 28.8125 46.140625 
Q 23.1875 46.140625 18.859375 40.890625 
Q 14.546875 35.640625 14.546875 25.640625 
z
" id="ArialMT-70"/>
      <path d="M 3.328125 25.921875 
Q 3.328125 40.328125 11.328125 47.265625 
Q 18.015625 53.03125 27.640625 53.03125 
Q 38.328125 53.03125 45.109375 46.015625 
Q 51.90625 39.015625 51.90625 26.65625 
Q 51.90625 16.65625 48.90625 10.90625 
Q 45.90625 5.171875 40.15625 2 
Q 34.421875 -1.171875 27.640625 -1.171875 
Q 16.75 -1.171875 10.03125 5.8125 
Q 3.328125 12.796875 3.328125 25.921875 
z
M 12.359375 25.921875 
Q 12.359375 15.96875 16.703125 11.015625 
Q 21.046875 6.0625 27.640625 6.0625 
Q 34.1875 6.0625 38.53125 11.03125 
Q 42.875 16.015625 42.875 26.21875 
Q 42.875 35.84375 38.5 40.796875 
Q 34.125 45.75 27.640625 45.75 
Q 21.046875 45.75 16.703125 40.8125 
Q 12.359375 35.890625 12.359375 25.921875 
z
" id="ArialMT-6f"/>
      <path d="M 40.4375 19 
L 49.078125 17.875 
Q 47.65625 8.9375 41.8125 3.875 
Q 35.984375 -1.171875 27.484375 -1.171875 
Q 16.84375 -1.171875 10.375 5.78125 
Q 3.90625 12.75 3.90625 25.734375 
Q 3.90625 34.125 6.6875 40.421875 
Q 9.46875 46.734375 15.15625 49.875 
Q 20.84375 53.03125 27.546875 53.03125 
Q 35.984375 53.03125 41.359375 48.75 
Q 46.734375 44.484375 48.25 36.625 
L 39.703125 35.296875 
Q 38.484375 40.53125 35.375 43.15625 
Q 32.28125 45.796875 27.875 45.796875 
Q 21.234375 45.796875 17.078125 41.03125 
Q 12.9375 36.28125 12.9375 25.984375 
Q 12.9375 15.53125 16.9375 10.796875 
Q 20.953125 6.0625 27.390625 6.0625 
Q 32.5625 6.0625 36.03125 9.234375 
Q 39.5 12.40625 40.4375 19 
z
" id="ArialMT-63"/>
      <path d="M 6.59375 0 
L 6.59375 71.578125 
L 15.375 71.578125 
L 15.375 45.90625 
Q 21.53125 53.03125 30.90625 53.03125 
Q 36.671875 53.03125 40.921875 50.75 
Q 45.171875 48.484375 47 44.484375 
Q 48.828125 40.484375 48.828125 32.859375 
L 48.828125 0 
L 40.046875 0 
L 40.046875 32.859375 
Q 40.046875 39.453125 37.1875 42.453125 
Q 34.328125 45.453125 29.109375 45.453125 
Q 25.203125 45.453125 21.75 43.421875 
Q 18.3125 41.40625 16.84375 37.9375 
Q 15.375 34.46875 15.375 28.375 
L 15.375 0 
z
" id="ArialMT-68"/>
     </defs>
     <g style="fill:#262626;" transform="translate(204.721236 404.578906)scale(0.11 -0.11)">
      <use xlink:href="#ArialMT-65"/>
      <use x="55.615234" xlink:href="#ArialMT-70"/>
      <use x="111.230469" xlink:href="#ArialMT-6f"/>
      <use x="166.845703" xlink:href="#ArialMT-63"/>
      <use x="216.845703" xlink:href="#ArialMT-68"/>
     </g>
    </g>
   </g>
   <g id="matplotlib.axis_2">
    <g id="ytick_1">
     <g id="line2d_13">
      <path clip-path="url(#pf33845a946)" d="M 42.159844 361.734545 
L 397.250753 361.734545 
" style="fill:none;stroke:#ffffff;stroke-linecap:round;"/>
     </g>
     <g id="line2d_14"/>
     <g id="text_8">
      <!-- 0.0 -->
      <defs>
       <path d="M 9.078125 0 
L 9.078125 10.015625 
L 19.09375 10.015625 
L 19.09375 0 
z
" id="ArialMT-2e"/>
      </defs>
      <g style="fill:#262626;" transform="translate(21.259844 365.313452)scale(0.1 -0.1)">
       <use xlink:href="#ArialMT-30"/>
       <use x="55.615234" xlink:href="#ArialMT-2e"/>
       <use x="83.398438" xlink:href="#ArialMT-30"/>
      </g>
     </g>
    </g>
    <g id="ytick_2">
     <g id="line2d_15">
      <path clip-path="url(#pf33845a946)" d="M 42.159844 302.432727 
L 397.250753 302.432727 
" style="fill:none;stroke:#ffffff;stroke-linecap:round;"/>
     </g>
     <g id="line2d_16"/>
     <g id="text_9">
      <!-- 0.2 -->
      <g style="fill:#262626;" transform="translate(21.259844 306.011634)scale(0.1 -0.1)">
       <use xlink:href="#ArialMT-30"/>
       <use x="55.615234" xlink:href="#ArialMT-2e"/>
       <use x="83.398438" xlink:href="#ArialMT-32"/>
      </g>
     </g>
    </g>
    <g id="ytick_3">
     <g id="line2d_17">
      <path clip-path="url(#pf33845a946)" d="M 42.159844 243.130909 
L 397.250753 243.130909 
" style="fill:none;stroke:#ffffff;stroke-linecap:round;"/>
     </g>
     <g id="line2d_18"/>
     <g id="text_10">
      <!-- 0.4 -->
      <g style="fill:#262626;" transform="translate(21.259844 246.709815)scale(0.1 -0.1)">
       <use xlink:href="#ArialMT-30"/>
       <use x="55.615234" xlink:href="#ArialMT-2e"/>
       <use x="83.398438" xlink:href="#ArialMT-34"/>
      </g>
     </g>
    </g>
    <g id="ytick_4">
     <g id="line2d_19">
      <path clip-path="url(#pf33845a946)" d="M 42.159844 183.829091 
L 397.250753 183.829091 
" style="fill:none;stroke:#ffffff;stroke-linecap:round;"/>
     </g>
     <g id="line2d_20"/>
     <g id="text_11">
      <!-- 0.6 -->
      <g style="fill:#262626;" transform="translate(21.259844 187.407997)scale(0.1 -0.1)">
       <use xlink:href="#ArialMT-30"/>
       <use x="55.615234" xlink:href="#ArialMT-2e"/>
       <use x="83.398438" xlink:href="#ArialMT-36"/>
      </g>
     </g>
    </g>
    <g id="ytick_5">
     <g id="line2d_21">
      <path clip-path="url(#pf33845a946)" d="M 42.159844 124.527273 
L 397.250753 124.527273 
" style="fill:none;stroke:#ffffff;stroke-linecap:round;"/>
     </g>
     <g id="line2d_22"/>
     <g id="text_12">
      <!-- 0.8 -->
      <g style="fill:#262626;" transform="translate(21.259844 128.106179)scale(0.1 -0.1)">
       <use xlink:href="#ArialMT-30"/>
       <use x="55.615234" xlink:href="#ArialMT-2e"/>
       <use x="83.398438" xlink:href="#ArialMT-38"/>
      </g>
     </g>
    </g>
    <g id="ytick_6">
     <g id="line2d_23">
      <path clip-path="url(#pf33845a946)" d="M 42.159844 65.225455 
L 397.250753 65.225455 
" style="fill:none;stroke:#ffffff;stroke-linecap:round;"/>
     </g>
     <g id="line2d_24"/>
     <g id="text_13">
      <!-- 1.0 -->
      <g style="fill:#262626;" transform="translate(21.259844 68.804361)scale(0.1 -0.1)">
       <use xlink:href="#ArialMT-31"/>
       <use x="55.615234" xlink:href="#ArialMT-2e"/>
       <use x="83.398438" xlink:href="#ArialMT-30"/>
      </g>
     </g>
    </g>
    <g id="text_14">
     <!-- accuracy -->
     <defs>
      <path d="M 40.4375 6.390625 
Q 35.546875 2.25 31.03125 0.53125 
Q 26.515625 -1.171875 21.34375 -1.171875 
Q 12.796875 -1.171875 8.203125 3 
Q 3.609375 7.171875 3.609375 13.671875 
Q 3.609375 17.484375 5.34375 20.625 
Q 7.078125 23.78125 9.890625 25.6875 
Q 12.703125 27.59375 16.21875 28.5625 
Q 18.796875 29.25 24.03125 29.890625 
Q 34.671875 31.15625 39.703125 32.90625 
Q 39.75 34.71875 39.75 35.203125 
Q 39.75 40.578125 37.25 42.78125 
Q 33.890625 45.75 27.25 45.75 
Q 21.046875 45.75 18.09375 43.578125 
Q 15.140625 41.40625 13.71875 35.890625 
L 5.125 37.0625 
Q 6.296875 42.578125 8.984375 45.96875 
Q 11.671875 49.359375 16.75 51.1875 
Q 21.828125 53.03125 28.515625 53.03125 
Q 35.15625 53.03125 39.296875 51.46875 
Q 43.453125 49.90625 45.40625 47.53125 
Q 47.359375 45.171875 48.140625 41.546875 
Q 48.578125 39.3125 48.578125 33.453125 
L 48.578125 21.734375 
Q 48.578125 9.46875 49.140625 6.21875 
Q 49.703125 2.984375 51.375 0 
L 42.1875 0 
Q 40.828125 2.734375 40.4375 6.390625 
z
M 39.703125 26.03125 
Q 34.90625 24.078125 25.34375 22.703125 
Q 19.921875 21.921875 17.671875 20.9375 
Q 15.4375 19.96875 14.203125 18.09375 
Q 12.984375 16.21875 12.984375 13.921875 
Q 12.984375 10.40625 15.640625 8.0625 
Q 18.3125 5.71875 23.4375 5.71875 
Q 28.515625 5.71875 32.46875 7.9375 
Q 36.421875 10.15625 38.28125 14.015625 
Q 39.703125 17 39.703125 22.796875 
z
" id="ArialMT-61"/>
      <path d="M 40.578125 0 
L 40.578125 7.625 
Q 34.515625 -1.171875 24.125 -1.171875 
Q 19.53125 -1.171875 15.546875 0.578125 
Q 11.578125 2.34375 9.640625 5 
Q 7.71875 7.671875 6.9375 11.53125 
Q 6.390625 14.109375 6.390625 19.734375 
L 6.390625 51.859375 
L 15.1875 51.859375 
L 15.1875 23.09375 
Q 15.1875 16.21875 15.71875 13.8125 
Q 16.546875 10.359375 19.234375 8.375 
Q 21.921875 6.390625 25.875 6.390625 
Q 29.828125 6.390625 33.296875 8.421875 
Q 36.765625 10.453125 38.203125 13.9375 
Q 39.65625 17.4375 39.65625 24.078125 
L 39.65625 51.859375 
L 48.4375 51.859375 
L 48.4375 0 
z
" id="ArialMT-75"/>
      <path d="M 6.5 0 
L 6.5 51.859375 
L 14.40625 51.859375 
L 14.40625 44 
Q 17.4375 49.515625 20 51.265625 
Q 22.5625 53.03125 25.640625 53.03125 
Q 30.078125 53.03125 34.671875 50.203125 
L 31.640625 42.046875 
Q 28.421875 43.953125 25.203125 43.953125 
Q 22.3125 43.953125 20.015625 42.21875 
Q 17.71875 40.484375 16.75 37.40625 
Q 15.28125 32.71875 15.28125 27.15625 
L 15.28125 0 
z
" id="ArialMT-72"/>
      <path d="M 6.203125 -19.96875 
L 5.21875 -11.71875 
Q 8.109375 -12.5 10.25 -12.5 
Q 13.1875 -12.5 14.9375 -11.515625 
Q 16.703125 -10.546875 17.828125 -8.796875 
Q 18.65625 -7.46875 20.515625 -2.25 
Q 20.75 -1.515625 21.296875 -0.09375 
L 1.609375 51.859375 
L 11.078125 51.859375 
L 21.875 21.828125 
Q 23.96875 16.109375 25.640625 9.8125 
Q 27.15625 15.875 29.25 21.625 
L 40.328125 51.859375 
L 49.125 51.859375 
L 29.390625 -0.875 
Q 26.21875 -9.421875 24.46875 -12.640625 
Q 22.125 -17 19.09375 -19.015625 
Q 16.0625 -21.046875 11.859375 -21.046875 
Q 9.328125 -21.046875 6.203125 -19.96875 
z
" id="ArialMT-79"/>
     </defs>
     <g style="fill:#262626;" transform="translate(14.944688 235.486875)rotate(-90)scale(0.11 -0.11)">
      <use xlink:href="#ArialMT-61"/>
      <use x="55.615234" xlink:href="#ArialMT-63"/>
      <use x="105.615234" xlink:href="#ArialMT-63"/>
      <use x="155.615234" xlink:href="#ArialMT-75"/>
      <use x="211.230469" xlink:href="#ArialMT-72"/>
      <use x="244.53125" xlink:href="#ArialMT-61"/>
      <use x="300.146484" xlink:href="#ArialMT-63"/>
      <use x="350.146484" xlink:href="#ArialMT-79"/>
     </g>
    </g>
   </g>
   <g id="line2d_25">
    <path clip-path="url(#pf33845a946)" d="M 58.30034 328.789091 
L 61.53167 328.789091 
L 61.854803 339.770909 
L 63.147335 339.770909 
L 63.793601 328.789091 
L 65.409267 328.789091 
L 65.7324 323.298183 
L 68.640597 323.298183 
L 68.96373 317.807272 
L 76.39579 317.807272 
L 76.718923 312.316362 
L 84.150984 312.316362 
L 84.474117 306.825456 
L 87.705447 306.825456 
L 88.02858 301.334546 
L 88.674846 301.334546 
L 88.997979 295.843636 
L 90.613645 295.843636 
L 90.936778 290.352726 
L 92.22931 290.352726 
L 92.552443 284.86182 
L 95.137507 284.86182 
L 95.46064 279.370905 
L 97.399439 279.370905 
L 97.722572 273.879999 
L 116.787422 273.879999 
L 117.110555 268.389094 
L 119.049353 268.389094 
L 119.372486 262.898179 
L 123.896349 262.898179 
L 124.219482 257.407273 
L 131.651542 257.407273 
L 131.974675 251.916367 
L 133.59034 251.916367 
L 134.236606 240.934547 
L 155.563388 240.934547 
L 155.886521 224.46182 
L 156.209654 224.46182 
L 156.532787 218.970906 
L 162.026049 218.970906 
L 162.349182 213.48 
L 163.318581 213.48 
L 163.641714 207.989094 
L 163.964847 207.989094 
L 164.28798 202.498188 
L 165.903645 202.498188 
L 166.226778 197.007265 
L 169.781242 197.007265 
L 170.104375 191.516359 
L 171.073774 191.516359 
L 171.396907 186.025453 
L 171.72004 186.025453 
L 172.043173 180.534547 
L 173.012573 180.534547 
L 173.335706 175.043642 
L 174.951371 175.043642 
L 175.274504 169.552736 
L 175.92077 169.552736 
L 176.243903 164.061812 
L 177.213302 164.061812 
L 177.536435 158.570906 
L 180.1215 158.570906 
L 180.444633 153.080001 
L 187.876693 153.080001 
L 188.199826 142.098189 
L 191.108023 142.098189 
L 191.431156 136.607266 
L 195.308753 136.607266 
L 195.631886 131.11636 
L 206.295277 131.11636 
L 206.941543 120.134548 
L 214.05047 120.134548 
L 214.373603 114.643642 
L 217.2818 114.643642 
L 217.604933 109.152719 
L 230.530255 109.152719 
L 230.853389 103.661813 
L 236.34665 103.661813 
L 236.669783 98.170907 
L 243.455578 98.170907 
L 243.778711 92.680001 
L 254.442101 92.680001 
L 254.765234 87.189095 
L 259.289097 87.189095 
L 259.61223 81.69819 
L 263.489827 81.69819 
L 263.81296 76.207266 
L 267.04429 76.207266 
L 267.367423 70.71636 
L 381.110257 70.71636 
L 381.110257 70.71636 
" style="fill:none;stroke:#4c72b0;stroke-linecap:round;stroke-width:1.75;"/>
   </g>
   <g id="line2d_26">
    <path clip-path="url(#pf33845a946)" d="M 58.30034 361.734545 
L 58.623473 334.280001 
L 59.269739 334.280001 
L 59.592872 356.243636 
L 59.916005 334.280001 
L 60.239138 328.789091 
L 60.562271 312.316362 
L 60.885404 284.86182 
L 61.208537 279.370905 
L 61.53167 268.389094 
L 62.177936 240.934547 
L 62.501069 240.934547 
L 63.147335 218.970906 
L 64.763001 218.970906 
L 65.086134 213.48 
L 65.409267 213.48 
L 65.7324 207.989094 
L 66.055533 197.007265 
L 66.378666 191.516359 
L 67.024932 191.516359 
L 67.348065 186.025453 
L 67.671198 175.043642 
L 67.994331 169.552736 
L 68.317464 158.570906 
L 68.640597 153.080001 
L 70.579396 153.080001 
L 71.225662 142.098189 
L 75.426391 142.098189 
L 75.749524 136.607266 
L 76.39579 136.607266 
L 76.718923 131.11636 
L 78.334589 131.11636 
L 78.657722 120.134548 
L 78.980855 120.134548 
L 79.303988 114.643642 
L 81.889052 114.643642 
L 82.212185 109.152719 
L 82.535318 109.152719 
L 82.858451 103.661813 
L 83.827851 103.661813 
L 84.150984 98.170907 
L 84.79725 98.170907 
L 85.443516 87.189095 
L 89.967379 87.189095 
L 90.290512 81.69819 
L 107.416563 81.69819 
L 107.739696 76.207266 
L 227.298925 76.207266 
L 227.622058 70.71636 
L 381.110257 70.71636 
L 381.110257 70.71636 
" style="fill:none;stroke:#55a868;stroke-linecap:round;stroke-width:1.75;"/>
   </g>
   <g id="line2d_27">
    <path clip-path="url(#pf33845a946)" d="M 58.30034 339.770909 
L 381.110257 339.770909 
L 381.110257 339.770909 
" style="fill:none;stroke:#c44e52;stroke-linecap:round;stroke-width:1.75;"/>
   </g>
   <g id="line2d_28">
    <path clip-path="url(#pf33845a946)" d="M 58.30034 339.770909 
L 59.269739 339.770909 
L 59.916005 350.752727 
L 60.239138 361.734545 
L 60.562271 361.734545 
L 61.53167 328.789091 
L 62.177936 339.770909 
L 73.810726 339.770909 
L 74.456992 328.789091 
L 75.103258 328.789091 
L 75.426391 323.298183 
L 81.565919 323.298183 
L 81.889052 317.807272 
L 83.827851 317.807272 
L 84.150984 306.825456 
L 84.474117 306.825456 
L 84.79725 301.334546 
L 86.089782 301.334546 
L 86.412915 295.843636 
L 86.736048 295.843636 
L 87.059181 290.352726 
L 88.674846 290.352726 
L 88.997979 284.86182 
L 90.613645 284.86182 
L 90.936778 279.370905 
L 95.46064 279.370905 
L 95.783773 273.879999 
L 104.185233 273.879999 
L 104.508366 268.389094 
L 107.739696 268.389094 
L 108.062829 262.898179 
L 119.049353 262.898179 
L 119.372486 257.407273 
L 123.250083 257.407273 
L 123.896349 246.425453 
L 124.219482 246.425453 
L 124.542615 235.443632 
L 125.512014 235.443632 
L 125.835147 229.952726 
L 126.15828 229.952726 
L 127.127679 213.48 
L 128.743345 213.48 
L 129.066478 207.989094 
L 132.297808 207.989094 
L 132.620941 202.498188 
L 133.267207 202.498188 
L 133.59034 197.007265 
L 134.236606 197.007265 
L 134.55974 191.516359 
L 135.206006 191.516359 
L 135.529139 186.025453 
L 139.729868 186.025453 
L 140.053001 180.534547 
L 140.376134 180.534547 
L 140.699267 175.043642 
L 141.022401 175.043642 
L 141.668667 164.061812 
L 142.314933 164.061812 
L 142.638066 153.080001 
L 145.22313 153.080001 
L 145.869396 142.098189 
L 151.039525 142.098189 
L 151.362658 136.607266 
L 162.349182 136.607266 
L 162.672315 131.11636 
L 183.35283 131.11636 
L 183.675963 125.625454 
L 189.169225 125.625454 
L 189.492358 120.134548 
L 201.771414 120.134548 
L 202.094547 114.643642 
L 202.41768 114.643642 
L 203.063946 103.661813 
L 209.526607 103.661813 
L 209.84974 98.170907 
L 224.067594 98.170907 
L 224.390728 92.680001 
L 225.360127 92.680001 
L 225.68326 87.189095 
L 226.652659 87.189095 
L 226.975792 81.69819 
L 227.622058 81.69819 
L 227.945191 76.207266 
L 247.97944 76.207266 
L 248.302573 70.71636 
L 304.527724 70.71636 
L 304.850857 65.225455 
L 381.110257 65.225455 
L 381.110257 65.225455 
" style="fill:none;stroke:#8172b2;stroke-linecap:round;stroke-width:1.75;"/>
   </g>
   <g id="line2d_29">
    <path clip-path="url(#pf33845a946)" d="M 58.30034 334.280001 
L 59.592872 334.280001 
L 59.916005 306.825456 
L 60.239138 339.770909 
L 62.501069 339.770909 
L 63.147335 328.789091 
L 70.579396 328.789091 
L 70.902529 323.298183 
L 79.627121 323.298183 
L 79.950254 317.807272 
L 81.889052 317.807272 
L 82.212185 312.316362 
L 82.858451 312.316362 
L 83.181584 306.825456 
L 86.736048 306.825456 
L 87.059181 301.334546 
L 87.382314 301.334546 
L 87.705447 295.843636 
L 88.997979 295.843636 
L 89.321112 290.352726 
L 91.906177 290.352726 
L 92.22931 284.86182 
L 98.691971 284.86182 
L 99.015104 279.370905 
L 102.569568 279.370905 
L 102.892701 273.879999 
L 132.944074 273.879999 
L 133.267207 268.389094 
L 136.175405 268.389094 
L 136.498538 262.898179 
L 143.930598 262.898179 
L 144.253731 257.407273 
L 152.978323 257.407273 
L 153.301456 251.916367 
L 156.209654 251.916367 
L 156.532787 246.425453 
L 159.117851 246.425453 
L 159.440984 235.443632 
L 159.764117 235.443632 
L 160.08725 229.952726 
L 160.410384 229.952726 
L 160.733517 224.46182 
L 162.026049 224.46182 
L 162.349182 218.970906 
L 164.934246 218.970906 
L 165.580512 207.989094 
L 167.519311 207.989094 
L 167.842444 202.498188 
L 168.48871 202.498188 
L 168.811843 197.007265 
L 169.781242 197.007265 
L 170.104375 191.516359 
L 171.396907 191.516359 
L 172.043173 180.534547 
L 173.012573 180.534547 
L 173.335706 175.043642 
L 174.628238 175.043642 
L 174.951371 169.552736 
L 175.597637 169.552736 
L 175.92077 158.570906 
L 176.890169 158.570906 
L 177.213302 153.080001 
L 178.182701 153.080001 
L 178.505834 147.589095 
L 180.1215 147.589095 
L 180.444633 142.098189 
L 182.383431 142.098189 
L 183.029697 131.11636 
L 183.999096 131.11636 
L 184.322229 125.625454 
L 185.291628 125.625454 
L 185.614761 120.134548 
L 187.55356 120.134548 
L 187.876693 114.643642 
L 191.431156 114.643642 
L 191.754289 109.152719 
L 194.339354 109.152719 
L 194.662487 103.661813 
L 195.955019 103.661813 
L 196.278152 98.170907 
L 198.540083 98.170907 
L 198.863217 92.680001 
L 209.526607 92.680001 
L 209.84974 87.189095 
L 223.098195 87.189095 
L 223.421328 81.69819 
L 261.874161 81.69819 
L 262.197294 76.207266 
L 264.459226 76.207266 
L 264.782359 70.71636 
L 283.200943 70.71636 
L 283.524076 65.225455 
L 381.110257 65.225455 
L 381.110257 65.225455 
" style="fill:none;stroke:#ccb974;stroke-linecap:round;stroke-width:1.75;"/>
   </g>
   <g id="text_15">
    <!-- evolution de la précision en fonction du nombre d'epoch -->
    <defs>
     <path d="M 21 0 
L 1.265625 51.859375 
L 10.546875 51.859375 
L 21.6875 20.796875 
Q 23.484375 15.765625 25 10.359375 
Q 26.171875 14.453125 28.265625 20.21875 
L 39.796875 51.859375 
L 48.828125 51.859375 
L 29.203125 0 
z
" id="ArialMT-76"/>
     <path d="M 6.390625 0 
L 6.390625 71.578125 
L 15.1875 71.578125 
L 15.1875 0 
z
" id="ArialMT-6c"/>
     <path d="M 25.78125 7.859375 
L 27.046875 0.09375 
Q 23.34375 -0.6875 20.40625 -0.6875 
Q 15.625 -0.6875 12.984375 0.828125 
Q 10.359375 2.34375 9.28125 4.8125 
Q 8.203125 7.28125 8.203125 15.1875 
L 8.203125 45.015625 
L 1.765625 45.015625 
L 1.765625 51.859375 
L 8.203125 51.859375 
L 8.203125 64.703125 
L 16.9375 69.96875 
L 16.9375 51.859375 
L 25.78125 51.859375 
L 25.78125 45.015625 
L 16.9375 45.015625 
L 16.9375 14.703125 
Q 16.9375 10.9375 17.40625 9.859375 
Q 17.875 8.796875 18.921875 8.15625 
Q 19.96875 7.515625 21.921875 7.515625 
Q 23.390625 7.515625 25.78125 7.859375 
z
" id="ArialMT-74"/>
     <path d="M 6.640625 61.46875 
L 6.640625 71.578125 
L 15.4375 71.578125 
L 15.4375 61.46875 
z
M 6.640625 0 
L 6.640625 51.859375 
L 15.4375 51.859375 
L 15.4375 0 
z
" id="ArialMT-69"/>
     <path d="M 6.59375 0 
L 6.59375 51.859375 
L 14.5 51.859375 
L 14.5 44.484375 
Q 20.21875 53.03125 31 53.03125 
Q 35.6875 53.03125 39.625 51.34375 
Q 43.5625 49.65625 45.515625 46.921875 
Q 47.46875 44.1875 48.25 40.4375 
Q 48.734375 37.984375 48.734375 31.890625 
L 48.734375 0 
L 39.9375 0 
L 39.9375 31.546875 
Q 39.9375 36.921875 38.90625 39.578125 
Q 37.890625 42.234375 35.28125 43.8125 
Q 32.671875 45.40625 29.15625 45.40625 
Q 23.53125 45.40625 19.453125 41.84375 
Q 15.375 38.28125 15.375 28.328125 
L 15.375 0 
z
" id="ArialMT-6e"/>
     <path id="ArialMT-20"/>
     <path d="M 40.234375 0 
L 40.234375 6.546875 
Q 35.296875 -1.171875 25.734375 -1.171875 
Q 19.53125 -1.171875 14.328125 2.25 
Q 9.125 5.671875 6.265625 11.796875 
Q 3.421875 17.921875 3.421875 25.875 
Q 3.421875 33.640625 6 39.96875 
Q 8.59375 46.296875 13.765625 49.65625 
Q 18.953125 53.03125 25.34375 53.03125 
Q 30.03125 53.03125 33.6875 51.046875 
Q 37.359375 49.078125 39.65625 45.90625 
L 39.65625 71.578125 
L 48.390625 71.578125 
L 48.390625 0 
z
M 12.453125 25.875 
Q 12.453125 15.921875 16.640625 10.984375 
Q 20.84375 6.0625 26.5625 6.0625 
Q 32.328125 6.0625 36.34375 10.765625 
Q 40.375 15.484375 40.375 25.140625 
Q 40.375 35.796875 36.265625 40.765625 
Q 32.171875 45.75 26.171875 45.75 
Q 20.3125 45.75 16.375 40.96875 
Q 12.453125 36.1875 12.453125 25.875 
z
" id="ArialMT-64"/>
     <path d="M 42.09375 16.703125 
L 51.171875 15.578125 
Q 49.03125 7.625 43.21875 3.21875 
Q 37.40625 -1.171875 28.375 -1.171875 
Q 17 -1.171875 10.328125 5.828125 
Q 3.65625 12.84375 3.65625 25.484375 
Q 3.65625 38.578125 10.390625 45.796875 
Q 17.140625 53.03125 27.875 53.03125 
Q 38.28125 53.03125 44.875 45.953125 
Q 51.46875 38.875 51.46875 26.03125 
Q 51.46875 25.25 51.421875 23.6875 
L 12.75 23.6875 
Q 13.234375 15.140625 17.578125 10.59375 
Q 21.921875 6.0625 28.421875 6.0625 
Q 33.25 6.0625 36.671875 8.59375 
Q 40.09375 11.140625 42.09375 16.703125 
z
M 13.234375 30.90625 
L 42.1875 30.90625 
Q 41.609375 37.453125 38.875 40.71875 
Q 34.671875 45.796875 27.984375 45.796875 
Q 21.921875 45.796875 17.796875 41.75 
Q 13.671875 37.703125 13.234375 30.90625 
z
M 22.71875 58.296875 
L 29.203125 71.96875 
L 40.734375 71.96875 
L 29.984375 58.296875 
z
" id="ArialMT-e9"/>
     <path d="M 3.078125 15.484375 
L 11.765625 16.84375 
Q 12.5 11.625 15.84375 8.84375 
Q 19.1875 6.0625 25.203125 6.0625 
Q 31.25 6.0625 34.171875 8.515625 
Q 37.109375 10.984375 37.109375 14.3125 
Q 37.109375 17.28125 34.515625 19 
Q 32.71875 20.171875 25.53125 21.96875 
Q 15.875 24.421875 12.140625 26.203125 
Q 8.40625 27.984375 6.46875 31.125 
Q 4.546875 34.28125 4.546875 38.09375 
Q 4.546875 41.546875 6.125 44.5 
Q 7.71875 47.46875 10.453125 49.421875 
Q 12.5 50.921875 16.03125 51.96875 
Q 19.578125 53.03125 23.640625 53.03125 
Q 29.734375 53.03125 34.34375 51.265625 
Q 38.96875 49.515625 41.15625 46.5 
Q 43.359375 43.5 44.1875 38.484375 
L 35.59375 37.3125 
Q 35.015625 41.3125 32.203125 43.546875 
Q 29.390625 45.796875 24.265625 45.796875 
Q 18.21875 45.796875 15.625 43.796875 
Q 13.03125 41.796875 13.03125 39.109375 
Q 13.03125 37.40625 14.109375 36.03125 
Q 15.1875 34.625 17.484375 33.6875 
Q 18.796875 33.203125 25.25 31.453125 
Q 34.578125 28.953125 38.25 27.359375 
Q 41.9375 25.78125 44.03125 22.75 
Q 46.140625 19.734375 46.140625 15.234375 
Q 46.140625 10.84375 43.578125 6.953125 
Q 41.015625 3.078125 36.171875 0.953125 
Q 31.34375 -1.171875 25.25 -1.171875 
Q 15.140625 -1.171875 9.84375 3.03125 
Q 4.546875 7.234375 3.078125 15.484375 
z
" id="ArialMT-73"/>
     <path d="M 8.6875 0 
L 8.6875 45.015625 
L 0.921875 45.015625 
L 0.921875 51.859375 
L 8.6875 51.859375 
L 8.6875 57.375 
Q 8.6875 62.59375 9.625 65.140625 
Q 10.890625 68.5625 14.078125 70.671875 
Q 17.28125 72.796875 23.046875 72.796875 
Q 26.765625 72.796875 31.25 71.921875 
L 29.9375 64.265625 
Q 27.203125 64.75 24.75 64.75 
Q 20.75 64.75 19.09375 63.03125 
Q 17.4375 61.328125 17.4375 56.640625 
L 17.4375 51.859375 
L 27.546875 51.859375 
L 27.546875 45.015625 
L 17.4375 45.015625 
L 17.4375 0 
z
" id="ArialMT-66"/>
     <path d="M 6.59375 0 
L 6.59375 51.859375 
L 14.453125 51.859375 
L 14.453125 44.578125 
Q 16.890625 48.390625 20.9375 50.703125 
Q 25 53.03125 30.171875 53.03125 
Q 35.9375 53.03125 39.625 50.640625 
Q 43.3125 48.25 44.828125 43.953125 
Q 50.984375 53.03125 60.84375 53.03125 
Q 68.5625 53.03125 72.703125 48.75 
Q 76.859375 44.484375 76.859375 35.59375 
L 76.859375 0 
L 68.109375 0 
L 68.109375 32.671875 
Q 68.109375 37.9375 67.25 40.25 
Q 66.40625 42.578125 64.15625 43.984375 
Q 61.921875 45.40625 58.890625 45.40625 
Q 53.421875 45.40625 49.796875 41.765625 
Q 46.1875 38.140625 46.1875 30.125 
L 46.1875 0 
L 37.40625 0 
L 37.40625 33.6875 
Q 37.40625 39.546875 35.25 42.46875 
Q 33.109375 45.40625 28.21875 45.40625 
Q 24.515625 45.40625 21.359375 43.453125 
Q 18.21875 41.5 16.796875 37.734375 
Q 15.375 33.984375 15.375 26.90625 
L 15.375 0 
z
" id="ArialMT-6d"/>
     <path d="M 14.703125 0 
L 6.546875 0 
L 6.546875 71.578125 
L 15.328125 71.578125 
L 15.328125 46.046875 
Q 20.90625 53.03125 29.546875 53.03125 
Q 34.328125 53.03125 38.59375 51.09375 
Q 42.875 49.171875 45.625 45.671875 
Q 48.390625 42.1875 49.953125 37.25 
Q 51.515625 32.328125 51.515625 26.703125 
Q 51.515625 13.375 44.921875 6.09375 
Q 38.328125 -1.171875 29.109375 -1.171875 
Q 19.921875 -1.171875 14.703125 6.5 
z
M 14.59375 26.3125 
Q 14.59375 17 17.140625 12.84375 
Q 21.296875 6.0625 28.375 6.0625 
Q 34.125 6.0625 38.328125 11.0625 
Q 42.53125 16.0625 42.53125 25.984375 
Q 42.53125 36.140625 38.5 40.96875 
Q 34.46875 45.796875 28.765625 45.796875 
Q 23 45.796875 18.796875 40.796875 
Q 14.59375 35.796875 14.59375 26.3125 
z
" id="ArialMT-62"/>
     <path d="M 6.640625 46.234375 
L 4.390625 59.625 
L 4.390625 71.578125 
L 14.40625 71.578125 
L 14.40625 59.625 
L 12.0625 46.234375 
z
" id="ArialMT-27"/>
    </defs>
    <g style="fill:#262626;" transform="translate(71.471548 44.4)scale(0.12 -0.12)">
     <use xlink:href="#ArialMT-65"/>
     <use x="55.615234" xlink:href="#ArialMT-76"/>
     <use x="105.615234" xlink:href="#ArialMT-6f"/>
     <use x="161.230469" xlink:href="#ArialMT-6c"/>
     <use x="183.447266" xlink:href="#ArialMT-75"/>
     <use x="239.0625" xlink:href="#ArialMT-74"/>
     <use x="266.845703" xlink:href="#ArialMT-69"/>
     <use x="289.0625" xlink:href="#ArialMT-6f"/>
     <use x="344.677734" xlink:href="#ArialMT-6e"/>
     <use x="400.292969" xlink:href="#ArialMT-20"/>
     <use x="428.076172" xlink:href="#ArialMT-64"/>
     <use x="483.691406" xlink:href="#ArialMT-65"/>
     <use x="539.306641" xlink:href="#ArialMT-20"/>
     <use x="567.089844" xlink:href="#ArialMT-6c"/>
     <use x="589.306641" xlink:href="#ArialMT-61"/>
     <use x="644.921875" xlink:href="#ArialMT-20"/>
     <use x="672.705078" xlink:href="#ArialMT-70"/>
     <use x="728.320312" xlink:href="#ArialMT-72"/>
     <use x="761.621094" xlink:href="#ArialMT-e9"/>
     <use x="817.236328" xlink:href="#ArialMT-63"/>
     <use x="867.236328" xlink:href="#ArialMT-69"/>
     <use x="889.453125" xlink:href="#ArialMT-73"/>
     <use x="939.453125" xlink:href="#ArialMT-69"/>
     <use x="961.669922" xlink:href="#ArialMT-6f"/>
     <use x="1017.285156" xlink:href="#ArialMT-6e"/>
     <use x="1072.900391" xlink:href="#ArialMT-20"/>
     <use x="1100.683594" xlink:href="#ArialMT-65"/>
     <use x="1156.298828" xlink:href="#ArialMT-6e"/>
     <use x="1211.914062" xlink:href="#ArialMT-20"/>
     <use x="1239.697266" xlink:href="#ArialMT-66"/>
     <use x="1267.480469" xlink:href="#ArialMT-6f"/>
     <use x="1323.095703" xlink:href="#ArialMT-6e"/>
     <use x="1378.710938" xlink:href="#ArialMT-63"/>
     <use x="1428.710938" xlink:href="#ArialMT-74"/>
     <use x="1456.494141" xlink:href="#ArialMT-69"/>
     <use x="1478.710938" xlink:href="#ArialMT-6f"/>
     <use x="1534.326172" xlink:href="#ArialMT-6e"/>
     <use x="1589.941406" xlink:href="#ArialMT-20"/>
     <use x="1617.724609" xlink:href="#ArialMT-64"/>
     <use x="1673.339844" xlink:href="#ArialMT-75"/>
     <use x="1728.955078" xlink:href="#ArialMT-20"/>
     <use x="1756.738281" xlink:href="#ArialMT-6e"/>
     <use x="1812.353516" xlink:href="#ArialMT-6f"/>
     <use x="1867.96875" xlink:href="#ArialMT-6d"/>
     <use x="1951.269531" xlink:href="#ArialMT-62"/>
     <use x="2006.884766" xlink:href="#ArialMT-72"/>
     <use x="2040.185547" xlink:href="#ArialMT-65"/>
     <use x="2095.800781" xlink:href="#ArialMT-20"/>
     <use x="2123.583984" xlink:href="#ArialMT-64"/>
     <use x="2179.199219" xlink:href="#ArialMT-27"/>
     <use x="2198.291016" xlink:href="#ArialMT-65"/>
     <use x="2253.90625" xlink:href="#ArialMT-70"/>
     <use x="2309.521484" xlink:href="#ArialMT-6f"/>
     <use x="2365.136719" xlink:href="#ArialMT-63"/>
     <use x="2415.136719" xlink:href="#ArialMT-68"/>
    </g>
   </g>
   <g id="legend_1">
    <g id="line2d_30">
     <path d="M 259.100753 184.274531 
L 279.100753 184.274531 
" style="fill:none;stroke:#4c72b0;stroke-linecap:round;stroke-width:1.75;"/>
    </g>
    <g id="line2d_31"/>
    <g id="text_16">
     <!-- aleatoire xavier -->
     <defs>
      <path d="M 0.734375 0 
L 19.671875 26.953125 
L 2.15625 51.859375 
L 13.140625 51.859375 
L 21.09375 39.703125 
Q 23.34375 36.234375 24.703125 33.890625 
Q 26.859375 37.109375 28.65625 39.59375 
L 37.40625 51.859375 
L 47.90625 51.859375 
L 29.984375 27.4375 
L 49.265625 0 
L 38.484375 0 
L 27.828125 16.109375 
L 25 20.453125 
L 11.375 0 
z
" id="ArialMT-78"/>
     </defs>
     <g style="fill:#262626;" transform="translate(287.100753 187.774531)scale(0.1 -0.1)">
      <use xlink:href="#ArialMT-61"/>
      <use x="55.615234" xlink:href="#ArialMT-6c"/>
      <use x="77.832031" xlink:href="#ArialMT-65"/>
      <use x="133.447266" xlink:href="#ArialMT-61"/>
      <use x="189.0625" xlink:href="#ArialMT-74"/>
      <use x="216.845703" xlink:href="#ArialMT-6f"/>
      <use x="272.460938" xlink:href="#ArialMT-69"/>
      <use x="294.677734" xlink:href="#ArialMT-72"/>
      <use x="327.978516" xlink:href="#ArialMT-65"/>
      <use x="383.59375" xlink:href="#ArialMT-20"/>
      <use x="411.376953" xlink:href="#ArialMT-78"/>
      <use x="461.376953" xlink:href="#ArialMT-61"/>
      <use x="516.992188" xlink:href="#ArialMT-76"/>
      <use x="566.992188" xlink:href="#ArialMT-69"/>
      <use x="589.208984" xlink:href="#ArialMT-65"/>
      <use x="644.824219" xlink:href="#ArialMT-72"/>
     </g>
    </g>
    <g id="line2d_32">
     <path d="M 259.100753 198.419844 
L 279.100753 198.419844 
" style="fill:none;stroke:#55a868;stroke-linecap:round;stroke-width:1.75;"/>
    </g>
    <g id="line2d_33"/>
    <g id="text_17">
     <!-- aleatoire distrib normal -->
     <g style="fill:#262626;" transform="translate(287.100753 201.919844)scale(0.1 -0.1)">
      <use xlink:href="#ArialMT-61"/>
      <use x="55.615234" xlink:href="#ArialMT-6c"/>
      <use x="77.832031" xlink:href="#ArialMT-65"/>
      <use x="133.447266" xlink:href="#ArialMT-61"/>
      <use x="189.0625" xlink:href="#ArialMT-74"/>
      <use x="216.845703" xlink:href="#ArialMT-6f"/>
      <use x="272.460938" xlink:href="#ArialMT-69"/>
      <use x="294.677734" xlink:href="#ArialMT-72"/>
      <use x="327.978516" xlink:href="#ArialMT-65"/>
      <use x="383.59375" xlink:href="#ArialMT-20"/>
      <use x="411.376953" xlink:href="#ArialMT-64"/>
      <use x="466.992188" xlink:href="#ArialMT-69"/>
      <use x="489.208984" xlink:href="#ArialMT-73"/>
      <use x="539.208984" xlink:href="#ArialMT-74"/>
      <use x="566.992188" xlink:href="#ArialMT-72"/>
      <use x="600.292969" xlink:href="#ArialMT-69"/>
      <use x="622.509766" xlink:href="#ArialMT-62"/>
      <use x="678.125" xlink:href="#ArialMT-20"/>
      <use x="705.908203" xlink:href="#ArialMT-6e"/>
      <use x="761.523438" xlink:href="#ArialMT-6f"/>
      <use x="817.138672" xlink:href="#ArialMT-72"/>
      <use x="850.439453" xlink:href="#ArialMT-6d"/>
      <use x="933.740234" xlink:href="#ArialMT-61"/>
      <use x="989.355469" xlink:href="#ArialMT-6c"/>
     </g>
    </g>
    <g id="line2d_34">
     <path d="M 259.100753 212.565156 
L 279.100753 212.565156 
" style="fill:none;stroke:#c44e52;stroke-linecap:round;stroke-width:1.75;"/>
    </g>
    <g id="line2d_35"/>
    <g id="text_18">
     <!-- zéro -->
     <defs>
      <path d="M 1.953125 0 
L 1.953125 7.125 
L 34.96875 45.015625 
Q 29.34375 44.734375 25.046875 44.734375 
L 3.90625 44.734375 
L 3.90625 51.859375 
L 46.296875 51.859375 
L 46.296875 46.046875 
L 18.21875 13.140625 
L 12.796875 7.125 
Q 18.703125 7.5625 23.875 7.5625 
L 47.859375 7.5625 
L 47.859375 0 
z
" id="ArialMT-7a"/>
     </defs>
     <g style="fill:#262626;" transform="translate(287.100753 216.065156)scale(0.1 -0.1)">
      <use xlink:href="#ArialMT-7a"/>
      <use x="50" xlink:href="#ArialMT-e9"/>
      <use x="105.615234" xlink:href="#ArialMT-72"/>
      <use x="138.916016" xlink:href="#ArialMT-6f"/>
     </g>
    </g>
    <g id="line2d_36">
     <path d="M 259.100753 226.710469 
L 279.100753 226.710469 
" style="fill:none;stroke:#8172b2;stroke-linecap:round;stroke-width:1.75;"/>
    </g>
    <g id="line2d_37"/>
    <g id="text_19">
     <!-- auto encoder -->
     <g style="fill:#262626;" transform="translate(287.100753 230.210469)scale(0.1 -0.1)">
      <use xlink:href="#ArialMT-61"/>
      <use x="55.615234" xlink:href="#ArialMT-75"/>
      <use x="111.230469" xlink:href="#ArialMT-74"/>
      <use x="139.013672" xlink:href="#ArialMT-6f"/>
      <use x="194.628906" xlink:href="#ArialMT-20"/>
      <use x="222.412109" xlink:href="#ArialMT-65"/>
      <use x="278.027344" xlink:href="#ArialMT-6e"/>
      <use x="333.642578" xlink:href="#ArialMT-63"/>
      <use x="383.642578" xlink:href="#ArialMT-6f"/>
      <use x="439.257812" xlink:href="#ArialMT-64"/>
      <use x="494.873047" xlink:href="#ArialMT-65"/>
      <use x="550.488281" xlink:href="#ArialMT-72"/>
     </g>
    </g>
    <g id="line2d_38">
     <path d="M 259.100753 240.855781 
L 279.100753 240.855781 
" style="fill:none;stroke:#ccb974;stroke-linecap:round;stroke-width:1.75;"/>
    </g>
    <g id="line2d_39"/>
    <g id="text_20">
     <!-- pca -->
     <g style="fill:#262626;" transform="translate(287.100753 244.355781)scale(0.1 -0.1)">
      <use xlink:href="#ArialMT-70"/>
      <use x="55.615234" xlink:href="#ArialMT-63"/>
      <use x="105.615234" xlink:href="#ArialMT-61"/>
     </g>
    </g>
   </g>
  </g>
  <g id="axes_2">
   <g id="patch_3">
    <path d="M 468.268935 376.56 
L 823.359844 376.56 
L 823.359844 50.4 
L 468.268935 50.4 
z
" style="fill:#eaeaf2;"/>
   </g>
   <g id="matplotlib.axis_3">
    <g id="xtick_7">
     <g id="line2d_40">
      <path clip-path="url(#p862f8f403f)" d="M 484.409431 376.56 
L 484.409431 50.4 
" style="fill:none;stroke:#ffffff;stroke-linecap:round;"/>
     </g>
     <g id="line2d_41"/>
     <g id="text_21">
      <!-- 0 -->
      <g style="fill:#262626;" transform="translate(481.628962 390.717812)scale(0.1 -0.1)">
       <use xlink:href="#ArialMT-30"/>
      </g>
     </g>
    </g>
    <g id="xtick_8">
     <g id="line2d_42">
      <path clip-path="url(#p862f8f403f)" d="M 549.036041 376.56 
L 549.036041 50.4 
" style="fill:none;stroke:#ffffff;stroke-linecap:round;"/>
     </g>
     <g id="line2d_43"/>
     <g id="text_22">
      <!-- 200 -->
      <g style="fill:#262626;" transform="translate(540.694634 390.717812)scale(0.1 -0.1)">
       <use xlink:href="#ArialMT-32"/>
       <use x="55.615234" xlink:href="#ArialMT-30"/>
       <use x="111.230469" xlink:href="#ArialMT-30"/>
      </g>
     </g>
    </g>
    <g id="xtick_9">
     <g id="line2d_44">
      <path clip-path="url(#p862f8f403f)" d="M 613.662651 376.56 
L 613.662651 50.4 
" style="fill:none;stroke:#ffffff;stroke-linecap:round;"/>
     </g>
     <g id="line2d_45"/>
     <g id="text_23">
      <!-- 400 -->
      <g style="fill:#262626;" transform="translate(605.321244 390.717812)scale(0.1 -0.1)">
       <use xlink:href="#ArialMT-34"/>
       <use x="55.615234" xlink:href="#ArialMT-30"/>
       <use x="111.230469" xlink:href="#ArialMT-30"/>
      </g>
     </g>
    </g>
    <g id="xtick_10">
     <g id="line2d_46">
      <path clip-path="url(#p862f8f403f)" d="M 678.289261 376.56 
L 678.289261 50.4 
" style="fill:none;stroke:#ffffff;stroke-linecap:round;"/>
     </g>
     <g id="line2d_47"/>
     <g id="text_24">
      <!-- 600 -->
      <g style="fill:#262626;" transform="translate(669.947855 390.717812)scale(0.1 -0.1)">
       <use xlink:href="#ArialMT-36"/>
       <use x="55.615234" xlink:href="#ArialMT-30"/>
       <use x="111.230469" xlink:href="#ArialMT-30"/>
      </g>
     </g>
    </g>
    <g id="xtick_11">
     <g id="line2d_48">
      <path clip-path="url(#p862f8f403f)" d="M 742.915871 376.56 
L 742.915871 50.4 
" style="fill:none;stroke:#ffffff;stroke-linecap:round;"/>
     </g>
     <g id="line2d_49"/>
     <g id="text_25">
      <!-- 800 -->
      <g style="fill:#262626;" transform="translate(734.574465 390.717812)scale(0.1 -0.1)">
       <use xlink:href="#ArialMT-38"/>
       <use x="55.615234" xlink:href="#ArialMT-30"/>
       <use x="111.230469" xlink:href="#ArialMT-30"/>
      </g>
     </g>
    </g>
    <g id="xtick_12">
     <g id="line2d_50">
      <path clip-path="url(#p862f8f403f)" d="M 807.542481 376.56 
L 807.542481 50.4 
" style="fill:none;stroke:#ffffff;stroke-linecap:round;"/>
     </g>
     <g id="line2d_51"/>
     <g id="text_26">
      <!-- 1000 -->
      <g style="fill:#262626;" transform="translate(796.420606 390.717812)scale(0.1 -0.1)">
       <use xlink:href="#ArialMT-31"/>
       <use x="55.615234" xlink:href="#ArialMT-30"/>
       <use x="111.230469" xlink:href="#ArialMT-30"/>
       <use x="166.845703" xlink:href="#ArialMT-30"/>
      </g>
     </g>
    </g>
    <g id="text_27">
     <!-- epoch -->
     <g style="fill:#262626;" transform="translate(630.830327 404.578906)scale(0.11 -0.11)">
      <use xlink:href="#ArialMT-65"/>
      <use x="55.615234" xlink:href="#ArialMT-70"/>
      <use x="111.230469" xlink:href="#ArialMT-6f"/>
      <use x="166.845703" xlink:href="#ArialMT-63"/>
      <use x="216.845703" xlink:href="#ArialMT-68"/>
     </g>
    </g>
   </g>
   <g id="matplotlib.axis_4">
    <g id="ytick_7">
     <g id="line2d_52">
      <path clip-path="url(#p862f8f403f)" d="M 468.268935 362.930339 
L 823.359844 362.930339 
" style="fill:none;stroke:#ffffff;stroke-linecap:round;"/>
     </g>
     <g id="line2d_53"/>
     <g id="text_28">
      <!-- 0 -->
      <g style="fill:#262626;" transform="translate(455.707997 366.509245)scale(0.1 -0.1)">
       <use xlink:href="#ArialMT-30"/>
      </g>
     </g>
    </g>
    <g id="ytick_8">
     <g id="line2d_54">
      <path clip-path="url(#p862f8f403f)" d="M 468.268935 299.293057 
L 823.359844 299.293057 
" style="fill:none;stroke:#ffffff;stroke-linecap:round;"/>
     </g>
     <g id="line2d_55"/>
     <g id="text_29">
      <!-- 2 -->
      <g style="fill:#262626;" transform="translate(455.707997 302.871963)scale(0.1 -0.1)">
       <use xlink:href="#ArialMT-32"/>
      </g>
     </g>
    </g>
    <g id="ytick_9">
     <g id="line2d_56">
      <path clip-path="url(#p862f8f403f)" d="M 468.268935 235.655774 
L 823.359844 235.655774 
" style="fill:none;stroke:#ffffff;stroke-linecap:round;"/>
     </g>
     <g id="line2d_57"/>
     <g id="text_30">
      <!-- 4 -->
      <g style="fill:#262626;" transform="translate(455.707997 239.234681)scale(0.1 -0.1)">
       <use xlink:href="#ArialMT-34"/>
      </g>
     </g>
    </g>
    <g id="ytick_10">
     <g id="line2d_58">
      <path clip-path="url(#p862f8f403f)" d="M 468.268935 172.018492 
L 823.359844 172.018492 
" style="fill:none;stroke:#ffffff;stroke-linecap:round;"/>
     </g>
     <g id="line2d_59"/>
     <g id="text_31">
      <!-- 6 -->
      <g style="fill:#262626;" transform="translate(455.707997 175.597399)scale(0.1 -0.1)">
       <use xlink:href="#ArialMT-36"/>
      </g>
     </g>
    </g>
    <g id="ytick_11">
     <g id="line2d_60">
      <path clip-path="url(#p862f8f403f)" d="M 468.268935 108.38121 
L 823.359844 108.38121 
" style="fill:none;stroke:#ffffff;stroke-linecap:round;"/>
     </g>
     <g id="line2d_61"/>
     <g id="text_32">
      <!-- 8 -->
      <g style="fill:#262626;" transform="translate(455.707997 111.960116)scale(0.1 -0.1)">
       <use xlink:href="#ArialMT-38"/>
      </g>
     </g>
    </g>
    <g id="text_33">
     <!-- loss -->
     <g style="fill:#262626;" transform="translate(449.521747 223.260547)rotate(-90)scale(0.11 -0.11)">
      <use xlink:href="#ArialMT-6c"/>
      <use x="22.216797" xlink:href="#ArialMT-6f"/>
      <use x="77.832031" xlink:href="#ArialMT-73"/>
      <use x="127.832031" xlink:href="#ArialMT-73"/>
     </g>
    </g>
   </g>
   <g id="line2d_62">
    <path clip-path="url(#p862f8f403f)" d="M 484.409431 247.787319 
L 484.732564 252.865074 
L 485.055697 255.23156 
L 485.701963 257.609577 
L 486.348229 258.709432 
L 486.994495 259.270816 
L 487.963894 259.680961 
L 489.256426 259.927466 
L 492.487757 260.223318 
L 511.552607 261.760933 
L 521.246598 262.778464 
L 529.001791 263.804287 
L 535.464452 264.870855 
L 541.280847 266.053635 
L 546.450976 267.330552 
L 551.297972 268.761134 
L 555.821835 270.331202 
L 560.345697 272.149202 
L 564.86956 274.221398 
L 569.716556 276.706782 
L 575.209818 279.796964 
L 582.318745 284.076845 
L 618.509646 306.246435 
L 627.557372 311.359819 
L 636.281964 316.039934 
L 645.32969 320.636116 
L 654.377415 324.983992 
L 663.748274 329.240258 
L 673.119132 333.249926 
L 681.843724 336.749616 
L 690.245184 339.883391 
L 698.000377 342.545776 
L 705.432437 344.870212 
L 712.864497 346.960441 
L 720.296557 348.813847 
L 727.728617 350.437702 
L 735.483811 351.904307 
L 743.88527 353.257951 
L 752.932995 354.47981 
L 762.626987 355.562836 
L 773.613511 356.562523 
L 786.2157 357.477299 
L 800.756687 358.301814 
L 807.219348 358.606596 
L 807.219348 358.606596 
" style="fill:none;stroke:#4c72b0;stroke-linecap:round;stroke-width:1.75;"/>
   </g>
   <g id="line2d_63">
    <path clip-path="url(#p862f8f403f)" d="M 484.409431 65.225455 
L 484.732564 144.417086 
L 485.055697 182.125239 
L 485.37883 202.874481 
L 486.025096 222.321028 
L 486.994495 240.016585 
L 488.287027 258.490246 
L 489.579559 273.408594 
L 490.548958 282.054945 
L 491.518358 288.701692 
L 492.487757 293.832777 
L 493.457156 297.809728 
L 494.426555 300.95994 
L 495.719087 304.459278 
L 497.657886 308.996068 
L 499.919817 313.697447 
L 503.151147 319.841728 
L 505.736212 324.363847 
L 507.998143 327.912495 
L 510.260075 331.048319 
L 512.198873 333.380635 
L 514.137671 335.37326 
L 516.399603 337.360368 
L 518.984667 339.33307 
L 521.892864 341.27073 
L 525.124195 343.145462 
L 528.678658 344.93423 
L 532.556255 346.620153 
L 536.756985 348.191633 
L 541.280847 349.644177 
L 546.450976 351.06507 
L 552.267371 352.42762 
L 558.730032 353.714342 
L 565.192693 354.771748 
L 572.624753 355.746565 
L 582.318745 356.785516 
L 592.659002 357.670303 
L 603.968659 358.407731 
L 617.86338 359.08432 
L 635.312565 359.703525 
L 657.608746 360.263767 
L 687.013853 360.76864 
L 727.082351 361.219579 
L 783.307502 361.614774 
L 807.219348 361.734545 
L 807.219348 361.734545 
" style="fill:none;stroke:#55a868;stroke-linecap:round;stroke-width:1.75;"/>
   </g>
   <g id="line2d_64">
    <path clip-path="url(#p862f8f403f)" d="M 484.409431 259.493348 
L 485.701963 259.67072 
L 488.61016 259.732699 
L 526.093594 259.736264 
L 807.219348 259.736264 
L 807.219348 259.736264 
" style="fill:none;stroke:#c44e52;stroke-linecap:round;stroke-width:1.75;"/>
   </g>
   <g id="line2d_65">
    <path clip-path="url(#p862f8f403f)" d="M 484.409431 252.008711 
L 484.732564 255.09359 
L 485.055697 256.822824 
L 485.701963 258.574718 
L 486.348229 259.337156 
L 486.994495 259.705146 
L 487.963894 259.970874 
L 489.902692 260.209466 
L 516.076469 262.676612 
L 524.154796 263.747626 
L 530.94059 264.861584 
L 536.756985 266.027584 
L 541.927113 267.274187 
L 546.774109 268.664683 
L 551.297972 270.193711 
L 555.498702 271.844435 
L 559.699431 273.742931 
L 563.577028 275.730208 
L 567.777758 278.141126 
L 571.978487 280.805983 
L 576.825483 284.148109 
L 583.288144 288.902163 
L 599.121663 300.661132 
L 606.230591 305.591925 
L 613.339518 310.253822 
L 620.771578 314.864148 
L 628.203638 319.220028 
L 635.635698 323.320474 
L 643.067758 327.159698 
L 650.176685 330.585283 
L 657.285612 333.770448 
L 664.39454 336.716404 
L 671.503467 339.423867 
L 678.612394 341.894321 
L 685.721321 344.131951 
L 693.153381 346.230922 
L 700.585441 348.096824 
L 708.340634 349.81216 
L 716.418961 351.368065 
L 724.82042 352.760899 
L 733.868145 354.034342 
L 743.562137 355.175038 
L 754.548661 356.235935 
L 766.827717 357.188882 
L 780.722438 358.039816 
L 797.202223 358.818244 
L 807.219348 359.19947 
L 807.219348 359.19947 
" style="fill:none;stroke:#8172b2;stroke-linecap:round;stroke-width:1.75;"/>
   </g>
   <g id="line2d_66">
    <path clip-path="url(#p862f8f403f)" d="M 484.409431 244.864221 
L 484.732564 251.517659 
L 485.055697 254.32924 
L 485.701963 257.184577 
L 486.348229 258.554053 
L 486.994495 259.298922 
L 487.640761 259.737501 
L 488.61016 260.099611 
L 490.225825 260.36307 
L 496.04222 260.846559 
L 512.198873 262.262606 
L 523.185397 263.436935 
L 531.909989 264.583043 
L 539.342049 265.778705 
L 545.80471 267.03957 
L 551.621105 268.398622 
L 556.791234 269.823484 
L 561.63823 271.374883 
L 566.485225 273.158479 
L 571.332221 275.188238 
L 576.179217 277.463372 
L 581.349346 280.13866 
L 587.165741 283.39975 
L 594.597801 287.831385 
L 606.230591 295.056288 
L 647.268488 320.719302 
L 656.316213 326.028302 
L 663.748274 330.142358 
L 670.534068 333.645335 
L 676.673596 336.572489 
L 682.813123 339.251123 
L 688.629518 341.553982 
L 694.769046 343.740746 
L 700.908574 345.688336 
L 707.371235 347.498506 
L 714.157029 349.159069 
L 721.265956 350.66484 
L 729.02115 352.070921 
L 737.422609 353.358059 
L 746.470334 354.51669 
L 756.487459 355.576497 
L 768.120249 356.575205 
L 781.368704 357.479913 
L 796.87909 358.305736 
L 807.219348 358.750892 
L 807.219348 358.750892 
" style="fill:none;stroke:#ccb974;stroke-linecap:round;stroke-width:1.75;"/>
   </g>
   <g id="text_34">
    <!-- evolution du loss en fonction du nombre d'epoch -->
    <g style="fill:#262626;" transform="translate(517.257827 44.4)scale(0.12 -0.12)">
     <use xlink:href="#ArialMT-65"/>
     <use x="55.615234" xlink:href="#ArialMT-76"/>
     <use x="105.615234" xlink:href="#ArialMT-6f"/>
     <use x="161.230469" xlink:href="#ArialMT-6c"/>
     <use x="183.447266" xlink:href="#ArialMT-75"/>
     <use x="239.0625" xlink:href="#ArialMT-74"/>
     <use x="266.845703" xlink:href="#ArialMT-69"/>
     <use x="289.0625" xlink:href="#ArialMT-6f"/>
     <use x="344.677734" xlink:href="#ArialMT-6e"/>
     <use x="400.292969" xlink:href="#ArialMT-20"/>
     <use x="428.076172" xlink:href="#ArialMT-64"/>
     <use x="483.691406" xlink:href="#ArialMT-75"/>
     <use x="539.306641" xlink:href="#ArialMT-20"/>
     <use x="567.089844" xlink:href="#ArialMT-6c"/>
     <use x="589.306641" xlink:href="#ArialMT-6f"/>
     <use x="644.921875" xlink:href="#ArialMT-73"/>
     <use x="694.921875" xlink:href="#ArialMT-73"/>
     <use x="744.921875" xlink:href="#ArialMT-20"/>
     <use x="772.705078" xlink:href="#ArialMT-65"/>
     <use x="828.320312" xlink:href="#ArialMT-6e"/>
     <use x="883.935547" xlink:href="#ArialMT-20"/>
     <use x="911.71875" xlink:href="#ArialMT-66"/>
     <use x="939.501953" xlink:href="#ArialMT-6f"/>
     <use x="995.117188" xlink:href="#ArialMT-6e"/>
     <use x="1050.732422" xlink:href="#ArialMT-63"/>
     <use x="1100.732422" xlink:href="#ArialMT-74"/>
     <use x="1128.515625" xlink:href="#ArialMT-69"/>
     <use x="1150.732422" xlink:href="#ArialMT-6f"/>
     <use x="1206.347656" xlink:href="#ArialMT-6e"/>
     <use x="1261.962891" xlink:href="#ArialMT-20"/>
     <use x="1289.746094" xlink:href="#ArialMT-64"/>
     <use x="1345.361328" xlink:href="#ArialMT-75"/>
     <use x="1400.976562" xlink:href="#ArialMT-20"/>
     <use x="1428.759766" xlink:href="#ArialMT-6e"/>
     <use x="1484.375" xlink:href="#ArialMT-6f"/>
     <use x="1539.990234" xlink:href="#ArialMT-6d"/>
     <use x="1623.291016" xlink:href="#ArialMT-62"/>
     <use x="1678.90625" xlink:href="#ArialMT-72"/>
     <use x="1712.207031" xlink:href="#ArialMT-65"/>
     <use x="1767.822266" xlink:href="#ArialMT-20"/>
     <use x="1795.605469" xlink:href="#ArialMT-64"/>
     <use x="1851.220703" xlink:href="#ArialMT-27"/>
     <use x="1870.3125" xlink:href="#ArialMT-65"/>
     <use x="1925.927734" xlink:href="#ArialMT-70"/>
     <use x="1981.542969" xlink:href="#ArialMT-6f"/>
     <use x="2037.158203" xlink:href="#ArialMT-63"/>
     <use x="2087.158203" xlink:href="#ArialMT-68"/>
    </g>
   </g>
   <g id="legend_2">
    <g id="line2d_67">
     <path d="M 685.209844 63.057812 
L 705.209844 63.057812 
" style="fill:none;stroke:#4c72b0;stroke-linecap:round;stroke-width:1.75;"/>
    </g>
    <g id="line2d_68"/>
    <g id="text_35">
     <!-- aleatoire xavier -->
     <g style="fill:#262626;" transform="translate(713.209844 66.557812)scale(0.1 -0.1)">
      <use xlink:href="#ArialMT-61"/>
      <use x="55.615234" xlink:href="#ArialMT-6c"/>
      <use x="77.832031" xlink:href="#ArialMT-65"/>
      <use x="133.447266" xlink:href="#ArialMT-61"/>
      <use x="189.0625" xlink:href="#ArialMT-74"/>
      <use x="216.845703" xlink:href="#ArialMT-6f"/>
      <use x="272.460938" xlink:href="#ArialMT-69"/>
      <use x="294.677734" xlink:href="#ArialMT-72"/>
      <use x="327.978516" xlink:href="#ArialMT-65"/>
      <use x="383.59375" xlink:href="#ArialMT-20"/>
      <use x="411.376953" xlink:href="#ArialMT-78"/>
      <use x="461.376953" xlink:href="#ArialMT-61"/>
      <use x="516.992188" xlink:href="#ArialMT-76"/>
      <use x="566.992188" xlink:href="#ArialMT-69"/>
      <use x="589.208984" xlink:href="#ArialMT-65"/>
      <use x="644.824219" xlink:href="#ArialMT-72"/>
     </g>
    </g>
    <g id="line2d_69">
     <path d="M 685.209844 77.203125 
L 705.209844 77.203125 
" style="fill:none;stroke:#55a868;stroke-linecap:round;stroke-width:1.75;"/>
    </g>
    <g id="line2d_70"/>
    <g id="text_36">
     <!-- aleatoire distrib normal -->
     <g style="fill:#262626;" transform="translate(713.209844 80.703125)scale(0.1 -0.1)">
      <use xlink:href="#ArialMT-61"/>
      <use x="55.615234" xlink:href="#ArialMT-6c"/>
      <use x="77.832031" xlink:href="#ArialMT-65"/>
      <use x="133.447266" xlink:href="#ArialMT-61"/>
      <use x="189.0625" xlink:href="#ArialMT-74"/>
      <use x="216.845703" xlink:href="#ArialMT-6f"/>
      <use x="272.460938" xlink:href="#ArialMT-69"/>
      <use x="294.677734" xlink:href="#ArialMT-72"/>
      <use x="327.978516" xlink:href="#ArialMT-65"/>
      <use x="383.59375" xlink:href="#ArialMT-20"/>
      <use x="411.376953" xlink:href="#ArialMT-64"/>
      <use x="466.992188" xlink:href="#ArialMT-69"/>
      <use x="489.208984" xlink:href="#ArialMT-73"/>
      <use x="539.208984" xlink:href="#ArialMT-74"/>
      <use x="566.992188" xlink:href="#ArialMT-72"/>
      <use x="600.292969" xlink:href="#ArialMT-69"/>
      <use x="622.509766" xlink:href="#ArialMT-62"/>
      <use x="678.125" xlink:href="#ArialMT-20"/>
      <use x="705.908203" xlink:href="#ArialMT-6e"/>
      <use x="761.523438" xlink:href="#ArialMT-6f"/>
      <use x="817.138672" xlink:href="#ArialMT-72"/>
      <use x="850.439453" xlink:href="#ArialMT-6d"/>
      <use x="933.740234" xlink:href="#ArialMT-61"/>
      <use x="989.355469" xlink:href="#ArialMT-6c"/>
     </g>
    </g>
    <g id="line2d_71">
     <path d="M 685.209844 91.348437 
L 705.209844 91.348437 
" style="fill:none;stroke:#c44e52;stroke-linecap:round;stroke-width:1.75;"/>
    </g>
    <g id="line2d_72"/>
    <g id="text_37">
     <!-- zéro -->
     <g style="fill:#262626;" transform="translate(713.209844 94.848437)scale(0.1 -0.1)">
      <use xlink:href="#ArialMT-7a"/>
      <use x="50" xlink:href="#ArialMT-e9"/>
      <use x="105.615234" xlink:href="#ArialMT-72"/>
      <use x="138.916016" xlink:href="#ArialMT-6f"/>
     </g>
    </g>
    <g id="line2d_73">
     <path d="M 685.209844 105.49375 
L 705.209844 105.49375 
" style="fill:none;stroke:#8172b2;stroke-linecap:round;stroke-width:1.75;"/>
    </g>
    <g id="line2d_74"/>
    <g id="text_38">
     <!-- auto encoder -->
     <g style="fill:#262626;" transform="translate(713.209844 108.99375)scale(0.1 -0.1)">
      <use xlink:href="#ArialMT-61"/>
      <use x="55.615234" xlink:href="#ArialMT-75"/>
      <use x="111.230469" xlink:href="#ArialMT-74"/>
      <use x="139.013672" xlink:href="#ArialMT-6f"/>
      <use x="194.628906" xlink:href="#ArialMT-20"/>
      <use x="222.412109" xlink:href="#ArialMT-65"/>
      <use x="278.027344" xlink:href="#ArialMT-6e"/>
      <use x="333.642578" xlink:href="#ArialMT-63"/>
      <use x="383.642578" xlink:href="#ArialMT-6f"/>
      <use x="439.257812" xlink:href="#ArialMT-64"/>
      <use x="494.873047" xlink:href="#ArialMT-65"/>
      <use x="550.488281" xlink:href="#ArialMT-72"/>
     </g>
    </g>
    <g id="line2d_75">
     <path d="M 685.209844 119.639062 
L 705.209844 119.639062 
" style="fill:none;stroke:#ccb974;stroke-linecap:round;stroke-width:1.75;"/>
    </g>
    <g id="line2d_76"/>
    <g id="text_39">
     <!-- pca -->
     <g style="fill:#262626;" transform="translate(713.209844 123.139062)scale(0.1 -0.1)">
      <use xlink:href="#ArialMT-70"/>
      <use x="55.615234" xlink:href="#ArialMT-63"/>
      <use x="105.615234" xlink:href="#ArialMT-61"/>
     </g>
    </g>
   </g>
  </g>
  <g id="text_40">
   <!-- Comparaison des initialisations - Jaffe -->
   <defs>
    <path d="M 58.796875 25.09375 
L 68.265625 22.703125 
Q 65.28125 11.03125 57.546875 4.90625 
Q 49.8125 -1.21875 38.625 -1.21875 
Q 27.046875 -1.21875 19.796875 3.484375 
Q 12.546875 8.203125 8.765625 17.140625 
Q 4.984375 26.078125 4.984375 36.328125 
Q 4.984375 47.515625 9.25 55.828125 
Q 13.53125 64.15625 21.40625 68.46875 
Q 29.296875 72.796875 38.765625 72.796875 
Q 49.515625 72.796875 56.828125 67.328125 
Q 64.15625 61.859375 67.046875 51.953125 
L 57.71875 49.75 
Q 55.21875 57.5625 50.484375 61.125 
Q 45.75 64.703125 38.578125 64.703125 
Q 30.328125 64.703125 24.78125 60.734375 
Q 19.234375 56.78125 16.984375 50.109375 
Q 14.75 43.453125 14.75 36.375 
Q 14.75 27.25 17.40625 20.4375 
Q 20.0625 13.625 25.671875 10.25 
Q 31.296875 6.890625 37.84375 6.890625 
Q 45.796875 6.890625 51.3125 11.46875 
Q 56.84375 16.0625 58.796875 25.09375 
z
" id="ArialMT-43"/>
    <path d="M 3.171875 21.484375 
L 3.171875 30.328125 
L 30.171875 30.328125 
L 30.171875 21.484375 
z
" id="ArialMT-2d"/>
    <path d="M 2.875 20.3125 
L 11.421875 21.484375 
Q 11.765625 13.28125 14.5 10.25 
Q 17.234375 7.234375 22.078125 7.234375 
Q 25.640625 7.234375 28.21875 8.859375 
Q 30.8125 10.5 31.78125 13.296875 
Q 32.765625 16.109375 32.765625 22.265625 
L 32.765625 71.578125 
L 42.234375 71.578125 
L 42.234375 22.796875 
Q 42.234375 13.8125 40.0625 8.875 
Q 37.890625 3.953125 33.171875 1.359375 
Q 28.46875 -1.21875 22.125 -1.21875 
Q 12.703125 -1.21875 7.6875 4.203125 
Q 2.6875 9.625 2.875 20.3125 
z
" id="ArialMT-4a"/>
   </defs>
   <g style="fill:#262626;" transform="translate(285.438594 18.8475)scale(0.16 -0.16)">
    <use xlink:href="#ArialMT-43"/>
    <use x="72.216797" xlink:href="#ArialMT-6f"/>
    <use x="127.832031" xlink:href="#ArialMT-6d"/>
    <use x="211.132812" xlink:href="#ArialMT-70"/>
    <use x="266.748047" xlink:href="#ArialMT-61"/>
    <use x="322.363281" xlink:href="#ArialMT-72"/>
    <use x="355.664062" xlink:href="#ArialMT-61"/>
    <use x="411.279297" xlink:href="#ArialMT-69"/>
    <use x="433.496094" xlink:href="#ArialMT-73"/>
    <use x="483.496094" xlink:href="#ArialMT-6f"/>
    <use x="539.111328" xlink:href="#ArialMT-6e"/>
    <use x="594.726562" xlink:href="#ArialMT-20"/>
    <use x="622.509766" xlink:href="#ArialMT-64"/>
    <use x="678.125" xlink:href="#ArialMT-65"/>
    <use x="733.740234" xlink:href="#ArialMT-73"/>
    <use x="783.740234" xlink:href="#ArialMT-20"/>
    <use x="811.523438" xlink:href="#ArialMT-69"/>
    <use x="833.740234" xlink:href="#ArialMT-6e"/>
    <use x="889.355469" xlink:href="#ArialMT-69"/>
    <use x="911.572266" xlink:href="#ArialMT-74"/>
    <use x="939.355469" xlink:href="#ArialMT-69"/>
    <use x="961.572266" xlink:href="#ArialMT-61"/>
    <use x="1017.1875" xlink:href="#ArialMT-6c"/>
    <use x="1039.404297" xlink:href="#ArialMT-69"/>
    <use x="1061.621094" xlink:href="#ArialMT-73"/>
    <use x="1111.621094" xlink:href="#ArialMT-61"/>
    <use x="1167.236328" xlink:href="#ArialMT-74"/>
    <use x="1195.019531" xlink:href="#ArialMT-69"/>
    <use x="1217.236328" xlink:href="#ArialMT-6f"/>
    <use x="1272.851562" xlink:href="#ArialMT-6e"/>
    <use x="1328.466797" xlink:href="#ArialMT-73"/>
    <use x="1378.466797" xlink:href="#ArialMT-20"/>
    <use x="1406.25" xlink:href="#ArialMT-2d"/>
    <use x="1439.550781" xlink:href="#ArialMT-20"/>
    <use x="1467.333984" xlink:href="#ArialMT-4a"/>
    <use x="1517.333984" xlink:href="#ArialMT-61"/>
    <use x="1572.949219" xlink:href="#ArialMT-66"/>
    <use x="1600.716797" xlink:href="#ArialMT-66"/>
    <use x="1628.5" xlink:href="#ArialMT-65"/>
   </g>
  </g>
 </g>
 <defs>
  <clipPath id="pf33845a946">
   <rect height="326.16" width="355.090909" x="42.159844" y="50.4"/>
  </clipPath>
  <clipPath id="p862f8f403f">
   <rect height="326.16" width="355.090909" x="468.268935" y="50.4"/>
  </clipPath>
 </defs>
</svg>
