<?xml version="1.0" encoding="utf-8" standalone="no"?>
<!DOCTYPE svg PUBLIC "-//W3C//DTD SVG 1.1//EN"
  "http://www.w3.org/Graphics/SVG/1.1/DTD/svg11.dtd">
<!-- Created with matplotlib (http://matplotlib.org/) -->
<svg height="413.965156pt" version="1.1" viewBox="0 0 830.559844 413.965156" width="830.559844pt" xmlns="http://www.w3.org/2000/svg" xmlns:xlink="http://www.w3.org/1999/xlink">
 <defs>
  <style type="text/css">
*{stroke-linecap:butt;stroke-linejoin:round;}
  </style>
 </defs>
 <g id="figure_1">
  <g id="patch_1">
   <path d="M 0 413.965156 
L 830.559844 413.965156 
L 830.559844 0 
L 0 0 
z
" style="fill:#ffffff;"/>
  </g>
  <g id="axes_1">
   <g id="patch_2">
    <path d="M 42.159844 376.56 
L 397.250753 376.56 
L 397.250753 50.4 
L 42.159844 50.4 
z
" style="fill:#eaeaf2;"/>
   </g>
   <g id="matplotlib.axis_1">
    <g id="xtick_1">
     <g id="line2d_1">
      <path clip-path="url(#pb091517e4b)" d="M 58.30034 376.56 
L 58.30034 50.4 
" style="fill:none;stroke:#ffffff;stroke-linecap:round;"/>
     </g>
     <g id="line2d_2"/>
     <g id="text_1">
      <!-- 0 -->
      <defs>
       <path d="M 4.15625 35.296875 
Q 4.15625 48 6.765625 55.734375 
Q 9.375 63.484375 14.515625 67.671875 
Q 19.671875 71.875 27.484375 71.875 
Q 33.25 71.875 37.59375 69.546875 
Q 41.9375 67.234375 44.765625 62.859375 
Q 47.609375 58.5 49.21875 52.21875 
Q 50.828125 45.953125 50.828125 35.296875 
Q 50.828125 22.703125 48.234375 14.96875 
Q 45.65625 7.234375 40.5 3 
Q 35.359375 -1.21875 27.484375 -1.21875 
Q 17.140625 -1.21875 11.234375 6.203125 
Q 4.15625 15.140625 4.15625 35.296875 
z
M 13.1875 35.296875 
Q 13.1875 17.671875 17.3125 11.828125 
Q 21.4375 6 27.484375 6 
Q 33.546875 6 37.671875 11.859375 
Q 41.796875 17.71875 41.796875 35.296875 
Q 41.796875 52.984375 37.671875 58.78125 
Q 33.546875 64.59375 27.390625 64.59375 
Q 21.34375 64.59375 17.71875 59.46875 
Q 13.1875 52.9375 13.1875 35.296875 
z
" id="ArialMT-30"/>
      </defs>
      <g style="fill:#262626;" transform="translate(55.519871 390.717812)scale(0.1 -0.1)">
       <use xlink:href="#ArialMT-30"/>
      </g>
     </g>
    </g>
    <g id="xtick_2">
     <g id="line2d_3">
      <path clip-path="url(#pb091517e4b)" d="M 122.92695 376.56 
L 122.92695 50.4 
" style="fill:none;stroke:#ffffff;stroke-linecap:round;"/>
     </g>
     <g id="line2d_4"/>
     <g id="text_2">
      <!-- 200 -->
      <defs>
       <path d="M 50.34375 8.453125 
L 50.34375 0 
L 3.03125 0 
Q 2.9375 3.171875 4.046875 6.109375 
Q 5.859375 10.9375 9.828125 15.625 
Q 13.8125 20.3125 21.34375 26.46875 
Q 33.015625 36.03125 37.109375 41.625 
Q 41.21875 47.21875 41.21875 52.203125 
Q 41.21875 57.421875 37.46875 61 
Q 33.734375 64.59375 27.734375 64.59375 
Q 21.390625 64.59375 17.578125 60.78125 
Q 13.765625 56.984375 13.71875 50.25 
L 4.6875 51.171875 
Q 5.609375 61.28125 11.65625 66.578125 
Q 17.71875 71.875 27.9375 71.875 
Q 38.234375 71.875 44.234375 66.15625 
Q 50.25 60.453125 50.25 52 
Q 50.25 47.703125 48.484375 43.546875 
Q 46.734375 39.40625 42.65625 34.8125 
Q 38.578125 30.21875 29.109375 22.21875 
Q 21.1875 15.578125 18.9375 13.203125 
Q 16.703125 10.84375 15.234375 8.453125 
z
" id="ArialMT-32"/>
      </defs>
      <g style="fill:#262626;" transform="translate(114.585543 390.717812)scale(0.1 -0.1)">
       <use xlink:href="#ArialMT-32"/>
       <use x="55.615234" xlink:href="#ArialMT-30"/>
       <use x="111.230469" xlink:href="#ArialMT-30"/>
      </g>
     </g>
    </g>
    <g id="xtick_3">
     <g id="line2d_5">
      <path clip-path="url(#pb091517e4b)" d="M 187.55356 376.56 
L 187.55356 50.4 
" style="fill:none;stroke:#ffffff;stroke-linecap:round;"/>
     </g>
     <g id="line2d_6"/>
     <g id="text_3">
      <!-- 400 -->
      <defs>
       <path d="M 32.328125 0 
L 32.328125 17.140625 
L 1.265625 17.140625 
L 1.265625 25.203125 
L 33.9375 71.578125 
L 41.109375 71.578125 
L 41.109375 25.203125 
L 50.78125 25.203125 
L 50.78125 17.140625 
L 41.109375 17.140625 
L 41.109375 0 
z
M 32.328125 25.203125 
L 32.328125 57.46875 
L 9.90625 25.203125 
z
" id="ArialMT-34"/>
      </defs>
      <g style="fill:#262626;" transform="translate(179.212154 390.717812)scale(0.1 -0.1)">
       <use xlink:href="#ArialMT-34"/>
       <use x="55.615234" xlink:href="#ArialMT-30"/>
       <use x="111.230469" xlink:href="#ArialMT-30"/>
      </g>
     </g>
    </g>
    <g id="xtick_4">
     <g id="line2d_7">
      <path clip-path="url(#pb091517e4b)" d="M 252.18017 376.56 
L 252.18017 50.4 
" style="fill:none;stroke:#ffffff;stroke-linecap:round;"/>
     </g>
     <g id="line2d_8"/>
     <g id="text_4">
      <!-- 600 -->
      <defs>
       <path d="M 49.75 54.046875 
L 41.015625 53.375 
Q 39.84375 58.546875 37.703125 60.890625 
Q 34.125 64.65625 28.90625 64.65625 
Q 24.703125 64.65625 21.53125 62.3125 
Q 17.390625 59.28125 14.984375 53.46875 
Q 12.59375 47.65625 12.5 36.921875 
Q 15.671875 41.75 20.265625 44.09375 
Q 24.859375 46.4375 29.890625 46.4375 
Q 38.671875 46.4375 44.84375 39.96875 
Q 51.03125 33.5 51.03125 23.25 
Q 51.03125 16.5 48.125 10.71875 
Q 45.21875 4.9375 40.140625 1.859375 
Q 35.0625 -1.21875 28.609375 -1.21875 
Q 17.625 -1.21875 10.6875 6.859375 
Q 3.765625 14.9375 3.765625 33.5 
Q 3.765625 54.25 11.421875 63.671875 
Q 18.109375 71.875 29.4375 71.875 
Q 37.890625 71.875 43.28125 67.140625 
Q 48.6875 62.40625 49.75 54.046875 
z
M 13.875 23.1875 
Q 13.875 18.65625 15.796875 14.5 
Q 17.71875 10.359375 21.1875 8.171875 
Q 24.65625 6 28.46875 6 
Q 34.03125 6 38.03125 10.484375 
Q 42.046875 14.984375 42.046875 22.703125 
Q 42.046875 30.125 38.078125 34.390625 
Q 34.125 38.671875 28.125 38.671875 
Q 22.171875 38.671875 18.015625 34.390625 
Q 13.875 30.125 13.875 23.1875 
z
" id="ArialMT-36"/>
      </defs>
      <g style="fill:#262626;" transform="translate(243.838764 390.717812)scale(0.1 -0.1)">
       <use xlink:href="#ArialMT-36"/>
       <use x="55.615234" xlink:href="#ArialMT-30"/>
       <use x="111.230469" xlink:href="#ArialMT-30"/>
      </g>
     </g>
    </g>
    <g id="xtick_5">
     <g id="line2d_9">
      <path clip-path="url(#pb091517e4b)" d="M 316.80678 376.56 
L 316.80678 50.4 
" style="fill:none;stroke:#ffffff;stroke-linecap:round;"/>
     </g>
     <g id="line2d_10"/>
     <g id="text_5">
      <!-- 800 -->
      <defs>
       <path d="M 17.671875 38.8125 
Q 12.203125 40.828125 9.5625 44.53125 
Q 6.9375 48.25 6.9375 53.421875 
Q 6.9375 61.234375 12.546875 66.546875 
Q 18.171875 71.875 27.484375 71.875 
Q 36.859375 71.875 42.578125 66.421875 
Q 48.296875 60.984375 48.296875 53.171875 
Q 48.296875 48.1875 45.671875 44.5 
Q 43.0625 40.828125 37.75 38.8125 
Q 44.34375 36.671875 47.78125 31.875 
Q 51.21875 27.09375 51.21875 20.453125 
Q 51.21875 11.28125 44.71875 5.03125 
Q 38.234375 -1.21875 27.640625 -1.21875 
Q 17.046875 -1.21875 10.546875 5.046875 
Q 4.046875 11.328125 4.046875 20.703125 
Q 4.046875 27.6875 7.59375 32.390625 
Q 11.140625 37.109375 17.671875 38.8125 
z
M 15.921875 53.71875 
Q 15.921875 48.640625 19.1875 45.40625 
Q 22.46875 42.1875 27.6875 42.1875 
Q 32.765625 42.1875 36.015625 45.375 
Q 39.265625 48.578125 39.265625 53.21875 
Q 39.265625 58.0625 35.90625 61.359375 
Q 32.5625 64.65625 27.59375 64.65625 
Q 22.5625 64.65625 19.234375 61.421875 
Q 15.921875 58.203125 15.921875 53.71875 
z
M 13.09375 20.65625 
Q 13.09375 16.890625 14.875 13.375 
Q 16.65625 9.859375 20.171875 7.921875 
Q 23.6875 6 27.734375 6 
Q 34.03125 6 38.125 10.046875 
Q 42.234375 14.109375 42.234375 20.359375 
Q 42.234375 26.703125 38.015625 30.859375 
Q 33.796875 35.015625 27.4375 35.015625 
Q 21.234375 35.015625 17.15625 30.90625 
Q 13.09375 26.8125 13.09375 20.65625 
z
" id="ArialMT-38"/>
      </defs>
      <g style="fill:#262626;" transform="translate(308.465374 390.717812)scale(0.1 -0.1)">
       <use xlink:href="#ArialMT-38"/>
       <use x="55.615234" xlink:href="#ArialMT-30"/>
       <use x="111.230469" xlink:href="#ArialMT-30"/>
      </g>
     </g>
    </g>
    <g id="xtick_6">
     <g id="line2d_11">
      <path clip-path="url(#pb091517e4b)" d="M 381.43339 376.56 
L 381.43339 50.4 
" style="fill:none;stroke:#ffffff;stroke-linecap:round;"/>
     </g>
     <g id="line2d_12"/>
     <g id="text_6">
      <!-- 1000 -->
      <defs>
       <path d="M 37.25 0 
L 28.46875 0 
L 28.46875 56 
Q 25.296875 52.984375 20.140625 49.953125 
Q 14.984375 46.921875 10.890625 45.40625 
L 10.890625 53.90625 
Q 18.265625 57.375 23.78125 62.296875 
Q 29.296875 67.234375 31.59375 71.875 
L 37.25 71.875 
z
" id="ArialMT-31"/>
      </defs>
      <g style="fill:#262626;" transform="translate(370.311515 390.717812)scale(0.1 -0.1)">
       <use xlink:href="#ArialMT-31"/>
       <use x="55.615234" xlink:href="#ArialMT-30"/>
       <use x="111.230469" xlink:href="#ArialMT-30"/>
       <use x="166.845703" xlink:href="#ArialMT-30"/>
      </g>
     </g>
    </g>
    <g id="text_7">
     <!-- epoch -->
     <defs>
      <path d="M 42.09375 16.703125 
L 51.171875 15.578125 
Q 49.03125 7.625 43.21875 3.21875 
Q 37.40625 -1.171875 28.375 -1.171875 
Q 17 -1.171875 10.328125 5.828125 
Q 3.65625 12.84375 3.65625 25.484375 
Q 3.65625 38.578125 10.390625 45.796875 
Q 17.140625 53.03125 27.875 53.03125 
Q 38.28125 53.03125 44.875 45.953125 
Q 51.46875 38.875 51.46875 26.03125 
Q 51.46875 25.25 51.421875 23.6875 
L 12.75 23.6875 
Q 13.234375 15.140625 17.578125 10.59375 
Q 21.921875 6.0625 28.421875 6.0625 
Q 33.25 6.0625 36.671875 8.59375 
Q 40.09375 11.140625 42.09375 16.703125 
z
M 13.234375 30.90625 
L 42.1875 30.90625 
Q 41.609375 37.453125 38.875 40.71875 
Q 34.671875 45.796875 27.984375 45.796875 
Q 21.921875 45.796875 17.796875 41.75 
Q 13.671875 37.703125 13.234375 30.90625 
z
" id="ArialMT-65"/>
      <path d="M 6.59375 -19.875 
L 6.59375 51.859375 
L 14.59375 51.859375 
L 14.59375 45.125 
Q 17.4375 49.078125 21 51.046875 
Q 24.5625 53.03125 29.640625 53.03125 
Q 36.28125 53.03125 41.359375 49.609375 
Q 46.4375 46.1875 49.015625 39.953125 
Q 51.609375 33.734375 51.609375 26.3125 
Q 51.609375 18.359375 48.75 11.984375 
Q 45.90625 5.609375 40.453125 2.21875 
Q 35.015625 -1.171875 29 -1.171875 
Q 24.609375 -1.171875 21.109375 0.6875 
Q 17.625 2.546875 15.375 5.375 
L 15.375 -19.875 
z
M 14.546875 25.640625 
Q 14.546875 15.625 18.59375 10.84375 
Q 22.65625 6.0625 28.421875 6.0625 
Q 34.28125 6.0625 38.453125 11.015625 
Q 42.625 15.96875 42.625 26.375 
Q 42.625 36.28125 38.546875 41.203125 
Q 34.46875 46.140625 28.8125 46.140625 
Q 23.1875 46.140625 18.859375 40.890625 
Q 14.546875 35.640625 14.546875 25.640625 
z
" id="ArialMT-70"/>
      <path d="M 3.328125 25.921875 
Q 3.328125 40.328125 11.328125 47.265625 
Q 18.015625 53.03125 27.640625 53.03125 
Q 38.328125 53.03125 45.109375 46.015625 
Q 51.90625 39.015625 51.90625 26.65625 
Q 51.90625 16.65625 48.90625 10.90625 
Q 45.90625 5.171875 40.15625 2 
Q 34.421875 -1.171875 27.640625 -1.171875 
Q 16.75 -1.171875 10.03125 5.8125 
Q 3.328125 12.796875 3.328125 25.921875 
z
M 12.359375 25.921875 
Q 12.359375 15.96875 16.703125 11.015625 
Q 21.046875 6.0625 27.640625 6.0625 
Q 34.1875 6.0625 38.53125 11.03125 
Q 42.875 16.015625 42.875 26.21875 
Q 42.875 35.84375 38.5 40.796875 
Q 34.125 45.75 27.640625 45.75 
Q 21.046875 45.75 16.703125 40.8125 
Q 12.359375 35.890625 12.359375 25.921875 
z
" id="ArialMT-6f"/>
      <path d="M 40.4375 19 
L 49.078125 17.875 
Q 47.65625 8.9375 41.8125 3.875 
Q 35.984375 -1.171875 27.484375 -1.171875 
Q 16.84375 -1.171875 10.375 5.78125 
Q 3.90625 12.75 3.90625 25.734375 
Q 3.90625 34.125 6.6875 40.421875 
Q 9.46875 46.734375 15.15625 49.875 
Q 20.84375 53.03125 27.546875 53.03125 
Q 35.984375 53.03125 41.359375 48.75 
Q 46.734375 44.484375 48.25 36.625 
L 39.703125 35.296875 
Q 38.484375 40.53125 35.375 43.15625 
Q 32.28125 45.796875 27.875 45.796875 
Q 21.234375 45.796875 17.078125 41.03125 
Q 12.9375 36.28125 12.9375 25.984375 
Q 12.9375 15.53125 16.9375 10.796875 
Q 20.953125 6.0625 27.390625 6.0625 
Q 32.5625 6.0625 36.03125 9.234375 
Q 39.5 12.40625 40.4375 19 
z
" id="ArialMT-63"/>
      <path d="M 6.59375 0 
L 6.59375 71.578125 
L 15.375 71.578125 
L 15.375 45.90625 
Q 21.53125 53.03125 30.90625 53.03125 
Q 36.671875 53.03125 40.921875 50.75 
Q 45.171875 48.484375 47 44.484375 
Q 48.828125 40.484375 48.828125 32.859375 
L 48.828125 0 
L 40.046875 0 
L 40.046875 32.859375 
Q 40.046875 39.453125 37.1875 42.453125 
Q 34.328125 45.453125 29.109375 45.453125 
Q 25.203125 45.453125 21.75 43.421875 
Q 18.3125 41.40625 16.84375 37.9375 
Q 15.375 34.46875 15.375 28.375 
L 15.375 0 
z
" id="ArialMT-68"/>
     </defs>
     <g style="fill:#262626;" transform="translate(204.721236 404.578906)scale(0.11 -0.11)">
      <use xlink:href="#ArialMT-65"/>
      <use x="55.615234" xlink:href="#ArialMT-70"/>
      <use x="111.230469" xlink:href="#ArialMT-6f"/>
      <use x="166.845703" xlink:href="#ArialMT-63"/>
      <use x="216.845703" xlink:href="#ArialMT-68"/>
     </g>
    </g>
   </g>
   <g id="matplotlib.axis_2">
    <g id="ytick_1">
     <g id="line2d_13">
      <path clip-path="url(#pb091517e4b)" d="M 42.159844 320.586346 
L 397.250753 320.586346 
" style="fill:none;stroke:#ffffff;stroke-linecap:round;"/>
     </g>
     <g id="line2d_14"/>
     <g id="text_8">
      <!-- 0.2 -->
      <defs>
       <path d="M 9.078125 0 
L 9.078125 10.015625 
L 19.09375 10.015625 
L 19.09375 0 
z
" id="ArialMT-2e"/>
      </defs>
      <g style="fill:#262626;" transform="translate(21.259844 324.165252)scale(0.1 -0.1)">
       <use xlink:href="#ArialMT-30"/>
       <use x="55.615234" xlink:href="#ArialMT-2e"/>
       <use x="83.398438" xlink:href="#ArialMT-32"/>
      </g>
     </g>
    </g>
    <g id="ytick_2">
     <g id="line2d_15">
      <path clip-path="url(#pb091517e4b)" d="M 42.159844 255.233322 
L 397.250753 255.233322 
" style="fill:none;stroke:#ffffff;stroke-linecap:round;"/>
     </g>
     <g id="line2d_16"/>
     <g id="text_9">
      <!-- 0.4 -->
      <g style="fill:#262626;" transform="translate(21.259844 258.812229)scale(0.1 -0.1)">
       <use xlink:href="#ArialMT-30"/>
       <use x="55.615234" xlink:href="#ArialMT-2e"/>
       <use x="83.398438" xlink:href="#ArialMT-34"/>
      </g>
     </g>
    </g>
    <g id="ytick_3">
     <g id="line2d_17">
      <path clip-path="url(#pb091517e4b)" d="M 42.159844 189.880299 
L 397.250753 189.880299 
" style="fill:none;stroke:#ffffff;stroke-linecap:round;"/>
     </g>
     <g id="line2d_18"/>
     <g id="text_10">
      <!-- 0.6 -->
      <g style="fill:#262626;" transform="translate(21.259844 193.459205)scale(0.1 -0.1)">
       <use xlink:href="#ArialMT-30"/>
       <use x="55.615234" xlink:href="#ArialMT-2e"/>
       <use x="83.398438" xlink:href="#ArialMT-36"/>
      </g>
     </g>
    </g>
    <g id="ytick_4">
     <g id="line2d_19">
      <path clip-path="url(#pb091517e4b)" d="M 42.159844 124.527276 
L 397.250753 124.527276 
" style="fill:none;stroke:#ffffff;stroke-linecap:round;"/>
     </g>
     <g id="line2d_20"/>
     <g id="text_11">
      <!-- 0.8 -->
      <g style="fill:#262626;" transform="translate(21.259844 128.106182)scale(0.1 -0.1)">
       <use xlink:href="#ArialMT-30"/>
       <use x="55.615234" xlink:href="#ArialMT-2e"/>
       <use x="83.398438" xlink:href="#ArialMT-38"/>
      </g>
     </g>
    </g>
    <g id="ytick_5">
     <g id="line2d_21">
      <path clip-path="url(#pb091517e4b)" d="M 42.159844 59.174252 
L 397.250753 59.174252 
" style="fill:none;stroke:#ffffff;stroke-linecap:round;"/>
     </g>
     <g id="line2d_22"/>
     <g id="text_12">
      <!-- 1.0 -->
      <g style="fill:#262626;" transform="translate(21.259844 62.753159)scale(0.1 -0.1)">
       <use xlink:href="#ArialMT-31"/>
       <use x="55.615234" xlink:href="#ArialMT-2e"/>
       <use x="83.398438" xlink:href="#ArialMT-30"/>
      </g>
     </g>
    </g>
    <g id="text_13">
     <!-- accuracy -->
     <defs>
      <path d="M 40.4375 6.390625 
Q 35.546875 2.25 31.03125 0.53125 
Q 26.515625 -1.171875 21.34375 -1.171875 
Q 12.796875 -1.171875 8.203125 3 
Q 3.609375 7.171875 3.609375 13.671875 
Q 3.609375 17.484375 5.34375 20.625 
Q 7.078125 23.78125 9.890625 25.6875 
Q 12.703125 27.59375 16.21875 28.5625 
Q 18.796875 29.25 24.03125 29.890625 
Q 34.671875 31.15625 39.703125 32.90625 
Q 39.75 34.71875 39.75 35.203125 
Q 39.75 40.578125 37.25 42.78125 
Q 33.890625 45.75 27.25 45.75 
Q 21.046875 45.75 18.09375 43.578125 
Q 15.140625 41.40625 13.71875 35.890625 
L 5.125 37.0625 
Q 6.296875 42.578125 8.984375 45.96875 
Q 11.671875 49.359375 16.75 51.1875 
Q 21.828125 53.03125 28.515625 53.03125 
Q 35.15625 53.03125 39.296875 51.46875 
Q 43.453125 49.90625 45.40625 47.53125 
Q 47.359375 45.171875 48.140625 41.546875 
Q 48.578125 39.3125 48.578125 33.453125 
L 48.578125 21.734375 
Q 48.578125 9.46875 49.140625 6.21875 
Q 49.703125 2.984375 51.375 0 
L 42.1875 0 
Q 40.828125 2.734375 40.4375 6.390625 
z
M 39.703125 26.03125 
Q 34.90625 24.078125 25.34375 22.703125 
Q 19.921875 21.921875 17.671875 20.9375 
Q 15.4375 19.96875 14.203125 18.09375 
Q 12.984375 16.21875 12.984375 13.921875 
Q 12.984375 10.40625 15.640625 8.0625 
Q 18.3125 5.71875 23.4375 5.71875 
Q 28.515625 5.71875 32.46875 7.9375 
Q 36.421875 10.15625 38.28125 14.015625 
Q 39.703125 17 39.703125 22.796875 
z
" id="ArialMT-61"/>
      <path d="M 40.578125 0 
L 40.578125 7.625 
Q 34.515625 -1.171875 24.125 -1.171875 
Q 19.53125 -1.171875 15.546875 0.578125 
Q 11.578125 2.34375 9.640625 5 
Q 7.71875 7.671875 6.9375 11.53125 
Q 6.390625 14.109375 6.390625 19.734375 
L 6.390625 51.859375 
L 15.1875 51.859375 
L 15.1875 23.09375 
Q 15.1875 16.21875 15.71875 13.8125 
Q 16.546875 10.359375 19.234375 8.375 
Q 21.921875 6.390625 25.875 6.390625 
Q 29.828125 6.390625 33.296875 8.421875 
Q 36.765625 10.453125 38.203125 13.9375 
Q 39.65625 17.4375 39.65625 24.078125 
L 39.65625 51.859375 
L 48.4375 51.859375 
L 48.4375 0 
z
" id="ArialMT-75"/>
      <path d="M 6.5 0 
L 6.5 51.859375 
L 14.40625 51.859375 
L 14.40625 44 
Q 17.4375 49.515625 20 51.265625 
Q 22.5625 53.03125 25.640625 53.03125 
Q 30.078125 53.03125 34.671875 50.203125 
L 31.640625 42.046875 
Q 28.421875 43.953125 25.203125 43.953125 
Q 22.3125 43.953125 20.015625 42.21875 
Q 17.71875 40.484375 16.75 37.40625 
Q 15.28125 32.71875 15.28125 27.15625 
L 15.28125 0 
z
" id="ArialMT-72"/>
      <path d="M 6.203125 -19.96875 
L 5.21875 -11.71875 
Q 8.109375 -12.5 10.25 -12.5 
Q 13.1875 -12.5 14.9375 -11.515625 
Q 16.703125 -10.546875 17.828125 -8.796875 
Q 18.65625 -7.46875 20.515625 -2.25 
Q 20.75 -1.515625 21.296875 -0.09375 
L 1.609375 51.859375 
L 11.078125 51.859375 
L 21.875 21.828125 
Q 23.96875 16.109375 25.640625 9.8125 
Q 27.15625 15.875 29.25 21.625 
L 40.328125 51.859375 
L 49.125 51.859375 
L 29.390625 -0.875 
Q 26.21875 -9.421875 24.46875 -12.640625 
Q 22.125 -17 19.09375 -19.015625 
Q 16.0625 -21.046875 11.859375 -21.046875 
Q 9.328125 -21.046875 6.203125 -19.96875 
z
" id="ArialMT-79"/>
     </defs>
     <g style="fill:#262626;" transform="translate(14.944688 235.486875)rotate(-90)scale(0.11 -0.11)">
      <use xlink:href="#ArialMT-61"/>
      <use x="55.615234" xlink:href="#ArialMT-63"/>
      <use x="105.615234" xlink:href="#ArialMT-63"/>
      <use x="155.615234" xlink:href="#ArialMT-75"/>
      <use x="211.230469" xlink:href="#ArialMT-72"/>
      <use x="244.53125" xlink:href="#ArialMT-61"/>
      <use x="300.146484" xlink:href="#ArialMT-63"/>
      <use x="350.146484" xlink:href="#ArialMT-79"/>
     </g>
    </g>
   </g>
   <g id="line2d_23">
    <path clip-path="url(#pb091517e4b)" d="M 58.30034 349.632134 
L 61.53167 349.632134 
L 61.854803 361.734545 
L 63.147335 361.734545 
L 63.793601 349.632134 
L 65.409267 349.632134 
L 65.7324 343.580929 
L 68.640597 343.580929 
L 68.96373 337.529722 
L 76.39579 337.529722 
L 76.718923 331.478515 
L 84.150984 331.478515 
L 84.474117 325.427312 
L 87.705447 325.427312 
L 88.02858 319.376105 
L 88.674846 319.376105 
L 88.997979 313.324898 
L 90.613645 313.324898 
L 90.936778 307.273691 
L 92.22931 307.273691 
L 92.552443 301.222489 
L 95.137507 301.222489 
L 95.46064 295.171277 
L 97.399439 295.171277 
L 97.722572 289.120075 
L 116.787422 289.120075 
L 117.110555 283.068872 
L 119.049353 283.068872 
L 119.372486 277.01766 
L 123.896349 277.01766 
L 124.219482 270.966458 
L 131.651542 270.966458 
L 131.974675 264.915256 
L 133.59034 264.915256 
L 134.236606 252.812841 
L 155.563388 252.812841 
L 155.886521 234.659225 
L 156.209654 234.659225 
L 156.532787 228.608013 
L 162.026049 228.608013 
L 162.349182 222.556811 
L 163.318581 222.556811 
L 163.641714 216.505608 
L 163.964847 216.505608 
L 164.28798 210.454406 
L 165.903645 210.454406 
L 166.226778 204.403184 
L 169.781242 204.403184 
L 170.104375 198.351982 
L 171.073774 198.351982 
L 171.396907 192.30078 
L 171.72004 192.30078 
L 172.043173 186.249578 
L 173.012573 186.249578 
L 173.335706 180.198375 
L 174.951371 180.198375 
L 175.274504 174.147173 
L 175.92077 174.147173 
L 176.243903 168.095951 
L 177.213302 168.095951 
L 177.536435 162.044749 
L 180.1215 162.044749 
L 180.444633 155.993547 
L 187.876693 155.993547 
L 188.199826 143.891142 
L 191.108023 143.891142 
L 191.431156 137.839921 
L 195.308753 137.839921 
L 195.631886 131.788718 
L 206.295277 131.788718 
L 206.941543 119.686314 
L 214.05047 119.686314 
L 214.373603 113.635112 
L 217.2818 113.635112 
L 217.604933 107.58389 
L 230.530255 107.58389 
L 230.853389 101.532688 
L 236.34665 101.532688 
L 236.669783 95.481485 
L 243.455578 95.481485 
L 243.778711 89.430283 
L 254.442101 89.430283 
L 254.765234 83.379081 
L 259.289097 83.379081 
L 259.61223 77.327879 
L 263.489827 77.327879 
L 263.81296 71.276657 
L 267.04429 71.276657 
L 267.367423 65.225455 
L 381.110257 65.225455 
L 381.110257 65.225455 
" style="fill:none;stroke:#4c72b0;stroke-linecap:round;stroke-width:1.75;"/>
   </g>
   <g id="text_14">
    <!-- evolution de la précision en fonction du nombre d'epoch -->
    <defs>
     <path d="M 21 0 
L 1.265625 51.859375 
L 10.546875 51.859375 
L 21.6875 20.796875 
Q 23.484375 15.765625 25 10.359375 
Q 26.171875 14.453125 28.265625 20.21875 
L 39.796875 51.859375 
L 48.828125 51.859375 
L 29.203125 0 
z
" id="ArialMT-76"/>
     <path d="M 6.390625 0 
L 6.390625 71.578125 
L 15.1875 71.578125 
L 15.1875 0 
z
" id="ArialMT-6c"/>
     <path d="M 25.78125 7.859375 
L 27.046875 0.09375 
Q 23.34375 -0.6875 20.40625 -0.6875 
Q 15.625 -0.6875 12.984375 0.828125 
Q 10.359375 2.34375 9.28125 4.8125 
Q 8.203125 7.28125 8.203125 15.1875 
L 8.203125 45.015625 
L 1.765625 45.015625 
L 1.765625 51.859375 
L 8.203125 51.859375 
L 8.203125 64.703125 
L 16.9375 69.96875 
L 16.9375 51.859375 
L 25.78125 51.859375 
L 25.78125 45.015625 
L 16.9375 45.015625 
L 16.9375 14.703125 
Q 16.9375 10.9375 17.40625 9.859375 
Q 17.875 8.796875 18.921875 8.15625 
Q 19.96875 7.515625 21.921875 7.515625 
Q 23.390625 7.515625 25.78125 7.859375 
z
" id="ArialMT-74"/>
     <path d="M 6.640625 61.46875 
L 6.640625 71.578125 
L 15.4375 71.578125 
L 15.4375 61.46875 
z
M 6.640625 0 
L 6.640625 51.859375 
L 15.4375 51.859375 
L 15.4375 0 
z
" id="ArialMT-69"/>
     <path d="M 6.59375 0 
L 6.59375 51.859375 
L 14.5 51.859375 
L 14.5 44.484375 
Q 20.21875 53.03125 31 53.03125 
Q 35.6875 53.03125 39.625 51.34375 
Q 43.5625 49.65625 45.515625 46.921875 
Q 47.46875 44.1875 48.25 40.4375 
Q 48.734375 37.984375 48.734375 31.890625 
L 48.734375 0 
L 39.9375 0 
L 39.9375 31.546875 
Q 39.9375 36.921875 38.90625 39.578125 
Q 37.890625 42.234375 35.28125 43.8125 
Q 32.671875 45.40625 29.15625 45.40625 
Q 23.53125 45.40625 19.453125 41.84375 
Q 15.375 38.28125 15.375 28.328125 
L 15.375 0 
z
" id="ArialMT-6e"/>
     <path id="ArialMT-20"/>
     <path d="M 40.234375 0 
L 40.234375 6.546875 
Q 35.296875 -1.171875 25.734375 -1.171875 
Q 19.53125 -1.171875 14.328125 2.25 
Q 9.125 5.671875 6.265625 11.796875 
Q 3.421875 17.921875 3.421875 25.875 
Q 3.421875 33.640625 6 39.96875 
Q 8.59375 46.296875 13.765625 49.65625 
Q 18.953125 53.03125 25.34375 53.03125 
Q 30.03125 53.03125 33.6875 51.046875 
Q 37.359375 49.078125 39.65625 45.90625 
L 39.65625 71.578125 
L 48.390625 71.578125 
L 48.390625 0 
z
M 12.453125 25.875 
Q 12.453125 15.921875 16.640625 10.984375 
Q 20.84375 6.0625 26.5625 6.0625 
Q 32.328125 6.0625 36.34375 10.765625 
Q 40.375 15.484375 40.375 25.140625 
Q 40.375 35.796875 36.265625 40.765625 
Q 32.171875 45.75 26.171875 45.75 
Q 20.3125 45.75 16.375 40.96875 
Q 12.453125 36.1875 12.453125 25.875 
z
" id="ArialMT-64"/>
     <path d="M 42.09375 16.703125 
L 51.171875 15.578125 
Q 49.03125 7.625 43.21875 3.21875 
Q 37.40625 -1.171875 28.375 -1.171875 
Q 17 -1.171875 10.328125 5.828125 
Q 3.65625 12.84375 3.65625 25.484375 
Q 3.65625 38.578125 10.390625 45.796875 
Q 17.140625 53.03125 27.875 53.03125 
Q 38.28125 53.03125 44.875 45.953125 
Q 51.46875 38.875 51.46875 26.03125 
Q 51.46875 25.25 51.421875 23.6875 
L 12.75 23.6875 
Q 13.234375 15.140625 17.578125 10.59375 
Q 21.921875 6.0625 28.421875 6.0625 
Q 33.25 6.0625 36.671875 8.59375 
Q 40.09375 11.140625 42.09375 16.703125 
z
M 13.234375 30.90625 
L 42.1875 30.90625 
Q 41.609375 37.453125 38.875 40.71875 
Q 34.671875 45.796875 27.984375 45.796875 
Q 21.921875 45.796875 17.796875 41.75 
Q 13.671875 37.703125 13.234375 30.90625 
z
M 22.71875 58.296875 
L 29.203125 71.96875 
L 40.734375 71.96875 
L 29.984375 58.296875 
z
" id="ArialMT-e9"/>
     <path d="M 3.078125 15.484375 
L 11.765625 16.84375 
Q 12.5 11.625 15.84375 8.84375 
Q 19.1875 6.0625 25.203125 6.0625 
Q 31.25 6.0625 34.171875 8.515625 
Q 37.109375 10.984375 37.109375 14.3125 
Q 37.109375 17.28125 34.515625 19 
Q 32.71875 20.171875 25.53125 21.96875 
Q 15.875 24.421875 12.140625 26.203125 
Q 8.40625 27.984375 6.46875 31.125 
Q 4.546875 34.28125 4.546875 38.09375 
Q 4.546875 41.546875 6.125 44.5 
Q 7.71875 47.46875 10.453125 49.421875 
Q 12.5 50.921875 16.03125 51.96875 
Q 19.578125 53.03125 23.640625 53.03125 
Q 29.734375 53.03125 34.34375 51.265625 
Q 38.96875 49.515625 41.15625 46.5 
Q 43.359375 43.5 44.1875 38.484375 
L 35.59375 37.3125 
Q 35.015625 41.3125 32.203125 43.546875 
Q 29.390625 45.796875 24.265625 45.796875 
Q 18.21875 45.796875 15.625 43.796875 
Q 13.03125 41.796875 13.03125 39.109375 
Q 13.03125 37.40625 14.109375 36.03125 
Q 15.1875 34.625 17.484375 33.6875 
Q 18.796875 33.203125 25.25 31.453125 
Q 34.578125 28.953125 38.25 27.359375 
Q 41.9375 25.78125 44.03125 22.75 
Q 46.140625 19.734375 46.140625 15.234375 
Q 46.140625 10.84375 43.578125 6.953125 
Q 41.015625 3.078125 36.171875 0.953125 
Q 31.34375 -1.171875 25.25 -1.171875 
Q 15.140625 -1.171875 9.84375 3.03125 
Q 4.546875 7.234375 3.078125 15.484375 
z
" id="ArialMT-73"/>
     <path d="M 8.6875 0 
L 8.6875 45.015625 
L 0.921875 45.015625 
L 0.921875 51.859375 
L 8.6875 51.859375 
L 8.6875 57.375 
Q 8.6875 62.59375 9.625 65.140625 
Q 10.890625 68.5625 14.078125 70.671875 
Q 17.28125 72.796875 23.046875 72.796875 
Q 26.765625 72.796875 31.25 71.921875 
L 29.9375 64.265625 
Q 27.203125 64.75 24.75 64.75 
Q 20.75 64.75 19.09375 63.03125 
Q 17.4375 61.328125 17.4375 56.640625 
L 17.4375 51.859375 
L 27.546875 51.859375 
L 27.546875 45.015625 
L 17.4375 45.015625 
L 17.4375 0 
z
" id="ArialMT-66"/>
     <path d="M 6.59375 0 
L 6.59375 51.859375 
L 14.453125 51.859375 
L 14.453125 44.578125 
Q 16.890625 48.390625 20.9375 50.703125 
Q 25 53.03125 30.171875 53.03125 
Q 35.9375 53.03125 39.625 50.640625 
Q 43.3125 48.25 44.828125 43.953125 
Q 50.984375 53.03125 60.84375 53.03125 
Q 68.5625 53.03125 72.703125 48.75 
Q 76.859375 44.484375 76.859375 35.59375 
L 76.859375 0 
L 68.109375 0 
L 68.109375 32.671875 
Q 68.109375 37.9375 67.25 40.25 
Q 66.40625 42.578125 64.15625 43.984375 
Q 61.921875 45.40625 58.890625 45.40625 
Q 53.421875 45.40625 49.796875 41.765625 
Q 46.1875 38.140625 46.1875 30.125 
L 46.1875 0 
L 37.40625 0 
L 37.40625 33.6875 
Q 37.40625 39.546875 35.25 42.46875 
Q 33.109375 45.40625 28.21875 45.40625 
Q 24.515625 45.40625 21.359375 43.453125 
Q 18.21875 41.5 16.796875 37.734375 
Q 15.375 33.984375 15.375 26.90625 
L 15.375 0 
z
" id="ArialMT-6d"/>
     <path d="M 14.703125 0 
L 6.546875 0 
L 6.546875 71.578125 
L 15.328125 71.578125 
L 15.328125 46.046875 
Q 20.90625 53.03125 29.546875 53.03125 
Q 34.328125 53.03125 38.59375 51.09375 
Q 42.875 49.171875 45.625 45.671875 
Q 48.390625 42.1875 49.953125 37.25 
Q 51.515625 32.328125 51.515625 26.703125 
Q 51.515625 13.375 44.921875 6.09375 
Q 38.328125 -1.171875 29.109375 -1.171875 
Q 19.921875 -1.171875 14.703125 6.5 
z
M 14.59375 26.3125 
Q 14.59375 17 17.140625 12.84375 
Q 21.296875 6.0625 28.375 6.0625 
Q 34.125 6.0625 38.328125 11.0625 
Q 42.53125 16.0625 42.53125 25.984375 
Q 42.53125 36.140625 38.5 40.96875 
Q 34.46875 45.796875 28.765625 45.796875 
Q 23 45.796875 18.796875 40.796875 
Q 14.59375 35.796875 14.59375 26.3125 
z
" id="ArialMT-62"/>
     <path d="M 6.640625 46.234375 
L 4.390625 59.625 
L 4.390625 71.578125 
L 14.40625 71.578125 
L 14.40625 59.625 
L 12.0625 46.234375 
z
" id="ArialMT-27"/>
    </defs>
    <g style="fill:#262626;" transform="translate(71.471548 44.4)scale(0.12 -0.12)">
     <use xlink:href="#ArialMT-65"/>
     <use x="55.615234" xlink:href="#ArialMT-76"/>
     <use x="105.615234" xlink:href="#ArialMT-6f"/>
     <use x="161.230469" xlink:href="#ArialMT-6c"/>
     <use x="183.447266" xlink:href="#ArialMT-75"/>
     <use x="239.0625" xlink:href="#ArialMT-74"/>
     <use x="266.845703" xlink:href="#ArialMT-69"/>
     <use x="289.0625" xlink:href="#ArialMT-6f"/>
     <use x="344.677734" xlink:href="#ArialMT-6e"/>
     <use x="400.292969" xlink:href="#ArialMT-20"/>
     <use x="428.076172" xlink:href="#ArialMT-64"/>
     <use x="483.691406" xlink:href="#ArialMT-65"/>
     <use x="539.306641" xlink:href="#ArialMT-20"/>
     <use x="567.089844" xlink:href="#ArialMT-6c"/>
     <use x="589.306641" xlink:href="#ArialMT-61"/>
     <use x="644.921875" xlink:href="#ArialMT-20"/>
     <use x="672.705078" xlink:href="#ArialMT-70"/>
     <use x="728.320312" xlink:href="#ArialMT-72"/>
     <use x="761.621094" xlink:href="#ArialMT-e9"/>
     <use x="817.236328" xlink:href="#ArialMT-63"/>
     <use x="867.236328" xlink:href="#ArialMT-69"/>
     <use x="889.453125" xlink:href="#ArialMT-73"/>
     <use x="939.453125" xlink:href="#ArialMT-69"/>
     <use x="961.669922" xlink:href="#ArialMT-6f"/>
     <use x="1017.285156" xlink:href="#ArialMT-6e"/>
     <use x="1072.900391" xlink:href="#ArialMT-20"/>
     <use x="1100.683594" xlink:href="#ArialMT-65"/>
     <use x="1156.298828" xlink:href="#ArialMT-6e"/>
     <use x="1211.914062" xlink:href="#ArialMT-20"/>
     <use x="1239.697266" xlink:href="#ArialMT-66"/>
     <use x="1267.480469" xlink:href="#ArialMT-6f"/>
     <use x="1323.095703" xlink:href="#ArialMT-6e"/>
     <use x="1378.710938" xlink:href="#ArialMT-63"/>
     <use x="1428.710938" xlink:href="#ArialMT-74"/>
     <use x="1456.494141" xlink:href="#ArialMT-69"/>
     <use x="1478.710938" xlink:href="#ArialMT-6f"/>
     <use x="1534.326172" xlink:href="#ArialMT-6e"/>
     <use x="1589.941406" xlink:href="#ArialMT-20"/>
     <use x="1617.724609" xlink:href="#ArialMT-64"/>
     <use x="1673.339844" xlink:href="#ArialMT-75"/>
     <use x="1728.955078" xlink:href="#ArialMT-20"/>
     <use x="1756.738281" xlink:href="#ArialMT-6e"/>
     <use x="1812.353516" xlink:href="#ArialMT-6f"/>
     <use x="1867.96875" xlink:href="#ArialMT-6d"/>
     <use x="1951.269531" xlink:href="#ArialMT-62"/>
     <use x="2006.884766" xlink:href="#ArialMT-72"/>
     <use x="2040.185547" xlink:href="#ArialMT-65"/>
     <use x="2095.800781" xlink:href="#ArialMT-20"/>
     <use x="2123.583984" xlink:href="#ArialMT-64"/>
     <use x="2179.199219" xlink:href="#ArialMT-27"/>
     <use x="2198.291016" xlink:href="#ArialMT-65"/>
     <use x="2253.90625" xlink:href="#ArialMT-70"/>
     <use x="2309.521484" xlink:href="#ArialMT-6f"/>
     <use x="2365.136719" xlink:href="#ArialMT-63"/>
     <use x="2415.136719" xlink:href="#ArialMT-68"/>
    </g>
   </g>
  </g>
  <g id="axes_2">
   <g id="patch_3">
    <path d="M 468.268935 376.56 
L 823.359844 376.56 
L 823.359844 50.4 
L 468.268935 50.4 
z
" style="fill:#eaeaf2;"/>
   </g>
   <g id="matplotlib.axis_3">
    <g id="xtick_7">
     <g id="line2d_24">
      <path clip-path="url(#p29690da094)" d="M 484.409431 376.56 
L 484.409431 50.4 
" style="fill:none;stroke:#ffffff;stroke-linecap:round;"/>
     </g>
     <g id="line2d_25"/>
     <g id="text_15">
      <!-- 0 -->
      <g style="fill:#262626;" transform="translate(481.628962 390.717812)scale(0.1 -0.1)">
       <use xlink:href="#ArialMT-30"/>
      </g>
     </g>
    </g>
    <g id="xtick_8">
     <g id="line2d_26">
      <path clip-path="url(#p29690da094)" d="M 549.036041 376.56 
L 549.036041 50.4 
" style="fill:none;stroke:#ffffff;stroke-linecap:round;"/>
     </g>
     <g id="line2d_27"/>
     <g id="text_16">
      <!-- 200 -->
      <g style="fill:#262626;" transform="translate(540.694634 390.717812)scale(0.1 -0.1)">
       <use xlink:href="#ArialMT-32"/>
       <use x="55.615234" xlink:href="#ArialMT-30"/>
       <use x="111.230469" xlink:href="#ArialMT-30"/>
      </g>
     </g>
    </g>
    <g id="xtick_9">
     <g id="line2d_28">
      <path clip-path="url(#p29690da094)" d="M 613.662651 376.56 
L 613.662651 50.4 
" style="fill:none;stroke:#ffffff;stroke-linecap:round;"/>
     </g>
     <g id="line2d_29"/>
     <g id="text_17">
      <!-- 400 -->
      <g style="fill:#262626;" transform="translate(605.321244 390.717812)scale(0.1 -0.1)">
       <use xlink:href="#ArialMT-34"/>
       <use x="55.615234" xlink:href="#ArialMT-30"/>
       <use x="111.230469" xlink:href="#ArialMT-30"/>
      </g>
     </g>
    </g>
    <g id="xtick_10">
     <g id="line2d_30">
      <path clip-path="url(#p29690da094)" d="M 678.289261 376.56 
L 678.289261 50.4 
" style="fill:none;stroke:#ffffff;stroke-linecap:round;"/>
     </g>
     <g id="line2d_31"/>
     <g id="text_18">
      <!-- 600 -->
      <g style="fill:#262626;" transform="translate(669.947855 390.717812)scale(0.1 -0.1)">
       <use xlink:href="#ArialMT-36"/>
       <use x="55.615234" xlink:href="#ArialMT-30"/>
       <use x="111.230469" xlink:href="#ArialMT-30"/>
      </g>
     </g>
    </g>
    <g id="xtick_11">
     <g id="line2d_32">
      <path clip-path="url(#p29690da094)" d="M 742.915871 376.56 
L 742.915871 50.4 
" style="fill:none;stroke:#ffffff;stroke-linecap:round;"/>
     </g>
     <g id="line2d_33"/>
     <g id="text_19">
      <!-- 800 -->
      <g style="fill:#262626;" transform="translate(734.574465 390.717812)scale(0.1 -0.1)">
       <use xlink:href="#ArialMT-38"/>
       <use x="55.615234" xlink:href="#ArialMT-30"/>
       <use x="111.230469" xlink:href="#ArialMT-30"/>
      </g>
     </g>
    </g>
    <g id="xtick_12">
     <g id="line2d_34">
      <path clip-path="url(#p29690da094)" d="M 807.542481 376.56 
L 807.542481 50.4 
" style="fill:none;stroke:#ffffff;stroke-linecap:round;"/>
     </g>
     <g id="line2d_35"/>
     <g id="text_20">
      <!-- 1000 -->
      <g style="fill:#262626;" transform="translate(796.420606 390.717812)scale(0.1 -0.1)">
       <use xlink:href="#ArialMT-31"/>
       <use x="55.615234" xlink:href="#ArialMT-30"/>
       <use x="111.230469" xlink:href="#ArialMT-30"/>
       <use x="166.845703" xlink:href="#ArialMT-30"/>
      </g>
     </g>
    </g>
    <g id="text_21">
     <!-- epoch -->
     <g style="fill:#262626;" transform="translate(630.830327 404.578906)scale(0.11 -0.11)">
      <use xlink:href="#ArialMT-65"/>
      <use x="55.615234" xlink:href="#ArialMT-70"/>
      <use x="111.230469" xlink:href="#ArialMT-6f"/>
      <use x="166.845703" xlink:href="#ArialMT-63"/>
      <use x="216.845703" xlink:href="#ArialMT-68"/>
     </g>
    </g>
   </g>
   <g id="matplotlib.axis_4">
    <g id="ytick_6">
     <g id="line2d_36">
      <path clip-path="url(#p29690da094)" d="M 468.268935 373.303191 
L 823.359844 373.303191 
" style="fill:none;stroke:#ffffff;stroke-linecap:round;"/>
     </g>
     <g id="line2d_37"/>
     <g id="text_22">
      <!-- 0.0 -->
      <g style="fill:#262626;" transform="translate(447.368935 376.882097)scale(0.1 -0.1)">
       <use xlink:href="#ArialMT-30"/>
       <use x="55.615234" xlink:href="#ArialMT-2e"/>
       <use x="83.398438" xlink:href="#ArialMT-30"/>
      </g>
     </g>
    </g>
    <g id="ytick_7">
     <g id="line2d_38">
      <path clip-path="url(#p29690da094)" d="M 468.268935 330.736065 
L 823.359844 330.736065 
" style="fill:none;stroke:#ffffff;stroke-linecap:round;"/>
     </g>
     <g id="line2d_39"/>
     <g id="text_23">
      <!-- 0.5 -->
      <defs>
       <path d="M 4.15625 18.75 
L 13.375 19.53125 
Q 14.40625 12.796875 18.140625 9.390625 
Q 21.875 6 27.15625 6 
Q 33.5 6 37.890625 10.78125 
Q 42.28125 15.578125 42.28125 23.484375 
Q 42.28125 31 38.0625 35.34375 
Q 33.84375 39.703125 27 39.703125 
Q 22.75 39.703125 19.328125 37.765625 
Q 15.921875 35.84375 13.96875 32.765625 
L 5.71875 33.84375 
L 12.640625 70.609375 
L 48.25 70.609375 
L 48.25 62.203125 
L 19.671875 62.203125 
L 15.828125 42.96875 
Q 22.265625 47.46875 29.34375 47.46875 
Q 38.71875 47.46875 45.15625 40.96875 
Q 51.609375 34.46875 51.609375 24.265625 
Q 51.609375 14.546875 45.953125 7.46875 
Q 39.0625 -1.21875 27.15625 -1.21875 
Q 17.390625 -1.21875 11.203125 4.25 
Q 5.03125 9.71875 4.15625 18.75 
z
" id="ArialMT-35"/>
      </defs>
      <g style="fill:#262626;" transform="translate(447.368935 334.314971)scale(0.1 -0.1)">
       <use xlink:href="#ArialMT-30"/>
       <use x="55.615234" xlink:href="#ArialMT-2e"/>
       <use x="83.398438" xlink:href="#ArialMT-35"/>
      </g>
     </g>
    </g>
    <g id="ytick_8">
     <g id="line2d_40">
      <path clip-path="url(#p29690da094)" d="M 468.268935 288.168939 
L 823.359844 288.168939 
" style="fill:none;stroke:#ffffff;stroke-linecap:round;"/>
     </g>
     <g id="line2d_41"/>
     <g id="text_24">
      <!-- 1.0 -->
      <g style="fill:#262626;" transform="translate(447.368935 291.747845)scale(0.1 -0.1)">
       <use xlink:href="#ArialMT-31"/>
       <use x="55.615234" xlink:href="#ArialMT-2e"/>
       <use x="83.398438" xlink:href="#ArialMT-30"/>
      </g>
     </g>
    </g>
    <g id="ytick_9">
     <g id="line2d_42">
      <path clip-path="url(#p29690da094)" d="M 468.268935 245.601813 
L 823.359844 245.601813 
" style="fill:none;stroke:#ffffff;stroke-linecap:round;"/>
     </g>
     <g id="line2d_43"/>
     <g id="text_25">
      <!-- 1.5 -->
      <g style="fill:#262626;" transform="translate(447.368935 249.180719)scale(0.1 -0.1)">
       <use xlink:href="#ArialMT-31"/>
       <use x="55.615234" xlink:href="#ArialMT-2e"/>
       <use x="83.398438" xlink:href="#ArialMT-35"/>
      </g>
     </g>
    </g>
    <g id="ytick_10">
     <g id="line2d_44">
      <path clip-path="url(#p29690da094)" d="M 468.268935 203.034686 
L 823.359844 203.034686 
" style="fill:none;stroke:#ffffff;stroke-linecap:round;"/>
     </g>
     <g id="line2d_45"/>
     <g id="text_26">
      <!-- 2.0 -->
      <g style="fill:#262626;" transform="translate(447.368935 206.613593)scale(0.1 -0.1)">
       <use xlink:href="#ArialMT-32"/>
       <use x="55.615234" xlink:href="#ArialMT-2e"/>
       <use x="83.398438" xlink:href="#ArialMT-30"/>
      </g>
     </g>
    </g>
    <g id="ytick_11">
     <g id="line2d_46">
      <path clip-path="url(#p29690da094)" d="M 468.268935 160.46756 
L 823.359844 160.46756 
" style="fill:none;stroke:#ffffff;stroke-linecap:round;"/>
     </g>
     <g id="line2d_47"/>
     <g id="text_27">
      <!-- 2.5 -->
      <g style="fill:#262626;" transform="translate(447.368935 164.046467)scale(0.1 -0.1)">
       <use xlink:href="#ArialMT-32"/>
       <use x="55.615234" xlink:href="#ArialMT-2e"/>
       <use x="83.398438" xlink:href="#ArialMT-35"/>
      </g>
     </g>
    </g>
    <g id="ytick_12">
     <g id="line2d_48">
      <path clip-path="url(#p29690da094)" d="M 468.268935 117.900434 
L 823.359844 117.900434 
" style="fill:none;stroke:#ffffff;stroke-linecap:round;"/>
     </g>
     <g id="line2d_49"/>
     <g id="text_28">
      <!-- 3.0 -->
      <defs>
       <path d="M 4.203125 18.890625 
L 12.984375 20.0625 
Q 14.5 12.59375 18.140625 9.296875 
Q 21.78125 6 27 6 
Q 33.203125 6 37.46875 10.296875 
Q 41.75 14.59375 41.75 20.953125 
Q 41.75 27 37.796875 30.921875 
Q 33.84375 34.859375 27.734375 34.859375 
Q 25.25 34.859375 21.53125 33.890625 
L 22.515625 41.609375 
Q 23.390625 41.5 23.921875 41.5 
Q 29.546875 41.5 34.03125 44.421875 
Q 38.53125 47.359375 38.53125 53.46875 
Q 38.53125 58.296875 35.25 61.46875 
Q 31.984375 64.65625 26.8125 64.65625 
Q 21.6875 64.65625 18.265625 61.421875 
Q 14.84375 58.203125 13.875 51.765625 
L 5.078125 53.328125 
Q 6.6875 62.15625 12.390625 67.015625 
Q 18.109375 71.875 26.609375 71.875 
Q 32.46875 71.875 37.390625 69.359375 
Q 42.328125 66.84375 44.9375 62.5 
Q 47.5625 58.15625 47.5625 53.265625 
Q 47.5625 48.640625 45.0625 44.828125 
Q 42.578125 41.015625 37.703125 38.765625 
Q 44.046875 37.3125 47.5625 32.6875 
Q 51.078125 28.078125 51.078125 21.140625 
Q 51.078125 11.765625 44.234375 5.25 
Q 37.40625 -1.265625 26.953125 -1.265625 
Q 17.53125 -1.265625 11.296875 4.34375 
Q 5.078125 9.96875 4.203125 18.890625 
z
" id="ArialMT-33"/>
      </defs>
      <g style="fill:#262626;" transform="translate(447.368935 121.47934)scale(0.1 -0.1)">
       <use xlink:href="#ArialMT-33"/>
       <use x="55.615234" xlink:href="#ArialMT-2e"/>
       <use x="83.398438" xlink:href="#ArialMT-30"/>
      </g>
     </g>
    </g>
    <g id="ytick_13">
     <g id="line2d_50">
      <path clip-path="url(#p29690da094)" d="M 468.268935 75.333308 
L 823.359844 75.333308 
" style="fill:none;stroke:#ffffff;stroke-linecap:round;"/>
     </g>
     <g id="line2d_51"/>
     <g id="text_29">
      <!-- 3.5 -->
      <g style="fill:#262626;" transform="translate(447.368935 78.912214)scale(0.1 -0.1)">
       <use xlink:href="#ArialMT-33"/>
       <use x="55.615234" xlink:href="#ArialMT-2e"/>
       <use x="83.398438" xlink:href="#ArialMT-35"/>
      </g>
     </g>
    </g>
    <g id="text_30">
     <!-- loss -->
     <g style="fill:#262626;" transform="translate(441.182685 223.260547)rotate(-90)scale(0.11 -0.11)">
      <use xlink:href="#ArialMT-6c"/>
      <use x="22.216797" xlink:href="#ArialMT-6f"/>
      <use x="77.832031" xlink:href="#ArialMT-73"/>
      <use x="127.832031" xlink:href="#ArialMT-73"/>
     </g>
    </g>
   </g>
   <g id="line2d_52">
    <path clip-path="url(#p29690da094)" d="M 484.409431 65.225455 
L 484.732564 78.811543 
L 485.055697 85.143335 
L 485.701963 91.505979 
L 486.348229 94.448764 
L 486.994495 95.950806 
L 487.640761 96.774583 
L 488.287027 97.264344 
L 489.256426 97.707745 
L 490.872092 98.156017 
L 495.719087 99.13771 
L 505.413079 101.161217 
L 512.522006 102.85911 
L 518.661534 104.545961 
L 523.831663 106.182921 
L 528.678658 107.953013 
L 532.879388 109.719187 
L 536.756985 111.583155 
L 540.311448 113.525614 
L 543.865912 115.728389 
L 547.097242 117.988688 
L 550.328573 120.524466 
L 553.559903 123.363489 
L 556.791234 126.529284 
L 560.022564 130.038249 
L 563.253895 133.895623 
L 566.485225 138.09221 
L 570.039689 143.069504 
L 574.240419 149.365348 
L 579.410547 157.566122 
L 586.842608 169.830858 
L 608.169389 205.218747 
L 616.247715 218.113226 
L 623.356642 229.055006 
L 630.142436 239.100079 
L 636.92823 248.744102 
L 643.714024 257.994312 
L 650.499818 266.86658 
L 657.285612 275.378394 
L 664.071407 283.542672 
L 670.857201 291.361912 
L 677.319862 298.477251 
L 683.45939 304.916737 
L 689.275784 310.705167 
L 694.769046 315.869838 
L 699.939175 320.443513 
L 705.109304 324.723828 
L 709.9563 328.461238 
L 714.803295 331.928381 
L 719.650291 335.12659 
L 724.497287 338.061959 
L 729.344283 340.744754 
L 734.514412 343.343343 
L 739.68454 345.689275 
L 745.177802 347.928291 
L 750.671064 349.931044 
L 756.487459 351.821643 
L 762.626987 353.590632 
L 769.412781 355.310014 
L 776.521708 356.882943 
L 784.276901 358.372884 
L 793.001494 359.813333 
L 802.372352 361.131356 
L 807.219348 361.734545 
L 807.219348 361.734545 
" style="fill:none;stroke:#4c72b0;stroke-linecap:round;stroke-width:1.75;"/>
   </g>
   <g id="text_31">
    <!-- evolution du loss en fonction du nombre d'epoch -->
    <g style="fill:#262626;" transform="translate(517.257827 44.4)scale(0.12 -0.12)">
     <use xlink:href="#ArialMT-65"/>
     <use x="55.615234" xlink:href="#ArialMT-76"/>
     <use x="105.615234" xlink:href="#ArialMT-6f"/>
     <use x="161.230469" xlink:href="#ArialMT-6c"/>
     <use x="183.447266" xlink:href="#ArialMT-75"/>
     <use x="239.0625" xlink:href="#ArialMT-74"/>
     <use x="266.845703" xlink:href="#ArialMT-69"/>
     <use x="289.0625" xlink:href="#ArialMT-6f"/>
     <use x="344.677734" xlink:href="#ArialMT-6e"/>
     <use x="400.292969" xlink:href="#ArialMT-20"/>
     <use x="428.076172" xlink:href="#ArialMT-64"/>
     <use x="483.691406" xlink:href="#ArialMT-75"/>
     <use x="539.306641" xlink:href="#ArialMT-20"/>
     <use x="567.089844" xlink:href="#ArialMT-6c"/>
     <use x="589.306641" xlink:href="#ArialMT-6f"/>
     <use x="644.921875" xlink:href="#ArialMT-73"/>
     <use x="694.921875" xlink:href="#ArialMT-73"/>
     <use x="744.921875" xlink:href="#ArialMT-20"/>
     <use x="772.705078" xlink:href="#ArialMT-65"/>
     <use x="828.320312" xlink:href="#ArialMT-6e"/>
     <use x="883.935547" xlink:href="#ArialMT-20"/>
     <use x="911.71875" xlink:href="#ArialMT-66"/>
     <use x="939.501953" xlink:href="#ArialMT-6f"/>
     <use x="995.117188" xlink:href="#ArialMT-6e"/>
     <use x="1050.732422" xlink:href="#ArialMT-63"/>
     <use x="1100.732422" xlink:href="#ArialMT-74"/>
     <use x="1128.515625" xlink:href="#ArialMT-69"/>
     <use x="1150.732422" xlink:href="#ArialMT-6f"/>
     <use x="1206.347656" xlink:href="#ArialMT-6e"/>
     <use x="1261.962891" xlink:href="#ArialMT-20"/>
     <use x="1289.746094" xlink:href="#ArialMT-64"/>
     <use x="1345.361328" xlink:href="#ArialMT-75"/>
     <use x="1400.976562" xlink:href="#ArialMT-20"/>
     <use x="1428.759766" xlink:href="#ArialMT-6e"/>
     <use x="1484.375" xlink:href="#ArialMT-6f"/>
     <use x="1539.990234" xlink:href="#ArialMT-6d"/>
     <use x="1623.291016" xlink:href="#ArialMT-62"/>
     <use x="1678.90625" xlink:href="#ArialMT-72"/>
     <use x="1712.207031" xlink:href="#ArialMT-65"/>
     <use x="1767.822266" xlink:href="#ArialMT-20"/>
     <use x="1795.605469" xlink:href="#ArialMT-64"/>
     <use x="1851.220703" xlink:href="#ArialMT-27"/>
     <use x="1870.3125" xlink:href="#ArialMT-65"/>
     <use x="1925.927734" xlink:href="#ArialMT-70"/>
     <use x="1981.542969" xlink:href="#ArialMT-6f"/>
     <use x="2037.158203" xlink:href="#ArialMT-63"/>
     <use x="2087.158203" xlink:href="#ArialMT-68"/>
    </g>
   </g>
  </g>
  <g id="text_32">
   <!-- Initialisation avec Xavier - Jaffe -->
   <defs>
    <path d="M 9.328125 0 
L 9.328125 71.578125 
L 18.796875 71.578125 
L 18.796875 0 
z
" id="ArialMT-49"/>
    <path d="M 0.4375 0 
L 28.125 37.3125 
L 3.71875 71.578125 
L 14.984375 71.578125 
L 27.984375 53.21875 
Q 32.03125 47.515625 33.734375 44.4375 
Q 36.140625 48.34375 39.40625 52.59375 
L 53.8125 71.578125 
L 64.109375 71.578125 
L 38.96875 37.84375 
L 66.0625 0 
L 54.34375 0 
L 36.328125 25.53125 
Q 34.8125 27.734375 33.203125 30.328125 
Q 30.8125 26.421875 29.78125 24.953125 
L 11.8125 0 
z
" id="ArialMT-58"/>
    <path d="M 3.171875 21.484375 
L 3.171875 30.328125 
L 30.171875 30.328125 
L 30.171875 21.484375 
z
" id="ArialMT-2d"/>
    <path d="M 2.875 20.3125 
L 11.421875 21.484375 
Q 11.765625 13.28125 14.5 10.25 
Q 17.234375 7.234375 22.078125 7.234375 
Q 25.640625 7.234375 28.21875 8.859375 
Q 30.8125 10.5 31.78125 13.296875 
Q 32.765625 16.109375 32.765625 22.265625 
L 32.765625 71.578125 
L 42.234375 71.578125 
L 42.234375 22.796875 
Q 42.234375 13.8125 40.0625 8.875 
Q 37.890625 3.953125 33.171875 1.359375 
Q 28.46875 -1.21875 22.125 -1.21875 
Q 12.703125 -1.21875 7.6875 4.203125 
Q 2.6875 9.625 2.875 20.3125 
z
" id="ArialMT-4a"/>
   </defs>
   <g style="fill:#262626;" transform="translate(309.893594 18.6525)scale(0.16 -0.16)">
    <use xlink:href="#ArialMT-49"/>
    <use x="27.783203" xlink:href="#ArialMT-6e"/>
    <use x="83.398438" xlink:href="#ArialMT-69"/>
    <use x="105.615234" xlink:href="#ArialMT-74"/>
    <use x="133.398438" xlink:href="#ArialMT-69"/>
    <use x="155.615234" xlink:href="#ArialMT-61"/>
    <use x="211.230469" xlink:href="#ArialMT-6c"/>
    <use x="233.447266" xlink:href="#ArialMT-69"/>
    <use x="255.664062" xlink:href="#ArialMT-73"/>
    <use x="305.664062" xlink:href="#ArialMT-61"/>
    <use x="361.279297" xlink:href="#ArialMT-74"/>
    <use x="389.0625" xlink:href="#ArialMT-69"/>
    <use x="411.279297" xlink:href="#ArialMT-6f"/>
    <use x="466.894531" xlink:href="#ArialMT-6e"/>
    <use x="522.509766" xlink:href="#ArialMT-20"/>
    <use x="550.292969" xlink:href="#ArialMT-61"/>
    <use x="605.908203" xlink:href="#ArialMT-76"/>
    <use x="655.908203" xlink:href="#ArialMT-65"/>
    <use x="711.523438" xlink:href="#ArialMT-63"/>
    <use x="761.523438" xlink:href="#ArialMT-20"/>
    <use x="789.306641" xlink:href="#ArialMT-58"/>
    <use x="856.005859" xlink:href="#ArialMT-61"/>
    <use x="911.621094" xlink:href="#ArialMT-76"/>
    <use x="961.621094" xlink:href="#ArialMT-69"/>
    <use x="983.837891" xlink:href="#ArialMT-65"/>
    <use x="1039.453125" xlink:href="#ArialMT-72"/>
    <use x="1072.753906" xlink:href="#ArialMT-20"/>
    <use x="1100.537109" xlink:href="#ArialMT-2d"/>
    <use x="1133.837891" xlink:href="#ArialMT-20"/>
    <use x="1161.621094" xlink:href="#ArialMT-4a"/>
    <use x="1211.621094" xlink:href="#ArialMT-61"/>
    <use x="1267.236328" xlink:href="#ArialMT-66"/>
    <use x="1295.003906" xlink:href="#ArialMT-66"/>
    <use x="1322.787109" xlink:href="#ArialMT-65"/>
   </g>
  </g>
 </g>
 <defs>
  <clipPath id="pb091517e4b">
   <rect height="326.16" width="355.090909" x="42.159844" y="50.4"/>
  </clipPath>
  <clipPath id="p29690da094">
   <rect height="326.16" width="355.090909" x="468.268935" y="50.4"/>
  </clipPath>
 </defs>
</svg>
