<?xml version="1.0" encoding="utf-8" standalone="no"?>
<!DOCTYPE svg PUBLIC "-//W3C//DTD SVG 1.1//EN"
  "http://www.w3.org/Graphics/SVG/1.1/DTD/svg11.dtd">
<!-- Created with matplotlib (http://matplotlib.org/) -->
<svg height="413.965156pt" version="1.1" viewBox="0 0 830.559844 413.965156" width="830.559844pt" xmlns="http://www.w3.org/2000/svg" xmlns:xlink="http://www.w3.org/1999/xlink">
 <defs>
  <style type="text/css">
*{stroke-linecap:butt;stroke-linejoin:round;}
  </style>
 </defs>
 <g id="figure_1">
  <g id="patch_1">
   <path d="M 0 413.965156 
L 830.559844 413.965156 
L 830.559844 0 
L 0 0 
z
" style="fill:#ffffff;"/>
  </g>
  <g id="axes_1">
   <g id="patch_2">
    <path d="M 42.159844 376.56 
L 397.250753 376.56 
L 397.250753 50.4 
L 42.159844 50.4 
z
" style="fill:#eaeaf2;"/>
   </g>
   <g id="matplotlib.axis_1">
    <g id="xtick_1">
     <g id="line2d_1">
      <path clip-path="url(#p1391f2ccbe)" d="M 58.30034 376.56 
L 58.30034 50.4 
" style="fill:none;stroke:#ffffff;stroke-linecap:round;"/>
     </g>
     <g id="line2d_2"/>
     <g id="text_1">
      <!-- 0 -->
      <defs>
       <path d="M 4.15625 35.296875 
Q 4.15625 48 6.765625 55.734375 
Q 9.375 63.484375 14.515625 67.671875 
Q 19.671875 71.875 27.484375 71.875 
Q 33.25 71.875 37.59375 69.546875 
Q 41.9375 67.234375 44.765625 62.859375 
Q 47.609375 58.5 49.21875 52.21875 
Q 50.828125 45.953125 50.828125 35.296875 
Q 50.828125 22.703125 48.234375 14.96875 
Q 45.65625 7.234375 40.5 3 
Q 35.359375 -1.21875 27.484375 -1.21875 
Q 17.140625 -1.21875 11.234375 6.203125 
Q 4.15625 15.140625 4.15625 35.296875 
z
M 13.1875 35.296875 
Q 13.1875 17.671875 17.3125 11.828125 
Q 21.4375 6 27.484375 6 
Q 33.546875 6 37.671875 11.859375 
Q 41.796875 17.71875 41.796875 35.296875 
Q 41.796875 52.984375 37.671875 58.78125 
Q 33.546875 64.59375 27.390625 64.59375 
Q 21.34375 64.59375 17.71875 59.46875 
Q 13.1875 52.9375 13.1875 35.296875 
z
" id="ArialMT-30"/>
      </defs>
      <g style="fill:#262626;" transform="translate(55.519871 390.717812)scale(0.1 -0.1)">
       <use xlink:href="#ArialMT-30"/>
      </g>
     </g>
    </g>
    <g id="xtick_2">
     <g id="line2d_3">
      <path clip-path="url(#p1391f2ccbe)" d="M 122.92695 376.56 
L 122.92695 50.4 
" style="fill:none;stroke:#ffffff;stroke-linecap:round;"/>
     </g>
     <g id="line2d_4"/>
     <g id="text_2">
      <!-- 200 -->
      <defs>
       <path d="M 50.34375 8.453125 
L 50.34375 0 
L 3.03125 0 
Q 2.9375 3.171875 4.046875 6.109375 
Q 5.859375 10.9375 9.828125 15.625 
Q 13.8125 20.3125 21.34375 26.46875 
Q 33.015625 36.03125 37.109375 41.625 
Q 41.21875 47.21875 41.21875 52.203125 
Q 41.21875 57.421875 37.46875 61 
Q 33.734375 64.59375 27.734375 64.59375 
Q 21.390625 64.59375 17.578125 60.78125 
Q 13.765625 56.984375 13.71875 50.25 
L 4.6875 51.171875 
Q 5.609375 61.28125 11.65625 66.578125 
Q 17.71875 71.875 27.9375 71.875 
Q 38.234375 71.875 44.234375 66.15625 
Q 50.25 60.453125 50.25 52 
Q 50.25 47.703125 48.484375 43.546875 
Q 46.734375 39.40625 42.65625 34.8125 
Q 38.578125 30.21875 29.109375 22.21875 
Q 21.1875 15.578125 18.9375 13.203125 
Q 16.703125 10.84375 15.234375 8.453125 
z
" id="ArialMT-32"/>
      </defs>
      <g style="fill:#262626;" transform="translate(114.585543 390.717812)scale(0.1 -0.1)">
       <use xlink:href="#ArialMT-32"/>
       <use x="55.615234" xlink:href="#ArialMT-30"/>
       <use x="111.230469" xlink:href="#ArialMT-30"/>
      </g>
     </g>
    </g>
    <g id="xtick_3">
     <g id="line2d_5">
      <path clip-path="url(#p1391f2ccbe)" d="M 187.55356 376.56 
L 187.55356 50.4 
" style="fill:none;stroke:#ffffff;stroke-linecap:round;"/>
     </g>
     <g id="line2d_6"/>
     <g id="text_3">
      <!-- 400 -->
      <defs>
       <path d="M 32.328125 0 
L 32.328125 17.140625 
L 1.265625 17.140625 
L 1.265625 25.203125 
L 33.9375 71.578125 
L 41.109375 71.578125 
L 41.109375 25.203125 
L 50.78125 25.203125 
L 50.78125 17.140625 
L 41.109375 17.140625 
L 41.109375 0 
z
M 32.328125 25.203125 
L 32.328125 57.46875 
L 9.90625 25.203125 
z
" id="ArialMT-34"/>
      </defs>
      <g style="fill:#262626;" transform="translate(179.212154 390.717812)scale(0.1 -0.1)">
       <use xlink:href="#ArialMT-34"/>
       <use x="55.615234" xlink:href="#ArialMT-30"/>
       <use x="111.230469" xlink:href="#ArialMT-30"/>
      </g>
     </g>
    </g>
    <g id="xtick_4">
     <g id="line2d_7">
      <path clip-path="url(#p1391f2ccbe)" d="M 252.18017 376.56 
L 252.18017 50.4 
" style="fill:none;stroke:#ffffff;stroke-linecap:round;"/>
     </g>
     <g id="line2d_8"/>
     <g id="text_4">
      <!-- 600 -->
      <defs>
       <path d="M 49.75 54.046875 
L 41.015625 53.375 
Q 39.84375 58.546875 37.703125 60.890625 
Q 34.125 64.65625 28.90625 64.65625 
Q 24.703125 64.65625 21.53125 62.3125 
Q 17.390625 59.28125 14.984375 53.46875 
Q 12.59375 47.65625 12.5 36.921875 
Q 15.671875 41.75 20.265625 44.09375 
Q 24.859375 46.4375 29.890625 46.4375 
Q 38.671875 46.4375 44.84375 39.96875 
Q 51.03125 33.5 51.03125 23.25 
Q 51.03125 16.5 48.125 10.71875 
Q 45.21875 4.9375 40.140625 1.859375 
Q 35.0625 -1.21875 28.609375 -1.21875 
Q 17.625 -1.21875 10.6875 6.859375 
Q 3.765625 14.9375 3.765625 33.5 
Q 3.765625 54.25 11.421875 63.671875 
Q 18.109375 71.875 29.4375 71.875 
Q 37.890625 71.875 43.28125 67.140625 
Q 48.6875 62.40625 49.75 54.046875 
z
M 13.875 23.1875 
Q 13.875 18.65625 15.796875 14.5 
Q 17.71875 10.359375 21.1875 8.171875 
Q 24.65625 6 28.46875 6 
Q 34.03125 6 38.03125 10.484375 
Q 42.046875 14.984375 42.046875 22.703125 
Q 42.046875 30.125 38.078125 34.390625 
Q 34.125 38.671875 28.125 38.671875 
Q 22.171875 38.671875 18.015625 34.390625 
Q 13.875 30.125 13.875 23.1875 
z
" id="ArialMT-36"/>
      </defs>
      <g style="fill:#262626;" transform="translate(243.838764 390.717812)scale(0.1 -0.1)">
       <use xlink:href="#ArialMT-36"/>
       <use x="55.615234" xlink:href="#ArialMT-30"/>
       <use x="111.230469" xlink:href="#ArialMT-30"/>
      </g>
     </g>
    </g>
    <g id="xtick_5">
     <g id="line2d_9">
      <path clip-path="url(#p1391f2ccbe)" d="M 316.80678 376.56 
L 316.80678 50.4 
" style="fill:none;stroke:#ffffff;stroke-linecap:round;"/>
     </g>
     <g id="line2d_10"/>
     <g id="text_5">
      <!-- 800 -->
      <defs>
       <path d="M 17.671875 38.8125 
Q 12.203125 40.828125 9.5625 44.53125 
Q 6.9375 48.25 6.9375 53.421875 
Q 6.9375 61.234375 12.546875 66.546875 
Q 18.171875 71.875 27.484375 71.875 
Q 36.859375 71.875 42.578125 66.421875 
Q 48.296875 60.984375 48.296875 53.171875 
Q 48.296875 48.1875 45.671875 44.5 
Q 43.0625 40.828125 37.75 38.8125 
Q 44.34375 36.671875 47.78125 31.875 
Q 51.21875 27.09375 51.21875 20.453125 
Q 51.21875 11.28125 44.71875 5.03125 
Q 38.234375 -1.21875 27.640625 -1.21875 
Q 17.046875 -1.21875 10.546875 5.046875 
Q 4.046875 11.328125 4.046875 20.703125 
Q 4.046875 27.6875 7.59375 32.390625 
Q 11.140625 37.109375 17.671875 38.8125 
z
M 15.921875 53.71875 
Q 15.921875 48.640625 19.1875 45.40625 
Q 22.46875 42.1875 27.6875 42.1875 
Q 32.765625 42.1875 36.015625 45.375 
Q 39.265625 48.578125 39.265625 53.21875 
Q 39.265625 58.0625 35.90625 61.359375 
Q 32.5625 64.65625 27.59375 64.65625 
Q 22.5625 64.65625 19.234375 61.421875 
Q 15.921875 58.203125 15.921875 53.71875 
z
M 13.09375 20.65625 
Q 13.09375 16.890625 14.875 13.375 
Q 16.65625 9.859375 20.171875 7.921875 
Q 23.6875 6 27.734375 6 
Q 34.03125 6 38.125 10.046875 
Q 42.234375 14.109375 42.234375 20.359375 
Q 42.234375 26.703125 38.015625 30.859375 
Q 33.796875 35.015625 27.4375 35.015625 
Q 21.234375 35.015625 17.15625 30.90625 
Q 13.09375 26.8125 13.09375 20.65625 
z
" id="ArialMT-38"/>
      </defs>
      <g style="fill:#262626;" transform="translate(308.465374 390.717812)scale(0.1 -0.1)">
       <use xlink:href="#ArialMT-38"/>
       <use x="55.615234" xlink:href="#ArialMT-30"/>
       <use x="111.230469" xlink:href="#ArialMT-30"/>
      </g>
     </g>
    </g>
    <g id="xtick_6">
     <g id="line2d_11">
      <path clip-path="url(#p1391f2ccbe)" d="M 381.43339 376.56 
L 381.43339 50.4 
" style="fill:none;stroke:#ffffff;stroke-linecap:round;"/>
     </g>
     <g id="line2d_12"/>
     <g id="text_6">
      <!-- 1000 -->
      <defs>
       <path d="M 37.25 0 
L 28.46875 0 
L 28.46875 56 
Q 25.296875 52.984375 20.140625 49.953125 
Q 14.984375 46.921875 10.890625 45.40625 
L 10.890625 53.90625 
Q 18.265625 57.375 23.78125 62.296875 
Q 29.296875 67.234375 31.59375 71.875 
L 37.25 71.875 
z
" id="ArialMT-31"/>
      </defs>
      <g style="fill:#262626;" transform="translate(370.311515 390.717812)scale(0.1 -0.1)">
       <use xlink:href="#ArialMT-31"/>
       <use x="55.615234" xlink:href="#ArialMT-30"/>
       <use x="111.230469" xlink:href="#ArialMT-30"/>
       <use x="166.845703" xlink:href="#ArialMT-30"/>
      </g>
     </g>
    </g>
    <g id="text_7">
     <!-- epoch -->
     <defs>
      <path d="M 42.09375 16.703125 
L 51.171875 15.578125 
Q 49.03125 7.625 43.21875 3.21875 
Q 37.40625 -1.171875 28.375 -1.171875 
Q 17 -1.171875 10.328125 5.828125 
Q 3.65625 12.84375 3.65625 25.484375 
Q 3.65625 38.578125 10.390625 45.796875 
Q 17.140625 53.03125 27.875 53.03125 
Q 38.28125 53.03125 44.875 45.953125 
Q 51.46875 38.875 51.46875 26.03125 
Q 51.46875 25.25 51.421875 23.6875 
L 12.75 23.6875 
Q 13.234375 15.140625 17.578125 10.59375 
Q 21.921875 6.0625 28.421875 6.0625 
Q 33.25 6.0625 36.671875 8.59375 
Q 40.09375 11.140625 42.09375 16.703125 
z
M 13.234375 30.90625 
L 42.1875 30.90625 
Q 41.609375 37.453125 38.875 40.71875 
Q 34.671875 45.796875 27.984375 45.796875 
Q 21.921875 45.796875 17.796875 41.75 
Q 13.671875 37.703125 13.234375 30.90625 
z
" id="ArialMT-65"/>
      <path d="M 6.59375 -19.875 
L 6.59375 51.859375 
L 14.59375 51.859375 
L 14.59375 45.125 
Q 17.4375 49.078125 21 51.046875 
Q 24.5625 53.03125 29.640625 53.03125 
Q 36.28125 53.03125 41.359375 49.609375 
Q 46.4375 46.1875 49.015625 39.953125 
Q 51.609375 33.734375 51.609375 26.3125 
Q 51.609375 18.359375 48.75 11.984375 
Q 45.90625 5.609375 40.453125 2.21875 
Q 35.015625 -1.171875 29 -1.171875 
Q 24.609375 -1.171875 21.109375 0.6875 
Q 17.625 2.546875 15.375 5.375 
L 15.375 -19.875 
z
M 14.546875 25.640625 
Q 14.546875 15.625 18.59375 10.84375 
Q 22.65625 6.0625 28.421875 6.0625 
Q 34.28125 6.0625 38.453125 11.015625 
Q 42.625 15.96875 42.625 26.375 
Q 42.625 36.28125 38.546875 41.203125 
Q 34.46875 46.140625 28.8125 46.140625 
Q 23.1875 46.140625 18.859375 40.890625 
Q 14.546875 35.640625 14.546875 25.640625 
z
" id="ArialMT-70"/>
      <path d="M 3.328125 25.921875 
Q 3.328125 40.328125 11.328125 47.265625 
Q 18.015625 53.03125 27.640625 53.03125 
Q 38.328125 53.03125 45.109375 46.015625 
Q 51.90625 39.015625 51.90625 26.65625 
Q 51.90625 16.65625 48.90625 10.90625 
Q 45.90625 5.171875 40.15625 2 
Q 34.421875 -1.171875 27.640625 -1.171875 
Q 16.75 -1.171875 10.03125 5.8125 
Q 3.328125 12.796875 3.328125 25.921875 
z
M 12.359375 25.921875 
Q 12.359375 15.96875 16.703125 11.015625 
Q 21.046875 6.0625 27.640625 6.0625 
Q 34.1875 6.0625 38.53125 11.03125 
Q 42.875 16.015625 42.875 26.21875 
Q 42.875 35.84375 38.5 40.796875 
Q 34.125 45.75 27.640625 45.75 
Q 21.046875 45.75 16.703125 40.8125 
Q 12.359375 35.890625 12.359375 25.921875 
z
" id="ArialMT-6f"/>
      <path d="M 40.4375 19 
L 49.078125 17.875 
Q 47.65625 8.9375 41.8125 3.875 
Q 35.984375 -1.171875 27.484375 -1.171875 
Q 16.84375 -1.171875 10.375 5.78125 
Q 3.90625 12.75 3.90625 25.734375 
Q 3.90625 34.125 6.6875 40.421875 
Q 9.46875 46.734375 15.15625 49.875 
Q 20.84375 53.03125 27.546875 53.03125 
Q 35.984375 53.03125 41.359375 48.75 
Q 46.734375 44.484375 48.25 36.625 
L 39.703125 35.296875 
Q 38.484375 40.53125 35.375 43.15625 
Q 32.28125 45.796875 27.875 45.796875 
Q 21.234375 45.796875 17.078125 41.03125 
Q 12.9375 36.28125 12.9375 25.984375 
Q 12.9375 15.53125 16.9375 10.796875 
Q 20.953125 6.0625 27.390625 6.0625 
Q 32.5625 6.0625 36.03125 9.234375 
Q 39.5 12.40625 40.4375 19 
z
" id="ArialMT-63"/>
      <path d="M 6.59375 0 
L 6.59375 71.578125 
L 15.375 71.578125 
L 15.375 45.90625 
Q 21.53125 53.03125 30.90625 53.03125 
Q 36.671875 53.03125 40.921875 50.75 
Q 45.171875 48.484375 47 44.484375 
Q 48.828125 40.484375 48.828125 32.859375 
L 48.828125 0 
L 40.046875 0 
L 40.046875 32.859375 
Q 40.046875 39.453125 37.1875 42.453125 
Q 34.328125 45.453125 29.109375 45.453125 
Q 25.203125 45.453125 21.75 43.421875 
Q 18.3125 41.40625 16.84375 37.9375 
Q 15.375 34.46875 15.375 28.375 
L 15.375 0 
z
" id="ArialMT-68"/>
     </defs>
     <g style="fill:#262626;" transform="translate(204.721236 404.578906)scale(0.11 -0.11)">
      <use xlink:href="#ArialMT-65"/>
      <use x="55.615234" xlink:href="#ArialMT-70"/>
      <use x="111.230469" xlink:href="#ArialMT-6f"/>
      <use x="166.845703" xlink:href="#ArialMT-63"/>
      <use x="216.845703" xlink:href="#ArialMT-68"/>
     </g>
    </g>
   </g>
   <g id="matplotlib.axis_2">
    <g id="ytick_1">
     <g id="line2d_13">
      <path clip-path="url(#p1391f2ccbe)" d="M 42.159844 361.456395 
L 397.250753 361.456395 
" style="fill:none;stroke:#ffffff;stroke-linecap:round;"/>
     </g>
     <g id="line2d_14"/>
     <g id="text_8">
      <!-- 0.1 -->
      <defs>
       <path d="M 9.078125 0 
L 9.078125 10.015625 
L 19.09375 10.015625 
L 19.09375 0 
z
" id="ArialMT-2e"/>
      </defs>
      <g style="fill:#262626;" transform="translate(21.259844 365.035301)scale(0.1 -0.1)">
       <use xlink:href="#ArialMT-30"/>
       <use x="55.615234" xlink:href="#ArialMT-2e"/>
       <use x="83.398438" xlink:href="#ArialMT-31"/>
      </g>
     </g>
    </g>
    <g id="ytick_2">
     <g id="line2d_15">
      <path clip-path="url(#p1391f2ccbe)" d="M 42.159844 323.210616 
L 397.250753 323.210616 
" style="fill:none;stroke:#ffffff;stroke-linecap:round;"/>
     </g>
     <g id="line2d_16"/>
     <g id="text_9">
      <!-- 0.2 -->
      <g style="fill:#262626;" transform="translate(21.259844 326.789522)scale(0.1 -0.1)">
       <use xlink:href="#ArialMT-30"/>
       <use x="55.615234" xlink:href="#ArialMT-2e"/>
       <use x="83.398438" xlink:href="#ArialMT-32"/>
      </g>
     </g>
    </g>
    <g id="ytick_3">
     <g id="line2d_17">
      <path clip-path="url(#p1391f2ccbe)" d="M 42.159844 284.964837 
L 397.250753 284.964837 
" style="fill:none;stroke:#ffffff;stroke-linecap:round;"/>
     </g>
     <g id="line2d_18"/>
     <g id="text_10">
      <!-- 0.3 -->
      <defs>
       <path d="M 4.203125 18.890625 
L 12.984375 20.0625 
Q 14.5 12.59375 18.140625 9.296875 
Q 21.78125 6 27 6 
Q 33.203125 6 37.46875 10.296875 
Q 41.75 14.59375 41.75 20.953125 
Q 41.75 27 37.796875 30.921875 
Q 33.84375 34.859375 27.734375 34.859375 
Q 25.25 34.859375 21.53125 33.890625 
L 22.515625 41.609375 
Q 23.390625 41.5 23.921875 41.5 
Q 29.546875 41.5 34.03125 44.421875 
Q 38.53125 47.359375 38.53125 53.46875 
Q 38.53125 58.296875 35.25 61.46875 
Q 31.984375 64.65625 26.8125 64.65625 
Q 21.6875 64.65625 18.265625 61.421875 
Q 14.84375 58.203125 13.875 51.765625 
L 5.078125 53.328125 
Q 6.6875 62.15625 12.390625 67.015625 
Q 18.109375 71.875 26.609375 71.875 
Q 32.46875 71.875 37.390625 69.359375 
Q 42.328125 66.84375 44.9375 62.5 
Q 47.5625 58.15625 47.5625 53.265625 
Q 47.5625 48.640625 45.0625 44.828125 
Q 42.578125 41.015625 37.703125 38.765625 
Q 44.046875 37.3125 47.5625 32.6875 
Q 51.078125 28.078125 51.078125 21.140625 
Q 51.078125 11.765625 44.234375 5.25 
Q 37.40625 -1.265625 26.953125 -1.265625 
Q 17.53125 -1.265625 11.296875 4.34375 
Q 5.078125 9.96875 4.203125 18.890625 
z
" id="ArialMT-33"/>
      </defs>
      <g style="fill:#262626;" transform="translate(21.259844 288.543744)scale(0.1 -0.1)">
       <use xlink:href="#ArialMT-30"/>
       <use x="55.615234" xlink:href="#ArialMT-2e"/>
       <use x="83.398438" xlink:href="#ArialMT-33"/>
      </g>
     </g>
    </g>
    <g id="ytick_4">
     <g id="line2d_19">
      <path clip-path="url(#p1391f2ccbe)" d="M 42.159844 246.719059 
L 397.250753 246.719059 
" style="fill:none;stroke:#ffffff;stroke-linecap:round;"/>
     </g>
     <g id="line2d_20"/>
     <g id="text_11">
      <!-- 0.4 -->
      <g style="fill:#262626;" transform="translate(21.259844 250.297965)scale(0.1 -0.1)">
       <use xlink:href="#ArialMT-30"/>
       <use x="55.615234" xlink:href="#ArialMT-2e"/>
       <use x="83.398438" xlink:href="#ArialMT-34"/>
      </g>
     </g>
    </g>
    <g id="ytick_5">
     <g id="line2d_21">
      <path clip-path="url(#p1391f2ccbe)" d="M 42.159844 208.47328 
L 397.250753 208.47328 
" style="fill:none;stroke:#ffffff;stroke-linecap:round;"/>
     </g>
     <g id="line2d_22"/>
     <g id="text_12">
      <!-- 0.5 -->
      <defs>
       <path d="M 4.15625 18.75 
L 13.375 19.53125 
Q 14.40625 12.796875 18.140625 9.390625 
Q 21.875 6 27.15625 6 
Q 33.5 6 37.890625 10.78125 
Q 42.28125 15.578125 42.28125 23.484375 
Q 42.28125 31 38.0625 35.34375 
Q 33.84375 39.703125 27 39.703125 
Q 22.75 39.703125 19.328125 37.765625 
Q 15.921875 35.84375 13.96875 32.765625 
L 5.71875 33.84375 
L 12.640625 70.609375 
L 48.25 70.609375 
L 48.25 62.203125 
L 19.671875 62.203125 
L 15.828125 42.96875 
Q 22.265625 47.46875 29.34375 47.46875 
Q 38.71875 47.46875 45.15625 40.96875 
Q 51.609375 34.46875 51.609375 24.265625 
Q 51.609375 14.546875 45.953125 7.46875 
Q 39.0625 -1.21875 27.15625 -1.21875 
Q 17.390625 -1.21875 11.203125 4.25 
Q 5.03125 9.71875 4.15625 18.75 
z
" id="ArialMT-35"/>
      </defs>
      <g style="fill:#262626;" transform="translate(21.259844 212.052186)scale(0.1 -0.1)">
       <use xlink:href="#ArialMT-30"/>
       <use x="55.615234" xlink:href="#ArialMT-2e"/>
       <use x="83.398438" xlink:href="#ArialMT-35"/>
      </g>
     </g>
    </g>
    <g id="ytick_6">
     <g id="line2d_23">
      <path clip-path="url(#p1391f2ccbe)" d="M 42.159844 170.227501 
L 397.250753 170.227501 
" style="fill:none;stroke:#ffffff;stroke-linecap:round;"/>
     </g>
     <g id="line2d_24"/>
     <g id="text_13">
      <!-- 0.6 -->
      <g style="fill:#262626;" transform="translate(21.259844 173.806408)scale(0.1 -0.1)">
       <use xlink:href="#ArialMT-30"/>
       <use x="55.615234" xlink:href="#ArialMT-2e"/>
       <use x="83.398438" xlink:href="#ArialMT-36"/>
      </g>
     </g>
    </g>
    <g id="ytick_7">
     <g id="line2d_25">
      <path clip-path="url(#p1391f2ccbe)" d="M 42.159844 131.981723 
L 397.250753 131.981723 
" style="fill:none;stroke:#ffffff;stroke-linecap:round;"/>
     </g>
     <g id="line2d_26"/>
     <g id="text_14">
      <!-- 0.7 -->
      <defs>
       <path d="M 4.734375 62.203125 
L 4.734375 70.65625 
L 51.078125 70.65625 
L 51.078125 63.8125 
Q 44.234375 56.546875 37.515625 44.484375 
Q 30.8125 32.421875 27.15625 19.671875 
Q 24.515625 10.6875 23.78125 0 
L 14.75 0 
Q 14.890625 8.453125 18.0625 20.40625 
Q 21.234375 32.375 27.171875 43.484375 
Q 33.109375 54.59375 39.796875 62.203125 
z
" id="ArialMT-37"/>
      </defs>
      <g style="fill:#262626;" transform="translate(21.259844 135.560629)scale(0.1 -0.1)">
       <use xlink:href="#ArialMT-30"/>
       <use x="55.615234" xlink:href="#ArialMT-2e"/>
       <use x="83.398438" xlink:href="#ArialMT-37"/>
      </g>
     </g>
    </g>
    <g id="ytick_8">
     <g id="line2d_27">
      <path clip-path="url(#p1391f2ccbe)" d="M 42.159844 93.735944 
L 397.250753 93.735944 
" style="fill:none;stroke:#ffffff;stroke-linecap:round;"/>
     </g>
     <g id="line2d_28"/>
     <g id="text_15">
      <!-- 0.8 -->
      <g style="fill:#262626;" transform="translate(21.259844 97.31485)scale(0.1 -0.1)">
       <use xlink:href="#ArialMT-30"/>
       <use x="55.615234" xlink:href="#ArialMT-2e"/>
       <use x="83.398438" xlink:href="#ArialMT-38"/>
      </g>
     </g>
    </g>
    <g id="ytick_9">
     <g id="line2d_29">
      <path clip-path="url(#p1391f2ccbe)" d="M 42.159844 55.490166 
L 397.250753 55.490166 
" style="fill:none;stroke:#ffffff;stroke-linecap:round;"/>
     </g>
     <g id="line2d_30"/>
     <g id="text_16">
      <!-- 0.9 -->
      <defs>
       <path d="M 5.46875 16.546875 
L 13.921875 17.328125 
Q 14.984375 11.375 18.015625 8.6875 
Q 21.046875 6 25.78125 6 
Q 29.828125 6 32.875 7.859375 
Q 35.9375 9.71875 37.890625 12.8125 
Q 39.84375 15.921875 41.15625 21.1875 
Q 42.484375 26.46875 42.484375 31.9375 
Q 42.484375 32.515625 42.4375 33.6875 
Q 39.796875 29.5 35.234375 26.875 
Q 30.671875 24.265625 25.34375 24.265625 
Q 16.453125 24.265625 10.296875 30.703125 
Q 4.15625 37.15625 4.15625 47.703125 
Q 4.15625 58.59375 10.578125 65.234375 
Q 17 71.875 26.65625 71.875 
Q 33.640625 71.875 39.421875 68.109375 
Q 45.21875 64.359375 48.21875 57.390625 
Q 51.21875 50.4375 51.21875 37.25 
Q 51.21875 23.53125 48.234375 15.40625 
Q 45.265625 7.28125 39.375 3.03125 
Q 33.5 -1.21875 25.59375 -1.21875 
Q 17.1875 -1.21875 11.859375 3.4375 
Q 6.546875 8.109375 5.46875 16.546875 
z
M 41.453125 48.140625 
Q 41.453125 55.71875 37.421875 60.15625 
Q 33.40625 64.59375 27.734375 64.59375 
Q 21.875 64.59375 17.53125 59.8125 
Q 13.1875 55.03125 13.1875 47.40625 
Q 13.1875 40.578125 17.3125 36.296875 
Q 21.4375 32.03125 27.484375 32.03125 
Q 33.59375 32.03125 37.515625 36.296875 
Q 41.453125 40.578125 41.453125 48.140625 
z
" id="ArialMT-39"/>
      </defs>
      <g style="fill:#262626;" transform="translate(21.259844 59.069072)scale(0.1 -0.1)">
       <use xlink:href="#ArialMT-30"/>
       <use x="55.615234" xlink:href="#ArialMT-2e"/>
       <use x="83.398438" xlink:href="#ArialMT-39"/>
      </g>
     </g>
    </g>
    <g id="text_17">
     <!-- accuracy -->
     <defs>
      <path d="M 40.4375 6.390625 
Q 35.546875 2.25 31.03125 0.53125 
Q 26.515625 -1.171875 21.34375 -1.171875 
Q 12.796875 -1.171875 8.203125 3 
Q 3.609375 7.171875 3.609375 13.671875 
Q 3.609375 17.484375 5.34375 20.625 
Q 7.078125 23.78125 9.890625 25.6875 
Q 12.703125 27.59375 16.21875 28.5625 
Q 18.796875 29.25 24.03125 29.890625 
Q 34.671875 31.15625 39.703125 32.90625 
Q 39.75 34.71875 39.75 35.203125 
Q 39.75 40.578125 37.25 42.78125 
Q 33.890625 45.75 27.25 45.75 
Q 21.046875 45.75 18.09375 43.578125 
Q 15.140625 41.40625 13.71875 35.890625 
L 5.125 37.0625 
Q 6.296875 42.578125 8.984375 45.96875 
Q 11.671875 49.359375 16.75 51.1875 
Q 21.828125 53.03125 28.515625 53.03125 
Q 35.15625 53.03125 39.296875 51.46875 
Q 43.453125 49.90625 45.40625 47.53125 
Q 47.359375 45.171875 48.140625 41.546875 
Q 48.578125 39.3125 48.578125 33.453125 
L 48.578125 21.734375 
Q 48.578125 9.46875 49.140625 6.21875 
Q 49.703125 2.984375 51.375 0 
L 42.1875 0 
Q 40.828125 2.734375 40.4375 6.390625 
z
M 39.703125 26.03125 
Q 34.90625 24.078125 25.34375 22.703125 
Q 19.921875 21.921875 17.671875 20.9375 
Q 15.4375 19.96875 14.203125 18.09375 
Q 12.984375 16.21875 12.984375 13.921875 
Q 12.984375 10.40625 15.640625 8.0625 
Q 18.3125 5.71875 23.4375 5.71875 
Q 28.515625 5.71875 32.46875 7.9375 
Q 36.421875 10.15625 38.28125 14.015625 
Q 39.703125 17 39.703125 22.796875 
z
" id="ArialMT-61"/>
      <path d="M 40.578125 0 
L 40.578125 7.625 
Q 34.515625 -1.171875 24.125 -1.171875 
Q 19.53125 -1.171875 15.546875 0.578125 
Q 11.578125 2.34375 9.640625 5 
Q 7.71875 7.671875 6.9375 11.53125 
Q 6.390625 14.109375 6.390625 19.734375 
L 6.390625 51.859375 
L 15.1875 51.859375 
L 15.1875 23.09375 
Q 15.1875 16.21875 15.71875 13.8125 
Q 16.546875 10.359375 19.234375 8.375 
Q 21.921875 6.390625 25.875 6.390625 
Q 29.828125 6.390625 33.296875 8.421875 
Q 36.765625 10.453125 38.203125 13.9375 
Q 39.65625 17.4375 39.65625 24.078125 
L 39.65625 51.859375 
L 48.4375 51.859375 
L 48.4375 0 
z
" id="ArialMT-75"/>
      <path d="M 6.5 0 
L 6.5 51.859375 
L 14.40625 51.859375 
L 14.40625 44 
Q 17.4375 49.515625 20 51.265625 
Q 22.5625 53.03125 25.640625 53.03125 
Q 30.078125 53.03125 34.671875 50.203125 
L 31.640625 42.046875 
Q 28.421875 43.953125 25.203125 43.953125 
Q 22.3125 43.953125 20.015625 42.21875 
Q 17.71875 40.484375 16.75 37.40625 
Q 15.28125 32.71875 15.28125 27.15625 
L 15.28125 0 
z
" id="ArialMT-72"/>
      <path d="M 6.203125 -19.96875 
L 5.21875 -11.71875 
Q 8.109375 -12.5 10.25 -12.5 
Q 13.1875 -12.5 14.9375 -11.515625 
Q 16.703125 -10.546875 17.828125 -8.796875 
Q 18.65625 -7.46875 20.515625 -2.25 
Q 20.75 -1.515625 21.296875 -0.09375 
L 1.609375 51.859375 
L 11.078125 51.859375 
L 21.875 21.828125 
Q 23.96875 16.109375 25.640625 9.8125 
Q 27.15625 15.875 29.25 21.625 
L 40.328125 51.859375 
L 49.125 51.859375 
L 29.390625 -0.875 
Q 26.21875 -9.421875 24.46875 -12.640625 
Q 22.125 -17 19.09375 -19.015625 
Q 16.0625 -21.046875 11.859375 -21.046875 
Q 9.328125 -21.046875 6.203125 -19.96875 
z
" id="ArialMT-79"/>
     </defs>
     <g style="fill:#262626;" transform="translate(14.944688 235.486875)rotate(-90)scale(0.11 -0.11)">
      <use xlink:href="#ArialMT-61"/>
      <use x="55.615234" xlink:href="#ArialMT-63"/>
      <use x="105.615234" xlink:href="#ArialMT-63"/>
      <use x="155.615234" xlink:href="#ArialMT-75"/>
      <use x="211.230469" xlink:href="#ArialMT-72"/>
      <use x="244.53125" xlink:href="#ArialMT-61"/>
      <use x="300.146484" xlink:href="#ArialMT-63"/>
      <use x="350.146484" xlink:href="#ArialMT-79"/>
     </g>
    </g>
   </g>
   <g id="line2d_31">
    <path clip-path="url(#p1391f2ccbe)" d="M 58.30034 361.734545 
L 58.946606 361.678917 
L 59.269739 360.844463 
L 59.592872 358.953034 
L 59.916005 360.844463 
L 60.239138 357.367574 
L 60.562271 349.245563 
L 60.885404 347.715729 
L 61.208537 347.43758 
L 61.854803 348.883963 
L 62.501069 349.607157 
L 62.824202 349.607157 
L 63.147335 349.1343 
L 63.470468 348.299849 
L 66.701799 335.477077 
L 68.317464 327.883558 
L 69.286863 322.737758 
L 69.933129 319.121792 
L 70.579396 314.810455 
L 71.225662 311.027598 
L 71.871928 306.716255 
L 72.518194 303.350621 
L 76.39579 284.241644 
L 77.688323 278.984587 
L 79.950254 269.88905 
L 80.59652 267.858542 
L 82.858451 260.960393 
L 83.504718 259.374936 
L 84.474117 256.843765 
L 84.79725 255.898051 
L 85.120383 255.369553 
L 86.089782 252.615868 
L 86.412915 251.976113 
L 87.705447 248.081999 
L 88.02858 247.525702 
L 90.290512 241.573268 
L 90.936778 240.544108 
L 91.906177 238.207639 
L 92.22931 237.595697 
L 92.875576 235.982428 
L 95.137507 231.559828 
L 97.076306 228.806131 
L 97.722572 227.721337 
L 98.691971 226.386217 
L 99.338237 225.718651 
L 101.923301 222.742428 
L 102.569568 222.01924 
L 103.538967 220.934446 
L 104.185233 220.378148 
L 104.831499 219.627137 
L 105.477765 219.098651 
L 107.09343 217.485371 
L 108.062829 216.845629 
L 108.385962 216.400589 
L 109.355362 216.038994 
L 109.678495 215.816469 
L 110.324761 215.065457 
L 110.971027 214.620417 
L 111.29416 214.203189 
L 112.909825 213.313109 
L 113.556091 213.146217 
L 113.879224 212.812434 
L 114.848623 212.200503 
L 115.171756 211.922354 
L 115.49489 211.811097 
L 115.818023 211.477314 
L 117.110555 210.726303 
L 117.756821 210.253451 
L 118.079954 210.170006 
L 119.372486 209.085212 
L 121.957551 208.000417 
L 122.603817 207.193794 
L 123.573216 206.387149 
L 123.896349 206.41496 
L 125.188881 205.580503 
L 126.804546 204.161937 
L 127.127679 203.716886 
L 128.097079 203.132777 
L 128.743345 202.771183 
L 129.066478 202.4374 
L 130.035877 202.047995 
L 130.35901 201.575132 
L 130.682143 201.352617 
L 131.651542 200.323457 
L 132.620941 199.711515 
L 133.59034 198.710166 
L 133.913473 198.487652 
L 134.882873 197.319412 
L 139.083602 192.28488 
L 139.406735 192.062366 
L 140.053001 191.11664 
L 141.9918 188.084806 
L 142.638066 187.222538 
L 143.284332 186.221189 
L 143.607465 185.943029 
L 144.899997 183.968166 
L 145.22313 183.690006 
L 146.515662 181.603875 
L 146.838795 181.214469 
L 149.100727 177.292532 
L 149.42386 176.986584 
L 150.716392 174.622292 
L 152.978323 171.590435 
L 154.593989 168.948007 
L 155.563388 167.390361 
L 156.85592 165.276418 
L 157.502186 164.692287 
L 158.471585 163.301532 
L 159.440984 161.688264 
L 160.08725 160.853807 
L 160.410384 160.43659 
L 161.05665 159.379618 
L 162.349182 157.599435 
L 162.995448 156.153058 
L 163.641714 155.15171 
L 163.964847 154.595413 
L 164.28798 154.345064 
L 165.903645 152.175498 
L 167.842444 149.366178 
L 168.165577 148.726424 
L 168.811843 147.919779 
L 171.073774 144.971379 
L 171.396907 144.721053 
L 172.043173 143.997841 
L 172.366306 143.691893 
L 173.658839 141.995167 
L 174.628238 141.244144 
L 175.274504 140.520956 
L 175.597637 140.242819 
L 176.243903 139.269282 
L 177.536435 138.101042 
L 178.182701 137.266584 
L 178.505834 137.155339 
L 178.828967 136.599042 
L 180.767766 134.957939 
L 181.414032 134.012236 
L 183.675963 131.592322 
L 184.322229 131.258539 
L 184.968495 130.618785 
L 186.584161 128.671733 
L 187.230427 128.004167 
L 188.522959 126.863739 
L 189.492358 125.973659 
L 189.815491 125.472985 
L 190.138624 125.25047 
L 190.461757 124.805419 
L 191.108023 124.276933 
L 192.723689 122.997448 
L 193.369955 122.635853 
L 194.339354 121.940476 
L 194.662487 121.829208 
L 194.98562 121.41199 
L 196.278152 120.438453 
L 197.247551 119.659619 
L 197.570684 119.381482 
L 197.893817 119.298025 
L 199.18635 118.324511 
L 200.478882 117.434431 
L 200.802015 117.350973 
L 201.448281 116.711219 
L 205.325878 113.957522 
L 206.941543 112.566768 
L 207.587809 112.316442 
L 212.111672 108.783911 
L 212.757938 108.116368 
L 214.373603 107.309722 
L 215.019869 106.836859 
L 216.312401 105.974591 
L 217.2818 105.307025 
L 217.604933 104.973242 
L 217.928067 104.861997 
L 219.220599 103.832837 
L 220.189998 103.332162 
L 220.836264 102.859299 
L 221.48253 102.664597 
L 223.744461 100.995682 
L 225.036994 100.495008 
L 225.360127 100.133414 
L 227.622058 98.853928 
L 229.560856 98.13074 
L 229.883989 97.85258 
L 230.207122 97.741311 
L 231.176522 96.990311 
L 231.822788 96.600905 
L 232.469054 96.406202 
L 235.377251 95.015448 
L 235.700384 94.876368 
L 236.023517 94.598208 
L 236.669783 94.570397 
L 239.254848 93.318723 
L 241.193646 92.5677 
L 241.839912 92.233917 
L 242.163045 92.150483 
L 242.486178 91.872323 
L 244.101844 91.20478 
L 244.74811 90.870997 
L 248.302573 89.14646 
L 249.271972 88.923923 
L 249.595105 88.701408 
L 249.918239 88.673597 
L 251.210771 87.97822 
L 251.533904 87.97822 
L 252.18017 87.727871 
L 254.765234 87.227197 
L 255.088367 87.060328 
L 255.734633 86.976871 
L 256.3809 86.782168 
L 257.027166 86.643088 
L 257.673432 86.364928 
L 258.319698 86.19806 
L 258.965964 85.836443 
L 260.581629 85.307957 
L 262.197294 84.779471 
L 262.520427 84.501334 
L 264.136093 84.111906 
L 264.782359 83.833768 
L 268.013689 82.943688 
L 268.983088 82.55426 
L 270.275621 82.164854 
L 272.214419 81.886717 
L 273.183818 81.5251 
L 274.153217 81.107883 
L 274.47635 81.107883 
L 274.799483 80.885368 
L 276.092016 80.468129 
L 277.061415 80.078723 
L 278.030814 79.74494 
L 278.353947 79.466803 
L 290.633003 77.408483 
L 291.279269 77.436294 
L 291.602402 77.325026 
L 292.248668 77.269403 
L 299.034462 76.017729 
L 299.680728 75.850837 
L 300.97326 75.656111 
L 301.619527 75.48922 
L 302.912059 75.461409 
L 304.527724 75.099814 
L 305.17399 75.072003 
L 305.820256 74.905111 
L 306.789655 74.59914 
L 307.435921 74.59914 
L 308.405321 74.515706 
L 309.697853 74.432249 
L 310.990385 74.042843 
L 311.959784 73.84814 
L 318.099312 72.707712 
L 318.745578 72.513009 
L 328.43957 70.955363 
L 329.085836 70.927552 
L 329.732102 70.816283 
L 331.994033 70.732849 
L 334.579098 70.399066 
L 335.548497 70.204363 
L 336.517896 70.037472 
L 339.749227 69.703689 
L 340.07236 69.536797 
L 348.796952 68.674529 
L 349.766351 68.618906 
L 351.382016 68.535449 
L 352.997682 68.173854 
L 353.967081 68.09042 
L 354.613347 68.09042 
L 355.259613 68.09042 
L 359.460343 67.478477 
L 360.106609 67.395043 
L 372.385665 66.254615 
L 373.355064 66.115535 
L 375.293862 66.0321 
L 375.940128 65.920832 
L 376.586394 65.781752 
L 377.555793 65.698317 
L 380.140858 65.364535 
L 381.110257 65.253266 
L 381.110257 65.253266 
" style="fill:none;stroke:#4c72b0;stroke-linecap:round;stroke-width:1.75;"/>
   </g>
   <g id="text_18">
    <!-- evolution de la précision en fonction du nombre d'epoch -->
    <defs>
     <path d="M 21 0 
L 1.265625 51.859375 
L 10.546875 51.859375 
L 21.6875 20.796875 
Q 23.484375 15.765625 25 10.359375 
Q 26.171875 14.453125 28.265625 20.21875 
L 39.796875 51.859375 
L 48.828125 51.859375 
L 29.203125 0 
z
" id="ArialMT-76"/>
     <path d="M 6.390625 0 
L 6.390625 71.578125 
L 15.1875 71.578125 
L 15.1875 0 
z
" id="ArialMT-6c"/>
     <path d="M 25.78125 7.859375 
L 27.046875 0.09375 
Q 23.34375 -0.6875 20.40625 -0.6875 
Q 15.625 -0.6875 12.984375 0.828125 
Q 10.359375 2.34375 9.28125 4.8125 
Q 8.203125 7.28125 8.203125 15.1875 
L 8.203125 45.015625 
L 1.765625 45.015625 
L 1.765625 51.859375 
L 8.203125 51.859375 
L 8.203125 64.703125 
L 16.9375 69.96875 
L 16.9375 51.859375 
L 25.78125 51.859375 
L 25.78125 45.015625 
L 16.9375 45.015625 
L 16.9375 14.703125 
Q 16.9375 10.9375 17.40625 9.859375 
Q 17.875 8.796875 18.921875 8.15625 
Q 19.96875 7.515625 21.921875 7.515625 
Q 23.390625 7.515625 25.78125 7.859375 
z
" id="ArialMT-74"/>
     <path d="M 6.640625 61.46875 
L 6.640625 71.578125 
L 15.4375 71.578125 
L 15.4375 61.46875 
z
M 6.640625 0 
L 6.640625 51.859375 
L 15.4375 51.859375 
L 15.4375 0 
z
" id="ArialMT-69"/>
     <path d="M 6.59375 0 
L 6.59375 51.859375 
L 14.5 51.859375 
L 14.5 44.484375 
Q 20.21875 53.03125 31 53.03125 
Q 35.6875 53.03125 39.625 51.34375 
Q 43.5625 49.65625 45.515625 46.921875 
Q 47.46875 44.1875 48.25 40.4375 
Q 48.734375 37.984375 48.734375 31.890625 
L 48.734375 0 
L 39.9375 0 
L 39.9375 31.546875 
Q 39.9375 36.921875 38.90625 39.578125 
Q 37.890625 42.234375 35.28125 43.8125 
Q 32.671875 45.40625 29.15625 45.40625 
Q 23.53125 45.40625 19.453125 41.84375 
Q 15.375 38.28125 15.375 28.328125 
L 15.375 0 
z
" id="ArialMT-6e"/>
     <path id="ArialMT-20"/>
     <path d="M 40.234375 0 
L 40.234375 6.546875 
Q 35.296875 -1.171875 25.734375 -1.171875 
Q 19.53125 -1.171875 14.328125 2.25 
Q 9.125 5.671875 6.265625 11.796875 
Q 3.421875 17.921875 3.421875 25.875 
Q 3.421875 33.640625 6 39.96875 
Q 8.59375 46.296875 13.765625 49.65625 
Q 18.953125 53.03125 25.34375 53.03125 
Q 30.03125 53.03125 33.6875 51.046875 
Q 37.359375 49.078125 39.65625 45.90625 
L 39.65625 71.578125 
L 48.390625 71.578125 
L 48.390625 0 
z
M 12.453125 25.875 
Q 12.453125 15.921875 16.640625 10.984375 
Q 20.84375 6.0625 26.5625 6.0625 
Q 32.328125 6.0625 36.34375 10.765625 
Q 40.375 15.484375 40.375 25.140625 
Q 40.375 35.796875 36.265625 40.765625 
Q 32.171875 45.75 26.171875 45.75 
Q 20.3125 45.75 16.375 40.96875 
Q 12.453125 36.1875 12.453125 25.875 
z
" id="ArialMT-64"/>
     <path d="M 42.09375 16.703125 
L 51.171875 15.578125 
Q 49.03125 7.625 43.21875 3.21875 
Q 37.40625 -1.171875 28.375 -1.171875 
Q 17 -1.171875 10.328125 5.828125 
Q 3.65625 12.84375 3.65625 25.484375 
Q 3.65625 38.578125 10.390625 45.796875 
Q 17.140625 53.03125 27.875 53.03125 
Q 38.28125 53.03125 44.875 45.953125 
Q 51.46875 38.875 51.46875 26.03125 
Q 51.46875 25.25 51.421875 23.6875 
L 12.75 23.6875 
Q 13.234375 15.140625 17.578125 10.59375 
Q 21.921875 6.0625 28.421875 6.0625 
Q 33.25 6.0625 36.671875 8.59375 
Q 40.09375 11.140625 42.09375 16.703125 
z
M 13.234375 30.90625 
L 42.1875 30.90625 
Q 41.609375 37.453125 38.875 40.71875 
Q 34.671875 45.796875 27.984375 45.796875 
Q 21.921875 45.796875 17.796875 41.75 
Q 13.671875 37.703125 13.234375 30.90625 
z
M 22.71875 58.296875 
L 29.203125 71.96875 
L 40.734375 71.96875 
L 29.984375 58.296875 
z
" id="ArialMT-e9"/>
     <path d="M 3.078125 15.484375 
L 11.765625 16.84375 
Q 12.5 11.625 15.84375 8.84375 
Q 19.1875 6.0625 25.203125 6.0625 
Q 31.25 6.0625 34.171875 8.515625 
Q 37.109375 10.984375 37.109375 14.3125 
Q 37.109375 17.28125 34.515625 19 
Q 32.71875 20.171875 25.53125 21.96875 
Q 15.875 24.421875 12.140625 26.203125 
Q 8.40625 27.984375 6.46875 31.125 
Q 4.546875 34.28125 4.546875 38.09375 
Q 4.546875 41.546875 6.125 44.5 
Q 7.71875 47.46875 10.453125 49.421875 
Q 12.5 50.921875 16.03125 51.96875 
Q 19.578125 53.03125 23.640625 53.03125 
Q 29.734375 53.03125 34.34375 51.265625 
Q 38.96875 49.515625 41.15625 46.5 
Q 43.359375 43.5 44.1875 38.484375 
L 35.59375 37.3125 
Q 35.015625 41.3125 32.203125 43.546875 
Q 29.390625 45.796875 24.265625 45.796875 
Q 18.21875 45.796875 15.625 43.796875 
Q 13.03125 41.796875 13.03125 39.109375 
Q 13.03125 37.40625 14.109375 36.03125 
Q 15.1875 34.625 17.484375 33.6875 
Q 18.796875 33.203125 25.25 31.453125 
Q 34.578125 28.953125 38.25 27.359375 
Q 41.9375 25.78125 44.03125 22.75 
Q 46.140625 19.734375 46.140625 15.234375 
Q 46.140625 10.84375 43.578125 6.953125 
Q 41.015625 3.078125 36.171875 0.953125 
Q 31.34375 -1.171875 25.25 -1.171875 
Q 15.140625 -1.171875 9.84375 3.03125 
Q 4.546875 7.234375 3.078125 15.484375 
z
" id="ArialMT-73"/>
     <path d="M 8.6875 0 
L 8.6875 45.015625 
L 0.921875 45.015625 
L 0.921875 51.859375 
L 8.6875 51.859375 
L 8.6875 57.375 
Q 8.6875 62.59375 9.625 65.140625 
Q 10.890625 68.5625 14.078125 70.671875 
Q 17.28125 72.796875 23.046875 72.796875 
Q 26.765625 72.796875 31.25 71.921875 
L 29.9375 64.265625 
Q 27.203125 64.75 24.75 64.75 
Q 20.75 64.75 19.09375 63.03125 
Q 17.4375 61.328125 17.4375 56.640625 
L 17.4375 51.859375 
L 27.546875 51.859375 
L 27.546875 45.015625 
L 17.4375 45.015625 
L 17.4375 0 
z
" id="ArialMT-66"/>
     <path d="M 6.59375 0 
L 6.59375 51.859375 
L 14.453125 51.859375 
L 14.453125 44.578125 
Q 16.890625 48.390625 20.9375 50.703125 
Q 25 53.03125 30.171875 53.03125 
Q 35.9375 53.03125 39.625 50.640625 
Q 43.3125 48.25 44.828125 43.953125 
Q 50.984375 53.03125 60.84375 53.03125 
Q 68.5625 53.03125 72.703125 48.75 
Q 76.859375 44.484375 76.859375 35.59375 
L 76.859375 0 
L 68.109375 0 
L 68.109375 32.671875 
Q 68.109375 37.9375 67.25 40.25 
Q 66.40625 42.578125 64.15625 43.984375 
Q 61.921875 45.40625 58.890625 45.40625 
Q 53.421875 45.40625 49.796875 41.765625 
Q 46.1875 38.140625 46.1875 30.125 
L 46.1875 0 
L 37.40625 0 
L 37.40625 33.6875 
Q 37.40625 39.546875 35.25 42.46875 
Q 33.109375 45.40625 28.21875 45.40625 
Q 24.515625 45.40625 21.359375 43.453125 
Q 18.21875 41.5 16.796875 37.734375 
Q 15.375 33.984375 15.375 26.90625 
L 15.375 0 
z
" id="ArialMT-6d"/>
     <path d="M 14.703125 0 
L 6.546875 0 
L 6.546875 71.578125 
L 15.328125 71.578125 
L 15.328125 46.046875 
Q 20.90625 53.03125 29.546875 53.03125 
Q 34.328125 53.03125 38.59375 51.09375 
Q 42.875 49.171875 45.625 45.671875 
Q 48.390625 42.1875 49.953125 37.25 
Q 51.515625 32.328125 51.515625 26.703125 
Q 51.515625 13.375 44.921875 6.09375 
Q 38.328125 -1.171875 29.109375 -1.171875 
Q 19.921875 -1.171875 14.703125 6.5 
z
M 14.59375 26.3125 
Q 14.59375 17 17.140625 12.84375 
Q 21.296875 6.0625 28.375 6.0625 
Q 34.125 6.0625 38.328125 11.0625 
Q 42.53125 16.0625 42.53125 25.984375 
Q 42.53125 36.140625 38.5 40.96875 
Q 34.46875 45.796875 28.765625 45.796875 
Q 23 45.796875 18.796875 40.796875 
Q 14.59375 35.796875 14.59375 26.3125 
z
" id="ArialMT-62"/>
     <path d="M 6.640625 46.234375 
L 4.390625 59.625 
L 4.390625 71.578125 
L 14.40625 71.578125 
L 14.40625 59.625 
L 12.0625 46.234375 
z
" id="ArialMT-27"/>
    </defs>
    <g style="fill:#262626;" transform="translate(71.471548 44.4)scale(0.12 -0.12)">
     <use xlink:href="#ArialMT-65"/>
     <use x="55.615234" xlink:href="#ArialMT-76"/>
     <use x="105.615234" xlink:href="#ArialMT-6f"/>
     <use x="161.230469" xlink:href="#ArialMT-6c"/>
     <use x="183.447266" xlink:href="#ArialMT-75"/>
     <use x="239.0625" xlink:href="#ArialMT-74"/>
     <use x="266.845703" xlink:href="#ArialMT-69"/>
     <use x="289.0625" xlink:href="#ArialMT-6f"/>
     <use x="344.677734" xlink:href="#ArialMT-6e"/>
     <use x="400.292969" xlink:href="#ArialMT-20"/>
     <use x="428.076172" xlink:href="#ArialMT-64"/>
     <use x="483.691406" xlink:href="#ArialMT-65"/>
     <use x="539.306641" xlink:href="#ArialMT-20"/>
     <use x="567.089844" xlink:href="#ArialMT-6c"/>
     <use x="589.306641" xlink:href="#ArialMT-61"/>
     <use x="644.921875" xlink:href="#ArialMT-20"/>
     <use x="672.705078" xlink:href="#ArialMT-70"/>
     <use x="728.320312" xlink:href="#ArialMT-72"/>
     <use x="761.621094" xlink:href="#ArialMT-e9"/>
     <use x="817.236328" xlink:href="#ArialMT-63"/>
     <use x="867.236328" xlink:href="#ArialMT-69"/>
     <use x="889.453125" xlink:href="#ArialMT-73"/>
     <use x="939.453125" xlink:href="#ArialMT-69"/>
     <use x="961.669922" xlink:href="#ArialMT-6f"/>
     <use x="1017.285156" xlink:href="#ArialMT-6e"/>
     <use x="1072.900391" xlink:href="#ArialMT-20"/>
     <use x="1100.683594" xlink:href="#ArialMT-65"/>
     <use x="1156.298828" xlink:href="#ArialMT-6e"/>
     <use x="1211.914062" xlink:href="#ArialMT-20"/>
     <use x="1239.697266" xlink:href="#ArialMT-66"/>
     <use x="1267.480469" xlink:href="#ArialMT-6f"/>
     <use x="1323.095703" xlink:href="#ArialMT-6e"/>
     <use x="1378.710938" xlink:href="#ArialMT-63"/>
     <use x="1428.710938" xlink:href="#ArialMT-74"/>
     <use x="1456.494141" xlink:href="#ArialMT-69"/>
     <use x="1478.710938" xlink:href="#ArialMT-6f"/>
     <use x="1534.326172" xlink:href="#ArialMT-6e"/>
     <use x="1589.941406" xlink:href="#ArialMT-20"/>
     <use x="1617.724609" xlink:href="#ArialMT-64"/>
     <use x="1673.339844" xlink:href="#ArialMT-75"/>
     <use x="1728.955078" xlink:href="#ArialMT-20"/>
     <use x="1756.738281" xlink:href="#ArialMT-6e"/>
     <use x="1812.353516" xlink:href="#ArialMT-6f"/>
     <use x="1867.96875" xlink:href="#ArialMT-6d"/>
     <use x="1951.269531" xlink:href="#ArialMT-62"/>
     <use x="2006.884766" xlink:href="#ArialMT-72"/>
     <use x="2040.185547" xlink:href="#ArialMT-65"/>
     <use x="2095.800781" xlink:href="#ArialMT-20"/>
     <use x="2123.583984" xlink:href="#ArialMT-64"/>
     <use x="2179.199219" xlink:href="#ArialMT-27"/>
     <use x="2198.291016" xlink:href="#ArialMT-65"/>
     <use x="2253.90625" xlink:href="#ArialMT-70"/>
     <use x="2309.521484" xlink:href="#ArialMT-6f"/>
     <use x="2365.136719" xlink:href="#ArialMT-63"/>
     <use x="2415.136719" xlink:href="#ArialMT-68"/>
    </g>
   </g>
  </g>
  <g id="axes_2">
   <g id="patch_3">
    <path d="M 468.268935 376.56 
L 823.359844 376.56 
L 823.359844 50.4 
L 468.268935 50.4 
z
" style="fill:#eaeaf2;"/>
   </g>
   <g id="matplotlib.axis_3">
    <g id="xtick_7">
     <g id="line2d_32">
      <path clip-path="url(#p8fd8f49b80)" d="M 484.409431 376.56 
L 484.409431 50.4 
" style="fill:none;stroke:#ffffff;stroke-linecap:round;"/>
     </g>
     <g id="line2d_33"/>
     <g id="text_19">
      <!-- 0 -->
      <g style="fill:#262626;" transform="translate(481.628962 390.717812)scale(0.1 -0.1)">
       <use xlink:href="#ArialMT-30"/>
      </g>
     </g>
    </g>
    <g id="xtick_8">
     <g id="line2d_34">
      <path clip-path="url(#p8fd8f49b80)" d="M 549.036041 376.56 
L 549.036041 50.4 
" style="fill:none;stroke:#ffffff;stroke-linecap:round;"/>
     </g>
     <g id="line2d_35"/>
     <g id="text_20">
      <!-- 200 -->
      <g style="fill:#262626;" transform="translate(540.694634 390.717812)scale(0.1 -0.1)">
       <use xlink:href="#ArialMT-32"/>
       <use x="55.615234" xlink:href="#ArialMT-30"/>
       <use x="111.230469" xlink:href="#ArialMT-30"/>
      </g>
     </g>
    </g>
    <g id="xtick_9">
     <g id="line2d_36">
      <path clip-path="url(#p8fd8f49b80)" d="M 613.662651 376.56 
L 613.662651 50.4 
" style="fill:none;stroke:#ffffff;stroke-linecap:round;"/>
     </g>
     <g id="line2d_37"/>
     <g id="text_21">
      <!-- 400 -->
      <g style="fill:#262626;" transform="translate(605.321244 390.717812)scale(0.1 -0.1)">
       <use xlink:href="#ArialMT-34"/>
       <use x="55.615234" xlink:href="#ArialMT-30"/>
       <use x="111.230469" xlink:href="#ArialMT-30"/>
      </g>
     </g>
    </g>
    <g id="xtick_10">
     <g id="line2d_38">
      <path clip-path="url(#p8fd8f49b80)" d="M 678.289261 376.56 
L 678.289261 50.4 
" style="fill:none;stroke:#ffffff;stroke-linecap:round;"/>
     </g>
     <g id="line2d_39"/>
     <g id="text_22">
      <!-- 600 -->
      <g style="fill:#262626;" transform="translate(669.947855 390.717812)scale(0.1 -0.1)">
       <use xlink:href="#ArialMT-36"/>
       <use x="55.615234" xlink:href="#ArialMT-30"/>
       <use x="111.230469" xlink:href="#ArialMT-30"/>
      </g>
     </g>
    </g>
    <g id="xtick_11">
     <g id="line2d_40">
      <path clip-path="url(#p8fd8f49b80)" d="M 742.915871 376.56 
L 742.915871 50.4 
" style="fill:none;stroke:#ffffff;stroke-linecap:round;"/>
     </g>
     <g id="line2d_41"/>
     <g id="text_23">
      <!-- 800 -->
      <g style="fill:#262626;" transform="translate(734.574465 390.717812)scale(0.1 -0.1)">
       <use xlink:href="#ArialMT-38"/>
       <use x="55.615234" xlink:href="#ArialMT-30"/>
       <use x="111.230469" xlink:href="#ArialMT-30"/>
      </g>
     </g>
    </g>
    <g id="xtick_12">
     <g id="line2d_42">
      <path clip-path="url(#p8fd8f49b80)" d="M 807.542481 376.56 
L 807.542481 50.4 
" style="fill:none;stroke:#ffffff;stroke-linecap:round;"/>
     </g>
     <g id="line2d_43"/>
     <g id="text_24">
      <!-- 1000 -->
      <g style="fill:#262626;" transform="translate(796.420606 390.717812)scale(0.1 -0.1)">
       <use xlink:href="#ArialMT-31"/>
       <use x="55.615234" xlink:href="#ArialMT-30"/>
       <use x="111.230469" xlink:href="#ArialMT-30"/>
       <use x="166.845703" xlink:href="#ArialMT-30"/>
      </g>
     </g>
    </g>
    <g id="text_25">
     <!-- epoch -->
     <g style="fill:#262626;" transform="translate(630.830327 404.578906)scale(0.11 -0.11)">
      <use xlink:href="#ArialMT-65"/>
      <use x="55.615234" xlink:href="#ArialMT-70"/>
      <use x="111.230469" xlink:href="#ArialMT-6f"/>
      <use x="166.845703" xlink:href="#ArialMT-63"/>
      <use x="216.845703" xlink:href="#ArialMT-68"/>
     </g>
    </g>
   </g>
   <g id="matplotlib.axis_4">
    <g id="ytick_10">
     <g id="line2d_44">
      <path clip-path="url(#p8fd8f49b80)" d="M 468.268935 336.187661 
L 823.359844 336.187661 
" style="fill:none;stroke:#ffffff;stroke-linecap:round;"/>
     </g>
     <g id="line2d_45"/>
     <g id="text_26">
      <!-- 1.0 -->
      <g style="fill:#262626;" transform="translate(447.368935 339.766568)scale(0.1 -0.1)">
       <use xlink:href="#ArialMT-31"/>
       <use x="55.615234" xlink:href="#ArialMT-2e"/>
       <use x="83.398438" xlink:href="#ArialMT-30"/>
      </g>
     </g>
    </g>
    <g id="ytick_11">
     <g id="line2d_46">
      <path clip-path="url(#p8fd8f49b80)" d="M 468.268935 283.414874 
L 823.359844 283.414874 
" style="fill:none;stroke:#ffffff;stroke-linecap:round;"/>
     </g>
     <g id="line2d_47"/>
     <g id="text_27">
      <!-- 1.5 -->
      <g style="fill:#262626;" transform="translate(447.368935 286.99378)scale(0.1 -0.1)">
       <use xlink:href="#ArialMT-31"/>
       <use x="55.615234" xlink:href="#ArialMT-2e"/>
       <use x="83.398438" xlink:href="#ArialMT-35"/>
      </g>
     </g>
    </g>
    <g id="ytick_12">
     <g id="line2d_48">
      <path clip-path="url(#p8fd8f49b80)" d="M 468.268935 230.642086 
L 823.359844 230.642086 
" style="fill:none;stroke:#ffffff;stroke-linecap:round;"/>
     </g>
     <g id="line2d_49"/>
     <g id="text_28">
      <!-- 2.0 -->
      <g style="fill:#262626;" transform="translate(447.368935 234.220992)scale(0.1 -0.1)">
       <use xlink:href="#ArialMT-32"/>
       <use x="55.615234" xlink:href="#ArialMT-2e"/>
       <use x="83.398438" xlink:href="#ArialMT-30"/>
      </g>
     </g>
    </g>
    <g id="ytick_13">
     <g id="line2d_50">
      <path clip-path="url(#p8fd8f49b80)" d="M 468.268935 177.869298 
L 823.359844 177.869298 
" style="fill:none;stroke:#ffffff;stroke-linecap:round;"/>
     </g>
     <g id="line2d_51"/>
     <g id="text_29">
      <!-- 2.5 -->
      <g style="fill:#262626;" transform="translate(447.368935 181.448205)scale(0.1 -0.1)">
       <use xlink:href="#ArialMT-32"/>
       <use x="55.615234" xlink:href="#ArialMT-2e"/>
       <use x="83.398438" xlink:href="#ArialMT-35"/>
      </g>
     </g>
    </g>
    <g id="ytick_14">
     <g id="line2d_52">
      <path clip-path="url(#p8fd8f49b80)" d="M 468.268935 125.096511 
L 823.359844 125.096511 
" style="fill:none;stroke:#ffffff;stroke-linecap:round;"/>
     </g>
     <g id="line2d_53"/>
     <g id="text_30">
      <!-- 3.0 -->
      <g style="fill:#262626;" transform="translate(447.368935 128.675417)scale(0.1 -0.1)">
       <use xlink:href="#ArialMT-33"/>
       <use x="55.615234" xlink:href="#ArialMT-2e"/>
       <use x="83.398438" xlink:href="#ArialMT-30"/>
      </g>
     </g>
    </g>
    <g id="ytick_15">
     <g id="line2d_54">
      <path clip-path="url(#p8fd8f49b80)" d="M 468.268935 72.323723 
L 823.359844 72.323723 
" style="fill:none;stroke:#ffffff;stroke-linecap:round;"/>
     </g>
     <g id="line2d_55"/>
     <g id="text_31">
      <!-- 3.5 -->
      <g style="fill:#262626;" transform="translate(447.368935 75.902629)scale(0.1 -0.1)">
       <use xlink:href="#ArialMT-33"/>
       <use x="55.615234" xlink:href="#ArialMT-2e"/>
       <use x="83.398438" xlink:href="#ArialMT-35"/>
      </g>
     </g>
    </g>
    <g id="text_32">
     <!-- loss -->
     <g style="fill:#262626;" transform="translate(441.182685 223.260547)rotate(-90)scale(0.11 -0.11)">
      <use xlink:href="#ArialMT-6c"/>
      <use x="22.216797" xlink:href="#ArialMT-6f"/>
      <use x="77.832031" xlink:href="#ArialMT-73"/>
      <use x="127.832031" xlink:href="#ArialMT-73"/>
     </g>
    </g>
   </g>
   <g id="line2d_56">
    <path clip-path="url(#p8fd8f49b80)" d="M 484.409431 65.225455 
L 484.732564 79.411548 
L 485.055697 85.837862 
L 485.701963 92.590704 
L 486.348229 95.97753 
L 486.994495 97.851042 
L 487.640761 98.954158 
L 488.287027 99.647276 
L 489.256426 100.309064 
L 490.872092 101.042042 
L 505.089946 106.785202 
L 509.936942 109.080615 
L 514.460804 111.46785 
L 518.661534 113.945601 
L 522.53913 116.499095 
L 526.093594 119.100905 
L 529.648058 121.987193 
L 532.879388 124.886894 
L 536.110719 128.075277 
L 539.342049 131.57509 
L 542.57338 135.404904 
L 545.80471 139.57652 
L 549.036041 144.092306 
L 552.590504 149.445549 
L 556.468101 155.708926 
L 560.991963 163.482421 
L 566.808358 173.976776 
L 582.318745 202.224955 
L 588.458273 212.80512 
L 594.274668 222.385115 
L 600.091063 231.540706 
L 605.907457 240.287835 
L 611.723852 248.633471 
L 617.217114 256.142933 
L 622.710376 263.281652 
L 627.880505 269.654014 
L 633.050634 275.686234 
L 638.220763 281.378664 
L 643.390891 286.736663 
L 648.56102 291.77045 
L 653.731149 296.494317 
L 658.901278 300.925601 
L 664.39454 305.334628 
L 669.887801 309.458559 
L 675.704196 313.539887 
L 681.520591 317.352891 
L 687.660119 321.112057 
L 694.12278 324.800034 
L 700.585441 328.235842 
L 707.371235 331.59505 
L 714.480162 334.864134 
L 721.912223 338.031398 
L 729.667416 341.087066 
L 737.745742 344.023443 
L 746.147201 346.834982 
L 754.871794 349.518229 
L 763.919519 352.071629 
L 773.613511 354.575242 
L 783.953768 357.009792 
L 794.940292 359.360282 
L 806.573082 361.615677 
L 807.219348 361.734545 
L 807.219348 361.734545 
" style="fill:none;stroke:#4c72b0;stroke-linecap:round;stroke-width:1.75;"/>
   </g>
   <g id="text_33">
    <!-- evolution du loss en fonction du nombre d'epoch -->
    <g style="fill:#262626;" transform="translate(517.257827 44.4)scale(0.12 -0.12)">
     <use xlink:href="#ArialMT-65"/>
     <use x="55.615234" xlink:href="#ArialMT-76"/>
     <use x="105.615234" xlink:href="#ArialMT-6f"/>
     <use x="161.230469" xlink:href="#ArialMT-6c"/>
     <use x="183.447266" xlink:href="#ArialMT-75"/>
     <use x="239.0625" xlink:href="#ArialMT-74"/>
     <use x="266.845703" xlink:href="#ArialMT-69"/>
     <use x="289.0625" xlink:href="#ArialMT-6f"/>
     <use x="344.677734" xlink:href="#ArialMT-6e"/>
     <use x="400.292969" xlink:href="#ArialMT-20"/>
     <use x="428.076172" xlink:href="#ArialMT-64"/>
     <use x="483.691406" xlink:href="#ArialMT-75"/>
     <use x="539.306641" xlink:href="#ArialMT-20"/>
     <use x="567.089844" xlink:href="#ArialMT-6c"/>
     <use x="589.306641" xlink:href="#ArialMT-6f"/>
     <use x="644.921875" xlink:href="#ArialMT-73"/>
     <use x="694.921875" xlink:href="#ArialMT-73"/>
     <use x="744.921875" xlink:href="#ArialMT-20"/>
     <use x="772.705078" xlink:href="#ArialMT-65"/>
     <use x="828.320312" xlink:href="#ArialMT-6e"/>
     <use x="883.935547" xlink:href="#ArialMT-20"/>
     <use x="911.71875" xlink:href="#ArialMT-66"/>
     <use x="939.501953" xlink:href="#ArialMT-6f"/>
     <use x="995.117188" xlink:href="#ArialMT-6e"/>
     <use x="1050.732422" xlink:href="#ArialMT-63"/>
     <use x="1100.732422" xlink:href="#ArialMT-74"/>
     <use x="1128.515625" xlink:href="#ArialMT-69"/>
     <use x="1150.732422" xlink:href="#ArialMT-6f"/>
     <use x="1206.347656" xlink:href="#ArialMT-6e"/>
     <use x="1261.962891" xlink:href="#ArialMT-20"/>
     <use x="1289.746094" xlink:href="#ArialMT-64"/>
     <use x="1345.361328" xlink:href="#ArialMT-75"/>
     <use x="1400.976562" xlink:href="#ArialMT-20"/>
     <use x="1428.759766" xlink:href="#ArialMT-6e"/>
     <use x="1484.375" xlink:href="#ArialMT-6f"/>
     <use x="1539.990234" xlink:href="#ArialMT-6d"/>
     <use x="1623.291016" xlink:href="#ArialMT-62"/>
     <use x="1678.90625" xlink:href="#ArialMT-72"/>
     <use x="1712.207031" xlink:href="#ArialMT-65"/>
     <use x="1767.822266" xlink:href="#ArialMT-20"/>
     <use x="1795.605469" xlink:href="#ArialMT-64"/>
     <use x="1851.220703" xlink:href="#ArialMT-27"/>
     <use x="1870.3125" xlink:href="#ArialMT-65"/>
     <use x="1925.927734" xlink:href="#ArialMT-70"/>
     <use x="1981.542969" xlink:href="#ArialMT-6f"/>
     <use x="2037.158203" xlink:href="#ArialMT-63"/>
     <use x="2087.158203" xlink:href="#ArialMT-68"/>
    </g>
   </g>
  </g>
  <g id="text_34">
   <!-- Initialisation avec auto encoder - MNIST -->
   <defs>
    <path d="M 9.328125 0 
L 9.328125 71.578125 
L 18.796875 71.578125 
L 18.796875 0 
z
" id="ArialMT-49"/>
    <path d="M 3.171875 21.484375 
L 3.171875 30.328125 
L 30.171875 30.328125 
L 30.171875 21.484375 
z
" id="ArialMT-2d"/>
    <path d="M 7.421875 0 
L 7.421875 71.578125 
L 21.6875 71.578125 
L 38.625 20.90625 
Q 40.96875 13.8125 42.046875 10.296875 
Q 43.265625 14.203125 45.84375 21.78125 
L 62.984375 71.578125 
L 75.734375 71.578125 
L 75.734375 0 
L 66.609375 0 
L 66.609375 59.90625 
L 45.796875 0 
L 37.25 0 
L 16.546875 60.9375 
L 16.546875 0 
z
" id="ArialMT-4d"/>
    <path d="M 7.625 0 
L 7.625 71.578125 
L 17.328125 71.578125 
L 54.9375 15.375 
L 54.9375 71.578125 
L 64.015625 71.578125 
L 64.015625 0 
L 54.296875 0 
L 16.703125 56.25 
L 16.703125 0 
z
" id="ArialMT-4e"/>
    <path d="M 4.5 23 
L 13.421875 23.78125 
Q 14.0625 18.40625 16.375 14.96875 
Q 18.703125 11.53125 23.578125 9.40625 
Q 28.46875 7.28125 34.578125 7.28125 
Q 39.984375 7.28125 44.140625 8.890625 
Q 48.296875 10.5 50.3125 13.296875 
Q 52.34375 16.109375 52.34375 19.4375 
Q 52.34375 22.796875 50.390625 25.3125 
Q 48.4375 27.828125 43.953125 29.546875 
Q 41.0625 30.671875 31.203125 33.03125 
Q 21.34375 35.40625 17.390625 37.5 
Q 12.25 40.1875 9.734375 44.15625 
Q 7.234375 48.140625 7.234375 53.078125 
Q 7.234375 58.5 10.296875 63.203125 
Q 13.375 67.921875 19.28125 70.359375 
Q 25.203125 72.796875 32.421875 72.796875 
Q 40.375 72.796875 46.453125 70.234375 
Q 52.546875 67.671875 55.8125 62.6875 
Q 59.078125 57.71875 59.328125 51.421875 
L 50.25 50.734375 
Q 49.515625 57.515625 45.28125 60.984375 
Q 41.0625 64.453125 32.8125 64.453125 
Q 24.21875 64.453125 20.28125 61.296875 
Q 16.359375 58.15625 16.359375 53.71875 
Q 16.359375 49.859375 19.140625 47.359375 
Q 21.875 44.875 33.421875 42.265625 
Q 44.96875 39.65625 49.265625 37.703125 
Q 55.515625 34.8125 58.484375 30.390625 
Q 61.46875 25.984375 61.46875 20.21875 
Q 61.46875 14.5 58.203125 9.4375 
Q 54.9375 4.390625 48.796875 1.578125 
Q 42.671875 -1.21875 35.015625 -1.21875 
Q 25.296875 -1.21875 18.71875 1.609375 
Q 12.15625 4.4375 8.421875 10.125 
Q 4.6875 15.828125 4.5 23 
z
" id="ArialMT-53"/>
    <path d="M 25.921875 0 
L 25.921875 63.140625 
L 2.34375 63.140625 
L 2.34375 71.578125 
L 59.078125 71.578125 
L 59.078125 63.140625 
L 35.40625 63.140625 
L 35.40625 0 
z
" id="ArialMT-54"/>
   </defs>
   <g style="fill:#262626;" transform="translate(278.324844 18.6525)scale(0.16 -0.16)">
    <use xlink:href="#ArialMT-49"/>
    <use x="27.783203" xlink:href="#ArialMT-6e"/>
    <use x="83.398438" xlink:href="#ArialMT-69"/>
    <use x="105.615234" xlink:href="#ArialMT-74"/>
    <use x="133.398438" xlink:href="#ArialMT-69"/>
    <use x="155.615234" xlink:href="#ArialMT-61"/>
    <use x="211.230469" xlink:href="#ArialMT-6c"/>
    <use x="233.447266" xlink:href="#ArialMT-69"/>
    <use x="255.664062" xlink:href="#ArialMT-73"/>
    <use x="305.664062" xlink:href="#ArialMT-61"/>
    <use x="361.279297" xlink:href="#ArialMT-74"/>
    <use x="389.0625" xlink:href="#ArialMT-69"/>
    <use x="411.279297" xlink:href="#ArialMT-6f"/>
    <use x="466.894531" xlink:href="#ArialMT-6e"/>
    <use x="522.509766" xlink:href="#ArialMT-20"/>
    <use x="550.292969" xlink:href="#ArialMT-61"/>
    <use x="605.908203" xlink:href="#ArialMT-76"/>
    <use x="655.908203" xlink:href="#ArialMT-65"/>
    <use x="711.523438" xlink:href="#ArialMT-63"/>
    <use x="761.523438" xlink:href="#ArialMT-20"/>
    <use x="789.306641" xlink:href="#ArialMT-61"/>
    <use x="844.921875" xlink:href="#ArialMT-75"/>
    <use x="900.537109" xlink:href="#ArialMT-74"/>
    <use x="928.320312" xlink:href="#ArialMT-6f"/>
    <use x="983.935547" xlink:href="#ArialMT-20"/>
    <use x="1011.71875" xlink:href="#ArialMT-65"/>
    <use x="1067.333984" xlink:href="#ArialMT-6e"/>
    <use x="1122.949219" xlink:href="#ArialMT-63"/>
    <use x="1172.949219" xlink:href="#ArialMT-6f"/>
    <use x="1228.564453" xlink:href="#ArialMT-64"/>
    <use x="1284.179688" xlink:href="#ArialMT-65"/>
    <use x="1339.794922" xlink:href="#ArialMT-72"/>
    <use x="1373.095703" xlink:href="#ArialMT-20"/>
    <use x="1400.878906" xlink:href="#ArialMT-2d"/>
    <use x="1434.179688" xlink:href="#ArialMT-20"/>
    <use x="1461.962891" xlink:href="#ArialMT-4d"/>
    <use x="1545.263672" xlink:href="#ArialMT-4e"/>
    <use x="1617.480469" xlink:href="#ArialMT-49"/>
    <use x="1645.263672" xlink:href="#ArialMT-53"/>
    <use x="1711.962891" xlink:href="#ArialMT-54"/>
   </g>
  </g>
 </g>
 <defs>
  <clipPath id="p1391f2ccbe">
   <rect height="326.16" width="355.090909" x="42.159844" y="50.4"/>
  </clipPath>
  <clipPath id="p8fd8f49b80">
   <rect height="326.16" width="355.090909" x="468.268935" y="50.4"/>
  </clipPath>
 </defs>
</svg>
